<svg width="170" height="168" viewBox="0 0 170 168" fill="none" xmlns="http://www.w3.org/2000/svg">
<path fill-rule="evenodd" clip-rule="evenodd" d="M52.3501 96.7236V95.7503C54.517 95.4799 54.8421 95.2095 54.3816 93.8576C53.9211 92.5058 53.244 90.6673 52.4856 88.5584H45.1453C44.6035 90.0995 44.0889 91.5595 43.6284 92.9925C42.87 95.1554 43.168 95.5069 45.7682 95.7503V96.7236H38.2925V95.7503C40.4594 95.4528 40.9469 95.2365 42.1387 92.2084L49.2623 74.1475L50.3187 73.8501C52.4585 79.7713 54.7608 86.2872 56.9819 92.2895C58.0924 95.2365 58.5258 95.561 60.7739 95.7503V96.7236H52.3501ZM48.9644 78.3112H48.8831C47.7726 81.2583 46.6892 84.2594 45.6328 87.0713H51.9709L48.9644 78.3112Z" fill="#FAF9F7"/>
<path fill-rule="evenodd" clip-rule="evenodd" d="M65.6496 89.5307C64.187 91.3692 62.5618 91.8018 61.8305 91.8018C58.9594 91.8018 57.2529 89.4766 57.2529 86.827C57.2529 85.2047 57.8488 83.7988 58.7968 82.7444C59.7448 81.6629 61.0179 81.041 62.2368 81.041C64.187 81.041 65.758 82.7714 65.758 84.5829C65.758 85.0425 65.6496 85.2318 65.2162 85.3399C64.8099 85.421 61.8846 85.6373 59.0948 85.7455C59.1219 88.9359 60.9366 90.2337 62.5889 90.2337C63.5369 90.2337 64.4037 89.8552 65.2704 89.0711L65.6496 89.5307ZM59.2302 84.7722C60.5303 84.7722 61.8305 84.7451 63.1848 84.691C63.6182 84.691 63.7536 84.5559 63.7536 84.2314C63.7807 83.0147 62.9681 81.9062 61.695 81.9062C60.6116 81.9062 59.5823 82.8795 59.2302 84.7722Z" fill="#FAF9F7"/>
<path fill-rule="evenodd" clip-rule="evenodd" d="M72.8811 84.07C72.4477 82.6911 71.608 81.7448 70.4704 81.7448C69.5766 81.7448 68.9536 82.4477 68.9536 83.367C68.9536 84.4215 69.9016 84.9622 70.9309 85.3948C72.6915 86.1248 73.8832 86.963 73.8832 88.5852C73.8832 90.7211 71.906 91.8026 70.0099 91.8026C68.8182 91.8026 67.7347 91.37 67.3284 91.0185C67.1659 90.6941 66.9492 89.0989 66.9492 88.2608L67.5451 88.1526C67.9785 89.6937 69.0078 91.0456 70.4162 91.0456C71.283 91.0456 72.0685 90.3967 72.0685 89.4234C72.0685 88.3959 71.3913 87.8282 70.2266 87.2874C68.8182 86.6385 67.3013 85.8544 67.3013 84.07C67.3013 82.4477 68.7098 81.0688 70.8496 81.0688C71.7976 81.0688 72.4477 81.2851 72.9352 81.4744C73.1248 82.0152 73.3686 83.394 73.4499 83.9618L72.8811 84.07Z" fill="#FAF9F7"/>
<path fill-rule="evenodd" clip-rule="evenodd" d="M79.2739 91.5054C78.8676 91.7217 78.4884 91.8028 78.2988 91.8028C76.8361 91.8028 75.9965 90.8565 75.9965 89.0179V82.2316H74.3713L74.29 81.9883L74.913 81.3123H75.9965V79.609L77.5133 78.0679L77.8383 78.1219V81.3123H80.4927C80.7094 81.5557 80.6282 82.0694 80.3573 82.2316H77.8654V88.2339C77.8654 90.1265 78.6509 90.478 79.2197 90.478C79.8156 90.478 80.3302 90.2346 80.6823 90.0724L80.899 90.6672L79.2739 91.5054Z" fill="#FAF9F7"/>
<path fill-rule="evenodd" clip-rule="evenodd" d="M88.2125 91.532V90.9372C89.5668 90.802 89.7564 90.6668 89.7564 89.1257V85.2594C89.7564 83.3397 89.0251 82.3934 87.4541 82.3934C86.5602 82.3934 85.6664 82.826 85.0163 83.5831V89.1527C85.0163 90.6398 85.1247 90.802 86.5061 90.9642V91.5591H81.5493V90.9642C82.9578 90.8561 83.1745 90.6939 83.1745 89.1527V78.0134C83.1745 76.5534 83.1203 76.4182 81.5764 76.283V75.7423C82.6869 75.58 84.0954 75.2015 85.0163 74.9312V82.7719C85.8289 81.9338 87.102 81.0686 88.375 81.0686C90.271 81.0686 91.5982 82.2582 91.5982 85.0701V89.1527C91.5982 90.6939 91.7608 90.829 93.1421 90.9642V91.5591H88.2125V91.532Z" fill="#FAF9F7"/>
<path fill-rule="evenodd" clip-rule="evenodd" d="M101.593 89.5307C100.13 91.3692 98.5052 91.8018 97.7738 91.8018C94.9027 91.8018 93.1963 89.4766 93.1963 86.827C93.1963 85.2047 93.7922 83.7988 94.7402 82.7444C95.6882 81.6629 96.9613 81.041 98.1801 81.041C100.13 81.041 101.701 82.7714 101.701 84.5829C101.701 85.0425 101.593 85.2318 101.16 85.3399C100.753 85.421 97.828 85.6373 95.0381 85.7455C95.0652 88.9359 96.88 90.2337 98.5322 90.2337C99.4803 90.2337 100.347 89.8552 101.214 89.0711L101.593 89.5307ZM95.1736 84.7722C96.4737 84.7722 97.7738 84.7451 99.1281 84.691C99.5615 84.691 99.6969 84.5559 99.6969 84.2314C99.724 83.0147 98.9114 81.9062 97.6384 81.9062C96.555 81.9062 95.5257 82.8795 95.1736 84.7722Z" fill="#FAF9F7"/>
<path fill-rule="evenodd" clip-rule="evenodd" d="M107.335 91.5054C106.929 91.7217 106.549 91.8028 106.36 91.8028C104.897 91.8028 104.057 90.8565 104.057 89.0179V82.2316H102.432L102.351 81.9883L102.974 81.3123H104.057V79.609L105.574 78.0679L105.899 78.1219V81.3123H108.554C108.77 81.5557 108.689 82.0694 108.418 82.2316H105.926V88.2339C105.926 90.1265 106.685 90.478 107.281 90.478C107.877 90.478 108.391 90.2346 108.743 90.0724L108.96 90.6672L107.335 91.5054Z" fill="#FAF9F7"/>
<path fill-rule="evenodd" clip-rule="evenodd" d="M109.718 91.5315V90.9367C111.181 90.8015 111.343 90.6663 111.343 89.0711V84.2585C111.343 82.7985 111.262 82.7173 109.881 82.474V81.9062C111.073 81.717 112.183 81.4196 113.212 80.987V89.0441C113.212 90.6393 113.375 90.7744 114.865 90.9096V91.5044H109.718V91.5315ZM110.964 77.8236C110.964 77.1206 111.533 76.6069 112.156 76.6069C112.806 76.6069 113.321 77.1206 113.321 77.8236C113.321 78.4455 112.806 79.0132 112.129 79.0132C111.506 79.0132 110.964 78.4455 110.964 77.8236Z" fill="#FAF9F7"/>
<path fill-rule="evenodd" clip-rule="evenodd" d="M123.505 89.4226C122.476 90.7744 120.905 91.8018 119.524 91.8018C116.571 91.8018 114.838 89.4226 114.838 86.9081C114.838 85.0966 115.623 83.5555 117.167 82.3388C118.386 81.3925 119.795 81.041 120.688 81.041C121.636 81.041 122.395 81.3384 122.774 81.6358C123.072 81.9062 123.153 82.0955 123.153 82.3658C123.153 82.8525 122.639 83.3662 122.395 83.3662C122.287 83.3662 122.151 83.2851 121.962 83.0958C121.257 82.447 120.445 82.1495 119.632 82.1495C118.088 82.1495 116.734 83.4473 116.734 85.8807C116.734 89.1251 118.955 90.2066 120.255 90.2066C121.257 90.2066 122.043 89.9363 123.099 88.9088L123.505 89.4226Z" fill="#FAF9F7"/>
<path fill-rule="evenodd" clip-rule="evenodd" d="M130.493 84.07C130.06 82.6911 129.22 81.7448 128.083 81.7448C127.189 81.7448 126.566 82.4477 126.566 83.367C126.566 84.4215 127.514 84.9622 128.543 85.3948C130.304 86.1248 131.496 86.963 131.496 88.5852C131.496 90.7211 129.518 91.8026 127.622 91.8026C126.43 91.8026 125.347 91.37 124.941 91.0185C124.778 90.6941 124.562 89.0989 124.562 88.2608L125.157 88.1526C125.591 89.6937 126.62 91.0456 128.029 91.0456C128.895 91.0456 129.681 90.3967 129.681 89.4234C129.681 88.3959 129.004 87.8282 127.839 87.2874C126.43 86.6385 124.914 85.8544 124.914 84.07C124.914 82.4477 126.322 81.0688 128.462 81.0688C129.41 81.0688 130.06 81.2851 130.548 81.4744C130.737 82.0152 130.981 83.394 131.062 83.9618L130.493 84.07Z" fill="#FAF9F7"/>
<path d="M65.3903 156.978C66.2767 157.216 66.9906 157.615 67.532 158.174C68.0625 158.74 68.4105 159.418 68.576 160.209C68.7392 161.008 68.6959 161.871 68.4462 162.799C68.1987 163.718 67.8049 164.479 67.2647 165.08C66.7223 165.69 66.0794 166.107 65.3362 166.331C64.5844 166.553 63.7652 166.545 62.8788 166.307C61.8461 166.03 61.0741 165.556 60.5628 164.885C60.0405 164.22 59.8081 163.42 59.8656 162.487L61.0661 162.809C61.0535 163.405 61.2173 163.927 61.5574 164.378C61.8866 164.835 62.4126 165.16 63.1355 165.354C63.781 165.527 64.3851 165.528 64.948 165.356C65.5086 165.194 65.9974 164.869 66.4145 164.382C66.8207 163.901 67.1279 163.275 67.336 162.501C67.5441 161.728 67.5943 161.028 67.4864 160.4C67.3676 159.779 67.1077 159.253 66.7067 158.823C66.3034 158.402 65.779 158.105 65.1336 157.932C64.4107 157.738 63.7945 157.747 63.2849 157.961C62.7644 158.18 62.3613 158.547 62.0756 159.059L60.8751 158.737C61.2894 157.918 61.8894 157.352 62.6753 157.037C63.4526 156.721 64.3576 156.701 65.3903 156.978Z" fill="#FAF9F7"/>
<path d="M54.9947 153.559L51.1909 162.093L50.1651 161.637L53.6048 153.921L49.6235 152.152L49.9876 151.335L54.9947 153.559Z" fill="#FAF9F7"/>
<path d="M47.4429 149.8L42.7041 157.854L41.7359 157.286L46.4747 149.233L47.4429 149.8Z" fill="#FAF9F7"/>
<path d="M40.3528 145.296L34.5078 152.59L33.631 151.89L34.4219 142.936L29.7376 148.781L28.8608 148.081L34.7057 140.787L35.5825 141.487L34.7916 150.441L39.4759 144.596L40.3528 145.296Z" fill="#FAF9F7"/>
<path d="M30.4874 136.598L23.6567 142.981L22.8894 142.163L29.7201 135.78L30.4874 136.598Z" fill="#FAF9F7"/>
<path d="M22.7407 126.818C23.2703 127.567 23.5642 128.329 23.6223 129.105C23.668 129.878 23.5015 130.622 23.1228 131.336C22.7368 132.054 22.1507 132.691 21.3647 133.245C20.5859 133.794 19.7964 134.128 18.996 134.246C18.1884 134.369 17.4269 134.28 16.7116 133.978C15.9912 133.669 15.3661 133.141 14.8365 132.392C14.2195 131.521 13.9293 130.663 13.9658 129.821C13.9898 128.976 14.3227 128.213 14.9644 127.532L15.6817 128.545C15.2909 128.995 15.0821 129.502 15.0553 130.065C15.0161 130.627 15.2125 131.212 15.6444 131.823C16.0301 132.368 16.4942 132.754 17.0369 132.981C17.5723 133.213 18.1562 133.275 18.7887 133.167C19.4088 133.056 20.0463 132.77 20.7014 132.308C21.3564 131.846 21.8434 131.339 22.1622 130.788C22.4686 130.234 22.6052 129.664 22.572 129.077C22.5315 128.496 22.3185 127.933 21.9328 127.388C21.5009 126.778 21.0207 126.392 20.4922 126.231C19.9512 126.068 19.4067 126.093 18.8586 126.305L18.1414 125.292C18.9844 124.926 19.8088 124.873 20.6144 125.132C21.4149 125.385 22.1237 125.947 22.7407 126.818Z" fill="#FAF9F7"/>
<path d="M18.642 120.55L8.71918 121.539L8.19886 120.471L15.1108 113.302L15.6311 114.37L13.8416 116.189L15.5838 119.764L18.1275 119.494L18.642 120.55ZM14.6202 119.861L13.1703 116.885L9.73613 120.392L14.6202 119.861Z" fill="#FAF9F7"/>
<path d="M13.57 108.812L4.67432 111.708L4.32615 110.642L12.3704 108.023L11.0192 103.888L11.8706 103.611L13.57 108.812Z" fill="#FAF9F7"/>
<path d="M9.96623 93.0008L0.403778 90.1767L0.32595 88.9918L9.43804 84.959L9.51587 86.1439L7.17094 87.1532L7.43153 91.1208L9.88927 91.8291L9.96623 93.0008ZM6.50266 90.8473L6.28579 87.5454L1.77916 89.4984L6.50266 90.8473Z" fill="#FAF9F7"/>
<path d="M9.63997 80.2579L0.333008 79.2944L0.628411 76.4409C0.797867 74.804 1.33904 73.6438 2.25192 72.9603C3.16572 72.2679 4.34945 71.9969 5.80311 72.1474C7.23018 72.2951 8.32001 72.8015 9.0726 73.6663C9.81724 74.5215 10.1048 75.7675 9.93537 77.4044L9.63997 80.2579ZM8.82469 79.0467L9.00193 77.3346C9.09536 76.4321 9.0233 75.7002 8.78575 75.1391C8.54026 74.5681 8.15465 74.1392 7.62891 73.8523C7.0943 73.5644 6.44586 73.381 5.68358 73.3021C4.90356 73.2213 4.22244 73.2671 3.64021 73.4393C3.05798 73.6116 2.58824 73.952 2.23099 74.4605C1.87467 74.9602 1.64979 75.6613 1.55636 76.5638L1.37912 78.2759L8.82469 79.0467Z" fill="#FAF9F7"/>
<path d="M12.3366 64.5761L2.37939 65.4492L2.70593 64.2796L11.3664 63.6275L4.29913 58.5728L4.61848 57.4289L12.6882 63.3165L12.3366 64.5761Z" fill="#FAF9F7"/>
<path d="M15.4165 55.7086L6.83203 51.9927L7.27875 50.9644L15.8632 54.6803L15.4165 55.7086Z" fill="#FAF9F7"/>
<path d="M20.7418 45.6717C20.3888 46.2591 19.9747 46.7061 19.4995 47.0127C19.0242 47.3194 18.5245 47.4766 18.0003 47.4843C17.4761 47.4919 16.9618 47.3448 16.4574 47.0428L17.0625 46.0359C17.3758 46.2235 17.7098 46.3249 18.0643 46.3401C18.4113 46.3508 18.7475 46.2668 19.073 46.0883C19.3954 45.8976 19.6804 45.5963 19.928 45.1844C20.2534 44.6428 20.3756 44.1454 20.2946 43.6924C20.2136 43.2393 19.9782 42.8961 19.5884 42.6627C19.2675 42.4705 18.9702 42.3859 18.6967 42.4088C18.4155 42.4271 18.1427 42.5179 17.8783 42.6812C17.6185 42.8368 17.3511 43.0397 17.076 43.2899C16.8055 43.5325 16.5144 43.7835 16.2027 44.0429C15.6174 44.5326 15.0787 44.8324 14.5866 44.9423C14.0869 45.0476 13.581 44.947 13.069 44.6404C12.6365 44.3918 12.3178 44.0661 12.113 43.6634C11.9005 43.2561 11.8149 42.8107 11.8561 42.3271C11.8942 41.8313 12.0692 41.324 12.3809 40.8053C12.688 40.2942 13.0494 39.909 13.4651 39.6496C13.8854 39.3826 14.3255 39.2468 14.7855 39.2422C15.2501 39.2299 15.6987 39.3481 16.1312 39.5967L15.5261 40.6036C15.3045 40.4709 15.0523 40.3977 14.7696 40.384C14.4792 40.3658 14.1942 40.4337 13.9145 40.5878C13.6394 40.7342 13.3965 40.9829 13.1856 41.3338C12.9167 41.764 12.812 42.1889 12.8717 42.6084C12.9359 43.0203 13.1705 43.3475 13.5755 43.59C13.9194 43.7959 14.2403 43.8585 14.5384 43.7776C14.8409 43.6891 15.1588 43.506 15.4919 43.2283C15.8174 42.946 16.1941 42.6218 16.622 42.2557C16.9888 41.9566 17.3555 41.7095 17.7223 41.5142C18.0891 41.3189 18.4681 41.2242 18.8593 41.2303C19.2551 41.2287 19.6785 41.363 20.1294 41.6329C20.5114 41.8617 20.8148 42.1782 21.0395 42.5825C21.2566 42.9821 21.3506 43.4482 21.3216 43.9806C21.2972 44.5054 21.104 45.0691 20.7418 45.6717Z" fill="#FAF9F7"/>
<path d="M28.1061 35.626C27.5129 36.3251 26.8387 36.8101 26.0835 37.0809C25.3272 37.3391 24.5436 37.3818 23.7326 37.2091C22.9273 37.0296 22.1609 36.6323 21.4332 36.0171C20.7056 35.402 20.1902 34.7157 19.887 33.9581C19.5828 33.1881 19.4961 32.4095 19.6267 31.6223C19.7631 30.8284 20.1279 30.0819 20.7211 29.3827C21.3201 28.6768 21.9977 28.1947 22.754 27.9365C23.516 27.6715 24.2996 27.6287 25.1049 27.8082C25.9034 27.982 26.6664 28.3765 27.394 28.9916C28.1217 29.6067 28.6404 30.2959 28.9504 31.0592C29.2604 31.8225 29.3472 32.6011 29.2108 33.395C29.0733 34.1764 28.7051 34.92 28.1061 35.626ZM27.3513 34.9879C27.7948 34.4652 28.0679 33.9093 28.1708 33.3201C28.2725 32.7184 28.198 32.125 27.9471 31.5398C27.6951 30.9422 27.2631 30.3846 26.6511 29.8672C26.0391 29.3498 25.4204 29.0192 24.7952 28.8753C24.1757 28.7246 23.5804 28.7517 23.0094 28.9567C22.4374 29.1492 21.9296 29.5068 21.4861 30.0295C21.0427 30.5522 20.7701 31.1143 20.6683 31.716C20.5654 32.3052 20.6366 32.8957 20.8818 33.4877C21.1327 34.0728 21.5642 34.6241 22.1762 35.1415C22.7882 35.6589 23.4074 35.9958 24.0337 36.1523C24.6589 36.2962 25.2576 36.2719 25.8296 36.0794C26.4006 35.8744 26.9079 35.5105 27.3513 34.9879Z" fill="#FAF9F7"/>
<path d="M34.1985 29.1576L28.0854 22.0864L30.3725 20.1163C30.9258 19.6398 31.4564 19.3414 31.9644 19.221C32.4724 19.1006 32.9476 19.1261 33.3899 19.2973C33.8322 19.4685 34.2192 19.7461 34.5511 20.1299C34.9353 20.5744 35.1603 21.0797 35.226 21.6458C35.2984 22.2062 35.1457 22.7783 34.7678 23.3624L38.9447 25.0692L37.9428 25.9322L33.982 24.2507L33.9213 24.303L32.5247 25.506L35.0486 28.4253L34.1985 29.1576ZM31.9484 24.8392L33.3247 23.6537C33.8712 23.183 34.1557 22.7088 34.1782 22.2311C34.2008 21.7535 34.0345 21.3092 33.6794 20.8984C33.3184 20.4809 32.9083 20.2584 32.4491 20.231C31.9908 20.191 31.4817 20.4122 30.9217 20.8946L29.5556 22.0714L31.9484 24.8392Z" fill="#FAF9F7"/>
<path d="M49.5328 18.4283L45.3086 10.0942L50.3896 7.52813L50.806 8.34963L46.7269 10.4097L48.2114 13.3386L51.6822 11.5857L52.0926 12.3953L48.6217 14.1482L50.5347 17.9223L49.5328 18.4283Z" fill="#FAF9F7"/>
<path d="M62.1134 13.351C61.2417 13.6379 60.413 13.6999 59.6273 13.5371C58.8472 13.3629 58.1566 12.9908 57.5554 12.4206C56.9627 11.8477 56.517 11.1093 56.2184 10.2053C55.9198 9.30143 55.8395 8.44744 55.9773 7.64338C56.1209 6.8281 56.4543 6.11891 56.9776 5.51582C57.5094 4.90994 58.2111 4.46355 59.0828 4.17664C59.9629 3.88694 60.793 3.82915 61.5731 4.00326C62.3616 4.17459 63.0522 4.54672 63.6449 5.11967C64.2349 5.68416 64.6791 6.41837 64.9777 7.32229C65.2763 8.22621 65.3581 9.08442 65.223 9.89693C65.0879 10.7094 64.7545 11.4186 64.2227 12.0245C63.6966 12.6191 62.9935 13.0613 62.1134 13.351ZM61.8036 12.4133C62.4553 12.1988 62.9791 11.8672 63.3751 11.4184C63.7767 10.9584 64.0237 10.4134 64.1159 9.78364C64.2138 9.14261 64.1371 8.44194 63.886 7.68163C63.6348 6.92132 63.2803 6.3168 62.8224 5.86806C62.373 5.41654 61.8512 5.12934 61.257 5.00646C60.6685 4.87234 60.0484 4.91253 59.3967 5.12702C58.7451 5.34151 58.2184 5.67876 57.8168 6.13879C57.4208 6.58758 57.1724 7.12826 57.0718 7.76085C56.9795 8.39065 57.059 9.0857 57.3102 9.84601C57.5613 10.6063 57.913 11.2165 58.3652 11.6764C58.8231 12.1252 59.3463 12.4166 59.9348 12.5507C60.529 12.6736 61.1519 12.6278 61.8036 12.4133Z" fill="#FAF9F7"/>
<path d="M70.6938 11.0121L69.1812 1.79492L72.1623 1.30742C72.8835 1.1895 73.4921 1.21166 73.9883 1.37389C74.4845 1.53613 74.8764 1.80556 75.1639 2.18218C75.4515 2.55881 75.6363 2.9973 75.7185 3.49766C75.8135 4.07703 75.741 4.62522 75.5007 5.14223C75.2693 5.65781 74.8396 6.06609 74.2118 6.36706L76.8805 10.0004L75.5745 10.214L73.0769 6.71489L72.9977 6.72784L71.1774 7.02551L71.8019 10.8309L70.6938 11.0121ZM71.0347 6.15647L72.8287 5.8631C73.5411 5.74662 74.0318 5.4906 74.301 5.09504C74.5702 4.69948 74.6609 4.23397 74.573 3.6985C74.4837 3.15424 74.2504 2.75072 73.8731 2.48791C73.5032 2.21488 72.9533 2.13805 72.2234 2.25741L70.4426 2.54861L71.0347 6.15647Z" fill="#FAF9F7"/>
<path d="M88.777 9.75729L93.1419 0.807281L94.3256 0.925746L96.8104 10.5613L95.6267 10.4428L95.0155 7.96786L91.052 7.5712L89.9474 9.87442L88.777 9.75729ZM91.4752 6.70169L94.7736 7.0318L93.5858 2.27314L91.4752 6.70169Z" fill="#FAF9F7"/>
<path d="M101.427 11.5552L103.853 2.53467L109.443 4.03279L109.204 4.92196L104.698 3.71446L103.853 6.85877L107.971 7.96247L107.735 8.83875L103.617 7.73505L102.75 10.9567L107.256 12.1642L107.017 13.0533L101.427 11.5552Z" fill="#FAF9F7"/>
<path d="M115.712 16.593C115.085 16.3147 114.59 15.9588 114.227 15.5252C113.865 15.0916 113.648 14.6155 113.576 14.0971C113.505 13.5787 113.589 13.0512 113.828 12.5148L114.902 12.9919C114.754 13.3251 114.694 13.6683 114.722 14.0215C114.753 14.3665 114.878 14.6894 115.095 14.9902C115.324 15.2865 115.658 15.5322 116.098 15.7274C116.676 15.984 117.185 16.0446 117.626 15.9093C118.066 15.7739 118.379 15.4989 118.564 15.0844C118.716 14.743 118.764 14.4382 118.708 14.17C118.655 13.8936 118.532 13.6344 118.337 13.3923C118.151 13.1538 117.917 12.9135 117.635 12.6714C117.36 12.4329 117.076 12.175 116.78 11.8976C116.222 11.3773 115.858 10.88 115.689 10.4058C115.523 9.92348 115.562 9.41003 115.805 8.86546C115.999 8.40669 116.284 8.05135 116.66 7.79944C117.039 7.53941 117.471 7.40041 117.957 7.38245C118.455 7.35997 118.981 7.47162 119.534 7.7174C120.08 7.95957 120.507 8.2708 120.815 8.6511C121.132 9.03502 121.321 9.45458 121.381 9.9098C121.45 10.3686 121.387 10.8274 121.192 11.2862L120.117 10.8091C120.222 10.5734 120.264 10.3146 120.244 10.0328C120.227 9.74292 120.124 9.46879 119.937 9.21044C119.758 8.9557 119.481 8.74521 119.107 8.57894C118.646 8.3648 118.211 8.31277 117.801 8.42287C117.399 8.53659 117.102 8.80883 116.911 9.23961C116.748 9.60536 116.724 9.93095 116.841 10.2164C116.966 10.5054 117.187 10.7981 117.503 11.0944C117.824 11.3826 118.192 11.7164 118.608 12.0958C118.95 12.4228 119.24 12.7562 119.479 13.0958C119.718 13.4354 119.858 13.7995 119.899 14.1878C119.949 14.5798 119.867 15.0156 119.654 15.4951C119.472 15.9015 119.195 16.2406 118.82 16.5124C118.449 16.776 117.997 16.9259 117.464 16.9619C116.939 17.0015 116.355 16.8786 115.712 16.593Z" fill="#FAF9F7"/>
<path d="M124.981 21.4259L129.476 14.3018L127.112 12.8156L127.604 12.0366L133.281 15.6063L132.79 16.3854L130.426 14.8992L125.931 22.0232L124.981 21.4259Z" fill="#FAF9F7"/>
<path d="M131.617 26.069L137.774 19.0361L138.619 19.7737L135.901 22.8782L139.555 26.0654L142.273 22.9608L143.119 23.6984L136.961 30.7313L136.116 29.9937L138.948 26.7586L135.295 23.5714L132.462 26.8066L131.617 26.069Z" fill="#FAF9F7"/>
<path d="M141.109 35.1327L148.361 29.231L152.018 33.7089L151.303 34.2907L148.355 30.6814L145.828 32.7386L148.522 36.0376L147.817 36.6109L145.123 33.3119L142.533 35.4196L145.481 39.0289L144.766 39.6106L141.109 35.1327Z" fill="#FAF9F7"/>
<path d="M149.492 46.8013L156.752 42.5154L155.33 40.1151L156.124 39.6465L159.539 45.4118L158.745 45.8805L157.323 43.4802L150.063 47.766L149.492 46.8013Z" fill="#FAF9F7"/>
<path d="M153.223 54.0231L161.808 50.3071L162.254 51.3354L153.67 55.0513L153.223 54.0231Z" fill="#FAF9F7"/>
<path d="M157.221 65.8349C156.974 64.9523 156.955 64.136 157.161 63.3859C157.379 62.6419 157.787 61.9976 158.384 61.4529C158.99 60.9057 159.756 60.5032 160.683 60.2453C161.602 59.9898 162.458 59.941 163.251 60.0989C164.053 60.2545 164.74 60.5943 165.312 61.1186C165.886 61.6514 166.297 62.3591 166.543 63.2417C166.83 64.2699 166.815 65.1746 166.496 65.9558C166.189 66.7431 165.618 67.3497 164.784 67.7756L164.45 66.5803C164.97 66.288 165.337 65.881 165.553 65.3595C165.779 64.8441 165.791 64.2265 165.59 63.5067C165.411 62.8641 165.104 62.3446 164.67 61.9483C164.244 61.5497 163.715 61.2951 163.083 61.1847C162.462 61.0805 161.765 61.1358 160.992 61.3507C160.22 61.5656 159.59 61.8792 159.104 62.2915C158.629 62.7099 158.308 63.2009 158.141 63.7643C157.983 64.3254 157.994 64.9272 158.174 65.5699C158.375 66.2896 158.697 66.8141 159.14 67.1432C159.595 67.4785 160.116 67.6383 160.703 67.6226L161.037 68.8179C160.12 68.8792 159.326 68.6522 158.654 68.1371C157.986 67.6306 157.508 66.8632 157.221 65.8349Z" fill="#FAF9F7"/>
<path d="M159.201 76.6832C159.122 76.0028 159.177 75.3965 159.367 74.8641C159.556 74.3317 159.856 73.9029 160.267 73.5777C160.677 73.2524 161.175 73.056 161.759 72.9882L161.895 74.1545C161.532 74.1966 161.205 74.3196 160.915 74.5234C160.633 74.7262 160.418 74.9974 160.269 75.337C160.13 75.6845 160.089 76.0968 160.144 76.5739C160.217 77.2012 160.424 77.6698 160.765 77.9795C161.106 78.2892 161.503 78.4178 161.954 78.3655C162.326 78.3224 162.613 78.2085 162.816 78.0238C163.028 77.838 163.188 77.6 163.298 77.3097C163.409 77.0282 163.497 76.7045 163.562 76.3388C163.628 75.9819 163.705 75.6058 163.794 75.2104C163.958 74.466 164.202 73.9004 164.525 73.5137C164.857 73.126 165.319 72.8978 165.912 72.829C166.407 72.7627 166.858 72.8268 167.267 73.0212C167.684 73.2146 168.024 73.5155 168.287 73.9238C168.559 74.3399 168.731 74.8484 168.801 75.4492C168.87 76.0412 168.819 76.5666 168.648 77.0252C168.478 77.4926 168.212 77.8682 167.85 78.1519C167.49 78.4445 167.062 78.6239 166.567 78.6903L166.431 77.5239C166.688 77.4942 166.933 77.3986 167.165 77.2374C167.406 77.0751 167.591 76.8477 167.718 76.5553C167.847 76.2718 167.887 75.9268 167.84 75.5203C167.79 75.0157 167.614 74.6153 167.31 74.3191C167.007 74.0318 166.622 73.9154 166.152 73.9698C165.754 74.016 165.462 74.1618 165.275 74.4074C165.089 74.6617 164.949 75.0003 164.855 75.4232C164.769 75.8451 164.669 76.3313 164.554 76.882C164.446 77.3423 164.306 77.7614 164.135 78.1395C163.963 78.5176 163.721 78.8233 163.407 79.0567C163.094 79.2989 162.677 79.4503 162.155 79.5109C161.712 79.5622 161.278 79.4961 160.853 79.3125C160.437 79.128 160.078 78.8159 159.775 78.3763C159.474 77.9456 159.283 77.3812 159.201 76.6832Z" fill="#FAF9F7"/>
<path d="M158.868 95.3886C158.976 94.5504 159.295 93.9232 159.825 93.507C160.355 93.0907 161.035 92.9359 161.866 93.0425L161.721 94.1674C161.252 94.1073 160.844 94.1715 160.497 94.36C160.149 94.5485 159.938 94.9295 159.864 95.503C159.793 96.0588 159.898 96.4625 160.18 96.7139C160.461 96.9742 160.831 97.1339 161.291 97.1929L168.118 98.0695L167.975 99.1811L161.147 98.3045C160.325 98.199 159.714 97.8873 159.314 97.3695C158.912 96.8606 158.764 96.2003 158.868 95.3886Z" fill="#FAF9F7"/>
<path d="M156.629 105.665C156.876 104.783 157.285 104.061 157.858 103.5C158.437 102.95 159.131 102.584 159.94 102.402C160.747 102.23 161.609 102.271 162.528 102.526C163.447 102.781 164.202 103.19 164.795 103.752C165.393 104.324 165.798 104.996 166.009 105.765C166.218 106.543 166.199 107.374 165.952 108.256C165.704 109.148 165.29 109.868 164.711 110.418C164.13 110.977 163.436 111.343 162.629 111.515C161.831 111.691 160.973 111.651 160.054 111.395C159.135 111.14 158.376 110.73 157.774 110.166C157.173 109.602 156.768 108.931 156.56 108.153C156.358 107.386 156.381 106.556 156.629 105.665ZM157.582 105.93C157.398 106.59 157.383 107.209 157.536 107.787C157.696 108.376 158.012 108.884 158.485 109.311C158.964 109.749 159.59 110.075 160.362 110.29C161.135 110.505 161.835 110.547 162.464 110.417C163.09 110.295 163.619 110.022 164.052 109.598C164.491 109.184 164.803 108.648 164.987 107.988C165.171 107.328 165.183 106.704 165.024 106.115C164.87 105.536 164.558 105.03 164.088 104.594C163.615 104.167 162.992 103.846 162.22 103.632C161.447 103.417 160.743 103.369 160.109 103.488C159.481 103.618 158.947 103.89 158.508 104.304C158.075 104.728 157.766 105.27 157.582 105.93Z" fill="#FAF9F7"/>
<path d="M152.252 117.057C152.529 116.479 152.894 116.007 153.346 115.642C153.802 115.288 154.339 115.085 154.956 115.035C155.573 114.985 156.255 115.138 157.002 115.495L162.332 118.042L161.847 119.052L156.506 116.5C155.686 116.109 154.997 116.021 154.438 116.238C153.88 116.454 153.449 116.879 153.145 117.513C152.841 118.147 152.782 118.745 152.967 119.307C153.152 119.868 153.654 120.345 154.474 120.737L159.815 123.289L159.331 124.3L154.001 121.754C153.254 121.396 152.706 120.962 152.359 120.451C152.011 119.94 151.834 119.392 151.828 118.807C151.83 118.226 151.971 117.643 152.252 117.057Z" fill="#FAF9F7"/>
<path d="M147.625 125.639L155.334 130.932L153.622 133.417C153.208 134.018 152.77 134.44 152.309 134.685C151.848 134.93 151.382 135.026 150.911 134.972C150.44 134.919 149.995 134.748 149.576 134.461C149.092 134.128 148.746 133.696 148.539 133.165C148.326 132.641 148.329 132.049 148.546 131.389L144.072 130.794L144.822 129.706L149.08 130.33L149.126 130.265L150.171 128.748L146.989 126.562L147.625 125.639ZM150.898 129.247L149.868 130.742C149.459 131.335 149.304 131.866 149.403 132.334C149.503 132.802 149.777 133.189 150.224 133.497C150.68 133.809 151.133 133.921 151.584 133.831C152.037 133.754 152.474 133.411 152.893 132.803L153.916 131.319L150.898 129.247Z" fill="#FAF9F7"/>
<path d="M141.467 133.872L148.257 140.298L147.485 141.111L138.613 139.573L144.055 144.723L143.282 145.537L136.492 139.111L137.264 138.297L146.136 139.835L140.694 134.686L141.467 133.872Z" fill="#FAF9F7"/>
<path d="M132.482 142.621L135.337 152.158L134.385 152.871L126.023 147.456L126.974 146.743L129.102 148.153L132.289 145.767L131.541 143.325L132.482 142.621ZM132.567 146.693L129.915 148.678L134.016 151.379L132.567 146.693Z" fill="#FAF9F7"/>
<path d="M121.897 149.817L126.433 157.986L125.451 158.53L121.349 151.142L117.538 153.251L117.104 152.469L121.897 149.817Z" fill="#FAF9F7"/>
<path d="M107.511 159.76L107.746 160.678L100.96 162.408L100.725 161.49L107.511 159.76Z" fill="#FAF9F7"/>
</svg>
