<svg width="56" height="33" viewBox="0 0 56 33" fill="none" xmlns="http://www.w3.org/2000/svg">
<g clip-path="url(#clip0_2461_21892)">
<path fill-rule="evenodd" clip-rule="evenodd" d="M38.1274 0.585938H54.4278V15.9333H38.1274V0.585938ZM48.3971 2.72333C48.3277 2.70889 48.2541 2.70312 48.1775 2.6829L48.0909 2.67279C47.9667 2.65546 47.8454 2.64246 47.7125 2.62946C47.6259 2.61935 47.5407 2.61646 47.4526 2.61213C47.2951 2.59913 47.1507 2.59625 47.002 2.59625C46.9355 2.59625 46.8937 2.59916 46.8272 2.59916C46.6987 2.59916 46.5817 2.61216 46.4691 2.61649C46.3997 2.6194 46.3319 2.6266 46.264 2.62949C46.1687 2.6396 46.0763 2.64682 45.9824 2.66703L45.8986 2.67277L45.8091 2.68288L45.7051 2.7031C45.6574 2.70884 45.6098 2.7161 45.565 2.73054C45.5015 2.7392 45.4365 2.74931 45.3729 2.76664C44.9902 2.84752 44.6263 2.95439 44.3057 3.08436C44.1309 3.15079 43.9634 3.22589 43.8118 3.30244C43.6789 3.36309 43.559 3.42953 43.4363 3.50029C43.3179 3.56383 43.2139 3.6346 43.0998 3.70103C43.0391 3.74724 42.9799 3.78768 42.9149 3.83101C42.8687 3.86856 42.8196 3.90177 42.7691 3.93932C42.668 4.01586 42.564 4.10252 42.4701 4.18339C42.3849 4.26282 42.3026 4.34081 42.2188 4.41735C42.1524 4.48379 42.0802 4.55166 42.021 4.63109C41.9502 4.70185 41.8867 4.77551 41.8246 4.85638C41.7552 4.93581 41.6946 5.01958 41.6325 5.11056C41.5791 5.1741 41.5386 5.24054 41.4938 5.3113C41.4592 5.35896 41.4317 5.40228 41.4072 5.44561C41.2324 5.72724 41.0866 6.02474 40.9609 6.33954C40.8079 6.73814 40.6981 7.16564 40.6374 7.61189C40.6216 7.75919 40.6086 7.90364 40.5984 8.05379C40.5898 8.16789 40.5869 8.28199 40.5869 8.39609C40.5869 8.48564 40.5869 8.57229 40.5898 8.65604C40.5985 8.74414 40.6086 8.82789 40.6187 8.92179L40.6216 8.98529C40.6375 9.08929 40.6519 9.18894 40.6722 9.29004C40.6823 9.33334 40.688 9.36659 40.6953 9.40989C40.7126 9.49079 40.7343 9.57019 40.7501 9.65399C40.7805 9.75794 40.8108 9.86194 40.8498 9.96734C40.8859 10.0901 40.935 10.2143 40.9827 10.3342C41.0621 10.5147 41.1487 10.6967 41.2383 10.87C41.2932 10.9682 41.3524 11.0635 41.4072 11.1617C41.4549 11.231 41.5054 11.3061 41.5488 11.3769C41.6123 11.4664 41.6802 11.5531 41.7466 11.6368C41.8131 11.7307 41.8867 11.8072 41.9575 11.8939C42.0427 11.9921 42.1279 12.0831 42.216 12.1654L42.2593 12.2102C42.3315 12.2766 42.4066 12.3503 42.4904 12.4311C42.5539 12.4773 42.6146 12.5308 42.6839 12.5842C42.7431 12.6319 42.8081 12.6824 42.8774 12.733C42.9626 12.7922 43.0464 12.8456 43.1374 12.9135C43.2399 12.9669 43.341 13.0334 43.4436 13.0969C43.6631 13.2139 43.8999 13.3352 44.1642 13.4392C44.2581 13.4796 44.3606 13.5128 44.4689 13.546C44.57 13.5865 44.6769 13.6197 44.7823 13.65C44.9729 13.7006 45.1722 13.754 45.3788 13.793C45.5434 13.8233 45.7225 13.8537 45.8987 13.871C46.0777 13.8941 46.2583 13.91 46.4489 13.9215C46.5457 13.9273 46.6395 13.9273 46.7334 13.9316H46.8706C47.2085 13.9316 47.5263 13.9215 47.8209 13.8941L47.8815 13.8869C47.9985 13.8811 48.1097 13.8681 48.2166 13.8536C48.3913 13.8305 48.543 13.8074 48.6961 13.7771C48.7928 13.767 48.8867 13.7439 48.9762 13.7237C49.1207 13.6933 49.2477 13.6601 49.3821 13.6269C49.4716 13.6024 49.5626 13.5764 49.6536 13.5489C49.759 13.5229 49.8543 13.4883 49.9539 13.4522L50.0478 13.4218C50.0955 13.406 50.159 13.3814 50.2312 13.3511C50.3294 13.315 50.4464 13.2716 50.5778 13.2081C50.6643 13.1778 50.7513 13.1344 50.8423 13.0969C50.9158 13.0565 51.0023 13.0175 51.0878 12.977C51.1208 12.9626 51.1598 12.9366 51.1933 12.9265V10.8295C51.1683 10.8469 51.1438 10.8642 51.1208 10.8801L50.9778 10.9609C50.8348 11.0548 50.6978 11.1314 50.5578 11.2093C50.406 11.2888 50.2543 11.3682 50.1085 11.4433C49.85 11.556 49.5987 11.6599 49.3633 11.7509C48.9026 11.9112 48.4881 12.0123 48.1198 12.0787C48.0722 12.086 48.0317 12.0961 47.9884 12.1033C47.8859 12.1148 47.7877 12.1293 47.6924 12.1394C47.5479 12.1567 47.4165 12.1625 47.2952 12.1654C47.2085 12.1697 47.1436 12.1769 47.0714 12.1769C46.924 12.1769 46.7666 12.1697 46.6121 12.1625C46.4301 12.1466 46.2482 12.1264 46.0561 12.0961C45.7543 12.0426 45.451 11.9646 45.1592 11.8607C45.1087 11.8448 45.0683 11.8275 45.0249 11.8072C44.9946 11.7986 44.9686 11.7885 44.9354 11.7711C44.8892 11.7509 44.8401 11.735 44.7924 11.7105C44.687 11.6599 44.5888 11.6065 44.4863 11.5502C44.4429 11.5198 44.3953 11.4938 44.3418 11.4664C44.2913 11.4332 44.2436 11.4029 44.1916 11.3653C44.1339 11.3292 44.0732 11.2787 44.014 11.2353C43.9562 11.192 43.8999 11.1386 43.8465 11.0981L43.7815 11.0346L43.7439 11.0043L43.7252 10.9884L43.7021 10.9609C43.6053 10.87 43.5201 10.7732 43.4378 10.6793C43.3959 10.6302 43.3583 10.5725 43.3121 10.519C43.2775 10.4656 43.2428 10.4179 43.2139 10.3645C43.1749 10.3139 43.1388 10.2677 43.1186 10.2143C43.0738 10.1435 43.0348 10.0728 42.993 9.99624C42.9684 9.93269 42.941 9.87204 42.9121 9.80849C42.8688 9.70449 42.8312 9.59474 42.8009 9.49799C42.7734 9.42434 42.7518 9.33624 42.7301 9.25969C42.681 9.04454 42.6507 8.84809 42.6319 8.67624C42.6204 8.60694 42.6204 8.54629 42.616 8.49284C42.6146 8.40909 42.6146 8.33829 42.6146 8.28199V8.15059C42.616 8.03069 42.632 7.87619 42.6507 7.70574C42.671 7.59889 42.6897 7.48769 42.7215 7.36784C42.7403 7.28694 42.7619 7.21329 42.7807 7.12954C42.8082 7.05589 42.8313 6.98224 42.8688 6.89844C42.8847 6.85224 42.9049 6.79879 42.9309 6.74824C42.9627 6.67749 42.993 6.60674 43.032 6.53739C43.0594 6.48109 43.0927 6.42764 43.1215 6.37279C43.1938 6.25579 43.2674 6.13594 43.3584 6.02184C43.3873 5.97129 43.4205 5.93519 43.4552 5.89039C43.4985 5.83989 43.5447 5.78064 43.5952 5.73299C43.6184 5.70699 43.6458 5.68099 43.6718 5.64924C44.0574 5.26508 44.4863 4.98346 44.9297 4.77839C44.999 4.7495 45.0726 4.71484 45.1391 4.68885C45.2156 4.65852 45.2821 4.63542 45.3571 4.60797C45.4265 4.58486 45.5073 4.56753 45.5882 4.54154C45.6575 4.51843 45.7399 4.5011 45.8092 4.48378C45.8843 4.4679 45.9623 4.45056 46.033 4.43757C46.1096 4.42457 46.1876 4.41446 46.2713 4.40002C46.3522 4.39136 46.4316 4.38414 46.5139 4.37691C46.6656 4.36391 46.8129 4.3538 46.9573 4.3538C47.0151 4.3538 47.0598 4.3538 47.1046 4.36103C47.2187 4.36103 47.3198 4.36395 47.4223 4.3697C47.4931 4.37693 47.5653 4.37693 47.6361 4.38414C47.7646 4.39714 47.8975 4.41447 48.0159 4.43758C48.1213 4.44769 48.2282 4.4679 48.3264 4.48379C48.4752 4.51412 48.6123 4.54733 48.7394 4.58488C48.8145 4.6051 48.8867 4.62099 48.9575 4.64554C49.0543 4.67442 49.1438 4.70186 49.2117 4.72208C49.3243 4.76541 49.3922 4.78851 49.3922 4.78851C49.4919 4.82606 49.5944 4.86938 49.6926 4.90982C49.8298 4.96037 49.954 5.0138 50.0753 5.07301C50.175 5.12067 50.2703 5.164 50.3627 5.20443C50.4364 5.24776 50.5071 5.28098 50.5723 5.31419C50.6863 5.37485 50.7843 5.43262 50.8653 5.46872L51.0733 5.5857V3.53351C51.0733 3.53351 50.9463 3.47719 50.7283 3.39342C50.6283 3.35876 50.5129 3.31833 50.38 3.27211C50.3063 3.24178 50.2312 3.21435 50.146 3.18835C50.081 3.16813 50.0175 3.14214 49.9482 3.12481C49.8673 3.09448 49.7937 3.06848 49.7056 3.03816C49.6449 3.02804 49.5842 3.00494 49.5164 2.98472L49.4586 2.97173C49.4023 2.9544 49.3416 2.93995 49.281 2.91685C49.2044 2.90385 49.1236 2.88074 49.0542 2.85619C49.0037 2.85045 48.9502 2.83741 48.8997 2.83019C48.8188 2.80998 48.7394 2.78687 48.6556 2.76954C48.5719 2.75654 48.4881 2.73921 48.3971 2.72332" fill="#A1A1AA"/>
<path fill-rule="evenodd" clip-rule="evenodd" d="M25.6001 9.07227V12.0863H27.5555C27.5555 12.0863 27.5945 12.082 27.6508 12.082C27.7259 12.0791 27.8169 12.0733 27.9339 12.0661C28.1404 12.0459 28.4234 12.0127 28.6978 11.9159C28.9419 11.835 29.1787 11.7108 29.3607 11.5274C29.4315 11.4566 29.4907 11.383 29.5412 11.3093C29.6885 11.0638 29.729 10.8198 29.7391 10.6797C29.7405 10.6219 29.7405 10.5858 29.7405 10.5858C29.7405 10.5858 29.7434 10.5598 29.7405 10.515C29.7405 10.4544 29.7362 10.3417 29.7015 10.2219C29.6683 10.076 29.599 9.91282 29.4748 9.75827C29.4503 9.73517 29.4214 9.70482 29.3954 9.67452C29.3434 9.62107 29.2871 9.57052 29.2235 9.51712C29.1138 9.44777 28.991 9.37412 28.8581 9.31927C28.6848 9.24272 28.4855 9.18637 28.2646 9.14307C28.1592 9.12282 28.0378 9.10262 27.9194 9.09827C27.8472 9.08527 27.775 9.08527 27.697 9.07952C27.6291 9.07227 27.5555 9.07227 27.4862 9.07227H25.6001Z" fill="#A1A1AA"/>
<path fill-rule="evenodd" clip-rule="evenodd" d="M25.6001 4.4873V7.34103H26.5431H26.6919C26.7626 7.34103 26.8305 7.34103 26.9027 7.33088C27.1006 7.31648 27.3706 7.28758 27.6364 7.21683C27.6927 7.19948 27.7476 7.18358 27.7952 7.16628C28.0075 7.08683 28.2068 6.98283 28.3729 6.82543C28.4956 6.70123 28.578 6.56403 28.6314 6.43263C28.7007 6.26508 28.7253 6.11203 28.731 5.99793C28.7412 5.89393 28.7412 5.84048 28.7412 5.84048C28.7412 5.84048 28.7412 5.78998 28.7383 5.71628C28.731 5.59208 28.7079 5.38847 28.6097 5.19784C28.5606 5.10108 28.4956 5.0101 28.4061 4.922C28.2978 4.82235 28.1721 4.7357 28.035 4.67505C27.7663 4.55374 27.4573 4.51185 27.2045 4.49741C27.0905 4.4873 26.9865 4.4873 26.9027 4.4873H25.6001Z" fill="#A1A1AA"/>
<path fill-rule="evenodd" clip-rule="evenodd" d="M19.3403 0.585938H35.6452V15.9333H19.3403V0.585938ZM23.6166 2.73922V13.793H27.7802C27.7802 13.793 29.8092 13.8436 30.927 12.7286C31.8383 11.8145 31.7733 10.7588 31.7733 10.7588C31.7733 10.7588 31.8383 9.66264 30.9949 8.81059C30.2728 8.09714 29.3572 7.90364 29.3572 7.90364C29.3572 7.90364 29.7717 7.71299 30.0894 7.38804C30.2382 7.23784 30.7696 6.76129 30.7696 5.60014C30.7696 4.42459 29.9869 3.74726 29.9869 3.74726C29.9869 3.74726 29.1305 2.73922 27.2039 2.73922H23.6166Z" fill="#A1A1AA"/>
<path fill-rule="evenodd" clip-rule="evenodd" d="M6.81104 9.07227V12.0863H8.76938C8.76938 12.0863 8.80693 12.082 8.87048 12.082C8.93398 12.0791 9.03079 12.0733 9.14629 12.0661C9.35569 12.0459 9.63299 12.0127 9.90739 11.9159C10.1514 11.835 10.3912 11.7108 10.5789 11.5274C10.6468 11.4566 10.7017 11.383 10.7522 11.3093C10.8995 11.0638 10.94 10.8198 10.9501 10.6797C10.9559 10.6219 10.9559 10.5858 10.9559 10.5858V10.515C10.9501 10.4544 10.9443 10.3417 10.9169 10.2219C10.8779 10.076 10.81 9.91282 10.6872 9.75827C10.6656 9.73517 10.6381 9.70482 10.6121 9.67452C10.5544 9.62107 10.498 9.57052 10.4374 9.51712C10.3262 9.44777 10.2034 9.37412 10.072 9.31927C9.89584 9.24272 9.69944 9.18637 9.47989 9.14307C9.37594 9.12282 9.25894 9.10262 9.13474 9.09827C9.06544 9.08527 8.98744 9.08527 8.91379 9.07952C8.84734 9.07227 8.77223 9.07227 8.70583 9.07227H6.81104Z" fill="#A1A1AA"/>
<path fill-rule="evenodd" clip-rule="evenodd" d="M6.81104 4.4873V7.34103H7.75844H7.90574C7.96929 7.34103 8.05304 7.34103 8.11949 7.33088C8.31159 7.31648 8.58594 7.28758 8.85314 7.21683C8.90659 7.19948 8.95424 7.18358 9.01054 7.16628C9.21994 7.08683 9.42359 6.98283 9.57954 6.82543C9.70519 6.70123 9.78753 6.56403 9.84528 6.43263C9.90883 6.26508 9.93774 6.11203 9.94494 5.99793C9.95504 5.89393 9.95504 5.84048 9.95504 5.84048V5.71628C9.94494 5.59208 9.92184 5.38847 9.82364 5.19784C9.77454 5.10108 9.70518 5.0101 9.62433 4.922C9.51313 4.82235 9.38314 4.7357 9.23874 4.67505C8.97589 4.55374 8.67259 4.51185 8.41119 4.49741C8.30289 4.4873 8.20179 4.4873 8.11949 4.4873H6.81104Z" fill="#A1A1AA"/>
<path fill-rule="evenodd" clip-rule="evenodd" d="M0.55127 0.585938H16.8561V15.9333H0.55127V0.585938ZM4.82895 2.73922V13.793H8.98967C8.98967 13.793 11.0187 13.8436 12.1394 12.7286C13.0493 11.8145 12.9828 10.7588 12.9828 10.7588C12.9828 10.7588 13.0493 9.66264 12.2059 8.81059C11.4823 8.09714 10.5667 7.90364 10.5667 7.90364C10.5667 7.90364 10.9826 7.71299 11.3004 7.38804C11.4506 7.23784 11.9835 6.76129 11.9835 5.60014C11.9835 4.42459 11.2007 3.74726 11.2007 3.74726C11.2007 3.74726 10.3501 2.73922 8.42062 2.73922H4.82895Z" fill="#A1A1AA"/>
<path fill-rule="evenodd" clip-rule="evenodd" d="M2.37094 21.2951H3.54507C5.30697 21.2951 6.02042 22.0215 6.03627 23.2101C6.05217 24.273 5.49616 25.2767 3.54507 25.2767H2.37094V21.2951ZM0.55127 19.7354V32.4197H2.37094V26.9173H3.13492C4.06786 26.9173 4.82606 27.209 6.50422 29.8172L8.17802 32.4197H10.3501C9.47922 31.2138 9.16152 30.782 8.61852 29.9111C7.65377 28.3268 6.94467 27.1556 5.79657 26.3945C7.15267 25.853 7.91662 24.7583 7.91662 23.2881C7.91662 21.0915 6.31502 19.7354 3.75014 19.7354H0.55127Z" fill="#A1A1AA"/>
<path fill-rule="evenodd" clip-rule="evenodd" d="M16.3122 22.4532L18.36 27.0414H14.416L16.3122 22.4532ZM16.9837 19.6602H15.6941L10.2466 32.4181H12.1053L13.7097 28.682H19.1009L20.7949 32.4181H22.6493L16.9837 19.6602Z" fill="#A1A1AA"/>
<path fill-rule="evenodd" clip-rule="evenodd" d="M25.9891 21.3721H28.7908C32.3493 21.3721 33.9653 23.5326 33.9653 26.0801C33.9653 27.6413 33.0179 30.7824 28.8904 30.7824H25.9891V21.3721ZM24.1665 32.4186H29.1128C33.2981 32.4186 35.8428 29.331 35.8428 26.0801C35.8428 23.0834 33.779 19.7344 29.0941 19.7344H24.1665V32.4186Z" fill="#A1A1AA"/>
<path d="M37.813 32.4187H39.8984V19.7344H37.813V32.4187Z" fill="#A1A1AA"/>
<path fill-rule="evenodd" clip-rule="evenodd" d="M43.7451 26.0797C43.7451 23.2867 45.8493 21.2446 48.677 21.2446C51.5223 21.2446 53.6233 23.2867 53.6233 26.0797C53.6233 28.8453 51.5223 30.912 48.677 30.912C45.8493 30.912 43.7451 28.8453 43.7451 26.0797ZM41.8677 26.0797C41.8677 29.5154 44.4918 32.5858 48.6395 32.5858C52.9333 32.5858 55.5008 29.4952 55.5008 26.0797C55.5008 22.5443 52.8623 19.5664 48.677 19.5664C44.5669 19.5664 41.8677 22.5602 41.8677 26.0797Z" fill="#A1A1AA"/>
</g>
<defs>
<clipPath id="clip0_2461_21892">
<rect width="55" height="32" fill="white" transform="translate(0.55127 0.585938)"/>
</clipPath>
</defs>
</svg>
