<?xml version="1.0" encoding="UTF-8"?>
<svg width="64px" height="64px" viewBox="0 0 64 64" version="1.1" xmlns="http://www.w3.org/2000/svg" xmlns:xlink="http://www.w3.org/1999/xlink">
    <!-- Generator: Sketch 58 (84663) - https://sketch.com -->
    <title>illustration/consultation </title>
    <desc>Created with Sketch.</desc>
    <g id="illustration/consultation-" stroke="none" stroke-width="1" fill="none" fill-rule="evenodd">
        <g id="noun_Healthcare_952765" transform="translate(11.000000, 3.000000)" fill="#191919" fill-rule="nonzero">
            <path d="M17.7377049,20.2809917 L20.7622951,20.2809917 L20.7622951,23.2561983 C20.7622951,23.7024793 21.057377,24 21.5,24 C21.942623,24 22.2377049,23.7024793 22.2377049,23.2561983 L22.2377049,20.2809917 L25.2622951,20.2809917 C25.704918,20.2809917 26,19.9834711 26,19.5371901 C26,19.0909091 25.704918,18.7933884 25.2622951,18.7933884 L22.2377049,18.7933884 L22.2377049,15.7438017 C22.2377049,15.2975207 21.942623,15 21.5,15 C21.057377,15 20.7622951,15.2975207 20.7622951,15.7438017 L20.7622951,18.7933884 L17.7377049,18.7933884 C17.295082,18.7933884 17,19.0909091 17,19.5371901 C17,19.9834711 17.3688525,20.2809917 17.7377049,20.2809917 Z" id="Path"></path>
            <path d="M12,31.5 C12,31.8 12.3030303,32 12.7575758,32 L31.2424242,32 C31.6969697,32 32,31.8 32,31.5 C32,31.2 31.6969697,31 31.2424242,31 L12.7575758,31 C12.3787879,31 12,31.2 12,31.5 Z" id="Path"></path>
            <path d="M31.3181818,35 L12.7575758,35 C12.3030303,35 12,35.2 12,35.5 C12,35.8 12.3030303,36 12.7575758,36 L31.2424242,36 C31.6969697,36 32,35.8 32,35.5 C32,35.2 31.6969697,35 31.3181818,35 Z" id="Path"></path>
            <path d="M31.3181818,39 L12.7575758,39 C12.3030303,39 12,39.2 12,39.5 C12,39.8 12.3030303,40 12.7575758,40 L31.2424242,40 C31.6969697,40 32,39.8 32,39.5 C32,39.2 31.6969697,39 31.3181818,39 Z" id="Path"></path>
            <path d="M31.3181818,43 L12.7575758,43 C12.3030303,43 12,43.2 12,43.5 C12,43.8 12.3030303,44 12.7575758,44 L31.2424242,44 C31.6969697,44 32,43.8 32,43.5 C32,43.2 31.6969697,43 31.3181818,43 Z" id="Path"></path>
            <path d="M0.746003552,58 L41.2539964,58 C41.7015986,58 42,57.7021823 42,57.2554557 L42,7.44544288 C42,6.9987163 41.7015986,6.70089859 41.2539964,6.70089859 L30.1385435,6.70089859 L30.1385435,5.28626444 C30.1385435,4.83953787 29.8401421,4.54172015 29.39254,4.54172015 L25.2149201,4.54172015 L25.2149201,4.24390244 C25.2149201,1.93581515 23.3499112,0 20.9626998,0 C18.6500888,0 16.7104796,1.86136072 16.7104796,4.24390244 L16.7104796,4.54172015 L12.5328597,4.54172015 C12.0852575,4.54172015 11.7868561,4.83953787 11.7868561,5.28626444 L11.7868561,6.70089859 L0.746003552,6.70089859 C0.298401421,6.70089859 0,6.9987163 0,7.44544288 L0,57.2554557 C0,57.6277279 0.373001776,58 0.746003552,58 Z M13.4280639,6.03080873 L17.6056838,6.03080873 C18.053286,6.03080873 18.3516874,5.73299101 18.3516874,5.28626444 L18.3516874,4.24390244 C18.3516874,2.75481386 19.5452931,1.48908858 21.1119005,1.48908858 C22.678508,1.48908858 23.8721137,2.68035944 23.8721137,4.24390244 L23.8721137,5.28626444 C23.8721137,5.73299101 24.1705151,6.03080873 24.6181172,6.03080873 L28.7957371,6.03080873 L28.7957371,9.53016688 L13.4280639,9.53016688 L13.4280639,6.03080873 Z M12.6820604,11.0192555 L29.39254,11.0192555 C29.8401421,11.0192555 30.1385435,10.7214377 30.1385435,10.2747112 L30.1385435,8.18998716 L34.9129663,8.18998716 L34.9129663,50.182285 L7.1616341,50.182285 L7.1616341,8.18998716 L11.9360568,8.18998716 L11.9360568,10.2747112 C11.9360568,10.7214377 12.2344583,11.0192555 12.6820604,11.0192555 Z M1.4920071,8.18998716 L5.59502664,8.18998716 L5.59502664,50.9268293 C5.59502664,51.3735558 5.89342806,51.6713736 6.3410302,51.6713736 L35.6589698,51.6713736 C36.1065719,51.6713736 36.4049734,51.3735558 36.4049734,50.9268293 L36.4049734,8.18998716 L40.5079929,8.18998716 L40.5079929,56.5109114 L1.4920071,56.5109114 L1.4920071,8.18998716 Z" id="Shape"></path>
            <circle id="Oval" cx="21" cy="3" r="1"></circle>
        </g>
    </g>
</svg>