<svg width="197" height="41" viewBox="0 0 197 41" fill="none" xmlns="http://www.w3.org/2000/svg">
<g clip-path="url(#clip0_2433_45049)">
<path fill-rule="evenodd" clip-rule="evenodd" d="M99.5258 26.3621L99.9626 26.6894C99.9078 26.199 99.9905 25.3779 99.9905 25.3779C99.661 25.5957 99.5805 26.0057 99.5805 26.0057L99.1158 26.0604L99.5258 26.3621V26.3621ZM117.43 29.9134C117.375 29.8039 117.292 29.7235 117.155 29.7235C117.02 29.7235 116.882 29.8586 116.882 30.0508C116.882 30.2429 117.02 30.3781 117.155 30.3781C117.318 30.3781 117.457 30.2429 117.457 30.0508C117.456 29.9972 117.43 29.9681 117.43 29.9134ZM117.419 28.6309C117.425 28.6544 117.43 28.6834 117.43 28.7114C117.429 28.7791 117.407 28.8449 117.368 28.9001C117.328 28.9553 117.273 28.9974 117.21 29.0208V29.4241C117.285 29.4315 117.358 29.4545 117.424 29.4916C117.491 29.5287 117.548 29.5791 117.594 29.6397C117.682 29.7581 117.73 29.902 117.729 30.0497C117.729 30.3446 117.562 30.5825 117.317 30.6563C117.992 30.6038 118.414 30.5423 118.414 30.5423C117.757 30.4049 118.139 30.0229 118.139 30.0229C118.441 29.776 119.014 29.5838 119.014 29.5838C118.331 29.5012 117.949 28.956 117.783 28.6287H117.419V28.6309ZM117.075 30.673C116.813 30.6295 116.61 30.3736 116.61 30.0508C116.61 29.7413 116.798 29.4922 117.047 29.4352V29.0342C116.972 29.0227 116.902 28.9877 116.849 28.9343C116.795 28.8809 116.759 28.8119 116.747 28.7371L116.745 28.7393C116.472 28.8197 116.226 28.8197 116.226 28.8197C116.171 28.9571 116.28 29.0119 116.28 29.0119C116.855 29.4218 116.472 29.8039 116.472 29.8039C116.2 30.0508 116.062 30.0508 116.062 30.0508C115.79 30.1335 115.133 30.7076 115.133 30.7076C115.864 30.73 116.533 30.7076 117.075 30.673V30.673ZM109.584 28.1383C109.634 28.1384 109.682 28.1232 109.722 28.0947L110.267 28.3304C110.267 28.4935 110.376 28.632 110.514 28.632C110.599 28.632 110.673 28.5773 110.717 28.4991L111.18 28.5672C111.21 28.7047 111.304 28.7963 111.415 28.7963C111.541 28.7963 111.669 28.6801 111.686 28.5125L112.072 28.3293C112.118 28.3974 112.186 28.441 112.264 28.441C112.399 28.441 112.537 28.3036 112.537 28.1394L112.784 27.7316C113.248 27.7677 113.715 27.7584 114.178 27.7037C114.915 27.3194 115.517 27.1016 115.517 27.1016C115.297 27.2647 115.078 27.4032 114.941 27.5663C114.804 27.7028 114.676 27.8488 114.559 28.0031C114.46 28.0747 114.381 28.1698 114.328 28.2798C114.275 28.3899 114.251 28.5113 114.257 28.6332C114.278 28.7891 114.334 28.9383 114.42 29.0699C114.558 29.233 114.75 29.3168 114.75 29.3168L115.051 29.5894C114.805 29.7816 114.257 29.9167 114.257 29.9167C113.956 30.0284 113.548 29.8363 113.548 29.8363C112.59 29.6185 112.263 30.0541 112.263 30.0541C112.071 30.272 111.716 30.301 111.716 30.301L111.879 30.5479C111.524 30.6574 111.334 30.52 111.334 30.52C111.306 30.0553 111.552 29.5905 111.552 29.5905C111.442 28.8532 109.911 28.9884 109.911 28.9884L109.53 28.6309L109.447 28.5483L108.572 27.7283C108.572 27.9752 108.463 28.3304 108.328 28.632C108.218 28.8767 108.081 29.0968 108.081 29.0968L107.753 28.9314C107.816 28.8403 107.861 28.739 107.889 28.632C108.161 27.9752 108.353 27.0457 108.353 27.0457C108.516 27.0457 108.655 27.0737 108.763 27.1005C108.846 27.1552 108.901 27.1831 108.901 27.1831C108.964 27.2133 109.034 27.2423 109.108 27.2725L109.41 27.7004C109.381 27.7508 109.366 27.8077 109.366 27.8657C109.365 28.0288 109.447 28.1383 109.584 28.1383V28.1383ZM112.636 27.7127L112.477 27.9394C112.455 27.9019 112.423 27.8705 112.386 27.848C112.349 27.8256 112.307 27.8128 112.263 27.811C112.126 27.811 112.016 27.9461 112.016 28.1383C112.016 28.164 112.019 28.1908 112.025 28.2142L111.677 28.3773C111.64 28.2489 111.528 28.1372 111.415 28.1372C111.28 28.1372 111.171 28.3003 111.171 28.4645L110.754 28.393C110.758 28.372 110.761 28.3507 110.761 28.3293C110.761 28.1662 110.649 27.9997 110.514 27.9997C110.411 27.9997 110.326 28.0914 110.289 28.2053L109.807 27.9875C109.823 27.949 109.831 27.9075 109.83 27.8657C109.83 27.7283 109.721 27.5931 109.583 27.5931C109.561 27.5923 109.54 27.5961 109.52 27.6043L109.391 27.373H109.389C110.085 27.5998 110.948 27.7573 110.948 27.7573H111.55L111.743 27.4557C111.991 27.5942 112.311 27.6736 112.636 27.7127V27.7127ZM109.397 23.0453C109.419 23.0733 109.44 23.099 109.463 23.1224L109.428 23.1839C109.41 23.1717 109.388 23.1648 109.366 23.1638C109.257 23.1638 109.174 23.2732 109.174 23.3827L109.149 23.3559L108.929 23.109L108.848 23.0275L108.355 22.508C107.781 21.7428 106.907 22.508 106.907 22.508L106.771 22.3985C107.234 22.1248 106.826 21.7696 106.826 21.7696L107.728 19.446L107.481 19.1455C107.92 18.2428 106.99 18.216 106.99 18.216C106.716 17.3961 106.224 17.7792 106.224 17.7792C106.061 16.9861 105.458 17.3961 105.458 17.3961C105.24 16.8498 104.72 17.1771 104.72 17.1771L104.746 15.8924L104.146 15.9192L103.489 15.8924L103.544 17.2039C102.889 16.8766 102.778 17.5324 102.778 17.5324C102.014 17.0945 102.014 17.9423 102.014 17.9423C101.384 17.7502 101.411 18.3523 101.411 18.3523C100.565 18.4339 100.674 19.1723 100.674 19.1723L101.329 21.4132C101.166 21.8232 99.2253 24.2016 99.2253 24.2016L98.4042 23.9558L98.3495 23.8195C98.5405 23.929 98.6779 23.8742 98.6779 23.8742C98.5964 23.6005 98.7047 23.0543 98.7047 23.0543C98.9516 21.9885 98.5137 21.6054 98.5137 21.6054C98.5405 21.1675 98.24 20.6491 98.24 20.6491C98.65 20.1297 98.049 19.6102 98.049 19.6102L97.9663 19.4728L97.9395 18.3523C97.83 18.3523 97.7753 18.2149 97.7753 18.2149C97.6111 17.7502 97.3106 18.0518 97.3106 18.0518C97.0916 17.5603 96.7364 17.9423 96.7364 17.9423C96.4347 17.5324 96.1342 17.9423 96.1342 17.9423L95.8885 17.1492L95.0685 17.4765L95.3422 18.3512C94.7401 18.2138 94.9322 18.8159 94.9322 18.8159C94.4128 18.8427 94.6585 19.3075 94.6585 19.3075C94.167 19.3622 94.358 19.9096 94.358 19.9096L94.9043 20.8111C94.4664 21.3026 94.8775 21.6311 94.8775 21.6311C95.0149 21.8779 95.1791 21.8779 95.1791 21.8779C94.9322 22.6164 95.2606 23.3816 95.2606 23.3816C94.9054 23.7916 94.3859 24.1189 93.9212 24.3647C93.2387 24.6931 92.6365 24.8573 92.6365 24.8573C91.5697 25.1042 89.4662 25.7867 89.4662 25.7867C88.7277 25.9767 87.5525 26.3319 87.5525 26.3319C86.0768 26.7709 85.6937 26.3062 85.6937 26.3062C85.3384 26.0861 85.6121 25.5119 85.6121 25.5119C85.9673 24.8014 86.7058 24.6372 86.7058 24.6372C87.2252 24.9668 87.4162 25.1567 87.4162 25.1567C87.7436 25.4862 88.3189 25.4583 88.3189 25.4583L88.3457 25.3488C88.5915 25.3768 88.7557 25.2941 88.7557 25.2941C88.5915 25.131 88.5915 24.9388 88.5915 24.9388C88.5915 24.8026 88.4004 24.5847 88.4004 24.5847L92.1997 24.4205C92.3372 24.3948 92.4455 24.3948 92.555 24.3658C93.8665 24.12 94.1681 23.8195 94.1681 23.8195C95.0696 23.1079 94.6876 21.9327 94.6876 21.9327C94.1949 20.7854 93.2387 20.7296 93.2387 20.7296C92.5003 20.5385 91.954 20.648 91.954 20.648C91.544 20.6759 90.6972 20.457 90.6972 20.457C90.6693 20.6201 91.0245 21.1395 91.0245 21.1395C90.902 21.1506 90.7785 21.137 90.6613 21.0996C90.544 21.0622 90.4355 21.0017 90.342 20.9217C89.9041 20.5117 89.1936 20.7027 89.1936 20.7027C89.3031 20.9217 89.9599 21.4691 89.9599 21.4691C89.5768 21.4959 88.539 21.0591 88.539 21.0591C88.73 21.9617 89.7689 22.5896 89.7689 22.5896C90.9988 23.109 92.0646 22.5627 92.0646 22.5627C92.584 22.2354 93.1035 22.0433 93.1035 22.0433C93.1818 22.0075 93.2669 21.9892 93.353 21.9896C93.439 21.9899 93.524 22.009 93.602 22.0455C93.68 22.0819 93.7491 22.1348 93.8046 22.2006C93.8601 22.2664 93.9007 22.3435 93.9235 22.4265C93.8687 23.3559 93.185 23.3827 93.185 23.3827C91.2167 23.7927 88.5926 23.519 88.5926 23.519C88.7836 23.2732 88.8115 22.6443 88.8115 22.6443L88.5926 22.699C87.4453 22.5896 87.1437 22.8364 87.1437 22.8364C86.7337 23.0822 86.5427 23.6017 86.5427 23.6017C86.0232 23.8206 85.6132 24.0932 85.3116 24.3669C84.5464 25.1064 84.4648 25.9253 84.4648 25.9253C84.4101 26.9094 84.9564 27.0469 84.9564 27.0469C84.4648 28.002 85.2021 28.3583 85.2021 28.3583C85.5306 28.1137 85.6668 27.8389 85.6668 27.8389C86.3226 27.3485 88.2362 26.9374 88.2362 26.9374C87.853 27.239 87.6341 28.1394 87.6341 28.1394C87.3068 28.2489 86.7594 28.0567 86.7594 28.0567C86.4589 28.031 86.4589 28.2768 86.4589 28.2768L86.3215 28.6041L86.1305 29.2062C84.9552 29.1515 85.1195 29.8341 85.1195 29.8341L84.9552 31.665C85.2289 32.3476 85.6657 32.2392 85.6657 32.2392V31.5567H85.9662C86.3215 32.294 86.8689 32.4582 86.8689 32.4582H87.0331C87.2241 32.4034 87.3068 32.6782 87.3068 32.6782L87.4978 32.7039L87.5246 32.2392L87.7424 32.2135C87.8798 32.2683 87.9614 32.4861 87.9614 32.4861H88.1245C88.1792 32.3766 88.2072 32.0761 88.2072 32.0761C88.4261 31.9387 88.3703 31.4483 88.3703 31.4483C88.8082 31.3656 89.2729 31.531 89.2729 31.531L89.2461 31.9387C89.5734 32.4861 89.9845 32.5688 89.9845 32.5688C90.2582 32.6492 90.6671 32.7039 91.1597 32.7319C92.0076 32.7866 93.0733 32.7576 94.0575 32.7319C95.1256 32.678 96.1921 32.5957 97.2558 32.485C97.3653 32.6481 97.4189 32.6224 97.4189 32.6224C97.8836 32.7855 98.4031 32.2928 98.4031 32.2928L98.24 32.6224C98.5952 32.5945 98.9784 32.3476 98.9784 32.3476C99.0732 32.4776 99.2071 32.5739 99.3605 32.6224L99.4431 32.5397L99.5526 32.7028C99.7704 32.5933 99.9079 32.2124 99.9079 32.2124C100.155 32.4302 100.51 32.3755 100.51 32.3755L100.619 32.5386L100.7 32.4012C100.863 32.5129 101.165 32.6481 101.165 32.6481C101.494 32.2381 101.357 31.6382 101.357 31.6382L101.439 31.7734L101.52 31.4461C101.683 31.6092 101.959 31.6092 101.959 31.6092C101.439 31.827 101.739 32.2113 101.739 32.2113C101.803 32.3192 101.899 32.4046 102.014 32.4559C102.1 32.4452 102.188 32.4675 102.258 32.5185C102.329 32.5694 102.378 32.6452 102.396 32.7307C102.806 32.9229 103.053 32.4839 103.053 32.4839L103.107 32.1565C103.025 31.9644 103.025 31.6639 103.025 31.6639L103.107 32.0191L103.242 32.1018L104.172 32.8391L104.966 32.1822C105.403 32.4839 106.005 32.4839 106.005 32.4839C106.223 32.4839 106.06 32.2113 106.06 32.2113C106.771 32.7855 107.836 32.6481 107.836 32.6481C107.999 32.5129 107.891 32.4302 107.891 32.4302C108.083 32.3476 108.41 32.6224 108.41 32.6224C108.683 32.8123 109.093 32.6481 109.093 32.6481C109.067 32.5129 108.93 32.485 108.93 32.485C109.122 32.485 109.012 32.2124 109.012 32.2124C109.202 32.2381 109.368 32.4571 109.368 32.4571C109.531 32.6771 109.832 32.6224 109.832 32.6224L109.858 32.485C110.05 32.6224 110.486 32.6481 110.486 32.6481C110.598 32.5386 110.514 32.3755 110.514 32.3755C112.482 32.9776 115.406 32.8659 115.406 32.8659C119.206 32.8402 119.725 32.1018 119.725 32.1018C119.863 31.9365 119.78 31.7466 119.78 31.7466V31.5287C119.972 31.417 120.273 31.5008 120.273 31.5008L119.998 32.075L119.918 32.2671C120.572 33.0044 121.556 32.1845 121.556 32.1845V31.9376C121.749 31.8572 121.912 31.6382 121.912 31.6382L122.351 31.7477C122.405 31.9946 122.241 32.2671 122.241 32.2671C122.924 32.457 123.168 31.7477 123.168 31.7477L122.815 29.9145C122.268 29.2867 121.284 29.395 121.284 29.395L121.256 28.9303C121.201 28.7672 121.011 28.6577 120.846 28.6309L120.635 28.555L120.436 28.6309C120.134 28.6566 119.696 28.6566 119.696 28.6566V28.6309L119.751 28.0009V27.2915L119.696 27.0446L120.273 27.1273C120.71 27.3172 121.722 27.3172 121.722 27.3172C122.049 27.4546 122.049 27.7819 122.049 27.7819L121.94 28.1662C122.869 28.0835 122.76 27.0446 122.76 27.0446C123.414 26.4972 123.25 25.0215 123.25 25.0215C123.167 24.6663 123.032 24.4473 122.948 24.3647L122.923 24.339C122.923 23.4084 121.993 22.9984 121.993 22.9984C121.83 22.861 121.638 22.861 121.638 22.861C121.42 22.8074 121.119 22.451 121.119 22.451C120.763 23.1068 121.064 23.5983 121.064 23.5983C120.516 23.4888 117.782 24.0362 117.782 24.0362C117.127 24.2004 116.035 23.8452 116.035 23.8452C115.35 23.462 115.46 22.9705 115.46 22.9705C115.596 22.1773 116.252 22.2868 116.252 22.2868H116.445C117.019 22.1773 117.429 22.3963 117.429 22.3963C118.576 22.9426 120.625 22.3963 120.625 22.3963C121.609 22.0131 121.884 20.7284 121.884 20.7284C121.227 21.3306 120.599 21.2211 120.599 21.2211C120.46 21.249 120.323 21.2856 120.189 21.3306C120.299 20.8658 120.844 20.6469 120.844 20.6469C120.134 20.3464 119.369 20.8658 119.369 20.8658C118.987 21.2758 118.138 21.4121 118.138 21.4121C118.766 21.1663 119.095 20.4827 119.095 20.4827C118.685 20.7284 117.948 20.6737 117.948 20.6737C116.827 20.4547 115.597 21.4657 115.597 21.4657C114.475 22.5046 115.022 23.653 115.022 23.653C115.16 23.9804 115.487 24.2272 115.842 24.3635C116.362 24.6104 116.907 24.6652 116.907 24.6652C118.083 24.8014 120.49 24.5278 120.49 24.5278C120.707 24.473 120.954 24.473 120.954 24.473C120.515 24.8014 120.435 25.5399 120.435 25.5399C120.872 25.3768 121.199 25.3768 121.199 25.3768L121.173 25.4862C121.693 25.4036 122.128 25.4862 122.128 25.4862C122.403 25.5119 122.458 25.2684 122.458 25.2684C122.785 25.7588 122.128 26.3073 122.128 26.3073C121.746 26.6894 120.9 26.3877 120.9 26.3877C120.435 26.1699 119.231 26.0861 119.231 26.0861C119.013 25.8136 116.525 25.322 116.525 25.322C116.388 25.0751 116.143 25.1846 116.143 25.1846L115.923 25.1567C115.705 24.6372 115.213 24.9388 115.213 24.9388C114.858 24.8841 114.284 24.5568 113.954 24.3647C113.791 24.2831 113.71 24.2016 113.71 24.2016C115.021 22.7527 114.939 21.1954 114.939 21.1954C114.776 18.9533 112.945 18.5981 112.945 18.5981C112.672 17.9423 111.797 17.8876 111.797 17.8876L111.743 18.025L111.823 18.216C111.797 18.3534 111.96 18.5992 111.96 18.5992L111.605 18.6808L109.391 17.3961C108.846 17.2598 109.064 17.7234 109.064 17.7234L109.173 17.8876L111.087 19.3912C110.895 19.7733 110.24 20.2659 110.24 20.2659L109.993 20.3207L109.692 20.648L109.719 21.0859C109.582 21.1954 109.28 21.1954 109.28 21.1954L109.255 21.4691C109.445 21.7428 109.992 21.7428 109.992 21.7428L110.429 22.1796C110.566 22.2622 110.676 22.1528 110.676 22.1528L111.058 21.716L111.577 21.4702C111.715 21.5517 111.962 21.5797 111.962 21.5797C111.606 21.7171 111.224 22.2354 111.224 22.2354C110.923 22.1528 110.43 22.2622 110.43 22.2622L110.375 22.5627L110.36 22.6354L110.24 22.5627C110.048 21.7707 109.446 22.2622 109.446 22.2622C109.349 22.3671 109.291 22.5023 109.282 22.645C109.273 22.7877 109.313 22.9292 109.397 23.0453V23.0453ZM109.409 23.6173C109.475 23.5871 109.528 23.4933 109.528 23.3816C109.528 23.35 109.522 23.3187 109.508 23.29L109.545 23.1984C109.631 23.2677 109.738 23.3052 109.848 23.3045C110.129 23.2956 110.239 22.8889 110.239 22.8889H110.307L110.239 23.2163C109.964 23.3805 109.719 23.9267 109.719 23.9267L109.409 23.6173V23.6173ZM109.58 22.8364C109.434 22.5326 109.747 22.3974 109.747 22.3974C110.129 22.3427 110.049 22.8342 110.049 22.8342C109.946 22.9627 109.864 23.0107 109.795 23.0163C109.647 23.0286 109.582 22.8387 109.58 22.8364ZM94.6585 28.603C94.4396 28.7951 94.0564 29.0677 93.5649 29.0956L93.3459 29.4487L93.8654 29.5861L93.9748 29.6408L94.4396 29.7782C94.4396 29.7782 94.4664 29.4766 94.8227 29.5313C94.8227 29.5313 95.0685 28.8745 96.0527 29.0945C96.0527 29.0945 96.2169 29.0398 96.4347 29.1493C96.5174 29.204 96.599 29.2587 96.6805 29.3392L96.571 28.9839C96.571 28.9839 96.6805 28.8208 96.9531 28.8745C96.9531 28.8745 96.8436 28.765 96.762 28.6019C96.6464 28.4419 96.58 28.2517 96.571 28.0545C96.571 28.0545 96.8983 27.9193 97.2268 27.9741V27.6724H97.4178L97.0626 27.4546C97.0626 27.4546 96.1599 28.4645 94.4653 27.9741C94.1301 27.8793 93.8087 27.7415 93.509 27.5641C93.509 27.5641 93.8374 28.384 94.8764 28.3561C94.8775 28.3561 94.7959 28.4656 94.6585 28.603V28.603ZM90.2582 28.603C90.8045 28.7661 91.7618 28.8499 91.7618 28.8499C91.6792 28.9303 91.5976 29.013 91.5161 29.0677C91.2156 29.3146 90.9698 29.3693 90.9698 29.3693C90.8056 29.6419 90.8882 30.1357 90.8882 30.1357C90.9698 30.2452 91.2156 30.3256 91.4345 30.4083C91.7082 30.5177 91.9808 30.6004 91.9808 30.6004C91.6472 30.6683 91.3034 30.6683 90.9698 30.6004C90.6682 30.5725 90.4783 30.4887 90.4783 30.4887L90.6146 30.2161C90.5051 29.5045 89.4393 29.4241 89.4393 29.4241L89.4941 29.0968C89.6304 28.9314 89.7678 28.7415 89.8225 28.6041C89.8565 28.5534 89.8839 28.4986 89.9041 28.441C89.9588 28.4958 90.0951 28.5505 90.2325 28.6041H90.2582V28.603V28.603ZM109.722 30.8719C109.639 30.9266 109.584 30.9813 109.584 31.0897C109.584 31.0897 109.639 31.2528 109.994 31.3623C109.994 31.3623 110.049 31.0629 109.966 30.7345C109.965 30.7345 109.83 30.7892 109.722 30.8719ZM97.2558 30.3781L97.4468 30.3234C97.4468 30.3234 97.2558 30.1603 97.229 30.0508C97.229 30.0508 97.229 29.8329 96.9832 29.6408L97.01 29.8329V30.1055L97.0916 30.1882V30.406L97.2558 30.3781V30.3781ZM98.1305 31.3366L98.1584 31.7466L98.5137 31.3623C98.4856 31.363 98.4578 31.3559 98.4335 31.3417C98.4092 31.3275 98.3894 31.3067 98.3763 31.2818C98.24 31.1724 98.1584 31.0093 98.1584 31.0093L98.1305 31.3366V31.3366ZM99.366 28.6131C99.5738 28.5896 99.7481 28.6041 99.8464 28.7225C99.8442 28.5483 99.9201 28.374 100.18 28.3293C100.18 28.3293 99.6062 28.2198 99.0868 28.0277C98.7595 27.9182 98.431 27.7808 98.3215 27.6177L98.0758 27.7004L97.8836 27.7808V27.8635C97.8836 27.8635 98.4031 27.9439 98.6768 28.1651V28.0534C98.6768 28.0545 99.1739 28.1483 99.366 28.6131V28.6131ZM100.808 29.6955C100.808 29.6408 100.836 29.5861 100.836 29.5034L101.246 29.9424C101.246 29.9424 101.327 30.215 101.163 30.3792C101.163 30.3792 101.083 30.2988 100.974 30.244C100.905 30.2095 100.83 30.1908 100.754 30.1893L100.728 29.8341C100.728 29.8329 100.783 29.7782 100.808 29.6955V29.6955ZM67.5707 14.7708C67.5707 14.7708 71.6437 16.8487 72.1352 17.2587C72.6547 17.6686 72.381 17.9423 72.381 17.9423C72.381 17.9423 72.19 18.2149 71.7252 18.3244C71.2594 18.4059 71.3979 18.7891 71.3979 18.7891L71.3432 28.4935C73.2568 30.3792 75.0609 29.3682 75.0609 29.3682C75.7446 29.1504 75.6631 28.5483 75.6631 28.5483C75.6631 28.5483 75.8005 19.4192 75.7446 19.1176C75.6899 18.7902 75.4173 18.7902 75.4173 18.7902C75.4173 18.7902 73.7226 17.7234 73.4489 17.5335C73.1473 17.3425 73.4758 17.0419 73.4758 17.0419C73.4758 17.0419 76.3456 15.0468 76.7567 14.6636C77.1667 14.3084 77.4951 14.5262 77.4951 14.5262C77.4951 14.5262 82.2239 17.1782 82.7702 17.5882C83.3164 17.9982 83.0439 18.1345 83.0439 18.1345L81.7044 19.4739C81.4307 19.7476 81.567 19.9934 81.567 19.9934L81.5123 28.9594C81.157 31.255 77.5488 31.5846 77.5488 31.5846C73.2021 31.6393 71.1801 29.7804 71.1801 29.7804C69.4575 28.7136 67.4623 29.4509 67.4623 29.4509C64.9209 30.3256 64.7287 31.9666 64.7287 31.9666C64.6461 33.143 65.9587 33.716 65.9587 33.716C67.5718 34.755 69.9222 34.0981 69.9222 34.0981C71.9174 33.4155 75.0062 32.3766 75.0062 32.3766C76.9466 31.9666 78.4771 32.294 78.4771 32.294C80.2265 32.6782 80.9102 33.4982 80.9102 33.4982C82.0306 34.6455 81.9491 36.1212 81.9491 36.1212C82.0306 39.3486 78.0671 40.4411 78.0671 40.4411C76.2909 40.7963 75.7994 40.3864 75.7994 40.3864C74.5415 40.1115 75.8809 39.9764 75.8809 39.9764C75.8809 39.9764 73.5841 40.1115 76.0719 40.0021C78.5597 39.9216 78.8334 38.7196 78.8334 38.7196C79.7361 37.1054 78.3419 36.8328 78.3419 36.8328C76.4283 36.5602 74.3516 38.1175 74.3516 38.1175C69.7044 40.1942 66.1788 38.4727 66.1788 38.4727C62.5705 37.0786 63.0352 34.3997 63.0352 34.3997C63.1167 30.9288 65.304 29.5626 65.304 29.5626L65.1678 18.8193C65.0583 18.5456 64.7846 18.464 64.7846 18.464C64.7846 18.464 63.281 17.8619 63.0352 17.5346C62.8162 17.2062 63.1715 17.0699 63.1715 17.0699L66.6435 14.7731C67.0512 14.1978 67.5707 14.7708 67.5707 14.7708V14.7708ZM0.217486 13.1309C-0.301973 12.7757 0.272225 12.5846 0.272225 12.5846L5.49363 8.7574H19.2967C22.2761 9.02997 22.0303 12.8572 22.0303 12.8572L21.9756 26.9608C17.1373 27.8903 14.8137 31.9923 14.8137 31.9923C10.3028 30.7076 2.5679 31.8549 2.5679 31.8549C1.88422 31.9097 2.34894 31.3902 2.34894 31.3902C5.02779 26.6883 10.1665 26.8257 10.1665 26.8257C10.4983 26.819 10.8234 26.8279 11.1395 26.848L11.1663 13.2739L0.217486 13.1309ZM7.10563 13.8961C8.11662 13.4314 7.92559 14.1151 7.92559 14.1151V21.9595C7.84404 25.2673 5.24674 27.0725 5.24674 27.0725C4.48152 28.1115 1.55691 29.3135 1.55691 29.3135C0.545918 29.6955 1.14693 28.7114 1.14693 28.7114C2.10318 27.2915 2.10318 26.2783 2.10318 26.2783V16.8487C2.10318 16.575 2.21266 16.4655 2.21266 16.4655L7.10563 13.8961V13.8961ZM11.602 26.8871C13.9915 27.1273 15.7443 27.9741 15.7443 27.9741L15.7085 21.9092L15.6717 21.9372C15.6661 21.9305 13.7536 19.4058 11.611 22.0299L11.602 26.8871V26.8871ZM15.7041 21.2948L15.6896 18.7511C14.9578 19.4359 13.252 20.5877 11.6165 18.4551L11.611 21.335C13.4118 19.5074 15.0316 20.6458 15.7041 21.2948ZM15.6851 18.0876L15.6605 13.8414C15.8515 13.1309 14.8685 13.3219 14.8685 13.3219L11.6277 13.2795L11.6199 17.6351C13.4531 20.6737 15.4974 18.3166 15.6851 18.0876ZM53.4101 11.4362C53.4101 11.4362 59.4235 9.49581 60.1888 9.30478C60.9808 9.11376 60.9272 9.49582 60.9272 9.49582C60.9272 9.49582 60.7641 26.6067 60.9004 27.2088C61.0367 27.811 61.3104 27.6479 61.3104 27.6479C61.3104 27.6479 62.7045 28.632 63.005 28.7672C63.3335 28.9046 63.1692 29.2319 63.1692 29.2319L59.7799 31.8572C59.7799 31.8572 54.258 29.4241 53.8212 29.1515C53.2749 28.7672 53.6302 28.5494 53.6302 28.5494L54.6144 27.5652C54.6144 27.5652 54.7775 13.5699 54.5049 12.8315C54.2312 12.0931 53.3565 11.7926 53.3565 11.7926C53.1643 11.491 53.4101 11.4362 53.4101 11.4362V11.4362ZM46.6594 14.3341C46.8504 14.7988 47.3419 14.7172 47.3419 14.7172C49.5292 13.8425 50.4039 11.7647 50.4039 11.7647C50.9502 9.71477 49.6655 9.1685 49.6655 9.1685C48.5171 8.48482 47.6704 9.03109 47.6704 9.03109C46.3578 9.74158 46.0025 11.1089 46.0025 11.1089C45.6752 12.9131 46.6594 14.3341 46.6594 14.3341V14.3341ZM45.6752 15.2635C45.6752 15.2635 42.1216 17.4508 41.848 17.8608C41.5743 18.2708 41.7943 18.4629 41.7943 18.4629C41.7943 18.4629 43.3248 19.4192 43.7348 19.5834C44.1716 19.7197 44.0073 19.9386 44.0073 19.9386L44.1168 27.0457C44.1716 27.2379 44.1168 27.7283 44.1168 27.7283C44.1168 27.7283 43.5147 28.2209 43.1874 28.4946C42.8053 28.8219 43.1047 29.1515 43.1047 29.1515L48.5998 31.9119C48.5998 31.9119 52.3165 29.233 52.6449 29.0968C52.9722 28.9594 52.6449 28.6868 52.6449 28.6868C52.6449 28.6868 51.0318 27.7573 50.7592 27.6199C50.4866 27.4825 50.5961 27.2099 50.5961 27.2099C50.5961 27.2099 50.3771 20.1833 50.5414 19.5823C50.6776 19.0081 50.8687 19.1991 50.8687 19.1991C50.8687 19.1991 51.3602 19.0628 51.7981 18.7891C52.2081 18.5154 51.826 18.2697 51.826 18.2697C51.826 18.2697 46.7141 15.5919 46.3321 15.2635C45.9478 14.9351 45.6752 15.2635 45.6752 15.2635V15.2635ZM23.0279 27.0994C23.0145 27.0446 23.4513 31.2271 28.809 31.9108L32.3625 29.042C32.3625 29.042 32.5535 28.7125 32.8272 28.9851L38.8407 31.9108L42.5037 29.042C42.5037 29.042 42.6679 28.7125 42.3942 28.3852L39.8517 26.6894V19.7186C39.8517 19.7186 39.8249 19.3912 40.0427 19.3365L41.0269 18.5445C41.0269 18.5445 41.1911 18.2708 40.8638 17.9155C40.5622 17.5335 34.5766 14.5809 34.5766 14.5809C34.5766 14.5809 34.3577 14.2536 33.8103 14.6357C33.8103 14.6357 27.2774 17.2598 24.708 20.6212C24.7091 20.6212 22.6592 21.9327 23.0279 27.0994V27.0994ZM28.1532 24.8584C28.3174 25.1578 27.0596 23.0811 27.6617 20.8122C27.6617 20.8122 27.7444 18.817 30.0668 17.806L33.2104 19.856L33.1557 27.9461C33.1557 27.9461 32.7457 28.6309 31.7347 28.1662C31.7347 28.1662 29.1374 26.8815 28.1532 24.8584ZM178.795 15.4813C178.795 15.4813 175.243 17.6407 174.968 18.0786C174.695 18.4886 174.913 18.6796 174.913 18.6796C174.913 18.6796 176.445 19.6359 176.855 19.7733C177.292 19.9107 177.127 20.1554 177.127 20.1554L177.237 27.2625C177.292 27.4546 177.237 27.945 177.237 27.945C177.237 27.945 176.635 28.4097 176.307 28.6845C175.925 29.0119 176.227 29.3392 176.227 29.3392L181.721 32.1275C181.721 32.1275 185.439 29.4487 185.766 29.2844C186.093 29.1493 185.766 28.8745 185.766 28.8745C185.766 28.8745 184.18 27.945 183.88 27.8098C183.606 27.6724 183.715 27.3999 183.715 27.3999C183.715 27.3999 183.497 20.3743 183.66 19.7733C183.798 19.227 183.99 19.3912 183.99 19.3912C183.99 19.3912 184.48 19.2538 184.919 18.9813C185.329 18.7076 184.945 18.4897 184.945 18.4897C184.945 18.4897 179.833 15.8109 179.451 15.4825C179.096 15.154 178.795 15.4813 178.795 15.4813V15.4813ZM124.453 13.1577C123.606 12.693 124.208 12.4741 124.208 12.4741L128.471 9.74046C128.689 9.54943 128.881 9.82313 128.881 9.82313L132.763 12.092C132.763 12.092 138.01 9.30367 138.367 9.08583C138.585 8.94842 138.777 9.14057 138.777 9.14057L143.206 11.6005L147.661 8.81214C148.152 8.40216 148.289 8.67473 148.289 8.67473L153.51 11.7368C153.947 12.0104 153.755 12.092 153.755 12.092V26.2526C153.947 27.9998 155.424 28.6857 155.424 28.6857C155.834 29.013 155.642 29.2599 155.642 29.2599L151.623 32.1286C148.152 30.9523 147.824 28.1383 147.824 28.1383V14.6066C147.742 14.1419 147.414 14.0324 147.414 14.0324L144.731 12.6651L144.751 18.6785H147.633L144.765 22.8141L144.782 27.792L146.788 29.1493C147.06 29.4766 146.625 29.5313 146.625 29.5313L142.468 32.1275L136.291 28.8476C135.717 28.4634 136.154 28.2455 136.154 28.2455L137.493 27.3987V23.052H134.552L134.563 28.632L135.554 29.2587C135.856 29.5861 135.499 29.8039 135.499 29.8039L131.371 32.1275L125.987 29.2844C125.522 28.9828 126.013 28.7393 126.013 28.7393L127.544 27.8646V15.345L124.592 13.2136L124.453 13.1577V13.1577ZM144.36 12.4964C143.545 12.2428 143.671 12.7489 143.671 12.7489L143.726 18.2428V18.6808H144.382L144.36 12.4964ZM144.396 23.0532H143.726V27.0725C143.751 27.182 144.081 27.3172 144.081 27.3172L144.41 27.5417L144.396 23.0532V23.0532ZM134.551 22.2756L136.973 18.6796H137.492V14.6066C137.412 14.3888 137.11 14.1698 137.11 14.1698L134.535 12.8304L134.551 22.2756ZM134.165 12.7422C133.41 12.7589 133.367 13.2683 133.367 13.2683L133.31 27.8657C133.31 27.9461 133.557 28.0009 133.557 28.0009L134.191 28.4019L134.165 12.7422V12.7422ZM156.154 27.0994C156.14 27.0446 156.577 31.2271 161.936 31.9108L165.488 29.042C165.488 29.042 165.68 28.7125 165.953 28.9851L171.966 31.9108L175.629 29.042C175.629 29.042 175.792 28.7125 175.52 28.3852L172.978 26.6894V19.7186C172.978 19.7186 172.953 19.3912 173.171 19.3365L174.155 18.5445C174.155 18.5445 174.318 18.2708 173.992 17.9155C173.69 17.5335 167.703 14.5809 167.703 14.5809C167.703 14.5809 167.486 14.2536 166.937 14.6357C166.937 14.6357 160.404 17.2598 157.835 20.6212C157.834 20.6212 155.785 21.9327 156.154 27.0994V27.0994ZM161.279 24.8584C161.442 25.1578 160.185 23.0811 160.788 20.8122C160.788 20.8122 160.869 18.817 163.192 17.806L166.336 19.856L166.281 27.9461C166.281 27.9461 165.871 28.6309 164.859 28.1662C164.859 28.1662 162.263 26.8815 161.279 24.8584V24.8584ZM186.531 11.4362C186.531 11.4362 192.516 9.49581 193.31 9.30478C194.074 9.11376 194.047 9.49582 194.047 9.49582C194.047 9.49582 193.884 26.7989 194.019 27.401C194.157 28.0009 194.429 27.8657 194.429 27.8657C194.429 27.8657 195.823 28.8499 196.125 28.9851C196.452 29.1225 196.288 29.4498 196.288 29.4498L192.9 32.075C192.9 32.075 187.378 29.6419 186.941 29.3414C186.394 28.9862 186.749 28.7415 186.749 28.7415L187.733 27.7841C187.733 27.7841 187.896 13.5431 187.624 12.8047C187.351 12.0663 186.477 11.7937 186.477 11.7937C186.286 11.4631 186.531 11.4362 186.531 11.4362V11.4362ZM179.779 14.553C179.972 15.0177 180.462 14.9351 180.462 14.9351C182.65 14.0324 183.525 11.9557 183.525 11.9557C184.07 9.9326 182.786 9.38634 182.786 9.38634C181.638 8.67585 180.792 9.24893 180.792 9.24893C179.478 9.95942 179.125 11.3268 179.125 11.3268C178.795 13.1309 179.779 14.553 179.779 14.553Z" fill="#A1A1AA"/>
<path fill-rule="evenodd" clip-rule="evenodd" d="M95.3393 17.5875L95.7225 17.3965V17.6702L95.8588 17.5339L96.0219 17.9159L95.804 17.9439L95.9414 18.0802C96.242 18.2991 96.0509 18.4901 96.0509 18.4901L95.9135 18.5996C95.4756 18.7627 95.613 18.0802 95.613 18.0802L95.4756 18.2164L95.3125 17.8065H95.5315L95.3393 17.5875Z" fill="#A1A1AA"/>
<path fill-rule="evenodd" clip-rule="evenodd" d="M94.9309 19.309C95.2594 19.3358 95.2862 19.5827 95.2862 19.5827C95.313 19.118 95.6682 19.528 95.6682 19.528C95.5529 19.5639 95.4492 19.6298 95.3677 19.719C95.3677 19.9927 95.7777 19.9927 95.7777 19.9927C96.1329 19.8005 96.0782 19.5827 96.0782 19.5827C96.133 19.2811 95.7777 19.4453 95.7777 19.4453L95.6403 19.1448L95.8593 19.118V19.0085L95.6682 18.899L96.2704 18.5985L96.1877 18.8443L96.2424 18.899L96.3787 18.7348L96.4882 19.1727C96.2145 19.118 96.324 19.3638 96.324 19.3638C96.4793 19.5313 96.6033 19.547 96.6937 19.5112C96.7706 19.4742 96.8328 19.4125 96.8702 19.3358C97.0345 19.1448 96.8434 19.0621 96.8434 19.0621C96.6256 19.1437 96.5977 19.2264 96.5977 19.2264C96.4882 18.6522 96.7887 18.7605 96.7887 18.7605C96.7072 18.4879 96.7887 18.3505 96.7887 18.3505C97.0077 18.46 97.0345 18.6778 97.0345 18.6778C97.3618 18.3226 97.4165 18.7047 97.4165 18.7047C96.9797 18.7873 97.1707 19.0331 97.1707 19.0331C97.2735 19.1951 97.354 19.2208 97.4176 19.1806C97.5562 19.0901 97.6075 18.6745 97.6075 18.6745C97.3618 18.3193 96.7328 18.2556 96.7328 18.2913L96.706 18.5136L96.3776 18.5684L96.3229 18.4042L96.2413 18.3773V18.2399C97.0333 17.9394 97.7449 18.5952 97.7449 18.5952L97.7718 19.6888C96.5966 19.8531 95.1477 20.8093 95.1477 20.8093L94.5735 19.8251C94.7656 19.0331 95.5029 18.5952 95.5029 18.5952L95.6124 18.7047L95.475 18.8689L95.5297 19.0599L95.2024 19.3336L94.9287 19.1962C94.8114 19.404 94.6975 19.6062 94.7377 19.8251L94.9287 20.2351C95.3119 20.3993 95.1756 19.9346 95.1756 19.9346C95.0661 19.7972 94.9287 20.0977 94.9287 20.0977C94.6829 19.633 95.0114 19.6598 95.0114 19.6598C94.8762 19.528 94.9309 19.309 94.9309 19.309V19.309ZM86.0477 29.3139C85.6924 30.2433 85.8835 31.4453 85.8835 31.4453H85.6645V29.9417C85.0356 29.8043 85.3093 29.5596 85.3093 29.5596C85.555 29.2312 86.0477 29.3139 86.0477 29.3139ZM87.2497 32.0743C87.3871 32.2921 87.3592 32.5937 87.3592 32.5937C87.3044 32.3759 87.0855 32.4016 87.0855 32.4016C86.9771 32.0743 87.2497 32.0743 87.2497 32.0743ZM87.7691 32.0743C87.9065 31.9938 87.9065 31.8017 87.9065 31.8017C88.2082 31.9369 88.016 32.3759 88.016 32.3759C87.9613 32.1837 87.7691 32.0743 87.7691 32.0743ZM87.4139 31.0097C87.8518 30.927 87.9613 31.337 87.9613 31.337C88.1523 31.5291 88.1523 31.2543 88.1523 31.2543C87.9054 30.488 87.4139 31.0097 87.4139 31.0097V31.0097ZM88.0149 31.5291C88.1512 31.5839 88.2059 31.4744 88.2059 31.4744C88.3154 31.719 88.178 31.9112 88.178 31.9112C88.1512 31.6933 88.0149 31.6933 88.0149 31.6933V31.5291Z" fill="#A1A1AA"/>
<path fill-rule="evenodd" clip-rule="evenodd" d="M88.3488 31.2002C88.0751 30.1903 87.3646 30.8729 87.3646 30.8729C87.1736 30.245 87.4473 29.7513 87.4473 29.7513C87.8573 29.806 88.4035 29.7513 88.4035 29.7513C88.5398 29.7513 88.4851 29.8339 88.4851 29.8339C88.5946 30.3244 88.2941 30.3244 88.2941 30.3244C88.513 30.5165 88.5677 30.4338 88.5677 30.4338C89.0057 30.4886 89.3877 29.6161 89.3877 29.6161C89.7977 29.5882 90.2903 29.9434 90.2903 29.9434C90.564 30.1903 90.2903 30.2707 90.2903 30.2707C89.9072 30.1903 89.2235 30.3255 89.2235 30.3255C89.1419 30.3802 89.1688 30.5455 89.1688 30.5455C89.2235 30.7087 89.2514 31.2549 89.2514 31.2549C88.8962 31.1734 88.3488 31.2002 88.3488 31.2002V31.2002ZM90.1529 28.1929C90.2624 27.7829 91.0824 27.3461 91.0824 27.3461C91.4924 27.183 92.0934 27.0444 92.0934 27.0444C92.805 27.0724 93.2965 27.8365 93.2965 27.8365L93.0228 28.0543L93.1323 28.137C93.3792 27.8901 93.6518 28.1649 93.6518 28.1649C93.8975 28.3001 94.4985 28.5202 94.4985 28.5202C94.2248 28.9279 93.3781 28.7648 93.3781 28.7648C93.4049 29.2039 92.9133 29.5021 92.9133 29.5021C93.2418 29.777 94.4985 30.0238 94.4985 30.0238C94.9633 29.367 95.4548 29.8317 95.4548 29.8317C95.5643 29.9121 95.7017 30.0495 95.7017 30.0495C95.428 30.1869 95.5095 30.5422 95.5095 30.5422C94.9633 30.6517 93.4328 30.6517 93.4328 30.6517C91.9292 30.4316 91.1639 30.0495 91.1639 30.0495C91.0276 29.9669 91.1103 29.8574 91.1103 29.8574L91.0824 29.6943C91.0556 29.5021 91.2198 29.5312 91.2198 29.5312C91.7661 29.4485 92.2308 28.8486 92.2308 28.8486C92.3682 28.5213 92.0666 28.576 92.0666 28.576C91.1371 28.5224 90.1529 28.1929 90.1529 28.1929V28.1929Z" fill="#A1A1AA"/>
<path fill-rule="evenodd" clip-rule="evenodd" d="M95.0156 29.5323C95.3709 29.0418 95.8624 29.3692 95.8624 29.3692C95.9719 29.4496 96.0814 29.6965 96.0814 29.6965C95.8624 29.6965 95.8077 29.8886 95.8077 29.8886C95.6166 29.5032 95.0156 29.5323 95.0156 29.5323V29.5323ZM95.6714 30.4874C95.6166 30.2696 95.8088 30.188 95.8088 30.188C95.9183 30.2684 96.0266 30.4606 96.0266 30.4606C95.9171 30.4874 95.6714 30.4874 95.6714 30.4874ZM95.8624 30.0249C96.1082 30.1344 96.1361 30.4327 96.1361 30.4327L96.3271 30.407C96.3819 29.997 96.1629 29.7791 96.1629 29.7791C95.9171 29.8048 95.8624 30.0249 95.8624 30.0249ZM96.1361 29.2854C96.2735 29.368 96.2456 29.6406 96.2456 29.6406C96.4366 29.778 96.4913 30.0506 96.4913 30.0506C96.6287 29.9679 96.8466 29.9959 96.8466 29.9959C96.7371 29.2306 96.1361 29.2854 96.1361 29.2854ZM96.5461 30.1601L96.5729 30.3779L96.8734 30.3522C96.9002 30.1891 96.8187 30.0796 96.8187 30.0796C96.6556 30.0506 96.5461 30.1601 96.5461 30.1601ZM98.4597 24.2561C98.5144 24.474 98.4597 24.8583 98.4597 24.8583C98.377 25.0214 98.1592 25.3487 98.1592 25.3487L98.5413 25.733L99.4718 25.7587C99.5813 25.4313 100.126 24.884 100.126 24.884C100.482 23.244 101.383 22.5604 101.383 22.5604V22.4241C101.165 22.3693 101.139 22.1504 101.139 22.1504C101.137 22.0654 101.156 21.9812 101.194 21.9051C101.232 21.829 101.287 21.7633 101.356 21.7136C101.466 21.8231 101.466 21.6309 101.466 21.6309C101.411 21.5762 101.328 21.5762 101.328 21.5762L101.274 21.6856L101.029 22.0677C100.92 22.4229 100.235 23.4619 100.235 23.4619C100.017 23.6808 99.3054 24.4729 99.3054 24.4729L99.1959 24.4181C98.9524 24.4483 98.4597 24.2561 98.4597 24.2561V24.2561ZM100.046 28.8754L100.236 28.5481L100.373 28.576C100.428 28.9581 100.675 29.2306 100.675 29.2306L100.647 29.778C100.567 29.5859 100.374 29.5859 100.374 29.5859C100.511 29.0955 100.046 28.8754 100.046 28.8754ZM98.8138 31.4168H98.6228L98.1581 31.9363C98.1302 32.2379 97.7481 32.3753 97.7481 32.3753C98.4865 32.3206 98.596 32.048 98.596 32.048C98.558 32.1901 98.5029 32.327 98.4318 32.4558C98.8954 32.2111 98.787 32.1027 98.787 32.1027C98.8697 31.8279 98.8418 31.8011 98.8418 31.8011C98.8697 31.6637 98.8954 31.638 98.8954 31.638C98.9524 31.4168 98.8138 31.4168 98.8138 31.4168ZM99.1423 31.6369C99.4439 31.6916 99.607 31.6626 99.607 31.6626C99.9913 32.0178 99.5813 32.5373 99.5813 32.5373C99.4718 32.2904 99.5266 32.1821 99.5266 32.1821C99.5813 32.0469 99.4718 31.8804 99.4718 31.8804C99.3065 32.1005 99.4148 32.4826 99.4148 32.4826C99.0875 32.3452 99.0071 32.0178 99.0071 32.0178C99.0071 31.8011 99.1423 31.6369 99.1423 31.6369V31.6369ZM102.203 28.4654L102.45 28.2755C102.56 28.5481 102.37 28.8207 102.37 28.8207C102.336 28.6931 102.28 28.5727 102.203 28.4654V28.4654ZM101.821 28.8207C101.904 28.7402 102.013 28.576 102.013 28.576C102.176 28.8207 102.094 29.1502 102.094 29.1502C101.959 29.0675 102.013 29.1223 102.013 29.1223L101.821 28.8207Z" fill="#A1A1AA"/>
<path fill-rule="evenodd" clip-rule="evenodd" d="M101.739 26.0605V26.9899C102.533 26.9072 102.451 27.5093 102.451 27.5093C102.778 27.6188 102.56 28.1919 102.56 28.1919C102.698 28.5214 102.535 28.9035 102.535 28.9035C102.945 29.8586 104.173 30.215 104.173 30.215L104.119 26.0325L101.739 26.0605V26.0605ZM101.576 24.4194L101.604 24.9668C101.165 25.8962 101.412 27.153 101.412 27.153C101.365 27.1605 101.321 27.1793 101.283 27.2077C101.245 27.2361 101.214 27.2733 101.194 27.3161C100.892 25.3489 101.576 24.4194 101.576 24.4194V24.4194ZM103.325 29.9424L103.298 31.9934L104.172 32.7028L104.912 32.0481V30.1893L104.61 30.215V31.8013L104.172 32.2917L103.681 31.9364V30.1893L103.325 29.9424V29.9424Z" fill="#A1A1AA"/>
<path fill-rule="evenodd" clip-rule="evenodd" d="M104.139 30.8981C104.219 30.8981 104.276 30.8434 104.276 30.735C104.276 30.6267 104.219 30.5451 104.139 30.5451C104.084 30.5451 104.029 30.6256 104.029 30.735C104.029 30.8445 104.085 30.8981 104.139 30.8981ZM104.386 31.3372C104.44 31.3372 104.495 31.2545 104.495 31.1741C104.495 31.0646 104.44 30.9819 104.386 30.9819C104.303 30.9819 104.248 31.0646 104.248 31.1741C104.248 31.2545 104.303 31.3372 104.386 31.3372ZM104.166 31.6645C104.22 31.6645 104.277 31.584 104.277 31.5014C104.277 31.4187 104.22 31.3383 104.166 31.3383C104.085 31.3383 104.03 31.4187 104.03 31.5014C104.03 31.584 104.085 31.6645 104.166 31.6645ZM103.948 31.3081C104.03 31.3081 104.085 31.2277 104.085 31.1182C104.085 31.0355 104.03 30.9529 103.948 30.9529C103.867 30.9529 103.813 31.0355 103.813 31.1182C103.813 31.2277 103.866 31.3081 103.948 31.3081ZM101.597 29.0962C101.569 28.8762 101.678 28.8493 101.678 28.8493C101.787 29.1219 102.007 29.2861 102.007 29.2861V29.2604C102.088 29.4504 102.335 29.6425 102.335 29.6425C102.363 29.8346 102.172 29.8346 102.172 29.8346C101.815 29.533 101.597 29.0962 101.597 29.0962V29.0962ZM102.142 29.2593C102.28 29.0962 102.252 28.9577 102.252 28.9577C102.335 29.0951 102.389 29.0951 102.389 29.0951L102.472 29.0404L102.635 29.285C102.443 29.3129 102.333 29.5319 102.333 29.5319C102.172 29.4492 102.142 29.2593 102.142 29.2593ZM101.133 29.504L101.323 29.7788C101.323 29.6693 101.377 29.5866 101.377 29.5866L101.597 29.3688L101.488 29.1767L101.268 29.4235C101.213 29.4492 101.133 29.504 101.133 29.504V29.504ZM100.832 29.0136L100.995 29.2314C101.023 29.1219 101.078 29.0962 101.078 29.0962L101.35 28.8493L101.187 28.7399L100.832 29.0136ZM100.148 25.9784V26.28L100.229 26.2532L100.64 26.2252L100.148 26.7983L100.476 27.0173H100.94V26.7983H100.45L100.94 26.2532V26.0063L100.858 26.0331H100.229L100.148 25.9784V25.9784ZM100.203 25.2958L100.175 25.5684L100.229 25.5136L100.858 25.5963L100.94 25.7058L100.995 25.3785H100.886L100.313 25.2958L100.203 25.2143V25.2958V25.2958ZM100.694 23.8201L100.886 23.9564L100.748 24.0111C100.53 24.2021 100.668 24.3116 100.668 24.3116C100.803 24.3943 100.831 24.2301 100.831 24.2301C101.049 23.9296 101.213 24.0927 101.213 24.0927C101.488 24.2837 101.296 24.5853 101.296 24.5853L101.213 24.6948L101.187 24.7763L100.97 24.6948L101.079 24.6132C101.188 24.5306 101.159 24.3954 101.159 24.3954C101.105 24.1485 100.97 24.3954 100.97 24.3954C100.64 24.7227 100.477 24.3675 100.477 24.3675C100.338 24.1195 100.694 23.8201 100.694 23.8201V23.8201ZM101.488 22.9175V23.1364C101.158 23.0538 101.186 23.3822 101.186 23.3822C101.267 23.7642 101.541 23.7095 101.541 23.7095V23.8737C101.157 23.9285 101.022 23.5721 101.022 23.5721C100.886 22.9454 101.488 22.9175 101.488 22.9175V22.9175ZM101.732 25.9236H104.111V22.4259L101.624 22.398L101.732 25.9236ZM101.543 18.9539C102.173 18.4043 102.935 18.0275 103.754 17.8603V18.4066C102.937 18.2982 101.543 18.9539 101.543 18.9539ZM104.495 17.8882V18.3798C106.189 18.325 106.983 19.0634 106.983 19.0634C105.97 17.8324 104.495 17.8882 104.495 17.8882V17.8882ZM103.893 17.8603V18.4077H104.358V17.8603H103.893ZM100.858 19.3092C100.695 18.544 101.268 18.8445 101.268 18.8445L100.858 19.3092ZM101.46 18.7082C101.405 17.9161 101.925 18.3529 101.925 18.3529L101.46 18.7082ZM102.197 18.1887C102.172 17.3967 102.69 17.8614 102.69 17.8614L102.197 18.1887ZM102.909 17.8067C103.018 16.7678 103.456 17.5877 103.456 17.5877L102.909 17.8067ZM103.756 17.2861H104.495C104.605 17.4503 104.386 17.6961 104.386 17.6961C104.139 17.7787 103.893 17.6693 103.893 17.6693C103.511 17.5877 103.756 17.2861 103.756 17.2861ZM103.783 16.0562H104.495L104.277 16.3846L104.412 16.522L104.576 16.3019L104.603 16.9856L104.248 16.713L104.412 17.123L103.783 17.0951L104.056 16.7666L103.976 16.6851L103.701 16.9309L103.674 16.2751L103.948 16.522L104.03 16.4393L103.783 16.0562V16.0562ZM106.844 18.4892L107.254 18.8724C107.393 18.0245 106.844 18.4892 106.844 18.4892ZM106.627 18.325L106.134 18.0513C106.707 17.4782 106.627 18.325 106.627 18.325ZM105.425 17.6425L105.915 17.8614C105.915 17.0135 105.425 17.6425 105.425 17.6425ZM105.232 17.6145C105.178 17.2314 104.96 17.2314 104.96 17.2314C104.713 17.1766 104.685 17.5866 104.685 17.5866L105.232 17.6145ZM101.597 21.797C104.22 21.2775 106.572 21.797 106.572 21.797C106.899 21.8517 106.764 22.0975 106.764 22.0975C106.517 22.1791 106.409 22.1243 106.409 22.1243C104.386 21.7143 101.679 22.207 101.679 22.207C101.269 22.2338 101.352 22.0428 101.352 22.0428C101.434 21.7423 101.597 21.797 101.597 21.797ZM104.248 22.4259V25.9527H106.517L106.599 22.4259H104.248ZM106.517 26.061H104.248L104.276 30.2435C105.533 30.0257 105.888 29.2593 105.888 29.2593C105.943 28.875 106.516 27.291 106.516 27.291V26.061H106.517ZM105.095 30.1351V30.5451C105.588 30.8724 106.189 31.0355 106.189 31.0355C106.435 30.9529 106.326 30.7339 106.326 30.7339C106.246 30.6692 106.153 30.6231 106.053 30.5987C105.534 30.5451 105.095 30.1351 105.095 30.1351ZM105.944 29.3409L106.079 29.4783L105.588 30.1899L105.505 29.9977L105.944 29.3409V29.3409ZM106.187 29.5609L105.725 30.2156C106.434 30.6803 106.844 29.5878 106.844 29.5878C106.434 29.6961 106.187 29.5609 106.187 29.5609ZM106.654 24.2022V24.859C106.899 25.2958 106.954 26.2252 106.954 26.2252L107.174 25.8432C107.146 24.8847 106.654 24.2022 106.654 24.2022ZM105.068 31.7728V32.0744C105.286 32.2666 105.86 32.4018 105.86 32.4018C105.998 32.347 105.86 32.1571 105.86 32.1571C105.534 32.1571 105.068 31.7728 105.068 31.7728V31.7728Z" fill="#A1A1AA"/>
<path fill-rule="evenodd" clip-rule="evenodd" d="M105.977 31.6649L106.114 31.1744C106.579 31.1465 106.416 30.627 106.416 30.627C106.798 30.5176 107.233 29.807 107.233 29.807L107.345 30.0819L107.508 30.4092C107.589 30.5723 107.643 30.6561 107.618 30.6561L107.371 30.8739V30.7365L106.906 31.1465L107.069 30.245L106.632 31.2549C106.387 31.5297 105.977 31.6649 105.977 31.6649V31.6649ZM106.059 31.9118C106.441 32.486 107.7 32.486 107.7 32.486C107.563 32.1587 107.208 32.0212 107.208 32.0212C107.755 31.8034 108.247 32.2938 108.247 32.2938C108.548 32.5687 108.874 32.5687 108.874 32.5687C108.797 32.4568 108.705 32.3554 108.602 32.267C108.765 32.3475 108.929 32.2927 108.929 32.2927C108.739 31.9654 108.192 31.6649 108.192 31.6649C108.766 31.3632 109.259 32.0492 109.259 32.0492C109.503 32.4022 109.723 32.486 109.723 32.486L109.558 31.9386C109.723 32.4312 110.378 32.5687 110.378 32.5687C110.461 32.486 110.378 32.3218 110.378 32.3218C110.188 32.3218 110.023 32.0492 110.023 32.0492L109.997 31.5018C109.395 31.4191 109.395 31.0918 109.395 31.0918C109.478 30.6013 109.914 30.5466 109.914 30.5466L109.86 29.9165C110.215 29.5892 110.899 29.7813 110.899 29.7813C110.844 29.397 110.543 29.5065 110.543 29.5065C110.543 29.2071 110.19 29.1792 110.19 29.1792V29.2619L109.204 30.0282C109.341 30.7924 108.986 31.0381 108.986 31.0381C108.304 31.4772 107.812 30.875 107.812 30.875L107.428 31.1219C107.783 31.1476 108.03 31.4772 108.03 31.4772L107.975 31.5319C107.799 31.3886 107.593 31.2856 107.373 31.2303L107.046 31.3655L106.883 31.5029L106.059 31.9118V31.9118Z" fill="#A1A1AA"/>
<path fill-rule="evenodd" clip-rule="evenodd" d="M108.247 29.1503C108.549 28.7113 108.684 28.0008 108.684 28.0008L108.796 28.1382L108.633 28.6577L108.742 28.7672L108.932 28.3304L109.07 28.4935L108.852 28.8487L109.015 28.9839L109.233 28.6845L109.37 28.794L109.069 29.0956L109.204 29.2855L109.451 28.9035L109.643 29.0409L109.315 29.3682L109.451 29.4777L109.78 29.2051L109.89 29.2855L109.095 29.9424C108.822 29.3403 108.247 29.1503 108.247 29.1503ZM111.063 29.805C111.747 29.6419 111.174 29.2855 111.174 29.2855C110.572 29.0677 110.489 29.176 110.489 29.176C110.71 29.2587 110.682 29.3939 110.682 29.3939C110.982 29.4229 111.063 29.805 111.063 29.805V29.805ZM111.091 30.4618L111.337 29.8597C110.953 29.9971 110.71 29.9145 110.71 29.9145C110.3 29.8597 110.133 29.9692 110.133 29.9692C109.888 30.1066 110.081 30.1345 110.081 30.1345C110.38 30.4328 111.091 30.4618 111.091 30.4618V30.4618ZM111.883 30.3781L112.02 30.5445L112.677 30.3244L112.293 30.5992L113.004 30.654L112.677 30.1602L111.883 30.3781ZM109.915 18.2976C109.861 17.806 109.588 17.5871 109.588 17.5871C109.286 17.3961 109.261 17.5603 109.261 17.5603C109.261 17.806 109.451 17.8876 109.451 17.8876L109.915 18.2976V18.2976ZM110.543 18.6796C110.488 18.3791 110.463 18.3523 110.463 18.3523C110.353 18.1613 110.271 18.0518 110.271 18.0518L109.915 17.806C110.025 18.025 110.053 18.2976 110.053 18.2976L110.543 18.6796V18.6796ZM110.571 18.2428C110.734 18.5165 110.708 18.7344 110.708 18.7344L111.145 19.1723C111.145 18.7344 110.927 18.4618 110.927 18.4618L110.572 18.1881V18.2428H110.571V18.2428ZM109.725 21.2769C109.533 21.3864 109.396 21.3317 109.396 21.3317C109.396 21.6054 109.888 21.6053 109.888 21.6053C110.081 21.6053 110.244 21.4143 110.244 21.4143V21.3048C110.081 21.4143 109.888 21.4423 109.888 21.4423L109.725 21.2769V21.2769ZM110.325 23.1626L110.38 22.9716C110.899 22.8342 110.517 22.4521 110.517 22.4521C110.71 22.3706 110.764 22.4253 110.764 22.4253C111.009 22.2879 111.092 22.5884 111.092 22.5884C111.284 22.4253 111.419 22.5337 111.419 22.5337C111.009 22.9168 111.502 23.0531 111.502 23.0531C111.748 23.0531 111.803 22.8074 111.803 22.8074C111.694 22.6968 111.666 22.6163 111.666 22.6163C111.747 22.6472 111.821 22.6935 111.884 22.7526C111.858 22.5884 112.021 22.5884 112.021 22.5884C112.102 22.7258 112.076 22.8342 112.076 22.8342C112.158 22.7526 112.323 22.8342 112.323 22.8342C112.076 23.1079 112.403 23.3536 112.403 23.3536C112.787 23.5715 112.733 22.9437 112.733 22.9437C113.005 22.9437 112.977 23.1894 112.977 23.1894L113.143 23.0531C113.197 23.2174 113.197 23.3268 113.197 23.3268C113.307 23.1894 113.47 23.3 113.47 23.3C113.031 23.5726 113.333 23.8195 113.333 23.8195C113.47 23.929 113.579 23.8463 113.579 23.8463L113.554 23.6553L113.907 23.71L113.554 24.12C111.693 23.0531 110.325 23.1626 110.325 23.1626V23.1626ZM111.174 18.5981L111.527 18.817C111.502 19.036 111.309 19.2538 111.309 19.2538C111.363 19.036 111.174 18.5981 111.174 18.5981V18.5981ZM112.867 18.817C113.606 18.626 114.098 19.6091 114.098 19.6091L113.553 19.3912C113.331 19.1443 112.867 18.817 112.867 18.817V18.817ZM113.606 19.5543C113.769 19.7733 113.851 20.1285 113.851 20.1285C114.043 20.3475 114.59 20.6759 114.59 20.6759C114.453 19.7733 113.606 19.5543 113.606 19.5543V19.5543ZM113.96 20.457C114.918 20.8122 114.617 21.8232 114.617 21.8232C114.48 21.4679 114.235 21.3585 114.235 21.3585C113.96 21.0859 113.96 20.457 113.96 20.457ZM114.126 21.5227C114.151 21.7416 114.071 22.1237 114.071 22.1237C114.206 22.3427 114.316 22.7794 114.316 22.7794C114.425 22.67 114.563 22.0142 114.563 22.0142C114.48 21.7148 114.126 21.5227 114.126 21.5227V21.5227ZM114.016 22.3974C113.959 22.6979 113.632 23.2442 113.632 23.2442L113.769 23.4084L113.932 23.5178C114.398 22.9168 114.016 22.3974 114.016 22.3974V22.3974ZM119.647 31.2818L119.402 30.3524C119.21 30.0507 118.909 30.2429 118.909 30.2429C118.662 30.4328 118.362 30.3233 118.362 30.3233C118.035 30.2686 118.307 30.0507 118.307 30.0507C118.746 29.7782 119.182 29.6408 119.182 29.6408C119.511 29.7782 120.111 29.7502 120.111 29.7502C120.631 29.6698 120.521 30.1055 120.521 30.1055C120.549 30.5155 120.412 31.2271 120.412 31.2271C120.084 31.2271 119.647 31.2818 119.647 31.2818V31.2818ZM120.521 31.4739L120.659 31.6091L120.249 32.3464L120.057 32.2369C120.329 32.0191 120.521 31.4739 120.521 31.4739V31.4739ZM120.767 31.6639L120.44 32.3755C121.04 32.4849 121.479 32.0738 121.479 32.0738L121.396 31.637C121.094 31.7722 120.767 31.6639 120.767 31.6639ZM121.998 31.3622C122.133 31.3902 122.408 31.4996 122.408 31.4996C122.518 31.0092 122.271 30.406 122.271 30.406C122.735 30.5691 122.735 30.3781 122.735 30.3781C122.873 29.996 122.408 29.8876 122.408 29.8876C121.614 29.6408 121.341 29.6955 121.341 29.6955C121.396 29.9133 121.369 30.0507 121.369 30.0507C121.395 30.1055 121.395 30.3233 121.395 30.3233C122.161 30.5992 121.998 31.3622 121.998 31.3622V31.3622ZM106.69 22.89V23.1079L106.963 22.9168L106.69 23.5458L106.663 23.929L107.1 22.9984L106.963 22.7526L106.69 22.89ZM106.773 24.0652H106.882L107.455 23.6273L107.51 23.5178L107.645 23.8195H107.565L107.045 24.2295L107.126 24.4484L107.264 24.5847L107.072 24.6662L106.773 24.0652ZM107.264 25.2684L107.347 25.5957L107.482 25.513L107.702 25.4326L107.892 25.5678H108.165L107.837 25.3488L108.084 25.0762L107.975 24.7489L107.92 24.8841L107.674 25.2136L107.347 25.2952L107.264 25.2684V25.2684ZM107.702 27.2088C107.565 27.2367 107.62 27.3183 107.62 27.3183C107.892 27.6735 108.056 27.373 108.056 27.373C108.139 27.2099 108.111 27.1004 108.111 27.1004L108.031 27.0747C108.031 27.4021 107.868 27.3194 107.868 27.3194C107.757 27.3172 107.702 27.2088 107.702 27.2088V27.2088ZM107.402 27.7271L107.347 28.0835L107.455 28.2756L107.51 27.9461L107.783 28.0835L107.645 28.3561L107.565 28.384L107.757 28.4935L107.947 28.0545L108.03 27.9461H107.947L107.402 27.6735V27.7271V27.7271ZM102.016 30.7344C101.961 30.9523 101.769 30.9266 101.769 30.9266L101.468 30.5713C101.275 30.2697 101.442 30.1893 101.442 30.1893L101.824 29.6419C101.908 29.694 101.975 29.7698 102.016 29.8597L101.741 30.215C101.661 30.4071 101.796 30.4618 101.796 30.4618L102.016 30.7344V30.7344Z" fill="#A1A1AA"/>
<path fill-rule="evenodd" clip-rule="evenodd" d="M102.392 29.5863C102.502 30.0511 102.037 29.9416 102.037 29.9416C101.874 30.2689 102.12 30.2689 102.12 30.2689C102.502 30.2968 102.639 29.9136 102.639 29.9136C102.639 29.6701 102.392 29.5863 102.392 29.5863ZM110.483 22.0156L110.155 21.7151C110.155 21.7151 110.428 21.4962 110.373 21.2236C110.373 21.2236 110.565 21.1968 110.183 21.1968L110.046 21.2783C110.046 21.2783 109.908 21.2236 109.883 21.1409L109.828 20.8136L110.075 20.5131L110.293 20.5399C110.452 20.3221 110.867 19.9501 111.22 19.6485L111.332 19.7747C111.194 20.0752 111.357 20.1568 111.357 20.1568C111.575 20.2942 111.659 20.0205 111.659 20.0205C111.877 20.1299 111.796 19.9936 111.796 19.9936C111.576 19.9445 111.332 19.6541 111.286 19.5948C111.567 19.3558 111.796 19.1737 111.796 19.1737C111.931 18.8732 112.152 18.7358 112.152 18.7358C112.014 18.5727 111.905 18.1348 111.905 18.1348C112.587 18.1348 112.697 18.8453 112.697 18.8453C114.802 20.5131 113.491 23.1372 113.491 23.1372C112.861 22.6178 111.44 22.2893 111.44 22.2893C111.632 21.9073 112.095 21.6604 112.095 21.6604C112.998 21.6883 112.861 20.5947 112.861 20.5947C112.671 20.2115 112.726 20.7857 112.726 20.7857C112.341 22.0424 111.357 20.9231 111.357 20.9231C111.248 20.8404 111.357 21.1141 111.357 21.1141C111.412 21.2504 111.467 21.2236 111.467 21.2236L111.549 21.3051L110.867 21.5788C110.757 21.7431 110.565 22.0168 110.565 22.0168H110.483V22.0156V22.0156ZM97.7731 19.8562C96.6258 19.9657 95.2317 20.9767 95.2317 20.9767C95.0675 21.0862 95.0407 21.0583 95.0407 21.0583C94.767 21.5498 95.3412 21.7688 95.3412 21.7688C95.2627 22.2181 95.3399 22.6808 95.5601 23.0802C95.8059 23.3819 95.8606 24.1471 95.8606 24.1471C96.0517 24.0097 96.1064 23.7092 96.1064 23.7092C96.3253 24.6375 97.0358 24.8296 97.0358 24.8296C97.1279 24.8499 97.2146 24.8896 97.2901 24.946C97.3656 25.0025 97.4282 25.0744 97.4737 25.157C97.5553 24.8844 97.5285 24.6118 97.5285 24.6118C97.61 24.9671 97.9385 25.157 97.9385 25.157C97.9932 24.8296 98.1027 24.5291 98.1027 24.5291C98.3484 24.0108 98.1574 23.4913 98.1574 23.4913C98.2669 23.6824 98.5127 23.7371 98.5127 23.7371C98.3484 23.2456 98.5127 22.8345 98.5127 22.8345C98.5953 22.3429 98.4032 22.0145 98.4032 22.0145L98.3507 21.8168C98.2323 22.1609 98.2926 22.6982 98.2926 22.6982C98.1563 22.6714 98.0189 22.6166 98.0189 22.6166C98.1016 23.1082 97.7731 23.7639 97.7731 23.7639C97.5821 24.0644 97.5542 24.2834 97.5542 24.2834C97.3084 23.9561 96.5432 23.7371 96.5432 23.7371C96.42 23.5831 96.3105 23.4186 96.2159 23.2456C96.1064 23.4366 95.9969 23.383 95.9969 23.383C95.9154 23.1093 95.6696 22.7809 95.6696 22.7809C95.4786 22.4535 95.4786 22.1251 95.4786 22.1251C95.7255 22.5898 95.807 22.6993 95.807 22.6993C95.998 22.8099 95.998 23.1908 95.998 23.1908C96.1622 23.1093 96.1891 22.9183 96.1891 22.9183C96.5722 23.5461 97.0917 23.6567 97.0917 23.6567C97.3106 23.7662 97.5017 23.9572 97.5017 23.9572C97.5285 23.5193 97.6927 23.3294 97.6927 23.3294C98.02 22.8367 97.829 22.2357 97.829 22.2357C97.8641 22.3129 97.9172 22.3804 97.9839 22.4327C98.0506 22.485 98.1289 22.5205 98.2122 22.5362C98.1574 22.2904 98.1853 22.0715 98.1853 22.0715C98.23 21.895 98.2501 21.6459 98.2591 21.4548L98.1853 21.1689C98.0211 20.8136 97.9943 20.5678 97.9943 20.5678C98.2647 20.0741 97.7731 19.8562 97.7731 19.8562V19.8562ZM96.6527 22.2882C96.8705 22.5887 97.1721 22.6982 97.1721 22.6982C97.3352 22.343 97.2816 22.0704 97.2816 22.0704C97.0358 22.0972 96.9264 22.0156 96.9264 22.0156C96.8437 22.3161 96.6527 22.2882 96.6527 22.2882ZM95.5858 21.0862C95.969 21.1957 96.1053 21.0315 96.1053 21.0315C96.5153 20.8672 96.57 21.3051 96.57 21.3051C96.57 21.4962 96.6527 21.6325 96.6527 21.6325C96.77 21.6448 96.9789 21.6068 97.0626 21.523C97.1721 21.3856 97.0079 21.2493 97.0079 21.2493C96.9532 21.0583 96.8984 20.9488 96.8984 20.9488C96.8984 20.5109 97.2 20.5388 97.2 20.5388C97.3911 20.5656 97.5274 20.3746 97.5274 20.3746C97.5421 20.4823 97.5205 20.5917 97.4661 20.6858C97.4117 20.7799 97.3275 20.8531 97.2269 20.894C97.0358 21.0315 97.0895 21.1957 97.0895 21.1957C97.2805 21.523 97.1163 21.5509 97.1163 21.5509C97.0977 21.5957 97.0688 21.6354 97.0319 21.6669C96.995 21.6983 96.9512 21.7206 96.904 21.7319C96.99 21.9598 97.1989 21.9341 97.1989 21.9341C97.4994 21.771 97.4994 21.4426 97.4994 21.4426C97.6357 21.8246 97.4994 21.9341 97.4994 21.9341C97.6357 22.1798 97.4168 22.2893 97.4168 22.2893C97.4168 22.754 97.171 22.973 97.171 22.973C96.2416 22.4267 96.2148 21.7978 96.2148 21.7978C96.5153 22.3173 96.8158 22.0715 96.8158 22.0715C96.875 22.0112 96.8627 21.8369 96.8515 21.7453C96.7208 21.7687 96.5968 21.7442 96.5968 21.7442C96.4326 21.5252 96.4605 21.3621 96.4605 21.3621C96.3231 21.0605 96.2416 21.3074 96.2416 21.3074C95.75 21.6045 95.5858 21.0862 95.5858 21.0862V21.0862ZM89.2719 30.4878C90.0371 30.9526 92.8533 30.9526 92.8533 30.9526C95.559 30.9805 97.0358 30.5996 97.0358 30.5996C97.3632 30.5996 97.9105 30.3527 97.9105 30.3527C98.02 30.3247 97.9642 30.5448 97.9642 30.5448C97.8011 31.1726 97.9373 31.8016 97.9373 31.8016C97.9373 32.2384 97.4726 32.2116 97.4726 32.2116C93.5091 32.7567 90.3387 32.4841 90.3387 32.4841C89.4093 32.321 89.3813 31.8273 89.3813 31.8273C89.6003 31.0632 89.2998 30.6253 89.2998 30.6253C89.1892 30.5448 89.2719 30.4878 89.2719 30.4878V30.4878ZM90.1466 32.1021L90.2292 32.0194V31.2274L90.1745 31.09C90.7755 31.0643 90.9665 31.3078 90.9665 31.3078C91.3765 31.9926 90.6649 32.1568 90.6649 32.1568C90.4905 32.1906 90.31 32.1716 90.1466 32.1021V32.1021ZM91.5128 31.1995L91.9228 31.2274C91.8133 31.2821 91.8412 31.4452 91.8412 31.4452L91.8144 32.1825L91.9239 32.3456L91.486 32.3199C91.5955 32.2373 91.5955 32.1825 91.5955 32.1825V31.3905C91.5955 31.2821 91.5128 31.1995 91.5128 31.1995V31.1995ZM90.5018 31.2274L90.475 31.9937C90.7755 32.0194 90.8302 31.7736 90.8302 31.7736C90.885 31.6385 90.7755 31.4463 90.7755 31.4463C90.666 31.2274 90.5018 31.2274 90.5018 31.2274V31.2274ZM92.3607 31.2821H93.1527L93.1795 31.4743C93.0701 31.4173 92.9338 31.4173 92.9338 31.4173H92.7696V31.7189H92.8522L93.0433 31.6642L93.0164 31.911L92.8802 31.8831H92.7707V32.2127H92.9617C93.0712 32.2127 93.1527 32.13 93.1527 32.13V32.3478L92.5517 32.3222H92.3875C92.3607 32.2942 92.3875 32.2942 92.3875 32.2942C92.4422 32.2942 92.497 32.2395 92.497 32.2395V31.3927C92.4702 31.3369 92.3607 31.2821 92.3607 31.2821V31.2821ZM93.5906 31.2542L94.0006 31.2821C93.9752 31.3239 93.9567 31.3696 93.9459 31.4173V31.9647C93.9727 32.1825 94.1369 32.1568 94.1369 32.1568C94.3279 32.1289 94.3011 31.882 94.3011 31.882V31.3369L94.2464 31.2821H94.5469C94.5201 31.3078 94.5201 31.3625 94.5201 31.3625V31.9367C94.4922 32.292 94.1101 32.321 94.1101 32.321C93.7001 32.2931 93.7001 31.911 93.7001 31.911V31.3637C93.6716 31.32 93.6344 31.2827 93.5906 31.2542V31.2542ZM95.5858 31.1447L96.2416 31.09L96.3231 31.2821C96.2416 31.2542 96.1321 31.2542 96.1321 31.2542H95.969V31.529H96.1321C96.1589 31.5011 96.2148 31.4743 96.2148 31.4743L96.2416 31.7189C96.1868 31.6642 96.1321 31.6642 96.1321 31.6642H95.969V31.9658H96.16C96.2147 31.9658 96.2974 31.8831 96.2974 31.8831V32.0753L95.6685 32.1579L95.7232 32.1032L95.6964 31.2285C95.6953 31.1726 95.5858 31.1447 95.5858 31.1447V31.1447ZM96.7621 31.0352L96.789 31.2531C96.8437 31.1436 97.0347 31.1436 97.0347 31.1436L97.0615 31.9356L97.0068 31.9926L97.3341 31.9356L97.2794 31.9099L97.2526 31.1179C97.4157 31.0632 97.4983 31.1436 97.4983 31.1436L97.4715 30.9258L97.4436 30.9515L96.8158 31.0084H96.761V31.0352H96.7621V31.0352ZM98.3462 30.1605C98.1552 29.8053 98.2915 29.5606 98.2915 29.5606C98.4557 29.068 98.9204 29.1216 98.9204 29.1216C99.193 29.2847 99.1673 29.0669 99.1673 29.0669C99.4399 28.6848 99.7672 28.9038 99.7672 28.9038C99.857 29.0151 99.9825 29.0921 100.122 29.1216C100.315 29.3685 100.205 29.5037 100.205 29.5037C100.19 29.5899 100.21 29.6786 100.26 29.7505C100.507 29.8053 100.478 30.0801 100.478 30.0801C100.532 30.3795 100.34 30.8721 100.34 30.8721C100.177 31.0095 99.9873 30.8978 99.9873 30.8978C99.8499 30.9258 99.9046 30.9805 99.9046 30.9805C100.042 31.1983 99.9046 31.3078 99.9046 31.3078C99.6867 31.5547 99.3851 31.5279 99.3851 31.5279C98.9483 31.5279 98.9204 31.3078 98.9204 31.3078C98.8657 31.1179 98.6199 31.1179 98.6199 31.1179C98.2647 31.0084 98.2367 30.6532 98.2367 30.6532C98.2099 30.461 98.3462 30.3784 98.3462 30.3784C98.4836 30.2979 98.3462 30.1605 98.3462 30.1605V30.1605ZM99.0846 30.4074C99.1941 30.8174 98.9495 30.9816 98.9495 30.9816C98.7294 31.0095 98.7026 30.8442 98.7026 30.8442C98.7026 30.6811 98.5652 30.6543 98.5652 30.6543C98.4836 30.3247 98.6478 30.3247 98.6478 30.3247C98.9215 30.2432 99.0846 30.4074 99.0846 30.4074V30.4074ZM99.6041 30.2432C99.6588 30.5158 100.043 30.7336 100.043 30.7336C100.233 30.7336 100.153 30.461 100.153 30.461C100.043 30.3236 100.098 30.2432 100.098 30.2432C100.37 30.1885 100.178 29.9416 100.178 29.9416C99.6588 29.8053 99.6041 30.2432 99.6041 30.2432ZM99.222 29.8053C99.222 29.2858 98.8925 29.3149 98.8925 29.3149C98.7294 29.3406 98.7294 29.5048 98.7294 29.5048C98.7841 29.7796 98.6746 29.7796 98.6746 29.7796C98.4289 29.8343 98.5931 30.1069 98.5931 30.1069C98.6746 30.2164 98.7294 30.1896 98.7294 30.1896C98.9751 30.1896 99.1673 30.0522 99.1673 30.0522C99.3025 30.0254 99.222 29.8053 99.222 29.8053ZM99.5784 29.2311C99.6588 29.3942 99.7962 29.3685 99.7962 29.3685C100.098 29.3685 99.9057 29.6701 99.9057 29.6701C99.7426 29.888 99.5237 29.9148 99.5237 29.9148C99.222 29.5618 99.2488 29.3696 99.2488 29.3696C99.2488 28.9306 99.5784 29.2311 99.5784 29.2311ZM99.3862 30.5448C99.7962 30.5996 99.7683 31.0352 99.7683 31.0352C99.6588 31.2274 99.5505 31.1447 99.5505 31.1447C99.4131 31.0095 99.3326 31.119 99.3326 31.119C99.3326 31.3637 99.1405 31.1995 99.1405 31.1995C99.0299 30.6253 99.3862 30.5448 99.3862 30.5448V30.5448Z" fill="#A1A1AA"/>
<path fill-rule="evenodd" clip-rule="evenodd" d="M99.7685 31.6372C100.178 31.5277 100.178 31.1445 100.178 31.1445C100.212 31.1341 100.243 31.1194 100.272 31.1009C100.572 31.2886 100.643 31.5288 100.643 31.5288C100.753 31.5835 100.918 31.8561 100.918 31.8561C100.89 31.5009 100.726 31.4171 100.726 31.4171C100.665 31.2447 100.564 31.0888 100.433 30.9613C100.643 30.6999 100.643 30.2977 100.643 30.2977C100.945 30.1883 101.217 30.5703 101.217 30.5703C101.108 30.6251 101 30.5982 101 30.5982C101.439 30.7882 101.355 31.4729 101.355 31.4729C101.163 31.4729 101.082 31.3903 101.082 31.3903C101.41 31.7723 101.082 32.5119 101.082 32.5119C100.753 32.3745 100.698 31.9924 100.698 31.9924C100.753 32.265 100.643 32.3454 100.643 32.3454C100.371 32.2907 100.261 31.9354 100.261 31.9354C100.233 32.265 100.069 32.1276 100.069 32.1276C99.9886 32.0728 99.9886 31.8807 99.9886 31.8807C99.8523 31.8561 99.7685 31.6372 99.7685 31.6372ZM103.186 31.3367C103.073 31.311 102.963 31.2751 102.856 31.2294C102.788 31.4149 102.607 31.8662 102.394 32.1019C102.394 32.1019 102.636 31.6148 102.778 31.1948C102.539 31.0833 102.318 30.9377 102.121 30.7625C102.093 31.1724 101.656 30.9524 101.656 30.9524C101.439 31.3624 101.846 31.4741 101.846 31.4741C102.176 31.4461 102.339 31.254 102.339 31.254C102.721 31.1736 102.448 31.4741 102.448 31.4741C102.311 31.6092 102.012 31.664 102.012 31.664C101.602 31.8014 101.82 32.1287 101.82 32.1287C102.037 32.4303 102.256 32.3208 102.256 32.3208C102.448 32.3465 102.448 32.4839 102.448 32.4839C102.586 32.8112 102.804 32.6213 102.804 32.6213C103.051 32.3465 102.913 32.074 102.913 32.074C102.776 31.7187 102.858 31.5835 102.858 31.5835C102.776 31.0909 102.996 31.4461 102.996 31.4461C103.051 31.5288 103.105 31.7478 103.105 31.7478C103.186 31.9377 103.215 31.8025 103.215 31.8025L103.186 31.3367V31.3367ZM98.9229 28.984L99.086 28.6846C99.0603 28.3551 98.7307 28.1652 98.7307 28.1652C98.676 28.2747 98.7307 28.4098 98.7307 28.4098C98.5665 28.1652 98.075 27.9998 98.075 27.9998C98.0202 28.1372 98.075 28.4098 98.075 28.4098C97.8281 27.9451 97.3086 27.9194 97.3086 27.9194C97.3086 28.1373 97.4181 28.2747 97.4181 28.2747C97.1723 28.0825 96.6797 28.1372 96.6797 28.1372C96.7624 28.6299 97.1723 28.9572 97.1723 28.9572L97.1176 29.0946C96.8171 28.8745 96.7355 29.0399 96.7355 29.0399C96.7087 29.0656 96.7355 29.1203 96.7355 29.1203C96.8986 29.3929 97.5008 29.6398 97.5008 29.6398C97.3365 29.6945 97.2818 29.8319 97.2818 29.8319C97.5008 30.2687 98.1565 30.2419 98.1565 30.2419C98.0708 29.944 98.0766 29.6271 98.1733 29.3326C98.104 29.289 97.7331 29.0533 97.6102 28.9293C97.6102 28.9293 97.5008 28.7941 97.2829 28.602L96.8998 28.3004C96.8998 28.3004 97.2014 28.4098 97.4192 28.5752C97.4192 28.5752 97.9096 28.9918 98.2638 29.175C98.5363 28.9125 98.9229 28.984 98.9229 28.984V28.984ZM110.076 30.4072C110.239 31.0898 110.129 31.9935 110.129 31.9935C113.192 33.1676 118.439 32.456 118.439 32.456C119.314 32.3465 119.343 32.2114 119.343 32.2114C119.67 32.1834 119.615 31.6919 119.615 31.6919C119.423 31.445 119.314 30.4608 119.314 30.4608C118.602 30.8708 114.586 30.9803 114.586 30.9803C111.333 31.0641 110.076 30.4072 110.076 30.4072V30.4072ZM110.458 30.8172L110.76 30.8719L110.923 31.4741L111.25 31.0093L111.523 31.035L111.497 31.1177V31.9924L111.552 32.1019L111.17 32.0471L111.225 31.9645V31.4998L110.869 31.9645L110.622 31.3903V31.9097L110.405 31.8003L110.43 31.7455L110.458 30.9513V30.8172V30.8172ZM111.907 31.2272C111.442 31.664 111.907 32.1566 111.907 32.1566C112.18 32.4013 112.535 32.1566 112.535 32.1566C112.945 31.5824 112.507 31.2272 112.507 31.2272C112.097 31.0093 111.907 31.2272 111.907 31.2272V31.2272ZM112.208 31.254C111.743 31.4741 112.07 31.9656 112.07 31.9656C112.18 32.2125 112.343 32.0203 112.343 32.0203C112.563 31.8025 112.398 31.4461 112.398 31.4461C112.343 31.1992 112.208 31.254 112.208 31.254V31.254ZM112.917 31.1993H113.137L113.492 31.6919L113.464 31.3076L113.436 31.2272L113.792 31.2529L113.737 31.3355V32.265L113.765 32.3454H113.573L113.191 31.7712V32.1555L113.216 32.265L112.944 32.237L112.969 32.1019L112.997 31.3076L112.917 31.1993V31.1993ZM114.641 31.254H115.023C115.433 31.254 115.515 31.8014 115.515 31.8014C115.515 32.4013 114.939 32.3756 114.939 32.3756L114.64 32.3476L114.749 32.2672L114.721 31.3378L114.641 31.254V31.254ZM114.968 31.3914V32.2661C115.323 32.1287 115.241 31.7187 115.241 31.7187C115.16 31.3914 114.968 31.3914 114.968 31.3914ZM115.705 31.254L115.868 31.2283C116.088 31.1188 116.361 31.2004 116.361 31.2004C116.634 31.502 116.333 31.7746 116.333 31.7746L116.58 32.1588C116.626 32.1704 116.665 32.1993 116.689 32.2393C116.554 32.294 116.472 32.2393 116.472 32.2393C116.225 32.0762 116.17 31.8572 116.17 31.8572H116.035V32.2672L116.061 32.3476H115.788L115.814 32.2672L115.788 31.3099L115.705 31.254V31.254ZM116.035 31.7466V31.3076C116.144 31.1981 116.225 31.3355 116.225 31.3355C116.362 31.5534 116.225 31.6908 116.225 31.6908C116.17 31.7723 116.035 31.7466 116.035 31.7466ZM117.237 31.0641C117.756 31.0362 117.756 31.7187 117.756 31.7187C117.702 32.2661 117.209 32.2661 117.209 32.2661C116.744 32.2114 116.719 31.6383 116.719 31.6383C116.799 31.0093 117.237 31.0641 117.237 31.0641V31.0641ZM117.237 31.2272C117.509 31.2529 117.484 31.664 117.484 31.664C117.509 32.0483 117.237 32.1287 117.237 32.1287C117.099 32.1566 117.045 31.9656 117.045 31.9656C116.882 31.4461 117.099 31.283 117.099 31.283C117.128 31.2272 117.237 31.2272 117.237 31.2272V31.2272ZM117.919 31.035L118.301 31.0093L118.247 31.1188L118.275 32.074L118.329 32.1287L118.002 32.1566L118.028 32.1019L118.002 31.1177L117.919 31.035V31.035ZM118.576 30.9524L118.602 31.2272L118.685 31.1445L118.822 31.1188V31.9935L118.794 32.074L119.067 32.0192L119.041 31.9365V31.035H119.231L119.205 30.8172L119.15 30.8429L118.658 30.9524H118.576ZM107.397 29.7247C107.404 29.7939 107.415 29.8598 107.43 29.9213C107.442 29.9139 107.454 29.9072 107.467 29.9012C107.554 29.6588 107.506 29.5605 107.506 29.5605L107.586 29.5035C107.623 29.5973 107.586 29.7649 107.558 29.8632C107.632 29.8398 107.71 29.8319 107.787 29.8397C107.823 29.7126 107.838 29.5807 107.833 29.4487L107.44 29.4007C107.351 29.5448 107.397 29.7247 107.397 29.7247V29.7247ZM107.464 30.0453C107.532 30.2553 107.639 30.4162 107.757 30.5402C107.883 30.4441 107.855 30.0754 107.84 29.938C107.705 29.9235 107.571 29.962 107.464 30.0453ZM107.818 30.6016C107.947 30.7189 108.08 30.7982 108.189 30.8485C108.245 30.7074 108.267 30.5549 108.251 30.4039C108.095 30.4039 107.932 30.4564 107.864 30.4776C107.849 30.5357 107.828 30.577 107.818 30.6016V30.6016ZM108.279 30.8853C108.357 30.9155 108.407 30.9267 108.407 30.9267C108.503 30.9401 108.581 30.9378 108.65 30.9267L108.629 30.6776C108.542 30.6731 108.389 30.7491 108.316 30.7915L108.279 30.8853V30.8853ZM108.737 30.9043C108.805 30.8792 108.866 30.8362 108.912 30.7799C108.958 30.7235 108.989 30.6558 109 30.5837C108.918 30.5528 108.828 30.545 108.741 30.5614L108.737 30.9043ZM109.009 30.4743C109 30.1034 108.881 29.8464 108.719 29.6621C108.739 29.7314 108.808 29.9917 108.765 30.1548L108.9 30.1045L108.926 30.1871L108.736 30.2106C108.747 30.2998 108.744 30.3902 108.729 30.4787C108.872 30.4329 108.966 30.4553 109.009 30.4743V30.4743ZM108.65 29.5906C108.547 29.4973 108.429 29.4214 108.302 29.3661C108.325 29.3985 108.392 29.5214 108.383 29.7023C108.46 29.6424 108.552 29.6039 108.65 29.5906V29.5906ZM108.144 29.3057C108.017 29.2646 107.885 29.2399 107.753 29.232C107.657 29.2386 107.566 29.2762 107.493 29.3393L107.894 29.3672L108.144 29.3057ZM107.908 29.4621C107.928 29.5672 107.949 29.6632 107.912 29.7571C108.118 29.6789 108.251 29.718 108.301 29.7392C108.306 29.6211 108.278 29.504 108.221 29.4007L107.908 29.4621ZM108.405 29.8353C108.441 29.9587 108.436 30.0907 108.389 30.2106C108.54 30.1414 108.634 30.1469 108.684 30.1626C108.705 30.0204 108.685 29.8752 108.627 29.7437C108.544 29.7448 108.465 29.7775 108.405 29.8353V29.8353ZM108.352 30.3246C108.382 30.4484 108.378 30.5776 108.343 30.6999C108.485 30.5469 108.614 30.5424 108.646 30.5424C108.685 30.4877 108.69 30.3111 108.685 30.2653C108.572 30.2664 108.459 30.2864 108.352 30.3246V30.3246ZM108.311 29.8833C108.174 29.8429 108.027 29.8528 107.897 29.9112C107.92 30.0967 107.912 30.2497 107.89 30.3648C108.011 30.3013 108.148 30.2757 108.283 30.291C108.33 30.1604 108.34 30.0192 108.311 29.8833V29.8833ZM101.547 21.6044L101.082 20.1287L101.327 19.4729L101.602 20.5387L101.355 20.4292C101.547 21.2759 102.23 20.8392 102.23 20.8392C102.531 20.5119 102.255 20.4024 102.255 20.4024C101.902 20.2102 101.845 20.4292 101.845 20.4292C101.601 19.4997 102.23 19.855 102.23 19.855C102.202 19.2529 102.447 19.1992 102.447 19.1992C102.775 19.3087 102.775 19.8282 102.775 19.8282C103.13 19.254 103.351 19.855 103.351 19.855C103.377 19.9377 103.323 20.1007 103.323 20.1007C102.886 19.9377 102.833 20.4024 102.833 20.4024C102.776 20.7029 103.323 20.7844 103.323 20.7844C103.98 20.5934 103.98 19.8818 103.98 19.8818C103.788 19.9097 103.461 20.2091 103.461 20.2091V18.9792C103.624 19.2797 104.035 19.4439 104.035 19.4439C103.952 18.8976 103.65 18.5971 103.65 18.5971L104.8 18.5703C104.416 18.9256 104.445 19.445 104.445 19.445C104.772 19.3914 104.935 19.063 104.935 19.063L104.963 20.1287C104.716 19.7466 104.47 19.9108 104.47 19.9108C104.361 20.7297 105.073 20.7576 105.073 20.7576C105.563 20.7576 105.592 20.3476 105.592 20.3476C105.483 19.8561 105.153 20.1287 105.153 20.1287C105.018 19.3087 105.618 19.664 105.618 19.664C105.4 19.1177 105.781 18.9255 105.781 18.9255C106.248 19.1992 106.028 19.664 106.028 19.664C106.658 19.3366 106.547 20.1287 106.547 20.1287C105.947 19.855 106.028 20.4839 106.028 20.4839C106.303 21.1397 106.848 20.647 106.848 20.647C106.957 20.4839 106.985 20.3197 106.985 20.3197L106.738 20.3744L106.985 19.5277L107.203 19.9656L107.366 19.5009L107.503 19.664L106.709 21.6591C104.307 21.1129 101.547 21.6044 101.547 21.6044V21.6044ZM105.619 21.2223C105.484 21.1955 105.346 21.1397 105.374 21.0849C105.374 21.0034 105.484 20.9754 105.647 21.0034C105.782 21.0302 105.919 21.0849 105.894 21.1397C105.894 21.2223 105.782 21.2491 105.619 21.2223V21.2223ZM102.666 21.2491C102.804 21.2223 102.913 21.1676 102.913 21.086C102.913 21.0313 102.776 21.0045 102.641 21.0313C102.478 21.0313 102.368 21.1129 102.368 21.1676C102.368 21.2223 102.503 21.2771 102.666 21.2491V21.2491ZM104.17 20.7029L104.554 21.0313L104.17 21.2771L103.817 21.0313L104.17 20.7029ZM109.31 24.9937C109.335 24.6117 109.554 24.1749 109.554 24.1749L109.236 23.833L109.127 24.0296C109.186 24.0855 109.227 24.167 109.227 24.2564C109.227 24.3804 109.149 24.4899 109.051 24.5357L109.025 24.6519L109.31 24.9937ZM109.149 23.7403L108.352 22.8902C107.807 22.097 107.423 22.4802 107.423 22.4802L107.041 22.6176C107.343 22.8086 107.506 23.1371 107.506 23.1371C107.833 23.0823 107.861 23.2465 107.861 23.2465L108.708 24.2709V24.2575C108.708 24.0933 108.817 23.957 108.955 23.957C108.985 23.957 109.018 23.9637 109.046 23.9771L109.149 23.7403Z" fill="#A1A1AA"/>
<path fill-rule="evenodd" clip-rule="evenodd" d="M108.027 23.6274C107.835 23.4096 107.7 23.2454 107.617 23.3269C107.617 23.3269 107.864 23.7916 108.054 24.3647C108.191 24.7747 108.301 25.2394 108.274 25.6761L108.682 25.7041L108.789 25.7175L108.752 25.5075C108.635 25.484 108.547 25.3589 108.547 25.2125C108.547 25.0204 108.656 24.883 108.793 24.883C108.8 24.883 108.809 24.883 108.816 24.8852L108.866 24.6495C108.798 24.5691 108.729 24.482 108.656 24.3926C108.547 24.2552 108.409 24.1178 108.301 23.9815C108.219 23.8464 108.108 23.7369 108.027 23.6274V23.6274ZM108.9 25.7309L109.339 25.7878C109.339 25.7878 109.201 25.5678 109.284 25.1578L108.993 24.8093L108.961 24.9579C108.995 24.9914 109.022 25.0314 109.04 25.0756C109.058 25.1197 109.067 25.1671 109.066 25.2148C109.065 25.2749 109.047 25.3335 109.014 25.3835C108.981 25.4334 108.934 25.4726 108.878 25.4963L108.9 25.7309V25.7309Z" fill="#A1A1AA"/>
<path fill-rule="evenodd" clip-rule="evenodd" d="M106.086 29.2303C106.278 29.5029 106.852 29.4224 106.852 29.4224C106.935 29.3677 106.907 29.0404 106.907 29.0404C106.852 28.8482 106.881 28.7388 106.881 28.7388C107.016 28.7645 107.044 28.9287 107.044 28.9287C107.044 28.9834 106.962 29.2582 106.962 29.2582C107.564 28.8739 107.044 28.1366 107.044 28.1366C107.182 27.3703 107.372 27.1815 107.372 27.1815C108 26.6341 108.329 26.8263 108.329 26.8263C108.874 26.8263 109.778 27.1279 109.778 27.1279C110.131 27.2374 111.39 27.4552 111.39 27.4552C111.405 27.3736 111.443 27.298 111.499 27.2374C111.855 26.9905 112.099 25.8153 112.099 25.8153C112.099 25.6254 112.182 25.7058 112.182 25.7058C112.237 25.9237 112.21 26.0074 112.21 26.0074C112.265 26.4174 111.935 27.1547 111.935 27.1547C112.592 27.5368 113.714 27.4563 113.714 27.4563C114.506 27.4563 115.133 27.0463 115.133 27.0463C115.871 26.719 116.8 26.7995 116.8 26.7995L116.774 26.6364C116.092 26.3347 116.557 25.9795 116.557 25.9795L116.282 25.5975C115.545 25.5427 113.249 24.3407 113.249 24.3407C111.281 23.2471 110.243 23.4381 110.243 23.4381C109.394 24.3407 109.531 25.8443 109.531 25.8443L110.022 25.8991C109.996 24.8602 110.624 24.3128 110.624 24.3128C110.816 24.2312 110.678 24.4502 110.678 24.4502C109.996 25.4601 110.268 26.1717 110.268 26.1717C109.967 26.0343 108.163 25.9538 108.163 25.9538C108.016 25.9145 107.862 25.9063 107.712 25.9296C107.562 25.9528 107.418 26.0071 107.29 26.089C106.961 26.3638 106.825 26.8006 106.825 26.8006L106.47 28.0316C106.114 28.7935 106.086 29.2303 106.086 29.2303V29.2303ZM113.714 26.032C113.604 26.6062 113.249 27.2363 113.249 27.2363C113.304 27.4262 113.521 27.1268 113.521 27.1268C113.768 26.6878 113.849 26.0856 113.849 26.0856C113.794 25.6243 113.714 26.032 113.714 26.032V26.032ZM112.81 25.65C112.675 26.4967 112.265 27.0441 112.265 27.0441C112.182 27.262 112.428 27.0988 112.428 27.0988C112.783 26.6062 112.892 25.7047 112.892 25.7047C112.865 25.4578 112.81 25.65 112.81 25.65ZM113.249 25.8968C113.221 26.471 112.729 27.0988 112.729 27.0988C112.62 27.291 112.865 27.1815 112.865 27.1815C113.304 26.7972 113.384 25.8678 113.384 25.8678C113.329 25.5673 113.249 25.8968 113.249 25.8968V25.8968ZM116.255 27.0162C116.448 26.9496 116.655 26.9323 116.857 26.9659L116.916 27.2586C116.856 27.2902 116.805 27.3383 116.77 27.3974C116.735 27.4564 116.718 27.5241 116.72 27.5926C116.72 27.7825 116.855 27.9456 117.021 27.9456H117.047V28.3712C116.753 28.4653 116.451 28.5341 116.146 28.5768C115.681 28.6863 116.008 28.9588 116.008 28.9588C116.255 29.1767 116.31 29.3688 116.31 29.3688C116.528 29.6157 116.172 29.8056 116.172 29.8056C115.435 29.943 114.614 30.6803 114.614 30.6803C114.04 30.735 113.194 30.6546 113.194 30.6546C112.974 30.4893 112.81 30.1072 112.81 30.1072C113.111 29.8346 113.384 30.162 113.384 30.162C113.631 30.2994 114.096 30.2446 114.096 30.2446C114.506 30.0268 115.108 29.752 115.108 29.752C115.217 29.6715 115.38 29.6972 115.38 29.6972C115.543 29.6425 115.352 29.5051 115.352 29.5051C115.077 29.3117 114.829 29.0822 114.615 28.8225C114.397 28.4673 114.615 28.3031 114.615 28.3031C114.942 27.9188 116.255 27.0162 116.255 27.0162V27.0162ZM117.026 27.0162C117.204 27.0864 117.355 27.2107 117.458 27.3714C117.621 27.7267 117.568 27.8104 117.568 27.8104C117.513 27.9199 117.568 28.1378 117.568 28.1378C117.447 28.2117 117.319 28.2738 117.186 28.3232V27.8864C117.228 27.8503 117.263 27.8051 117.286 27.7541C117.31 27.7031 117.321 27.6476 117.321 27.5915C117.321 27.4083 117.197 27.2485 117.041 27.2363L117.026 27.0162Z" fill="#A1A1AA"/>
<path fill-rule="evenodd" clip-rule="evenodd" d="M123.002 26.1701C123.139 25.5959 123.03 24.9681 123.03 24.9681C122.838 24.5581 122.646 24.4754 122.646 24.4754C122.646 23.3014 121.936 23.1371 121.936 23.1371C121.936 23.3561 122.071 23.6566 122.071 23.6566C122.126 23.7661 121.936 23.6287 121.936 23.6287C121.908 23.2466 121.552 23.0545 121.552 23.0545C121.279 22.8914 121.142 22.6992 121.142 22.6992C120.84 23.1908 121.635 23.7113 121.635 23.7113C120.404 23.6566 118.272 24.0934 118.272 24.0934C116.769 24.4498 115.921 23.9303 115.921 23.9303C115.048 23.5203 115.375 22.7272 115.375 22.7272C115.785 21.9072 116.687 21.9887 116.687 21.9887C117.133 22.0013 117.575 22.075 118.001 22.2077C119.312 22.5629 120.706 22.153 120.706 22.153C121.389 21.8256 121.608 21.142 121.608 21.142C121.198 21.4436 120.624 21.3877 120.624 21.3877C120.271 21.7162 119.12 21.7709 119.12 21.7709C119.886 21.4704 119.86 21.1688 119.86 21.1688C119.914 20.9778 120.213 20.7309 120.213 20.7309C119.748 20.8135 119.203 21.2503 119.203 21.2503C118.875 21.4972 118.026 21.4972 118.026 21.4972C117.891 21.5519 117.644 21.4704 117.644 21.4704C118.189 21.3062 118.219 21.0872 118.219 21.0872C116.934 20.732 115.812 21.5251 115.812 21.5251C114.719 22.4278 115.048 23.3293 115.048 23.3293C115.238 24.204 116.795 24.4766 116.795 24.4766C118.244 24.5592 119.968 24.3135 119.968 24.3135C121.279 24.1504 121.635 24.3414 121.635 24.3414C121.798 24.4509 121.635 24.4766 121.635 24.4766C120.84 24.3671 120.596 25.2965 120.596 25.2965C121.141 24.6955 121.88 24.8597 121.88 24.8597C122.016 24.8854 121.88 24.9145 121.88 24.9145C121.496 24.8597 121.224 25.1066 121.224 25.1066C121.743 25.4339 122.125 25.2965 122.125 25.2965C122.345 25.2418 122.455 25.0239 122.455 25.0239C122.782 25.5144 122.756 25.8986 122.618 26.1712C122.426 26.4985 122.07 26.6359 122.07 26.6359C121.278 26.8281 120.157 26.4181 120.157 26.4181C119.829 26.255 119.255 26.2807 119.255 26.2807C119.173 26.255 119.037 26.2003 118.928 26.1712C118.108 25.9243 116.576 25.7065 116.576 25.7065L116.714 25.8986C116.932 25.9534 117.041 26.0617 117.069 26.1712C117.095 26.2807 117.041 26.3891 117.041 26.3891C116.986 26.5265 116.904 26.6069 116.904 26.6069L117.015 26.827C117.89 27.0995 117.725 27.8659 117.725 27.8659C117.807 28.5484 118.217 28.821 118.217 28.821C119.147 29.641 120.103 29.5036 120.103 29.5036C120.433 29.5036 120.487 29.5862 120.487 29.5862C120.815 29.7784 120.76 30.6531 120.76 30.6531C120.76 31.0083 120.597 31.3904 120.597 31.3904C120.706 31.663 121.251 31.5278 121.251 31.5278C121.334 31.4999 121.363 31.3904 121.363 31.3904C121.418 31.2273 121.281 31.0631 121.281 31.0631C121.226 30.9804 121.281 31.0083 121.281 31.0083C121.636 31.1714 121.608 31.5825 121.608 31.5825C122.155 30.8977 121.39 30.433 121.39 30.433C121.281 30.4073 121.198 30.3783 121.198 30.3783C121.117 30.0253 121.088 29.3137 121.088 29.3137V29.1215L120.816 28.8199C120.049 29.012 119.504 28.7395 119.504 28.7395C119.53 28.5764 119.53 28.3842 119.53 28.3842C119.585 27.8916 119.421 26.6884 119.421 26.6884C119.638 26.7979 120.897 27.0158 120.897 27.0158C121.197 27.1532 121.799 27.1275 121.799 27.1275C122.51 27.2906 122.292 27.7821 122.292 27.7821C122.866 27.3174 122.372 26.9901 122.372 26.9901C122.758 26.8527 122.922 26.5253 123.002 26.1701V26.1701ZM84.8168 26.4427C84.571 25.8685 84.9531 25.1312 84.9531 25.1312C85.6636 24.0107 86.6478 23.737 86.6478 23.737C87.1672 22.945 87.9604 22.945 87.9604 22.945C87.8509 23.164 87.6587 23.355 87.6587 23.355C88.1503 23.2455 88.5882 22.8355 88.5882 22.8355C88.5882 23.4644 88.014 23.7102 88.014 23.7102C90.1186 23.9839 92.9885 23.6555 92.9885 23.6555C94.1648 23.4644 94.109 22.3708 94.109 22.3708C93.8632 21.3866 92.6333 21.9608 92.6333 21.9608C90.036 23.4645 88.7792 21.4693 88.7792 21.4693C89.4081 21.715 90.6381 21.715 90.6381 21.715C90.1734 21.524 89.5724 20.8403 89.5724 20.8403C89.9555 20.8951 90.1466 21.0593 90.1466 21.0593C90.8023 21.4145 91.5407 21.333 91.5407 21.333C91.3218 21.0872 90.9665 20.6772 90.9665 20.6772C91.4044 20.8683 91.8412 20.8683 91.8412 20.8683C92.1149 20.8951 92.3328 20.923 92.3328 20.923C92.7975 21.0046 93.0432 20.923 93.0432 20.923C94.4374 21.0593 94.6016 22.344 94.6016 22.344C94.7379 23.9839 92.8522 24.1202 92.8522 24.1202C92.0859 24.3403 87.8498 24.2844 87.8498 24.2844C88.2877 24.4754 88.3972 24.8854 88.3972 24.8854C88.4787 25.0776 88.5882 25.215 88.5882 25.215C88.1503 25.2407 87.7135 24.6676 87.7135 24.6676C87.8509 24.9402 88.2061 25.3501 88.2061 25.3501C87.9604 25.4596 87.4409 24.8307 87.4409 24.8307C86.621 24.1481 85.9105 24.8586 85.9105 24.8586C85.1441 25.4585 85.2815 25.978 85.2815 25.978C85.2788 26.0645 85.2944 26.1507 85.3274 26.2307C85.3603 26.3108 85.4098 26.3831 85.4726 26.4427C85.7462 26.7722 86.2378 26.7175 86.2378 26.7175C86.7572 26.7175 87.2767 26.5801 87.7135 26.4427C88.0066 26.3629 88.2907 26.2532 88.5614 26.1154C88.6441 26.1155 88.7265 26.1248 88.8071 26.1433C89.0529 25.978 89.4093 26.0059 89.4093 26.0059C90.6113 25.8964 94.0553 24.6374 94.0553 24.6374C94.5212 24.4196 95.368 23.5449 95.368 23.5449C95.6685 23.7359 95.8595 24.4475 95.8595 24.4475C95.9474 24.3872 96.0142 24.3009 96.0505 24.2006C96.2147 24.8016 97.0347 25.1301 97.0347 25.1301C97.2804 25.1558 97.4726 25.4026 97.4726 25.4026L97.5541 25.1558C97.6636 25.3211 98.4836 25.8953 99.3315 26.4404C99.9072 26.8348 100.49 27.218 101.081 27.59C101.818 26.77 102.338 27.2604 102.338 27.2604C102.228 27.3699 102.091 27.3431 102.091 27.3431C101.709 27.3151 101.463 27.533 101.463 27.533C102.367 27.3978 102.53 27.6983 102.53 27.6983C102.72 28.1351 102.091 28.3529 102.091 28.3529C102.091 27.7531 101.517 27.7787 101.517 27.7787C101.634 27.8386 101.733 27.9281 101.805 28.0382C101.877 28.1483 101.919 28.2753 101.927 28.4066C101.734 28.926 101.27 28.5183 101.27 28.5183C101.107 28.4356 100.86 28.2167 100.86 28.2167C99.5225 28.134 98.2367 27.2046 98.2367 27.2046L97.553 27.5062C97.1809 27.2251 96.8811 26.8594 96.6783 26.4393C96.5968 26.3042 96.542 26.1947 96.542 26.1947V26.4393C96.6247 26.8236 96.8694 27.1509 96.8694 27.1509C95.6942 28.4904 93.5895 27.2883 93.5895 27.2883C93.3437 27.2057 92.5774 26.7957 92.5774 26.7957C90.3912 26.77 89.3791 28.7372 89.3791 28.7372L89.2149 29.0098C89.0518 30.2409 88.6686 30.2409 88.6686 30.2409C88.8596 29.7762 88.396 29.5583 88.396 29.5583C88.0676 29.6131 87.3024 29.584 87.3024 29.584C86.8109 30.4587 87.2197 31.0876 87.2197 31.0876C88.176 31.0619 87.766 31.8249 87.766 31.8249C87.6844 32.0718 87.4655 32.0718 87.4655 32.0718C87.4923 31.2798 86.755 31.3345 86.755 31.3345C87.3828 31.5814 87.2465 31.9623 87.2465 31.9623C87.0834 31.9344 86.9192 32.2092 86.9192 32.2092C85.9898 31.635 86.1272 30.5425 86.1272 30.5425C86.2367 28.6557 86.6466 28.2993 86.6466 28.2993C86.7841 28.2446 86.8377 28.3273 86.8377 28.3273C87.2477 28.5194 87.7939 28.3529 87.7939 28.3529C88.0129 28.2982 88.0676 27.8625 88.0676 27.8625C88.205 27.0962 88.7234 26.4941 88.7234 26.4941C88.3681 26.6594 86.3729 27.1789 86.3729 27.1789C85.4435 27.3967 85.1978 28.1887 85.1978 28.1887C84.5967 27.4514 85.553 27.0415 85.553 27.0415C85.1441 26.9353 84.8984 26.7175 84.8168 26.4427ZM95.5042 25.8149C95.7511 26.3075 96.4884 26.9364 96.4884 26.9364C96.57 27.0169 96.7074 27.0995 96.7074 27.0995C96.6526 27.1543 96.5163 27.1543 96.5163 27.1543C95.8874 26.799 95.4774 26.0606 95.4774 26.0606C95.34 25.788 95.5042 25.8149 95.5042 25.8149V25.8149ZM94.6016 26.3879C94.9837 26.8527 95.1211 26.9621 95.1211 26.9621C95.3948 27.2917 95.75 27.4548 95.75 27.4548C95.0395 27.4548 94.6016 26.6628 94.6016 26.6628C94.4921 26.4427 94.5201 26.3611 94.5201 26.3611L94.6016 26.3879ZM95.0663 26.0327C95.2574 26.5801 96.0773 27.1275 96.0773 27.1275C96.2684 27.1822 96.2147 27.3174 96.2147 27.3174C96.0505 27.3453 95.9958 27.2626 95.9958 27.2626C95.2585 27.0158 95.0127 26.198 95.0127 26.198C94.8753 25.8975 95.0663 26.0327 95.0663 26.0327V26.0327Z" fill="#A1A1AA"/>
</g>
<defs>
<clipPath id="clip0_2433_45049">
<rect width="196.329" height="40" fill="white" transform="translate(0 0.585938)"/>
</clipPath>
</defs>
</svg>
