<svg xmlns="http://www.w3.org/2000/svg" viewBox="0 0 247.47 82.01"><defs><style>.cls-1{fill:#39c6b4;}</style></defs><g id="Layer_2" data-name="Layer 2"><g id="Layer_1-2" data-name="Layer 1"><g id="uk"><rect x="175.53" y="7.75" width="5.54" height="8.15"/><path d="M203.61,6.25h4.23v5h-3.18c-3.74,0-5.38,2.2-5.38,5.87v7.7h8.55v4.46h-8.55V67.21h-5.86V29.34h-5.13V24.86h5.14V17C193.43,11,196.77,6.2,203.61,6.25Z"/><path d="M247.47,24.75,229.2,74.51a11.79,11.79,0,0,1-2.85,4.73A11,11,0,0,1,218.53,82H216V76.82h1.82c4.07,0,5.29-1.33,6.6-5L227.27,64,212.86,24.82h6.35l11,32.18,10.93-32.22Z"/><path d="M45.55,27a35.82,35.82,0,0,1,1.71,11.16,34.41,34.41,0,0,1-2,11.93,26.22,26.22,0,0,1-5.54,9.12A24.49,24.49,0,0,1,31,65.07a30.31,30.31,0,0,1-11.45,2.06H0V9.31H19.57a30.09,30.09,0,0,1,12.14,2.28,24.66,24.66,0,0,1,8.67,6.2A25.45,25.45,0,0,1,45.55,27Zm-4,11.1a29.89,29.89,0,0,0-1.46-9.57A21.6,21.6,0,0,0,35.82,21a19.18,19.18,0,0,0-6.88-4.94,23.68,23.68,0,0,0-9.37-1.75H5.62V62H19.55A23.23,23.23,0,0,0,29,60.21a19.29,19.29,0,0,0,6.89-5,21.82,21.82,0,0,0,4.19-7.57A30.53,30.53,0,0,0,41.55,38.1Z"/><path d="M134.43,55.84l5.38,1.63a13.92,13.92,0,0,1-2.61,4.19,17.81,17.81,0,0,1-4,3.34,20.07,20.07,0,0,1-5.14,2.23,22,22,0,0,1-5.82.77,20.6,20.6,0,0,1-15.34-6.61,22.15,22.15,0,0,1-4.44-7,23.94,23.94,0,0,1,0-17,21,21,0,0,1,4.36-7,20.4,20.4,0,0,1,6.72-4.68A21.36,21.36,0,0,1,122.18,24a19.87,19.87,0,0,1,10.53,2.75,17.55,17.55,0,0,1,6.76,7.37l-5.38,1.71a13,13,0,0,0-5-5.09A13.88,13.88,0,0,0,122,28.9a14.31,14.31,0,0,0-6,1.34,15.56,15.56,0,0,0-4.89,3.54,16.3,16.3,0,0,0-3.26,5.34,19.64,19.64,0,0,0,0,13.52,17,17,0,0,0,3.34,5.5,15.93,15.93,0,0,0,4.92,3.66,13.67,13.67,0,0,0,6,1.35,14.65,14.65,0,0,0,4-.57A16,16,0,0,0,129.82,61a13.61,13.61,0,0,0,2.93-2.36A7.57,7.57,0,0,0,134.43,55.84Z"/><path d="M167.57,60.69,169,65.17c-.32.16-.8.38-1.42.65s-1.35.54-2.16.81a24,24,0,0,1-2.77.73,16.17,16.17,0,0,1-3.26.33A12,12,0,0,1,156,67.2a7.87,7.87,0,0,1-2.8-1.52,7.19,7.19,0,0,1-2-2.57,8.33,8.33,0,0,1-.74-3.58V29.15h-5.87V24.76h5.87V10.43H156V24.77h9.78v4.39H156V58a4.48,4.48,0,0,0,1.59,3.46,5.69,5.69,0,0,0,3.5,1.1,10.42,10.42,0,0,0,4.16-.77A21.41,21.41,0,0,0,167.57,60.69Z"/><rect x="175.52" y="24.77" width="5.54" height="42.44"/><path class="cls-1" d="M94,37.6a22.81,22.81,0,0,1-4.38,23.86,20.62,20.62,0,0,1-6.68,4.76,21.32,21.32,0,0,1-16.94,0,20.61,20.61,0,0,1-6.67-4.72,21.56,21.56,0,0,1-4.35-7,23.45,23.45,0,0,1,0-16.86,22.33,22.33,0,0,1,4.4-7,21.51,21.51,0,0,1,6.69-4.8,19.75,19.75,0,0,1,8.43-1.79h.81L75.2,24a34.53,34.53,0,0,1,1.53-4.2c.08-.19.17-.37.25-.55-.71-.53-1.52-1.1-2.44-1.68-7.26-4.66-8.26-10.22-8.26-13.1A29.32,29.32,0,0,1,67,0a41.43,41.43,0,0,0,5.27,4.26C74,5.57,75.91,6.54,77.18,8.43a5.09,5.09,0,0,1,.42.71l.08.15c.07.15.13.32.2.48a19.59,19.59,0,0,1,.65,6.33c0-.06.1-.12.1-.18.54-1,1-1.92,1.54-2.92a4.35,4.35,0,0,1,1.42-1.91h0A14.83,14.83,0,0,1,83.4,8.94,8.09,8.09,0,0,1,85.15,7a.78.78,0,0,1,1,0A2.57,2.57,0,0,1,87.5,9.35h0a30.09,30.09,0,0,0-2.78,1.81,48,48,0,0,0-3.21,3.62,39,39,0,0,0-4.28,8.48v.11a.09.09,0,0,0,0,.07c0,.08-.11.37-.23.7a19.48,19.48,0,0,1,5.93,1.65A21.46,21.46,0,0,1,89.6,30.6,22.15,22.15,0,0,1,94,37.6ZM71.51,7.8C74,9.49,74.67,12,75,14.74,76,12.5,75.36,9.42,71.51,7.8ZM88.7,39.35a17.32,17.32,0,0,0-3.33-5.46,16.13,16.13,0,0,0-4.89-3.66,13.4,13.4,0,0,0-6-1.35,13.81,13.81,0,0,0-6,1.34,15.07,15.07,0,0,0-4.89,3.71,18,18,0,0,0-3.3,5.49,19.08,19.08,0,0,0,0,13.36,17.24,17.24,0,0,0,3.26,5.38,14.74,14.74,0,0,0,4.88,3.62,14.13,14.13,0,0,0,6,1.31,13.81,13.81,0,0,0,6-1.34,16.09,16.09,0,0,0,4.92-3.66,17.56,17.56,0,0,0,3.35-5.42A18.75,18.75,0,0,0,88.7,39.35Z"/><path class="cls-1" d="M73.44,44.82a2.07,2.07,0,0,1,.17,2.34,1.78,1.78,0,0,1-.35.42,1.26,1.26,0,0,1-.57.3,1.38,1.38,0,0,1-1.27-.44c-.3-.24-.22-.63-.37-.93-.32-.51,0-.94.15-1.4.43-.87,1.32-1.37,1.68-2.37.24.34,0,.65.24.88a.75.75,0,0,1,.19.92Z"/><path class="cls-1" d="M77.89,46.5a1.86,1.86,0,0,1,.16,1.16c-.11.35-.2.78-.66.78a1.29,1.29,0,0,1-.26.42c-.8.54-1.17.53-1.58,0-.08-.75-.76-1.25-.76-2a1.89,1.89,0,0,1,0-.67,2,2,0,0,0,.16-.52l.42-.71a2.29,2.29,0,0,1,.41-.57c.15-.13.32-.25.48-.37.34-.26.66-.3.9.14l.45,1.61h0C77.69,46,77.78,46.25,77.89,46.5Z"/></g></g></g></svg>