<svg width="65" height="64" viewBox="0 0 65 64" fill="none" xmlns="http://www.w3.org/2000/svg">
<path d="M0.5 32C0.5 14.3269 14.8269 0 32.5 0C50.1731 0 64.5 14.3269 64.5 32C64.5 49.6731 50.1731 64 32.5 64C14.8269 64 0.5 49.6731 0.5 32Z" fill="#162F42" fill-opacity="0.1"/>
<g clip-path="url(#clip0_2460_16910)">
<path d="M33.5177 28.0531C27.5493 28.459 22.3693 31.2665 17.2325 34.0907C15.28 35.1643 13.4586 36.3357 11.5129 37.4139C11.0196 37.6871 8.27032 38.5983 8.51543 39.2462C8.8464 40.1168 11.8199 38.7227 12.3528 38.4094C13.4248 37.7563 14.4651 36.6156 14.4885 36.6011C15.9524 35.7128 17.0743 35.004 18.7734 35.8491C21.0189 36.9664 23.2118 38.0165 25.563 38.9007C30.6821 40.8251 36.6239 42.6839 41.743 39.8733C45.3832 37.876 47.7177 34.0954 52.2316 33.8695C53.1625 33.8232 53.9707 34.1193 54.8517 34.366C55.0516 34.4211 57.2419 34.571 56.2375 33.8409C55.1338 33.0296 53.8911 32.4993 52.6083 32.0482C46.4016 29.8635 40.225 27.5931 33.5177 28.0531ZM20.3596 33.3403C22.9824 31.9706 25.5926 30.5577 28.4543 29.7465C32.427 28.6198 36.6562 28.5423 40.7106 29.2568C44.9065 29.9968 49.1566 31.5517 53.1381 33.1045C48.5633 32.529 45.7735 36.2743 42.405 38.525C38.6758 41.0124 34.6813 40.8235 30.5275 39.6272C28.9075 39.1609 27.3099 38.6722 25.7264 38.0977C24.5165 37.6575 23.203 37.3067 22.1003 36.637C20.9544 35.9407 19.2579 34.8838 17.8757 34.6506C18.6995 34.2052 19.5295 33.7727 20.3596 33.3403Z" fill="#292028"/>
<path d="M38.1679 28.2801C37.7739 28.6412 38.3823 29.6451 38.4733 30.0327C38.6961 30.9835 38.8319 32.0128 38.7205 32.9886C38.5165 34.7579 36.7051 35.7628 35.1121 36.1005C33.1019 36.5272 31.0754 35.5291 29.9134 33.8758C29.4123 33.1629 29.3077 32.3875 29.4882 31.5419C29.5616 31.2 29.9353 30.5318 29.7521 30.1837C29.5871 29.8693 29.1115 29.9125 29.0064 30.2518C28.2913 32.5546 28.7113 34.2053 30.5977 35.73C32.1771 37.0071 34.2295 37.3339 36.1352 36.6485C37.5939 36.1245 39.0999 35.1394 39.4522 33.5277C39.5875 32.9069 39.1728 27.3532 38.1679 28.2801Z" fill="#292028"/>
<path d="M33.3536 29.9585C31.157 30.9187 31.8679 34.5963 34.3054 34.5167C38.5227 34.3808 35.7219 27.6761 33.3536 29.9585Z" fill="#292028"/>
<path d="M13.0312 30.9559C12.8777 31.1568 12.86 31.2177 13.1712 31.5289C14.1224 32.323 14.6798 32.6888 15.9173 32.911C16.9664 33.0999 19.9831 33.7437 20.5888 32.795C21.1743 31.8791 18.1097 32.3667 17.7543 32.3662C17.2458 32.3662 16.6963 32.2267 16.1941 32.1377C15.017 31.9275 14.6704 31.7266 13.7347 30.945C13.5021 30.7119 13.1795 30.7629 13.0312 30.9559Z" fill="#292028"/>
<path d="M18.5891 27.2207C17.9235 27.8124 22.5431 32.5506 23.8742 31.3058C24.4472 30.7693 23.4584 30.608 23.1847 30.5752C22.4895 30.4909 21.9623 30.0652 21.444 29.6244C21.0412 29.2815 19.1444 26.7264 18.5891 27.2207Z" fill="#292028"/>
<path d="M25.3475 23.7784C24.1829 24.0282 27.07 30.3301 28.7499 29.4491C29.4258 29.0942 27.772 28.1638 27.3235 27.7859C26.9857 27.5008 26.6579 26.7785 26.4721 26.4194C26.3139 25.9495 26.0287 23.6316 25.3475 23.7784Z" fill="#292028"/>
<path d="M31.8843 23.1582C31.2323 23.6786 31.7974 28.3434 32.3444 28.7249C33.318 29.404 32.6389 26.0578 32.5973 25.7867C32.5067 25.1877 32.5312 24.1017 32.3896 23.7915C32.2606 23.5501 32.2788 22.8429 31.8843 23.1582Z" fill="#292028"/>
<path d="M39.65 23.1494C39.4939 23.2836 39.446 24.9151 39.3815 25.2273C39.3815 25.565 39.1957 25.9944 39.1114 26.3274C38.9558 26.9456 38.0165 28.1811 38.1617 28.7233C38.8044 31.1109 41.3168 21.7188 39.65 23.1494Z" fill="#292028"/>
<path d="M44.3032 24.7151C44.2319 25.6986 43.4503 27.3925 42.5922 27.9051C42.1888 28.1465 41.7247 28.274 41.2854 28.4343C40.7458 28.63 40.8738 29.446 41.4587 29.2331C42.3845 29.384 43.6688 28.1351 44.0654 27.443C44.4447 26.7805 44.8205 26.0769 45.0146 25.3338C45.2394 24.4736 44.3552 24.0084 44.3032 24.7151Z" fill="#292028"/>
<path d="M49.1438 25.2796C48.7176 26.1757 48.358 27.1562 47.592 27.8275C47.0529 28.2995 46.4799 28.5722 45.8513 28.8886C45.5234 29.054 44.7454 29.333 44.6752 29.7639C44.619 30.1136 45.0249 30.3654 45.3127 30.1578C46.7755 29.105 48.3179 28.7319 49.2167 26.9954C49.3494 26.7289 49.5076 26.475 49.6111 26.195C49.7615 25.7865 49.4909 24.5516 49.1438 25.2796Z" fill="#292028"/>
<path d="M53.4675 27.8375C52.9284 28.7118 52.447 29.6094 51.5368 30.1746C50.954 30.6929 50.0199 30.6664 49.2934 30.7236C48.7043 30.771 48.1491 31.4745 48.9713 31.4095C50.1198 31.9507 51.9594 30.9026 52.7592 30.1902C53.2416 29.7598 53.5154 29.3144 53.8328 28.7706C54.0805 28.3464 53.8817 27.1641 53.4675 27.8375Z" fill="#292028"/>
</g>
<defs>
<clipPath id="clip0_2460_16910">
<rect width="48" height="18.75" fill="white" transform="translate(8.5 23)"/>
</clipPath>
</defs>
</svg>
