<svg width="94" height="23" viewBox="0 0 94 23" fill="none" xmlns="http://www.w3.org/2000/svg">
<g clip-path="url(#clip0_2433_45065)">
<path d="M13.248 21.8542H11.4312L10.9386 19.391C10.2307 20.8691 9.39886 22.1621 6.84319 22.1621C2.22486 22.1621 0.561707 17.9438 0.561707 11.8469C0.561707 7.10517 1.67014 1.00876 7.27452 1.00876C12.2321 1.00876 13.0018 5.65793 13.2172 7.96734L9.73766 8.6141C9.39886 6.33553 9.1526 4.67287 7.30487 4.67287C6.22777 4.67287 5.73475 5.19625 5.39645 6.11961C4.93426 7.47481 4.90342 10.4305 4.90342 12.0628C4.90342 16.9891 5.55017 18.498 7.33571 18.498C8.53669 18.498 9.55309 17.9746 9.58393 14.4339H7.02826V11.016H13.248V21.8542Z" fill="#A1A1AA"/>
<path d="M13.925 1.31655H18.1433V18.0675H23.3472V21.8545H13.925V1.31655Z" fill="#A1A1AA"/>
<path d="M28.8726 14.0949L29.9811 8.42937C30.2273 7.16671 30.3502 6.02743 30.4736 5.16525C30.5661 7.01298 30.7199 7.78262 30.9049 8.61395L32.0442 14.0949H28.8726ZM28.5647 1.31607L23.8533 21.854H27.6408L28.4413 17.4203H32.5059L33.3372 21.854H37.5864L32.9367 1.31607H28.5647V1.31607Z" fill="#A1A1AA"/>
<path d="M37.9245 1.31656H43.7129L45.2836 9.96914C45.6532 11.8781 45.8069 14.0029 45.9303 15.8506C46.084 13.6024 46.5462 10.6467 46.7925 9.5378L48.5477 1.31656H54.2133V21.8545H50.1795V10.1537C50.1795 8.82985 50.2103 7.96768 50.3949 3.93392C50.2103 5.25778 49.7178 8.89154 49.5019 9.96914L47.0079 21.8545H44.3597L41.9583 9.78456C41.6811 8.36817 41.3732 5.87369 41.1578 3.93392C41.1886 5.53489 41.2807 8.05972 41.2807 9.66118V21.8545H37.9245V1.31656Z" fill="#A1A1AA"/>
<path d="M61.2109 4.67287C62.0113 4.67287 62.4735 4.98082 62.8118 5.99672C63.2128 7.22854 63.2128 10.123 63.2128 11.3857C63.2128 11.6628 63.2128 15.2652 62.966 16.6816C62.7815 17.7592 62.4427 18.4985 61.3034 18.4985C60.2566 18.4985 59.887 17.8209 59.6716 16.9896C59.3019 15.5423 59.3019 13.5409 59.3019 11.7857C59.3019 9.19915 59.3636 6.98228 59.7333 5.96588C60.0716 5.04251 60.5641 4.67287 61.2109 4.67287ZM61.3034 1.00875C56.4692 1.00875 54.8373 5.07336 54.8373 11.3548C54.8373 14.6493 55.2373 17.6672 56.5612 19.8223C56.808 20.2228 58.0084 22.1626 61.2109 22.1626C66.2914 22.1626 67.6769 17.79 67.6769 11.724C67.6769 5.50419 66.261 1.00875 61.3034 1.00875" fill="#A1A1AA"/>
<path d="M72.6262 1.31671V14.403C72.6262 16.9587 72.8416 18.4059 74.7197 18.4059C76.7216 18.4059 76.752 16.5896 76.752 14.1876V1.31671H80.3236V14.1876C80.3236 17.8209 80.1081 22.1626 74.4431 22.1626C69.7625 22.1626 68.4073 19.7915 68.4073 14.5264V1.31671H72.6262Z" fill="#A1A1AA"/>
<path d="M85.1201 4.54934H86.2902C87.6449 4.54934 88.5683 5.25779 88.5683 7.38213C88.5683 9.32189 87.9215 10.4 86.2902 10.4H85.1201V4.54934ZM80.9938 21.854H85.1201V13.787H86.4439L88.7533 21.854H93.1876L90.0772 12.9557C91.0319 12.3706 92.7563 11.2925 92.7563 7.41297C92.7563 6.64334 92.7563 4.21054 90.8468 2.42451C89.7697 1.43945 88.5066 1.31607 86.2902 1.31607H80.9938V21.854V21.854Z" fill="#A1A1AA"/>
</g>
<defs>
<clipPath id="clip0_2433_45065">
<rect width="92.6682" height="22" fill="white" transform="translate(0.540527 0.585938)"/>
</clipPath>
</defs>
</svg>
