<svg width="98" height="25" viewBox="0 0 98 25" fill="none" xmlns="http://www.w3.org/2000/svg">
<g clip-path="url(#clip0_2433_45151)">
<path d="M6.94256 3.91425C6.31749 3.41759 5.54499 3.14294 4.74669 3.13353C1.98707 3.13353 0.164307 6.94671 0.164307 12.724C0.164307 16.3016 0.817916 18.9264 2.12513 20.5985C2.85983 21.537 3.70629 21.9134 5.03761 21.9134C5.15266 21.9134 5.2332 21.9134 5.98104 21.8871L6.68615 21.8641L6.92941 21.8526V11.608H3.37099V14.2098H4.33415V19.1292C3.81477 18.7347 3.61425 18.4438 3.40551 17.7797C3.01926 16.5536 2.85654 15.15 2.85654 13.0133C2.85654 8.25831 3.6652 5.67784 5.1576 5.67784C5.69341 5.67784 6.30812 6.12984 6.9442 6.99273V3.91425H6.94256ZM13.0486 15.0103C13.0486 19.3362 11.9983 22.0351 10.3021 22.0351C8.63712 22.0351 7.54247 19.0766 7.54247 14.5764C7.54247 9.95123 8.50892 7.49568 10.3366 7.49568C11.9589 7.49239 13.0486 10.5018 13.0486 15.0103ZM9.84682 16.0457C9.84263 16.7767 9.88215 17.5072 9.96516 18.2334C10.0457 18.8514 10.1755 19.2491 10.2939 19.2491C10.3432 19.2491 10.3991 19.1768 10.4369 19.0634C10.5864 18.6213 10.6686 18.069 10.7097 17.2045C10.7229 16.9349 10.7333 16.5481 10.7409 16.0441C10.7497 15.505 10.7541 15.0787 10.7541 14.7654C10.7541 14.452 10.7497 14.0263 10.7409 13.4883C10.7459 12.7573 10.7064 12.0268 10.6226 11.3006C10.5421 10.681 10.4122 10.2849 10.2939 10.2849C10.2446 10.2849 10.1887 10.3572 10.1509 10.4706C10.0013 10.9127 9.92078 11.4568 9.87805 12.3295C9.86709 12.6243 9.85668 13.0105 9.84682 13.4883C9.83805 14.1074 9.83367 14.5336 9.83367 14.767C9.83367 15.0004 9.83805 15.425 9.84682 16.0408V16.0457ZM19.0297 15.0103C19.0297 19.3362 17.9728 22.0367 16.2832 22.0367C14.6182 22.0367 13.5252 19.0782 13.5252 14.578C13.5252 9.95287 14.4917 7.49732 16.3194 7.49732C17.9416 7.49239 19.0297 10.5018 19.0297 15.0103V15.0103ZM15.8279 16.0457C15.8227 16.7766 15.8612 17.5071 15.943 18.2334C16.0235 18.8514 16.1534 19.2491 16.2717 19.2491C16.321 19.2491 16.3769 19.1768 16.4147 19.0634C16.5643 18.6213 16.6448 18.069 16.6875 17.2045C16.7007 16.9349 16.7111 16.5481 16.7188 16.0441C16.7275 15.505 16.7319 15.0787 16.7319 14.7654C16.7319 14.452 16.7286 14.0263 16.722 13.4883C16.7302 12.7564 16.694 12.0248 16.6136 11.2973C16.533 10.6777 16.4032 10.2816 16.2848 10.2816C16.2355 10.2816 16.1796 10.3539 16.1418 10.4673C15.9923 10.9095 15.9117 11.4535 15.869 12.3262C15.8548 12.6221 15.8444 13.0089 15.8378 13.4866C15.829 14.1057 15.8246 14.532 15.8246 14.7654C15.8246 14.9988 15.8246 15.4245 15.8246 16.0425L15.8279 16.0457ZM25.2113 17.8291C25.2113 19.1702 25.3362 19.637 25.7898 20.0134L24.4749 22.0334C23.9605 21.9578 23.6531 21.6965 23.2357 20.9815C22.5782 21.7458 22.1739 22.0203 21.694 22.0203C21.0924 22.0203 20.4826 21.4384 20.1555 20.5542C19.6773 19.2623 19.5178 17.9244 19.5178 15.2026C19.5178 9.88713 20.3396 7.90658 22.805 7.25242V3.362H25.2146V17.8258L25.2113 17.8291ZM22.2018 11.3023C22.1398 11.5257 22.0964 11.7538 22.072 11.9844C22.0178 12.5202 21.9882 13.4636 21.9882 14.6733V15.1319L22.0112 16.6588C22.0424 18.7478 22.2183 19.4053 22.8034 19.5696V10.2668C22.536 10.4509 22.3355 10.796 22.2018 11.3023ZM32.3298 11.6129V3.36693H29.5504V21.897H32.3298V14.2065H33.3488V21.897H36.1281V3.36693H33.3488V11.6129H32.3298ZM42.2112 15.0103C42.2112 19.3362 41.156 22.0367 39.4647 22.0367C37.7997 22.0367 36.7067 19.0782 36.7067 14.578C36.7067 9.95287 37.6731 7.49732 39.5008 7.49732C41.1214 7.49732 42.2112 10.5018 42.2112 15.0103V15.0103ZM39.0094 16.0457C39.0052 16.7767 39.0447 17.5072 39.1277 18.2334C39.2083 18.853 39.3381 19.2491 39.4565 19.2491C39.5058 19.2491 39.5617 19.1768 39.5995 19.0634C39.749 18.6213 39.8312 18.069 39.8723 17.2045C39.8854 16.9349 39.8959 16.5481 39.9035 16.0441C39.9123 15.505 39.9167 15.0787 39.9167 14.7654C39.9167 14.452 39.9123 14.0263 39.9035 13.4883C39.9095 12.7563 39.8711 12.0247 39.7885 11.2973C39.7079 10.6777 39.5781 10.2816 39.4597 10.2816C39.4104 10.2816 39.3546 10.3539 39.3168 10.4673C39.1672 10.9095 39.0866 11.4535 39.0439 12.3262C39.0297 12.6221 39.0193 13.0089 39.0127 13.4866C39.0039 14.1068 38.9995 14.5331 38.9995 14.7654C38.9995 14.9977 39.0028 15.4234 39.0094 16.0425V16.0457ZM53.1247 8.01834L53.0836 7.99205C52.5281 7.63867 52.1353 7.49896 51.6586 7.49896C50.2402 7.49896 49.2475 8.86645 49.2475 10.8207C49.2475 11.8973 49.4841 12.9295 50.1514 14.7522C50.6889 16.2232 50.845 16.7245 51.011 17.5464C51.0903 17.9186 51.1376 18.2969 51.1524 18.6772C51.1524 19.4217 50.8237 19.9 50.2977 19.9C49.9493 19.9 49.6814 19.7603 49.254 19.3576L49.1521 19.2606L49.2343 21.5617C49.6272 21.9199 50.1444 22.1104 50.6757 22.0926C52.3194 22.0926 53.3055 20.896 53.3055 18.9319C53.3055 17.7469 53.0475 16.4665 52.4541 14.6684L51.9956 13.2878C51.6504 12.2457 51.4285 11.2957 51.4285 10.8585C51.4285 10.0975 51.7145 9.68825 52.2503 9.68825C52.5347 9.68825 52.6793 9.78523 53.1198 10.2635L53.1247 8.01834ZM59.6006 3.36528V21.897H62.0101V15.2749C62.3125 15.4853 62.5213 15.8173 62.6856 16.3482C62.85 16.879 62.8812 17.216 62.8878 18.7084V21.8953H65.1576V18.4618C65.148 17.8424 65.098 17.2241 65.008 16.6111C64.9351 16.0574 64.796 15.5144 64.5938 14.9938C64.4274 14.5793 64.193 14.1954 63.9002 13.8581C64.4591 13.153 64.704 12.5432 64.819 11.5307C64.853 11.2305 64.8733 10.927 64.8798 10.6202V7.62716H62.5656V10.326C62.5656 11.6211 62.4522 12.0929 62.0101 12.627V3.36528H59.6006ZM58.9201 21.851C58.5314 22.0419 58.104 22.1408 57.671 22.1402C56.4152 22.1402 55.1069 21.2708 54.5037 20.0364C53.7592 18.5112 53.5455 17.1798 53.5455 14.0241C53.5455 11.9252 53.6458 10.8651 53.9482 9.75071C54.3229 8.37665 55.2105 7.56142 56.3347 7.56142C57.9898 7.56142 58.9891 9.19517 58.9891 11.9038C58.9891 14.0603 57.7844 15.8485 56.0043 16.3416C56.1112 18.3879 56.8393 19.6584 57.906 19.6584C58.2692 19.6169 58.6171 19.4883 58.9201 19.2837V21.851V21.851ZM55.978 13.7135C56.0322 13.698 56.0803 13.6665 56.1161 13.6231C56.2168 13.5263 56.3032 13.4156 56.3725 13.2943C56.6367 12.7738 56.7645 12.1947 56.744 11.6113C56.744 10.7435 56.5796 10.086 56.3462 10.086C56.2788 10.086 56.2016 10.1912 56.1539 10.3506C55.9546 11.1368 55.8514 11.9442 55.8465 12.7552V12.9952L55.8564 13.2976C55.8663 13.5688 55.909 13.7135 55.978 13.7135V13.7135ZM70.8396 21.7852C70.4509 21.9761 70.0235 22.0751 69.5904 22.0745C68.3363 22.0745 67.028 21.205 66.4232 19.9707C65.677 18.4454 65.465 17.1141 65.465 13.9649C65.465 11.866 65.5652 10.8059 65.8676 9.69154C66.2424 8.31748 67.1299 7.50225 68.2542 7.50225C69.9093 7.50225 70.9086 9.136 70.9086 11.8447C70.9086 14.0011 69.7038 15.7893 67.9238 16.2824C68.0323 18.3304 68.7588 19.5992 69.8255 19.5992C70.1886 19.5582 70.5365 19.4303 70.8396 19.2261V21.7869V21.7852ZM67.8942 13.6526C67.9484 13.6373 67.9965 13.6057 68.0323 13.5622C68.133 13.4655 68.2194 13.3548 68.2887 13.2335C68.5528 12.7129 68.6806 12.1339 68.6601 11.5505C68.6601 10.6826 68.4958 10.0252 68.2624 10.0252C68.195 10.0252 68.1177 10.132 68.0701 10.2898C67.8709 11.076 67.7677 11.8834 67.7627 12.6944V12.9295L67.7726 13.2319C67.7726 13.5031 67.8219 13.6477 67.8942 13.6477V13.6526ZM76.6547 21.7902C76.2659 21.981 75.8386 22.08 75.4055 22.0794C74.1514 22.0794 72.8431 21.21 72.2383 19.9756C71.4921 18.4487 71.2801 17.119 71.2801 13.9699C71.2801 11.871 71.3803 10.8108 71.6827 9.69647C72.0575 8.32241 72.945 7.50718 74.0693 7.50718C75.7244 7.50718 76.7237 9.14093 76.7237 11.8496C76.7237 14.006 75.5189 15.7943 73.7389 16.2873C73.8474 18.3353 74.5755 19.6042 75.6406 19.6042C76.0042 19.5634 76.3527 19.4354 76.6563 19.2311V21.7918L76.6547 21.7902ZM73.7126 13.6526C73.7668 13.6374 73.815 13.6058 73.8507 13.5622C73.9514 13.4655 74.0378 13.3548 74.1071 13.2335C74.3712 12.7129 74.499 12.1339 74.4785 11.5505C74.4785 10.6826 74.3142 10.0252 74.0808 10.0252C74.0134 10.0252 73.9361 10.132 73.8885 10.2898C73.6892 11.076 73.586 11.8834 73.5811 12.6944V12.9295L73.591 13.2319C73.6025 13.5031 73.6469 13.6477 73.7126 13.6477V13.6526ZM83.4592 7.63374H85.683V21.9019H83.4592V7.63374ZM86.4769 21.9019H88.7007V11.0853C88.7007 10.4016 88.7155 10.2421 88.7993 10.04C88.8301 9.95293 88.8854 9.87665 88.9587 9.82036C89.0319 9.76407 89.1198 9.73017 89.2118 9.72277C89.5077 9.72277 89.677 9.98246 89.6868 10.4492V21.897H91.8909V9.73427C91.835 8.35857 91.1382 7.48581 90.0961 7.48581C89.5455 7.48581 89.1527 7.71099 88.4919 8.40459C88.1271 7.74715 87.8246 7.46938 87.4335 7.45952L86.0709 9.15737C86.3865 9.39898 86.4687 9.6373 86.4687 10.3227V21.8888L86.4769 21.9019ZM97.9822 19.1078V19.8984C97.9822 21.8312 97.8605 22.5561 97.4398 23.2793C96.9894 24.0518 95.972 24.5695 94.9053 24.5695C94.13 24.5449 93.3853 24.2614 92.79 23.7641C93.0923 23.2 93.3178 22.5981 93.4606 21.9742L93.4918 21.8493L93.5608 21.8986C94.0835 22.28 94.3153 22.3917 94.6407 22.3917C95.3129 22.3917 95.7912 21.9447 95.7912 21.3069C95.7899 21.219 95.7838 21.1312 95.7731 21.044C95.3639 21.468 95.0516 21.6274 94.6407 21.6274C93.237 21.6274 92.504 19.3362 92.504 14.9363C92.504 9.96767 93.9372 7.63374 96.9976 7.63374H97.9969V19.1127L97.9822 19.1078ZM95.2784 10.9177C94.9497 11.5439 94.7294 13.2072 94.7294 15.1122V15.2963L94.7442 16.7969C94.764 18.7791 94.9316 19.4168 95.4296 19.4168C95.6663 19.4168 95.7583 19.2623 95.7583 18.8333V10.4377C95.5519 10.5433 95.384 10.7112 95.2784 10.9177V10.9177ZM79.4176 8.18435C79.8712 7.65511 80.2788 7.41843 80.7325 7.41843C82.164 7.41843 82.8691 9.69483 82.8691 14.3512C82.8691 19.4842 81.9734 21.6225 79.6312 22.0761V24.5859H77.3187V9.94466C77.311 9.77125 77.2619 9.6022 77.1757 9.45157C77.0939 9.32109 76.9912 9.20503 76.8716 9.10806L78.3854 7.37405C78.8193 7.48746 78.9754 7.61402 79.4176 8.18435V8.18435ZM80.527 14.7736C80.527 13.0051 80.4777 11.4732 80.3873 10.515C80.3413 10.0219 80.1473 9.71784 79.8942 9.71784C79.7299 9.71784 79.6427 9.84768 79.6411 10.1172V19.1571C80.3314 18.5753 80.5254 17.622 80.5286 14.7654L80.527 14.7736ZM48.8891 20.2189C48.4404 19.9312 48.35 19.6469 48.35 18.5177V7.62552H45.9422V18.6722C45.9532 18.9017 45.9433 19.1316 45.9126 19.3593C45.8715 19.5844 45.7482 19.7159 45.5707 19.7159C45.4833 19.7051 45.4021 19.6649 45.3406 19.6019C45.279 19.5389 45.2408 19.4568 45.2321 19.3691C45.2149 19.2908 45.205 19.211 45.2025 19.1308V7.62552H42.7913V18.6377C42.7913 20.0479 42.8883 20.5427 43.2844 21.1278C43.4305 21.3677 43.6332 21.5681 43.8748 21.7114C44.1164 21.8547 44.3894 21.9365 44.67 21.9496C45.1943 21.9496 45.7055 21.6718 46.1805 21.1278L46.2577 21.039L46.289 21.0818C46.6686 21.5946 47.0319 21.8477 47.4789 21.9036C47.7683 21.4863 48.0851 21.0887 48.4273 20.7136L48.756 20.3536L48.8891 20.2189ZM75.8115 0.585938L84.5769 3.81563C84.6147 3.97999 84.6492 4.13614 84.6903 4.29392C84.7462 4.51745 84.8053 4.74098 84.8645 4.97273L86.1021 4.59142L86.112 4.6095L85.1258 5.44774L86.1005 6.2794L86.089 6.30077L84.8645 5.92767L84.5522 7.13901H84.5341L84.2202 5.92767L82.976 6.31063L82.9661 6.29748L83.9523 5.45267L82.9661 4.61607V4.59799L84.2038 4.97766L84.5062 3.82714L75.8115 0.585938Z" fill="#A1A1AA"/>
</g>
<defs>
<clipPath id="clip0_2433_45151">
<rect width="97.8343" height="24" fill="white" transform="translate(0.165771 0.585938)"/>
</clipPath>
</defs>
</svg>
