<svg width="113" height="54" viewBox="0 0 113 54" fill="none" xmlns="http://www.w3.org/2000/svg">
<g clip-path="url(#clip0)">
<path d="M58.8746 12.2912C44.9484 13.2383 32.8618 19.7892 20.8759 26.3789C16.32 28.8839 12.0702 31.6172 7.53008 34.1331C6.37897 34.7706 -0.0359123 36.8968 0.535999 38.4085C1.30826 40.44 8.24649 37.187 9.48988 36.456C11.9912 34.9321 14.4185 32.2705 14.4732 32.2365C17.8888 30.1638 20.5068 28.5099 24.4713 30.4819C29.7108 33.0889 34.8276 35.5392 40.3136 37.6023C52.2582 42.0925 66.1225 46.4298 78.0671 39.8717C86.5608 35.2114 92.0079 26.3899 102.54 25.8629C104.713 25.7548 106.598 26.4457 108.654 27.0213C109.12 27.15 114.231 27.4997 111.888 25.7961C109.312 23.9031 106.413 22.6658 103.419 21.613C88.9371 16.5156 74.5251 11.2178 58.8746 12.2912ZM28.1723 24.628C34.2922 21.4321 40.3828 18.1354 47.06 16.2424C56.3296 13.6135 66.1978 13.4326 75.658 15.0998C85.4485 16.8264 95.3653 20.4546 104.656 24.0779C93.981 22.735 87.4715 31.4739 79.6116 36.7256C70.9103 42.5297 61.5897 42.0889 51.8976 39.2973C48.1176 38.2094 44.3899 37.0692 40.6949 35.7287C37.8718 34.7014 34.807 33.883 32.234 32.3203C29.5602 30.6956 25.6018 28.2295 22.3767 27.6855C24.2989 26.6461 26.2356 25.637 28.1723 24.628Z" fill="#FEFCF9"/>
<path d="M69.7246 12.8199C68.8054 13.6626 70.2248 16.0049 70.4373 16.9095C70.957 19.1279 71.2739 21.5297 71.0141 23.8064C70.5381 27.9349 66.3113 30.2796 62.5945 31.0677C57.9038 32.0633 53.1755 29.7344 50.4641 25.8767C49.2948 24.2132 49.0507 22.404 49.4721 20.4308C49.6433 19.6331 50.5151 18.074 50.0877 17.2616C49.7028 16.5282 48.593 16.629 48.3477 17.4207C46.6793 22.7938 47.6592 26.6454 52.0609 30.2031C55.7461 33.1829 60.5351 33.9454 64.9817 32.3463C68.3852 31.1235 71.8993 28.8249 72.7213 25.0644C73.037 23.6158 72.0693 10.6573 69.7246 12.8199Z" fill="#FEFCF9"/>
<path d="M58.4909 16.737C53.3656 18.9773 55.0243 27.5584 60.7118 27.3726C70.5521 27.0557 64.017 11.4113 58.4909 16.737Z" fill="#FEFCF9"/>
<path d="M11.0727 19.0634C10.7145 19.5321 10.6733 19.6742 11.3994 20.4003C13.619 22.2532 14.9195 23.1069 17.807 23.6253C20.2549 24.0661 27.2939 25.5682 28.7073 23.3546C30.0733 21.2175 22.9226 22.3552 22.0933 22.354C20.907 22.354 19.6247 22.0286 18.453 21.821C15.7063 21.3304 14.8976 20.8617 12.7144 19.0379C12.1716 18.4939 11.4188 18.6129 11.0727 19.0634Z" fill="#FEFCF9"/>
<path d="M24.0427 10.3478C22.4897 11.7284 33.2686 22.7841 36.3747 19.8797C37.7115 18.6278 35.4045 18.2513 34.7658 18.1748C33.1435 17.9781 31.9135 16.9849 30.7041 15.9564C29.7643 15.1562 25.3383 9.19425 24.0427 10.3478Z" fill="#FEFCF9"/>
<path d="M39.8102 2.31537C37.0927 2.89821 43.8294 17.6028 47.749 15.5471C49.3263 14.7189 45.4674 12.5479 44.4207 11.6663C43.6327 11.0009 42.8677 9.31553 42.4342 8.47769C42.0651 7.38123 41.3997 1.97295 39.8102 2.31537Z" fill="#FEFCF9"/>
<path d="M55.0634 0.869327C53.542 2.08358 54.8606 12.9681 56.1368 13.8582C58.4087 15.4428 56.8241 7.63513 56.7269 7.0025C56.5157 5.6049 56.5727 3.07076 56.2425 2.34707C55.9413 1.78366 55.9838 0.133491 55.0634 0.869327Z" fill="#FEFCF9"/>
<path d="M73.182 0.848466C72.8178 1.16174 72.7061 4.96842 72.5555 5.69697C72.5555 6.48502 72.122 7.48677 71.9253 8.26389C71.5622 9.70642 69.3705 12.5891 69.7093 13.8543C71.2089 19.4253 77.0713 -2.48951 73.182 0.848466Z" fill="#FEFCF9"/>
<path d="M84.04 4.50115C83.8736 6.79608 82.0498 10.7485 80.0475 11.9445C79.1065 12.5079 78.0234 12.8054 76.9986 13.1794C75.7394 13.636 76.0381 15.5399 77.4029 15.0433C79.5631 15.3954 82.5598 12.4812 83.4851 10.8663C84.3703 9.32051 85.247 7.67885 85.6999 5.9449C86.2244 3.93774 84.1614 2.8522 84.04 4.50115Z" fill="#FEFCF9"/>
<path d="M95.3355 5.81986C94.3411 7.9108 93.502 10.1984 91.7146 11.7648C90.4567 12.8662 89.1198 13.5024 87.653 14.2407C86.888 14.6268 85.0727 15.2777 84.9088 16.2831C84.7776 17.099 85.7247 17.6867 86.3962 17.2022C89.8095 14.7458 93.4085 13.8752 95.5055 9.82324C95.8152 9.20155 96.1843 8.60899 96.4259 7.95573C96.7768 7.00254 96.1454 4.12113 95.3355 5.81986Z" fill="#FEFCF9"/>
<path d="M105.425 11.7876C104.167 13.8275 103.043 15.9221 100.92 17.2408C99.5598 18.4502 97.3802 18.3882 95.6851 18.5218C94.3106 18.6323 93.015 20.274 94.9335 20.1222C97.6134 21.385 101.906 18.9395 103.772 17.2772C104.898 16.273 105.536 15.2336 106.277 13.9647C106.855 12.9751 106.391 10.2163 105.425 11.7876Z" fill="#FEFCF9"/>
</g>
<defs>
<clipPath id="clip0">
<rect width="112" height="53.4012" fill="white" transform="translate(0.5 0.5)"/>
</clipPath>
</defs>
</svg>
