<svg width="102" height="97" viewBox="0 0 102 97" fill="none" xmlns="http://www.w3.org/2000/svg">
<g clip-path="url(#clip0)">
<path d="M101.265 53.1673C100.602 52.3126 99.8655 51.5064 99.1021 50.7373C98.0392 49.6662 96.9288 48.6415 95.8369 47.6005C94.5381 46.3629 93.3606 45.0443 92.7013 43.3279C92.1161 41.8035 91.916 40.3022 92.5602 38.7326C93.3606 36.7849 93.3548 34.8047 92.3451 32.9449C91.6257 31.6217 90.7883 30.3448 89.8745 29.1465C88.0864 26.8032 86.4417 24.3743 84.9554 21.8274C84.0891 20.3434 83.1013 18.9254 82.0962 17.5282C81.6278 16.8782 81.0217 16.3149 80.4226 15.7736C79.4961 14.935 79.451 14.8367 80.1438 13.7576C80.322 13.48 80.581 13.2556 80.7835 12.9919C81.1281 12.5455 81.5295 12.173 81.991 11.8411C82.8191 11.2454 83.5524 10.5075 84.4176 9.9789C85.2781 9.45264 86.1768 8.90902 87.2987 9.0883C87.7683 9.16348 88.1627 9.22016 88.3119 9.75105C88.3432 9.85977 88.4958 10.0055 88.5941 10.0067C88.704 10.0078 88.8625 9.88984 88.9203 9.78112C89.2372 9.1843 88.9793 8.00454 88.3987 7.67027C88.0702 7.48174 87.6457 7.40888 87.2594 7.38575C86.7019 7.3522 86.0692 7.25389 85.5927 7.4644C84.5945 7.90507 83.6056 8.43481 82.7474 9.10218C81.6498 9.95461 80.6597 10.9528 79.6742 11.9405C79.185 12.431 78.8114 13.0359 78.3464 13.6385C77.4709 12.8867 76.6196 12.2089 75.8308 11.464C74.7644 10.4554 73.7419 9.40174 72.7148 8.35153C72.5841 8.21736 72.48 7.99644 72.4742 7.81254C72.4476 6.98324 72.1168 6.6802 71.2922 6.77158C71.0932 6.79355 70.855 6.84444 70.693 6.76464C68.8436 5.85784 66.9328 5.13958 64.8856 4.85158C64.5907 4.80994 64.1581 4.85158 63.9939 5.03664C63.8354 5.21591 63.9407 5.62883 63.9291 5.95615C66.1059 5.77456 67.9113 6.49399 69.7226 7.38575C68.7256 8.16878 67.8142 8.8963 66.8901 9.60878C65.5414 10.6474 64.8081 12.1383 64.0043 13.5679C63.3612 14.7107 62.7759 15.8869 62.208 17.0702C61.5626 18.4153 60.9068 19.7605 60.362 21.1461C59.83 22.4982 59.4356 23.9058 58.9729 25.2857C58.5947 26.4111 58.1587 27.5203 57.8325 28.6607C57.4474 30.0094 57.1038 31.3649 56.3451 32.569C56.2456 32.7274 56.1647 32.9044 56.1057 33.0825C55.8211 33.9292 55.6581 34.8394 55.2428 35.6144C54.5246 36.9537 54.4586 38.5314 53.5599 39.8071C53.154 40.3831 53.036 41.1546 52.7179 41.8035C52.3316 42.5923 51.8342 43.3256 51.4502 44.1156C50.3931 46.2889 49.1486 48.3107 47.4911 50.1057C46.2466 51.4544 44.7661 52.3508 43.1503 53.113C41.3309 53.97 39.3473 54.1956 37.4169 54.6235C36.7345 54.7739 36.0255 54.8028 35.2783 54.893C35.3095 54.6629 35.3165 54.5391 35.3454 54.4211C35.7548 52.7255 36.2418 51.0438 36.5621 49.3308C36.9947 47.0199 37.3382 44.6893 37.6517 42.3575C37.9489 40.1483 38.1803 37.9299 38.3989 35.7115C38.6522 33.1403 38.7528 30.5495 39.116 27.9957C39.5231 25.133 40.0968 22.29 40.6982 19.4598C41.2338 16.9395 42.085 14.4909 43.6037 12.3974C45.1096 10.3213 46.8492 8.4163 48.4592 6.41418C48.9473 5.80695 49.3764 5.20897 50.3017 5.41601C50.3711 5.43105 50.6001 5.07365 50.6186 4.87702C50.6348 4.70815 50.4567 4.52078 50.3503 4.31606C50.651 4.05929 50.9159 3.78748 51.2224 3.57697C52.5386 2.67712 53.9185 2.08955 55.5354 2.77659C56.027 2.98478 56.5255 3.17909 57.0321 3.34681C57.1293 3.37919 57.3791 3.26468 57.3837 3.20685C57.4011 2.92579 57.4647 2.48859 57.3178 2.38449C56.832 2.04444 56.2699 1.80387 55.7217 1.56329C54.7501 1.13765 53.7855 1.1735 52.7757 1.5228C51.3461 2.01668 50.3353 3.04493 49.27 4.02459C49.0977 4.18305 48.8548 4.37967 48.6535 4.37042C47.424 4.30796 46.198 4.15297 44.9674 4.1044C43.9808 4.06507 42.9675 3.55731 41.9971 4.21081C41.9254 4.25938 41.767 4.18536 41.6513 4.1576C41.4188 4.10324 41.1806 3.97023 40.9573 3.99336C39.0605 4.18883 37.1648 4.40281 35.2725 4.63644C34.8631 4.68734 34.471 4.87355 34.0615 4.93254C33.2149 5.05399 32.3416 5.04936 31.5146 5.24252C28.5525 5.93649 25.6424 6.80396 22.9602 8.27982C21.733 8.95413 20.5359 9.68512 19.3469 10.4254C17.5033 11.5716 16.113 13.177 14.9957 15.0033C14.4336 15.9216 14.0149 16.9337 13.5904 17.9272C13.1833 18.8791 12.8108 19.8507 12.502 20.8385C12.1909 21.8332 11.9399 22.8498 11.7329 23.8723C11.5177 24.9295 11.2586 26.0028 11.2482 27.0704C11.2332 28.6191 11.4691 30.1678 11.5154 31.7177C11.5686 33.5278 12.0382 35.2489 12.6535 36.9098C13.3128 38.6887 14.0947 40.441 15.3704 41.9006C16.224 42.878 17.0371 43.8993 17.9636 44.8026C19.4094 46.2125 21.0125 47.4443 22.8261 48.3535C23.6796 48.7814 24.598 49.0821 25.4909 49.4291C26.2925 49.7402 27.138 49.9924 27.552 50.8506C27.7741 51.3109 27.5451 51.7817 27.1056 51.806C24.635 51.9367 22.2639 52.4919 19.8836 53.1858C16.3721 54.2095 13.4331 56.1202 10.7358 58.467C7.9715 60.8716 5.49863 63.5758 3.22471 66.4385C1.38914 68.7494 0.133043 71.2986 0.245236 74.4273C0.321573 76.5647 0.962344 78.472 1.86336 80.3284C2.30634 81.2398 2.93902 82.0599 3.50461 82.9088C3.66538 83.1494 3.86779 83.3854 4.10143 83.5519C5.03945 84.2135 5.51251 85.3412 6.57198 85.9033C7.25324 86.2654 7.76215 86.9801 8.45844 87.2809C10.1217 88.0014 11.8369 88.6121 13.558 89.1835C14.4475 89.4785 15.3866 89.6762 16.3189 89.7722C17.605 89.9053 18.912 89.8335 20.197 89.9712C22.0511 90.169 23.8624 89.9712 25.6193 89.4438C27.0975 89.0008 28.571 88.471 29.9497 87.7852C31.2174 87.1548 32.4168 86.344 33.5329 85.4684C34.6167 84.6195 35.6808 83.6838 36.5309 82.6104C37.6679 81.1739 38.577 79.5581 39.6168 78.0417C39.8157 77.7503 40.1269 77.4449 40.4496 77.3431C42.5153 76.692 44.374 75.6788 46.0014 74.2573C46.4097 73.901 46.7914 73.4904 47.0944 73.044C48.4349 71.0731 48.9276 68.9009 48.4048 66.5599C47.9052 64.3241 47.4437 62.0514 45.8672 60.2517C45.3086 59.6132 44.7256 58.8464 43.7529 58.9713C42.9641 59.0719 42.1857 59.346 41.4339 59.6282C40.8694 59.8399 40.8879 60.1626 41.3633 60.5478C41.5727 60.7166 41.8271 60.9514 41.8641 61.1862C41.9647 61.8258 41.9474 62.4828 42.0006 63.1317C42.0353 63.5481 41.9682 64.087 42.1984 64.3519C42.7617 64.9996 42.786 65.7133 42.7223 66.4651C42.6194 67.6726 42.6021 68.9067 42.3187 70.0737C42.0446 71.2003 41.472 72.2528 41.0452 73.3435C40.8486 73.8467 40.7503 74.3995 40.4866 74.861C40.2055 75.3537 39.8701 75.9668 39.4017 76.1703C38.3295 76.6376 37.174 76.9337 36.0324 77.2171C33.3143 77.8902 30.5731 78.4732 27.7672 78.59C26.2601 78.6524 24.7426 78.6201 23.2355 78.5333C21.4069 78.4281 19.6627 77.9307 17.9555 77.2541C15.9742 76.4687 14.0912 75.5515 12.5101 74.0838C10.8769 72.5674 10.1726 70.6301 10.1864 68.4915C10.1992 66.487 10.7439 64.626 12.1608 63.0345C13.4689 61.5644 14.9275 60.4148 16.8174 59.8723C18.3545 59.4316 19.909 59.0534 21.4589 58.6625C22.4525 58.4126 22.7914 58.7585 22.5728 59.767C22.1506 61.7252 23.4298 64.2987 25.285 65.1454C25.8136 65.3871 26.3919 65.5178 26.9483 65.6982C27.3913 65.8416 27.8296 66.073 28.2795 66.1042C28.8752 66.1435 29.4824 66.0383 30.0816 65.9712C31.0578 65.8636 31.9553 65.5039 32.5394 64.7139C33.3976 63.5527 34.2258 62.3556 34.9244 61.0949C35.4691 60.1117 35.7271 59.0164 34.9995 57.9384C34.8469 57.7117 34.8052 57.4087 34.7405 57.2236C36.2071 56.9472 37.6367 56.7274 39.0408 56.4013C41.6536 55.794 44.0675 54.7288 46.2223 53.1083C48.3065 51.5411 49.8495 49.5182 51.1067 47.2662C53.2176 43.4852 55.1445 39.6279 56.4735 35.479C57.3826 32.6418 58.5253 29.8798 59.5513 27.0785C60.354 24.8878 61.0433 22.6509 61.9536 20.5077C62.9286 18.2106 64.1338 16.0119 65.1829 13.7437C66.3314 11.2593 68.293 9.61225 70.6051 8.30989C70.7497 8.22777 71.0493 8.26131 71.1915 8.36194C71.6195 8.66266 72.0324 8.99693 72.4037 9.36589C73.6471 10.6046 74.8696 11.8642 76.1003 13.1157C76.5965 13.62 77.088 14.1277 77.5865 14.6297C77.8514 14.8969 77.9983 15.1583 77.6895 15.5006C77.5969 15.6036 77.568 15.7655 77.5183 15.9031C76.9758 17.4091 76.4299 18.9138 75.8956 20.4221C75.4896 21.5683 75.0928 22.7168 74.7031 23.8688C74.348 24.9179 73.9917 25.9669 73.669 27.0264C73.3625 28.0315 73.1358 29.0609 72.8085 30.0591C72.2695 31.705 71.6623 33.3277 71.1175 34.9724C70.9232 35.5577 70.8897 36.2008 70.6687 36.7733C70.3819 37.517 69.9667 38.2098 69.6301 38.9362C68.5764 41.2148 67.5713 43.5153 66.129 45.5903C65.1898 46.9424 64.46 48.4367 63.2201 49.5818C62.444 50.2989 61.7905 51.1479 61.0375 51.8916C60.3736 52.5485 59.6773 53.1801 58.9417 53.7537C58.0731 54.4315 57.1929 55.1197 56.234 55.6529C54.3106 56.7216 52.1893 57.2028 50.0091 57.3404C48.4361 57.4399 46.8642 57.3902 45.4242 56.569C44.8262 56.2278 44.1057 56.6407 44.0085 57.3208C43.9229 57.9176 44.337 58.4797 45.0321 58.7284C46.7405 59.3379 48.4916 59.3773 50.2647 59.1286C51.1067 59.0106 51.9464 58.8788 52.8671 58.7423C52.7931 58.9366 52.7757 59.0418 52.7191 59.1205C52.0077 60.121 51.3727 61.1492 51.2999 62.4273C51.2455 63.3827 50.8326 64.4086 51.8909 65.1176C51.9221 65.1384 51.9568 65.1893 51.9534 65.2228C51.8458 66.1389 52.7607 66.4523 53.1031 67.1151C53.361 67.6148 54.0133 67.897 54.4482 68.3203C55.8998 69.7291 57.6336 70.4843 59.6426 70.5827C60.3794 70.6185 61.0722 70.4173 61.5684 69.8123C61.9675 69.3254 62.4035 68.8547 62.7146 68.3134C63.0651 67.7027 63.2617 67.0098 62.7343 66.3737C62.5747 66.1817 62.3144 65.9862 62.0889 65.9723C61.9617 65.9643 61.75 66.3066 61.6875 66.5229C61.573 66.9242 61.506 67.3464 61.4805 67.764C61.4192 68.7378 60.7403 69.2201 59.9942 69.5961C58.7231 70.2368 56.8158 69.6111 56.086 68.244C55.8581 67.816 55.5956 67.4077 55.3654 66.9809C54.4262 65.2379 53.9636 63.4463 54.7108 61.4893C55.3319 59.8607 56.448 58.6891 57.947 57.8783C59.1985 57.2005 60.5008 56.6176 61.7569 55.9479C63.2097 55.1729 63.8423 53.5132 63.2837 51.9633C63.1541 51.6036 63.2189 51.4069 63.4653 51.1386C64.0586 50.4886 64.6207 49.8085 65.1644 49.1168C66.6344 47.2454 67.7864 45.175 68.9685 43.1162C70.7092 40.0859 71.7861 36.7895 72.9704 33.5394C73.809 31.2354 74.4023 28.8435 75.1611 26.5094C75.9777 23.9972 76.8405 21.4989 77.7219 19.0087C78.0746 18.0117 78.5315 17.0505 78.978 15.9876C79.5135 16.5196 79.9414 16.9753 80.4006 17.394C81.5168 18.4142 82.2697 19.6946 83.025 20.9773C83.9133 22.4867 84.8027 23.9972 85.7072 25.4974C85.9247 25.8594 86.1999 26.1867 86.4532 26.5268C87.0258 27.2936 87.5335 28.1229 88.1963 28.7995C88.6774 29.2899 89.1713 29.6462 89.1077 30.45C89.0822 30.7693 89.3795 31.1301 89.5703 31.4459C89.7658 31.7674 90.055 32.0358 90.2262 32.3677C90.5882 33.0733 90.8415 33.8389 91.2486 34.5144C91.7066 35.2743 91.7402 36.1684 91.4591 36.8126C90.8623 38.1786 90.7998 39.5885 90.7223 41.0019C90.69 41.5872 90.9675 42.199 91.1491 42.7866C91.488 43.8866 91.8443 44.9773 92.6678 45.8494C93.0911 46.2981 93.5364 46.7723 93.8013 47.3171C94.405 48.564 95.6276 49.2094 96.4557 50.2318C96.8074 50.6656 97.2827 50.9975 97.6725 51.4035C98.3029 52.0616 98.902 52.7486 99.5277 53.4102C99.9268 53.8324 99.906 54.6386 99.5034 54.9786C98.0785 56.185 96.6281 57.3659 95.2633 58.6382C93.9389 59.8723 94.0847 61.5864 95.5085 62.7164C96.4384 63.4544 96.4812 64.2675 95.6068 65.0667C95.2829 65.3628 95.2401 65.6265 95.49 65.9966C95.7814 66.4304 96.0914 66.8745 96.2591 67.3615C96.5194 68.1144 95.7062 68.9437 94.9232 68.7922C93.8371 68.5828 92.972 68.8558 92.5325 69.5961C91.9218 70.6243 91.6685 71.7254 92.4955 72.6704C92.935 73.1723 93.2947 73.753 93.6289 74.3336C94.021 75.0125 93.7562 75.8326 93.0715 76.2409C92.6736 76.478 92.2954 76.7648 91.8697 76.9337C91.0138 77.2726 90.1475 77.7399 89.2581 77.8116C86.673 78.0198 84.1562 77.4889 81.7053 76.6908C80.433 76.2767 79.2093 75.7111 77.9312 75.3179C76.1246 74.7627 74.2901 74.2966 72.4627 73.812C72.1296 73.7241 71.7247 73.6061 71.4367 73.7171C70.8978 73.9242 70.4108 74.2758 69.9169 74.5904C69.1177 75.0993 68.8922 75.9494 68.5463 76.7683C68.0108 78.0348 67.2891 79.2215 66.6865 80.4614C65.6733 82.5468 64.6578 84.6322 63.707 86.7465C62.9957 88.3311 62.3734 89.9562 61.7361 91.5731C61.4134 92.3932 61.1567 93.2387 60.8444 94.0633C60.7888 94.2102 60.6049 94.3051 60.4904 94.4335C60.3158 94.6301 60.0509 94.8117 60 95.0395C59.8786 95.5797 60.3193 95.959 61.2457 96.1661C61.7743 96.284 61.92 95.9024 62.0611 95.5022C62.7297 93.603 63.3577 91.6865 64.1014 89.8162C64.6115 88.5323 65.2904 87.3167 65.8873 86.0676C66.3939 85.0093 66.9062 83.9544 67.3897 82.8857C68.315 80.8454 69.2172 78.7947 70.1436 76.7544C70.2593 76.4988 70.4201 76.2305 70.6329 76.0558C71.5108 75.3364 72.4696 74.9882 73.639 75.3364C75.5208 75.8974 77.4396 76.3415 79.3122 76.9279C80.5591 77.3188 81.74 77.9134 82.9764 78.3401C84.2857 78.7924 85.6286 79.026 87.0408 79.0411C88.6878 79.0584 90.3279 79.1972 91.8616 78.4651C92.6863 78.0707 93.6 77.7075 94.2258 77.0829C95.5015 75.8095 95.1939 73.5876 93.7411 72.4726C93.1466 72.0169 93.0506 71.5033 93.4196 70.7446C93.7666 70.0309 94.0049 69.9835 94.8226 70.0969C95.3558 70.1709 96.0521 70.2137 96.4326 69.9373C96.9219 69.5822 97.2018 68.9113 97.5013 68.3388C97.6077 68.1364 97.5835 67.7917 97.4875 67.5696C97.2318 66.9786 96.9045 66.4176 96.5749 65.785C97.3776 65.431 97.5002 64.6214 97.6274 63.7933C97.75 62.9906 97.5846 62.4516 96.8698 62.0387C95.7074 61.3667 95.8427 60.601 96.2267 59.7578C96.8733 58.3363 98.0854 57.4307 99.3138 56.5875C100.211 55.971 100.955 55.2562 101.363 54.2615C101.493 53.9457 101.458 53.4149 101.265 53.1673ZM42.3765 71.8561C43.3585 69.5648 43.5759 67.1775 43.2544 64.7382C43.1214 63.7285 42.838 62.7373 42.6067 61.7414C42.4448 61.0474 42.7744 60.3558 43.4256 60.084C43.8246 59.9174 44.5116 60.2551 44.8471 60.7536C45.2762 61.3909 45.8256 61.9693 46.1471 62.6551C46.7775 64.0049 47.365 65.3963 47.424 66.915C47.4634 67.9305 47.5131 68.9749 47.3292 69.9639C47.0782 71.316 46.2674 72.3939 45.1998 73.2811C44.0224 74.2607 42.6738 74.9246 41.2835 75.5238C41.154 75.5793 41.0047 75.5874 40.8347 75.6244C41.3656 74.3243 41.8514 73.081 42.3765 71.8561ZM27.138 62.5823C26.7482 62.4944 26.4255 62.0294 26.1213 61.6859C25.9906 61.5367 25.9825 61.2799 25.9177 61.0717C25.8576 61.0648 25.7986 61.059 25.7384 61.0521C25.5626 61.4789 25.2955 61.8929 25.2353 62.3348C25.1752 62.7708 25.3244 63.2346 25.4019 63.8418C25.152 63.7562 24.8293 63.7482 24.6952 63.5839C23.6669 62.3313 23.099 60.9283 23.483 59.2743C23.5154 59.1332 23.7328 59.0384 23.7745 58.8961C23.852 58.6336 23.9711 58.297 23.8682 58.0934C23.7872 57.9315 23.3882 57.8285 23.1534 57.8621C21.2183 58.1339 19.2648 58.3351 17.3656 58.7712C15.1599 59.2766 13.307 60.3858 11.7606 62.1601C10.9197 63.1236 10.4074 64.1807 9.8649 65.261C9.64977 65.6901 9.59888 66.2199 9.54683 66.7114C9.40109 68.0601 9.24148 69.4041 9.81054 70.7226C10.0627 71.3067 10.0419 72.0284 10.3576 72.5616C10.9753 73.6072 11.6102 74.6725 12.6408 75.3988C13.8506 76.2536 14.9841 77.268 16.2992 77.9099C18.055 78.7669 19.8986 79.5083 21.8765 79.757C22.9822 79.8958 24.0914 80.0786 25.2018 80.0924C27.2582 80.1179 29.324 80.126 31.3516 79.6865C33.6544 79.188 35.9503 78.6559 38.2497 78.1435C38.3838 78.1135 38.5261 78.1215 38.8014 78.1019C38.5608 78.5356 38.4035 78.8884 38.1872 79.1995C37.0098 80.887 35.8127 82.5688 34.2154 83.8885C32.1149 85.6234 29.8838 87.1421 27.2814 88.0801C23.9225 89.2911 20.5024 89.3397 17.0163 88.9106C14.8338 88.6422 12.7819 87.9864 10.722 87.245C8.03974 86.2792 6.02605 84.4668 4.27145 82.3756C2.98066 80.8385 1.96051 79.0642 1.4435 77.069C0.70326 74.2133 1.11965 71.5299 2.83839 69.1415C3.96263 67.5801 5.22914 66.1135 6.50605 64.6711C7.86625 63.1351 9.19753 61.539 10.7555 60.2216C12.5367 58.7157 14.3364 57.2202 16.4681 56.1318C19.2671 54.7033 22.2038 53.8521 25.2665 53.3397C26.6001 53.1164 27.9499 53.0817 29.2662 53.4426C29.6189 53.5386 29.8919 53.896 30.2296 54.0822C30.7744 54.3818 30.3175 54.7484 30.3279 55.0792C30.3904 57.2109 29.612 59.154 28.9365 61.1168C28.8093 61.4858 28.6323 61.9045 28.3455 62.1347C28.0147 62.3961 27.4954 62.6632 27.138 62.5823ZM33.9806 60.7409C33.2461 61.7217 32.492 62.7002 31.8836 63.7586C31.4984 64.4282 30.9074 64.5532 30.3083 64.7475C29.9833 64.8527 29.6282 64.8655 29.287 64.9198C29.2546 64.8689 29.2222 64.818 29.1898 64.7683C31.7506 63.3017 33.1096 60.9133 34.2466 58.3247C34.3507 59.1714 34.5496 59.981 33.9806 60.7409ZM33.8626 57.0004C33.1247 59.3298 31.8593 61.2996 29.7404 62.6262C29.4431 62.8124 29.1146 62.9478 28.6624 63.1768C29.0591 62.1266 29.4235 61.2256 29.7427 60.3095C30.5905 57.8713 31.0289 55.3638 31.1364 52.7799C31.2752 49.4326 30.9224 46.1397 30.2701 42.8676C29.8884 40.9487 29.5588 39.0183 29.1378 37.1076C28.6254 34.7862 28.0205 32.4857 27.4907 30.1678C27.0107 28.0709 26.6267 25.938 26.7863 23.7902L30.513 18.5183C30.5951 18.5761 30.6761 18.6328 30.7582 18.6906C30.7779 18.3297 30.9352 17.8914 30.786 17.6242C30.5338 17.172 30.0874 17.431 29.7276 17.6126C28.4449 18.2592 27.6249 19.314 27.0709 20.6106C26.082 22.9239 25.9397 25.3331 26.37 27.7713C26.8014 30.2129 27.3195 32.6395 27.8366 35.0661C28.2819 37.1527 28.8174 39.2207 29.243 41.3108C29.6502 43.3094 30.0422 45.3173 30.299 47.3402C30.5107 49.015 30.5211 50.7164 30.6055 52.4063C30.6159 52.6237 30.5408 52.8458 30.5153 52.9996C29.7774 52.5566 29.0614 52.1264 28.3096 51.6753C28.6381 50.2804 27.7787 48.9676 26.0982 48.4113C24.9415 48.0273 23.734 47.7219 22.6711 47.154C21.5341 46.5468 20.4793 45.7429 19.495 44.9009C18.0203 43.6402 16.5525 42.354 15.4248 40.7452C14.0299 38.7558 13.0306 36.5859 12.5691 34.1975C12.037 31.4436 11.6808 28.6515 12.0232 25.8559C12.4106 22.6937 13.2665 19.624 14.6915 16.7637C15.5752 14.9894 16.8289 13.4638 18.3314 12.1314C20.5406 10.1709 23.136 8.88011 25.8182 7.78131C27.5416 7.07577 29.3598 6.55529 31.1792 6.14584C33.0391 5.72714 34.9521 5.54671 36.8409 5.26102L44.2375 4.78681C45.5237 4.81109 46.8075 5.03201 48.0914 5.16502C48.1296 5.25177 48.1677 5.33736 48.2059 5.42411C47.8821 5.84627 47.579 6.28579 47.2309 6.68714C46.0118 8.09013 44.6909 9.41562 43.5782 10.8973C42.8264 11.8977 42.3522 13.1087 41.7658 14.2318C41.5461 14.654 41.3101 15.0785 41.1667 15.5296C40.6994 17.0031 40.2842 18.494 39.8261 19.971C39.2178 21.9396 38.8476 23.944 38.6903 26.0016C38.5816 27.4162 38.3225 28.8192 38.1398 30.2291C38.0947 30.5819 38.0958 30.9416 38.06 31.2955C37.8876 33.0039 37.7014 34.7122 37.5407 36.4217C37.4898 36.9642 37.536 37.5159 37.4724 38.056C37.3186 39.3607 37.1185 40.6607 36.9496 41.9643C36.8432 42.7924 36.7738 43.6263 36.6639 44.4545C36.3088 47.1378 35.8994 49.8108 35.158 52.4202C34.7289 53.9446 34.3426 55.4875 33.8626 57.0004ZM54.5303 67.1637C53.4408 66.1956 52.2784 65.2344 52.1408 63.7227C51.9765 61.9184 52.8995 60.5235 54.314 59.4247C53.0209 62.0537 53.2257 64.6041 54.5303 67.1637ZM55.1746 58.5561C54.7975 58.0113 54.8357 57.972 56.0941 57.5914C55.7286 57.9754 55.4568 58.2611 55.1746 58.5561ZM61.7581 54.5634C60.7229 55.203 59.5964 55.6923 58.4409 56.1156C59.8103 54.8155 61.1798 53.5166 62.5677 52.2004C62.8985 53.0621 62.6325 54.0232 61.7581 54.5634Z" fill="#FEFCF9"/>
<path d="M81.9092 34.0819C81.2834 33.8968 80.6588 33.7083 80.0354 33.5174C79.08 33.226 78.2947 33.6192 77.5718 34.164C76.2128 35.1899 74.8757 36.2447 73.5294 37.288C73.4022 37.3863 73.2796 37.4904 73.1523 37.5945C73.4299 38.0433 73.7434 37.8548 74.0545 37.7322C75.6622 37.1007 77.2294 36.3928 78.622 35.3518C79.0257 35.05 79.4155 35.0777 79.8642 35.2674C80.7942 35.6607 81.7287 36.0551 82.6887 36.3616C83.6082 36.6553 84.5602 36.8485 85.5016 37.0683C86.2789 37.251 87.0596 37.4257 87.8461 37.561C88.0023 37.5876 88.2775 37.4685 88.3469 37.3366C88.5285 36.9919 88.628 36.6021 88.7714 36.1996C88.2197 36.003 87.7339 35.8075 87.2331 35.6572C85.4612 35.1228 83.6834 34.6058 81.9092 34.0819Z" fill="#FEFCF9"/>
<path d="M87.4703 41.6854C86.7359 42.5344 85.8487 43.0467 84.7777 43.2665C82.2389 43.787 79.8019 43.5823 77.4967 42.3227C77.0769 42.0937 76.6628 41.8485 76.2221 41.668C75.874 41.5258 75.4495 41.5188 75.3142 41.9503C75.1985 42.3204 75.0643 42.9068 75.2506 43.1057C75.7363 43.6274 76.3667 44.0357 76.9901 44.4046C77.7535 44.8557 78.6002 45.0766 79.5023 45.094C80.925 45.1217 82.3476 45.19 83.7691 45.2351C83.8698 45.2385 83.9727 45.1865 84.0756 45.1611C85.3861 44.8245 86.5092 44.1652 87.5131 43.2572C88.2672 42.5748 88.3019 42.5124 87.4703 41.6854Z" fill="#FEFCF9"/>
<path d="M66.4089 54.9404C66.2343 55.3811 66.3546 55.5673 66.7953 55.6379C67.288 55.7154 67.8108 55.735 68.2607 55.9213C69.0079 56.2312 69.747 56.5944 70.4178 57.042C71.667 57.876 73.0087 58.4705 74.4463 58.8707C74.798 58.969 75.1473 59.0754 75.4989 59.1772C75.6793 59.0291 75.8968 58.9296 75.8945 58.836C75.891 58.6787 75.7846 58.4635 75.6539 58.3814C75.2838 58.1478 74.8731 57.9777 74.4868 57.7649C72.3876 56.6071 70.3056 55.4147 68.1867 54.2927C66.9213 53.623 66.9098 53.6762 66.4089 54.9404Z" fill="#FEFCF9"/>
<path d="M91.6406 57.2328C92.4028 57.1691 93.1558 57.0026 93.9122 56.8754C93.918 56.8916 93.9238 56.9089 93.9296 56.9251C94.2199 56.8094 94.5692 56.7574 94.782 56.5584C94.9382 56.4116 95.0434 55.9235 94.9532 55.8483C94.5553 55.514 94.0267 54.9901 93.6393 55.0583C92.7695 55.2133 91.9367 55.6424 91.134 56.0495C90.9478 56.1444 90.8136 56.644 90.8957 56.8707C90.9651 57.0639 91.3896 57.2536 91.6406 57.2328Z" fill="#FEFCF9"/>
<path d="M90.8272 65.371C91.3396 66.0639 92.1331 66.2582 92.9716 66.2073C93.6575 66.1657 93.403 65.489 93.6494 65.1478C93.6714 65.1177 93.6644 65.068 93.6957 64.8656C92.8617 64.8101 92.0741 64.7245 91.2853 64.7222C90.9325 64.721 90.5508 64.9986 90.8272 65.371Z" fill="#FEFCF9"/>
<path d="M88.6922 64.5747C88.9617 64.3492 89.4058 64.1583 89.4579 63.89C89.5296 63.5245 88.6818 62.9555 88.3799 63.1093C88.1012 63.2516 87.716 63.4991 87.6848 63.7397C87.6316 64.1584 88.2666 64.5851 88.6922 64.5747Z" fill="#FEFCF9"/>
</g>
<defs>
<clipPath id="clip0">
<rect width="101.783" height="96" fill="white" transform="translate(0.109375 0.5)"/>
</clipPath>
</defs>
</svg>
