<svg width="81" height="84" viewBox="0 0 81 84" fill="none" xmlns="http://www.w3.org/2000/svg">
<g clip-path="url(#clip0)">
<path d="M41.4226 17.835C29.415 17.835 19.6504 27.6556 19.6504 39.7323C19.6504 51.8212 29.415 61.6173 41.4226 61.6173C53.4302 61.6173 63.207 51.8212 63.207 39.7323C63.1948 27.6556 53.4302 17.835 41.4226 17.835ZM41.4226 59.533C30.5487 59.533 21.735 50.6687 21.735 39.7323C21.735 28.7959 30.5487 19.9315 41.4226 19.9315C52.2843 19.9315 61.1102 28.8081 61.1102 39.7323C61.098 50.6809 52.2843 59.533 41.4226 59.533Z" fill="#FEFCF9"/>
<path d="M78.6751 17.8718C81.2595 7.05797 71.7875 9.5959 65.0583 11.1039C65.0583 11.1039 59.7677 10.2089 58.2073 11.999C55.3669 15.2848 54.6964 20.4219 56.3299 20.6304C62.9738 21.4764 64.2781 15.9591 66.96 14.5737C72.0435 11.9499 77.3707 12.3668 76.7002 16.4128C75.2496 25.461 66.1189 35.9193 49.8446 45.7032C38.5075 52.5078 14.2728 65.9208 5.9589 59.2633C0.473182 54.8741 2.8869 49.1361 13.968 40.9583C-0.0510096 49.222 -0.782439 57.4365 2.50899 60.8817C10.1646 68.9982 34.6187 58.0741 50.5273 48.376C66.448 38.6779 76.4442 27.2265 78.6751 17.8718ZM60.5113 18.2764L60.56 17.7737C61.2671 16.6457 62.2911 15.2357 63.5345 15.0886C63.2907 16.2656 61.45 17.884 60.5113 18.2764Z" fill="#FEFCF9"/>
<path d="M52.5655 46.5441C52.7727 29.6001 51.6268 6.13342 44.983 2.33265C42.0207 0.640696 36.1327 3.21541 33.4873 15.8192C36.6813 6.10889 40.2409 1.52345 45.0927 4.96866C51.1757 9.28437 50.4199 34.6269 50.3712 46.6545C50.298 63.9418 50.4931 74.9641 44.6904 78.7648C37.7174 83.3748 34.0115 73.6767 32.7072 63.2307C32.6096 65.266 32.7559 74.1304 37.4249 79.5863C39.7654 82.3449 42.8984 83.0805 46.5677 80.1625C52.2729 75.5894 52.3948 63.5005 52.5655 46.5441Z" fill="#FEFCF9"/>
<path d="M30.4786 49.4022C46.3871 59.1248 70.8412 70.0244 78.4969 61.9202C81.7883 58.426 81.0569 50.2114 67.0378 41.9601C78.119 50.1133 80.5327 55.888 75.047 60.2896C66.7331 66.947 42.4984 53.5095 31.1612 46.6926C14.887 36.9333 5.76848 26.475 4.29344 17.4267C3.64734 13.3808 8.9502 12.9639 14.0336 15.5877C16.7277 16.9608 18.0199 22.4903 24.6637 21.6444C26.2972 21.4237 25.639 16.2988 22.7864 13.0129C21.226 11.2352 15.9475 12.1179 15.9475 12.1179C9.2062 10.5854 -0.265801 8.07195 2.31858 18.8857C4.53725 28.2528 14.57 39.6919 30.4786 49.4022ZM17.4591 16.1026C18.7026 16.2497 19.7144 17.6597 20.4336 18.7999L20.4946 19.3026C19.5437 18.8857 17.703 17.2919 17.4591 16.1026Z" fill="#FEFCF9"/>
</g>
<defs>
<clipPath id="clip0">
<rect width="80" height="83.3333" fill="white" transform="translate(0.5 0.5)"/>
</clipPath>
</defs>
</svg>
