<svg xmlns="http://www.w3.org/2000/svg" viewBox="0 0 1041.75 236.54"><defs><style>.cls-1{fill:#1e1e1e;}</style></defs><g id="Layer_2" data-name="Layer 2"><g id="Layer_1-2" data-name="Layer 1"><path class="cls-1" d="M23.69,222.86a79.43,79.43,0,0,1-8.51,9.2q-4.83,4.49-6.76,4.48a10.27,10.27,0,0,1-6.14-1.65A5,5,0,0,1,0,230.65a18.17,18.17,0,0,1,2.54-9.91,8,8,0,0,1,7.11-4q1.23,0,4.56.24c2.23.16,3.93.24,5.09.24a13.37,13.37,0,0,0,5.44-.95,8.71,8.71,0,0,0,3.51-2.83q6.15-9,8.16-27.48t2-60.52V67.14q0-5.19-.09-9.32t-.09-7.2q-.16-5.9-.35-9.9c-.11-2.68-.29-4.88-.52-6.61q-.71-5.19-2-7.08c-.88-1.26-3-1.89-6.41-1.89H24.39a.93.93,0,0,1-1.05-1.06A.93.93,0,0,1,24.39,23c1.05,0,2.52,0,4.39.12s5,.2,9.3.35c2.69.16,4.5.24,5.44.24h3.86c.93,0,2.75-.08,5.44-.24l8.51-.35c1.81-.08,3.18-.12,4.12-.12a.94.94,0,0,1,1.06,1.06.94.94,0,0,1-1.06,1.06H61.94c-3.86,0-6.29,1-7.28,2.95s-1.67,5.63-2,11q-.16,3.78-.26,9.09t-.26,13.56v61.58q.16,5.91.17,8.5v4.48A255.77,255.77,0,0,1,51,164.35a101.51,101.51,0,0,1-4.3,20.52,85.1,85.1,0,0,1-7,15.34Q35.27,207.76,23.69,222.86Z"/><path class="cls-1" d="M133.13,131.74A46.37,46.37,0,0,1,121,137.62a43.6,43.6,0,0,1-12.85,1.91q-18.55,0-30.08-11.1T66.51,99.75a42.16,42.16,0,0,1,3.64-17A49,49,0,0,1,80.59,67.6,47.92,47.92,0,0,1,95.67,57.08a41.54,41.54,0,0,1,16.91-3.73,45.7,45.7,0,0,1,11.1,1.24,26.54,26.54,0,0,1,8.62,3.73,20.87,20.87,0,0,1,7.29,8,15.46,15.46,0,0,1,1.83,9.44,5.51,5.51,0,0,1-2,3.9,8.26,8.26,0,0,1-5,1.24H77.94a61.41,61.41,0,0,0-1.08,6,53.86,53.86,0,0,0-.41,6.71q0,15.25,11.6,25.77t28.51,10.53a38,38,0,0,0,23.86-7.79q10.11-7.78,17.74-24.36c.44-1,.85-1.41,1.24-1.25s.36.69-.08,1.58a87.07,87.07,0,0,1-11.44,19.64A63.66,63.66,0,0,1,133.13,131.74ZM127,72.08q0-6-5.39-10.53T107.94,57q-11.28,0-19,5.88T78.27,79.53c3.76,0,7.49,0,11.19-.08s8.59-.14,14.67-.25l9.36-.24c1.93-.06,3.73-.09,5.39-.09a16.57,16.57,0,0,0,4-.58,8.47,8.47,0,0,0,2.66-.91,6.41,6.41,0,0,0,1.07-2.24A10.63,10.63,0,0,0,127,72.08Z"/><path class="cls-1" d="M218.31,114a23.07,23.07,0,0,1-8.45,18.23q-8.45,7.29-21.21,7.29-4.47,0-8.54-.41T172.24,138a75.34,75.34,0,0,1-9.53-2.57c-3.48-1.16-5.5-1.79-6.05-1.91a1.28,1.28,0,0,1-.91-.66,3.9,3.9,0,0,1-.25-1.66v-.74a12.06,12.06,0,0,1,.17-1.58q.5-5.29.66-11.85t.17-15.33c0-.77.22-1.16.66-1.16s.66.39.66,1.16a65.56,65.56,0,0,0,1.91,17.07,26.31,26.31,0,0,0,5.72,11.11,21.67,21.67,0,0,0,9.36,6.13,42.22,42.22,0,0,0,13.84,2q10.6,0,16.07-4.23t5.47-12.34a13.34,13.34,0,0,0-5-10.45q-5-4.3-21.38-9.77T161.63,90.56A16.26,16.26,0,0,1,155.83,78a21.44,21.44,0,0,1,8.95-17.9q9-6.78,21.71-6.79,4.14,0,7.46.17c2.21.11,4.37.27,6.46.49s4.51.58,7.54,1.08,5.11.86,6.22,1.08a2,2,0,0,1,.91.41,1.27,1.27,0,0,1,.25.91c0,.89,0,2.27-.08,4.15s-.14,5.13-.25,9.77c-.22,5-.36,8.48-.42,10.53s-.08,3.56-.08,4.56q0,1-.66,1t-.66-1a58.07,58.07,0,0,0-1.25-12.77,30.39,30.39,0,0,0-3.73-9.44,19.38,19.38,0,0,0-8.53-7.21,31.84,31.84,0,0,0-13-2.41q-10.28,0-16.57,4t-6.3,10.44a13.19,13.19,0,0,0,4.8,10.11q4.82,4.32,21.38,10.11,17.24,6,22.79,11.44A17.92,17.92,0,0,1,218.31,114Z"/><path class="cls-1" d="M291.9,114a23.08,23.08,0,0,1-8.46,18.23q-8.44,7.29-21.21,7.29-4.47,0-8.54-.41c-2.7-.28-5.33-.64-7.87-1.08a75.34,75.34,0,0,1-9.53-2.57c-3.48-1.16-5.49-1.79-6-1.91a1.28,1.28,0,0,1-.91-.66,4.07,4.07,0,0,1-.25-1.66v-.74a14.21,14.21,0,0,1,.17-1.58q.5-5.29.66-11.85t.17-15.33c0-.77.22-1.16.66-1.16s.66.39.66,1.16a65.56,65.56,0,0,0,1.91,17.07A26.42,26.42,0,0,0,239,129.92a21.73,21.73,0,0,0,9.36,6.13,42.26,42.26,0,0,0,13.84,2q10.61,0,16.08-4.23t5.47-12.34a13.35,13.35,0,0,0-5-10.45q-5-4.3-21.38-9.77t-22.2-10.69A16.26,16.26,0,0,1,229.42,78a21.43,21.43,0,0,1,8.94-17.9q9-6.78,21.72-6.79,4.14,0,7.45.17T274,54q3,.33,7.54,1.08t6.21,1.08a2.14,2.14,0,0,1,.92.41,1.32,1.32,0,0,1,.24.91c0,.89,0,2.27-.08,4.15s-.14,5.13-.25,9.77c-.22,5-.36,8.48-.41,10.53s-.09,3.56-.09,4.56q0,1-.66,1t-.66-1a58.73,58.73,0,0,0-1.24-12.77,30.64,30.64,0,0,0-3.73-9.44,19.41,19.41,0,0,0-8.54-7.21,31.84,31.84,0,0,0-13-2.41q-10.28,0-16.57,4t-6.3,10.44a13.17,13.17,0,0,0,4.81,10.11q4.8,4.32,21.38,10.11,17.24,6,22.78,11.44A17.93,17.93,0,0,1,291.9,114Z"/><path class="cls-1" d="M322.47,134.54l-8,.25c-1.66.06-2.93.08-3.81.08-.67,0-1-.25-1-.74s.33-.75,1-.75h3q5,0,6.3-2.15t2-8.12c.1-1.77.22-3.9.33-6.39s.22-5.55.33-9.19V47.37q-.17-5.48-.33-9.2c-.11-2.49-.23-4.61-.33-6.38q-.68-6-2-8.12t-6.3-2.16h-3c-.67,0-1-.25-1-.74s.33-.75,1-.75c.88,0,2.15,0,3.81.08l8,.25c2.32.11,3.92.17,4.81.17h1.82c.33,0,1.3,0,2.9-.09s4.73-.08,9.37-.08q8.44-.17,11.43-.25c2-.05,3.26-.08,3.81-.08q23,0,33.32,6.46T400.2,47a22.61,22.61,0,0,1-8.7,18.48q-8.7,7-25.11,9,17.57,1.32,27.6,9a24,24,0,0,1,10,20q0,15.75-10.77,23.53t-32.32,7.79c-.55,0-2,0-4.31-.08s-6.74-.14-13.25-.25c-5.42,0-9.07,0-10.94-.08s-3-.08-3.32-.08h-1.82C326.39,134.38,324.79,134.43,322.47,134.54ZM354.13,22H342.2q-4.65,0-5.56,2c-.61,1.32-1,4.2-1.07,8.62v3.89c0,1.49.05,5.28.16,11.35V74.05h18.9q16.39,0,23.94-6.55t7.55-20.63q0-13.42-7.05-19.14T354.13,22ZM336.4,122.94c.33,4.09.93,6.85,1.82,8.29s2.92,2.15,6.13,2.15h14.09q16.23,0,23.86-7.21t7.63-22.62q0-14.42-8-21t-25.19-6.63h-21v31.66q.16,5.46.25,9.11A59.15,59.15,0,0,0,336.4,122.94Z"/><path class="cls-1" d="M422.24,134.71q-5,.16-7.21.16H411.3c-.66,0-1-.25-1-.74s.33-.75,1-.75q5,0,6.55-1.24c1-.83,1.8-2.4,2.24-4.73.11-1.21.22-2.76.33-4.64s.17-4.41.17-7.62V72.39a11.48,11.48,0,0,0-1.83-5.88A31.29,31.29,0,0,0,413,59.8a.92.92,0,0,1-.33-.58q0-.26.33-.42a50,50,0,0,0,6.22-3.15,26,26,0,0,0,5.22-3.81c.22-.22.38-.3.49-.25a2.63,2.63,0,0,1,.5.42A24.46,24.46,0,0,1,430,58.8a27,27,0,0,1,2.57,8.45,22.23,22.23,0,0,1,3.64-7.62,28.56,28.56,0,0,1,7.3-6.46A19.25,19.25,0,0,1,448,51.1a16.4,16.4,0,0,1,4.89-.75,16,16,0,0,1,5.47.75c1.33.49,2,1.24,2,2.23a8.87,8.87,0,0,1-2.4,5.8A7.45,7.45,0,0,1,452.08,62h-6.14a38.17,38.17,0,0,0-7.37.5,6.14,6.14,0,0,0-3.4,1.82,7.6,7.6,0,0,0-1.82,4.14,61.9,61.9,0,0,0-.5,9.45v55.52H443q1,0,1,.75c0,.49-.33.74-1,.74h-1.33c-.66,0-2-.05-4-.16q-4.65,0-6.63-.09c-1.33-.05-2.27-.08-2.82-.08h-1.66C425.78,134.54,424.34,134.6,422.24,134.71Z"/><path class="cls-1" d="M544.22,92.28q0,17.23-12.84,30.74T500.8,136.53q-18.06,0-29.58-11.6T459.7,95.1a44,44,0,0,1,12.6-31.66q12.58-13.09,31.15-13.09,18.07,0,29.42,11.6T544.22,92.28Zm-70.76,0q0,17.4,8.53,29.91t21.63,12.52q12.93,0,20-10.53t7.13-29.25q0-17.4-8.45-30.16T501.47,52q-13.61,0-20.8,10.35T473.46,92.28Z"/><path class="cls-1" d="M586,135.54h-1.83a.61.61,0,0,1-.41-.09l-.25-.25L561.29,74.71q-4.8-13.26-8-17.23t-10-4q-.66,0-.66-.75c0-.5.22-.74.66-.74h1.08c.6,0,1.85.05,3.73.16q5.3,0,7.37.08c1.38.06,2.29.09,2.74.09h1.9c.94,0,2.74-.06,5.39-.17,4-.11,6.79-.16,8.45-.16h3.65c.55,0,.82.24.82.74s-.27.75-.82.75c-3.87,0-6.28.36-7.21,1.07s-1.3,2-1.08,3.9a26,26,0,0,0,.91,4.31c.5,1.77,1.24,4.09,2.24,7L591,119.63l20.39-47.9a8.81,8.81,0,0,0,.41-2,28.94,28.94,0,0,0-.08-3.65A22.16,22.16,0,0,0,611.1,63a15.28,15.28,0,0,0-1.08-2.9,12,12,0,0,0-4.31-5,11.61,11.61,0,0,0-6.3-1.66.79.79,0,0,1-.91-.75c-.06-.5.19-.74.75-.74.77,0,1.87,0,3.31.08s3.7.08,6.8.08c2,.11,3.31.17,4,.17h3.15c.77,0,2.16-.06,4.15-.17q4.3-.16,6.3-.16h3c.66,0,1,.24,1.07.74s-.24.75-.91.75q-5.79,0-7,1.07c-.83.73-1.08,2.08-.75,4.07a19.94,19.94,0,0,0,1.08,4.3c.61,1.77,1.46,4,2.57,6.8L646,120.79,663.72,76.7q4.47-11.1,1.82-17.15t-11.44-6a.79.79,0,0,1-.91-.75c-.05-.5.19-.74.75-.74.77,0,1.93,0,3.48.08s4.09.08,7.62.08c2.21.11,3.67.17,4.39.17h4.07q1.82,0,6.62-.17c2.33-.11,3.84-.16,4.56-.16h1.41a.8.8,0,0,1,.83.74q.17.75-.66.75a13.89,13.89,0,0,0-10.78,4.56q-4.14,4.56-10.27,19.8l-23,57.34a1.2,1.2,0,0,1-.33.25,1.58,1.58,0,0,1-.66.09h-1.66c-.22,0-.36,0-.41-.09s-.14-.14-.25-.25L613.5,70.9l-27,64.3a.26.26,0,0,0-.25.17A.28.28,0,0,1,586,135.54Z"/><path class="cls-1" d="M696.53,134.71q-4.47.16-6.63.16h-3.64c-.66,0-1-.25-1-.74s.34-.75,1-.75q5,0,6.21-2.65t1.25-15.58V72.39a11.48,11.48,0,0,0-1.83-5.88,31,31,0,0,0-5.8-6.71.92.92,0,0,1-.33-.58q0-.26.33-.42a49.89,49.89,0,0,0,7-3.31,24.79,24.79,0,0,0,5.14-3.65c.22-.22.39-.3.5-.25a2.66,2.66,0,0,1,.49.42A21.23,21.23,0,0,1,704,59.38a23.2,23.2,0,0,1,2,9q7-9.27,14.42-13.67a31.39,31.39,0,0,1,16.24-4.39q13.59,0,20.3,8.45T763.65,84v34.64q0,3.48.17,6a32.82,32.82,0,0,0,.5,4.14,6.75,6.75,0,0,0,2,3.73q1.32,1.08,5.3.91c.66,0,1,.25,1,.75s-.34.74-1,.74h-1.33c-.66,0-2-.05-4-.16q-4.65,0-6.63-.09c-1.33-.05-2.27-.08-2.82-.08h-1.49c-.67,0-1.82.06-3.48.17-2.55.11-4.45.16-5.72.16h-3.4c-.66,0-1-.25-1-.74s.33-.75,1-.75q5.64,0,7.05-3t1.4-12.76V82.34q-.16-13.09-5.38-20.06t-14.67-7a25.25,25.25,0,0,0-13.26,3.4q-5.62,3.39-11.76,11.68v63h8.61c.67,0,1,.25,1,.75s-.33.74-1,.74H713.6c-.55,0-1.65-.05-3.31-.16q-4,0-5.64-.09c-1.1-.05-1.93-.08-2.48-.08h-1.58C699.87,134.54,698.52,134.6,696.53,134.71Z"/><path class="cls-1" d="M789.18,134.71c-3,.11-5.2.16-6.63.16H778.9c-.66,0-1-.25-1-.74s.33-.75,1-.75q5,0,6.22-2.65t1.24-15.58V22q0-4.14-.25-6.71a13.3,13.3,0,0,0-.91-4.06,4,4,0,0,0-2.65-2.49c-1.22-.33-3.48-.22-6.8.33-.66.11-1-.08-1-.58s.33-.8,1-.91a62.49,62.49,0,0,0,9.86-2.73A77.53,77.53,0,0,0,795.81.13c.33-.22.91-.16,1.74.17s1.24.66,1.24,1V115.15q0,12.76,1.41,15.5t8.37,2.73q1,0,1,.75c0,.49-.33.74-1,.74h-3.4c-1.27,0-3.12-.05-5.55-.16-1.55-.11-2.65-.17-3.32-.17h-3.06C792.52,134.54,791.17,134.6,789.18,134.71Z"/><path class="cls-1" d="M883,128.74a46.37,46.37,0,0,1-12.18,5.88A43.59,43.59,0,0,1,858,136.53q-18.57,0-30.09-11.1T816.36,96.75a42.16,42.16,0,0,1,3.64-17A48.91,48.91,0,0,1,830.45,64.6a47.69,47.69,0,0,1,15.08-10.52,41.5,41.5,0,0,1,16.9-3.73,45.84,45.84,0,0,1,11.11,1.24,26.58,26.58,0,0,1,8.61,3.73,20.9,20.9,0,0,1,7.3,8,15.52,15.52,0,0,1,1.82,9.44,5.48,5.48,0,0,1-2,3.9,8.24,8.24,0,0,1-5,1.24H827.79a58.67,58.67,0,0,0-1.07,6,52,52,0,0,0-.42,6.71q0,15.25,11.6,25.77t28.51,10.53a38,38,0,0,0,23.86-7.79q10.11-7.78,17.74-24.36c.44-1,.85-1.41,1.24-1.25s.36.69-.08,1.58a87.07,87.07,0,0,1-11.44,19.64A63.66,63.66,0,0,1,883,128.74Zm-6.13-59.66q0-6-5.39-10.53T857.79,54q-11.28,0-19,5.88T828.12,76.53c3.76,0,7.49,0,11.19-.08s8.59-.14,14.67-.25l9.36-.24c1.93-.06,3.73-.09,5.39-.09a16.71,16.71,0,0,0,4-.58,8.47,8.47,0,0,0,2.65-.91,6.59,6.59,0,0,0,1.08-2.24A11,11,0,0,0,876.85,69.08Z"/><path class="cls-1" d="M968.17,111a23.08,23.08,0,0,1-8.46,18.23q-8.44,7.29-21.21,7.29-4.47,0-8.54-.41c-2.7-.28-5.33-.64-7.87-1.08a75.34,75.34,0,0,1-9.53-2.57c-3.48-1.16-5.5-1.79-6-1.91a1.28,1.28,0,0,1-.91-.66,4.07,4.07,0,0,1-.25-1.66v-.74a14.21,14.21,0,0,1,.17-1.58q.5-5.3.66-11.85t.17-15.33c0-.77.22-1.16.66-1.16s.66.39.66,1.16a65.56,65.56,0,0,0,1.91,17.07,26.31,26.31,0,0,0,5.72,11.11,21.73,21.73,0,0,0,9.36,6.13,42.22,42.22,0,0,0,13.84,2q10.61,0,16.08-4.23t5.47-12.34a13.35,13.35,0,0,0-5-10.45q-5-4.3-21.38-9.77t-22.2-10.69A16.26,16.26,0,0,1,905.69,75a21.43,21.43,0,0,1,8.94-17.9q9-6.8,21.72-6.79c2.76,0,5.24.06,7.45.16s4.37.28,6.47.5,4.5.58,7.54,1.08,5.11.86,6.21,1.08a2,2,0,0,1,.91.41,1.27,1.27,0,0,1,.25.91c0,.89,0,2.27-.08,4.15s-.14,5.13-.25,9.77c-.22,5-.36,8.48-.41,10.53s-.09,3.56-.09,4.56q0,1-.66,1t-.66-1a58.73,58.73,0,0,0-1.24-12.77,30.64,30.64,0,0,0-3.73-9.44,19.41,19.41,0,0,0-8.54-7.21,31.84,31.84,0,0,0-13-2.41q-10.28,0-16.57,4t-6.3,10.44a13.17,13.17,0,0,0,4.81,10.11q4.8,4.32,21.38,10.11,17.24,6,22.78,11.44A17.93,17.93,0,0,1,968.17,111Z"/><path class="cls-1" d="M1041.75,111a23.1,23.1,0,0,1-8.45,18.23q-8.46,7.29-21.22,7.29c-3,0-5.83-.14-8.53-.41s-5.33-.64-7.88-1.08a75.22,75.22,0,0,1-9.52-2.57c-3.48-1.16-5.5-1.79-6-1.91a1.28,1.28,0,0,1-.92-.66,4.1,4.1,0,0,1-.24-1.66v-.74a13.42,13.42,0,0,1,.16-1.58q.49-5.3.66-11.85t.17-15.33c0-.77.22-1.16.66-1.16s.67.39.67,1.16a65.6,65.6,0,0,0,1.9,17.07,26.42,26.42,0,0,0,5.72,11.11,21.73,21.73,0,0,0,9.36,6.13,42.3,42.3,0,0,0,13.84,2q10.6,0,16.08-4.23t5.47-12.34a13.37,13.37,0,0,0-5-10.45q-5-4.3-21.38-9.77T985.07,87.56A16.26,16.26,0,0,1,979.27,75a21.41,21.41,0,0,1,9-17.9q8.94-6.8,21.71-6.79c2.76,0,5.24.06,7.46.16s4.36.28,6.46.5,4.5.58,7.54,1.08,5.11.86,6.21,1.08a2.08,2.08,0,0,1,.92.41,1.32,1.32,0,0,1,.25.91c0,.89,0,2.27-.09,4.15s-.14,5.13-.25,9.77c-.22,5-.36,8.48-.41,10.53s-.08,3.56-.08,4.56c0,.66-.23,1-.67,1s-.66-.33-.66-1a58.11,58.11,0,0,0-1.24-12.77,30.39,30.39,0,0,0-3.73-9.44,19.41,19.41,0,0,0-8.54-7.21,31.84,31.84,0,0,0-13-2.41q-10.27,0-16.57,4t-6.3,10.44A13.17,13.17,0,0,0,992,76.2q4.8,4.32,21.38,10.11,17.24,6,22.79,11.44A17.92,17.92,0,0,1,1041.75,111Z"/><path class="cls-1" d="M102,198.84H94v-23.2H102c7.29,0,12.33,5,12.33,11.56S109.3,198.84,102,198.84Zm0-20.78H96.58v18.36H102c5.87,0,9.62-4,9.62-9.15S107.88,178.06,102,178.06Z"/><path class="cls-1" d="M140,178H125.81V186h12.66v2.38H125.81v8.12h14.32v2.39H123.19v-23.2H140Z"/><path class="cls-1" d="M157,186c5.17,1.13,7.55,3,7.55,6.59,0,4-3.31,6.6-7.92,6.6a13.61,13.61,0,0,1-9.48-3.71l1.63-1.93a11,11,0,0,0,8,3.29c3.12,0,5.17-1.63,5.17-4,0-2.19-1.16-3.42-6-4.44-5.34-1.16-7.79-2.89-7.79-6.73s3.22-6.36,7.62-6.36a12.13,12.13,0,0,1,8.16,2.85l-1.53,2a10.17,10.17,0,0,0-6.69-2.52c-3,0-4.94,1.66-4.94,3.78S151.93,184.88,157,186Z"/><path class="cls-1" d="M176.1,175.64v23.2h-2.62v-23.2Z"/><path class="cls-1" d="M197,199.23c-7.29,0-11.8-5.3-11.8-12,0-6.4,4.67-12,11.63-12a12.25,12.25,0,0,1,8.65,3.08l-1.69,2a9.86,9.86,0,0,0-7.06-2.65c-5.14,0-8.81,4.34-8.81,9.54,0,5.57,3.54,9.68,9.18,9.68a10.93,10.93,0,0,0,6.69-2.32V188.8h-7.06v-2.36h9.58v9.25A14.05,14.05,0,0,1,197,199.23Z"/><path class="cls-1" d="M232.58,175.64h2.55v23.2H233l-15-19v19h-2.55v-23.2H218l14.62,18.59Z"/></g></g></svg>