<svg width="99" height="33" viewBox="0 0 99 33" fill="none" xmlns="http://www.w3.org/2000/svg">
<g clip-path="url(#clip0_2461_20265)">
<path d="M5.34118 7.5782V9.22264H5.39028C5.48849 9.07449 5.6358 8.8819 5.79948 8.6745C5.96316 8.46709 6.19231 8.25968 6.48693 8.06709C6.76518 7.87449 7.1089 7.71153 7.5181 7.56338C7.91092 7.43005 8.40196 7.35598 8.95846 7.35598C9.56407 7.35598 10.0551 7.41523 10.4643 7.53375C10.8735 7.65227 11.2008 7.80042 11.4627 7.9782C11.7246 8.15597 11.9374 8.34857 12.1011 8.57079C12.2648 8.79301 12.4121 9.00042 12.543 9.22264C12.8049 8.80783 13.0831 8.4819 13.3941 8.23005C13.7051 7.99301 14.0325 7.80042 14.3598 7.66709C14.6872 7.53375 14.9982 7.44487 15.2764 7.41524C15.571 7.37079 15.8002 7.35598 15.9966 7.35598C16.9787 7.35598 17.7152 7.48931 18.2554 7.75597C18.7791 8.02264 19.172 8.33375 19.4011 8.68931C19.6466 9.05968 19.7776 9.43005 19.8267 9.84486C19.8758 10.2449 19.8921 10.5856 19.8921 10.8671V17.2078H21.578V17.5338H15.2437V17.2078H16.7495V10.0226C16.7495 9.37079 16.6186 8.86709 16.3567 8.52635C16.0948 8.18561 15.6529 8.00783 15.0309 8.00783C14.8345 8.00783 14.6053 8.05227 14.3435 8.14116C14.0652 8.23005 13.8033 8.3782 13.5414 8.55598C13.2796 8.74857 13.0668 8.9856 12.8867 9.2819C12.7067 9.5782 12.6248 9.94857 12.6248 10.3634V17.2078H14.1307V17.5338H7.96003V17.2078H9.4986V9.83005C9.4986 9.14857 9.33492 8.67449 9.00756 8.40783C8.68021 8.14116 8.32012 8.00783 7.92729 8.00783C7.23984 8.00783 6.6506 8.2745 6.12683 8.82264C5.99589 8.97079 5.86495 9.13375 5.76674 9.29672C5.66854 9.45968 5.5867 9.63746 5.52123 9.85968C5.45575 10.0671 5.42302 10.3041 5.39028 10.5856C5.35755 10.8523 5.35755 11.1782 5.35755 11.5782V17.2375H6.86338V17.5634H0.529053V17.2375H2.21493V7.93375H0.529053V7.60783L5.34118 7.5782ZM32.7081 17.7412C33.1664 17.6819 33.5101 17.4893 33.7393 17.1634L33.5101 16.956C33.3792 17.0893 33.2319 17.2078 33.0846 17.2819C32.9373 17.356 32.7572 17.4004 32.5281 17.4004C32.1516 17.4004 31.9225 17.2819 31.8243 17.0597C31.726 16.8375 31.6769 16.5708 31.6769 16.2893V10.5412C31.6769 9.88931 31.546 9.35598 31.3005 8.92635C31.055 8.49672 30.7276 8.17079 30.3021 7.91894C29.8765 7.66709 29.3855 7.50412 28.8126 7.41524C28.2397 7.32635 27.6341 7.2819 26.9794 7.2819C26.4229 7.2819 25.8664 7.34116 25.3426 7.44486C24.8188 7.54857 24.3605 7.71153 23.9514 7.91894C23.5422 8.12635 23.2148 8.39301 22.9693 8.70412C22.7238 9.01524 22.5928 9.38561 22.5928 9.78561C22.5928 10.0523 22.6419 10.2597 22.7401 10.4078C22.8383 10.5708 22.9529 10.6893 23.0839 10.7634C23.2148 10.8375 23.3785 10.8967 23.5585 10.9263C23.7386 10.956 23.9186 10.956 24.0823 10.956C24.1969 10.956 24.3605 10.956 24.5242 10.9412C24.7043 10.9263 24.8679 10.8967 25.0316 10.8375C25.1953 10.7782 25.3262 10.6745 25.4572 10.5412C25.5718 10.4078 25.6372 10.23 25.6372 9.99301C25.6372 9.94857 25.6209 9.85968 25.6045 9.74116C25.5881 9.62264 25.5718 9.48931 25.5554 9.34116C25.539 9.20783 25.5227 9.07449 25.5063 8.95598C25.4899 8.83746 25.4736 8.76338 25.4736 8.71894C25.4736 8.28931 25.6209 7.99301 25.9155 7.83005C26.2101 7.66709 26.5538 7.59301 26.9467 7.59301C27.5686 7.59301 27.9778 7.77079 28.207 8.09672C28.4361 8.43746 28.5343 8.82264 28.5343 9.23746V10.6597C28.5343 10.956 28.4852 11.193 28.387 11.3856C28.2888 11.5782 28.1251 11.7412 27.8796 11.8893C27.6341 12.0375 27.3067 12.1708 26.8648 12.3041C26.4229 12.4375 25.8664 12.6004 25.1626 12.7782C24.737 12.8967 24.3278 13.03 23.9186 13.1634C23.5094 13.2967 23.1657 13.4597 22.8383 13.6671C22.5274 13.8745 22.2655 14.1263 22.0691 14.4375C21.8726 14.7338 21.7744 15.1189 21.7744 15.5634C21.7744 15.993 21.889 16.3634 22.1018 16.6597C22.3309 16.956 22.6092 17.193 22.9693 17.3708C23.3294 17.5338 23.7222 17.6671 24.1478 17.7412C24.5733 17.8152 24.9989 17.8597 25.4081 17.8597C26.3083 17.8597 27.0121 17.756 27.4868 17.5338C27.9615 17.3115 28.3379 16.8967 28.6162 16.2745H28.6653C28.7635 16.7634 29.0254 17.1634 29.4509 17.4301C29.8765 17.7115 30.5148 17.8449 31.3823 17.8449C31.8406 17.83 32.2498 17.8004 32.7081 17.7412ZM28.5671 11.7708V14.8375C28.5671 15.2819 28.518 15.6671 28.4198 15.993C28.3215 16.3041 28.1742 16.5708 28.0106 16.7634C27.8469 16.956 27.6505 17.1041 27.4377 17.193C27.2249 17.2819 27.0121 17.3263 26.783 17.3263C26.3902 17.3263 26.0792 17.2523 25.8664 17.0893C25.6372 16.9263 25.4736 16.7338 25.359 16.4967C25.2444 16.2597 25.1789 16.0226 25.1462 15.7708C25.1135 15.5189 25.1135 15.3115 25.1135 15.1189C25.1135 14.6597 25.1953 14.2745 25.359 13.9782C25.5227 13.6819 25.7354 13.43 25.981 13.2375C26.2428 13.03 26.5211 12.8671 26.8484 12.7338C27.1758 12.6004 27.5032 12.4671 27.8305 12.3338C28.076 12.2301 28.2397 12.1263 28.3379 12.0375C28.4361 11.9486 28.5016 11.8597 28.5343 11.7708H28.5671V11.7708ZM39.0588 14.6004L35.9326 7.88931H37.733V7.56338H31.2023V7.88931H32.5608L37.3729 18.3338L36.2763 20.8226C36.1617 21.1041 36.0144 21.4152 35.8507 21.756C35.6871 22.0967 35.507 22.4226 35.2942 22.7189C35.0814 23.0152 34.8359 23.2671 34.574 23.4745C34.3122 23.6819 34.0175 23.7708 33.7229 23.7708C33.592 23.7708 33.461 23.7263 33.3628 23.6375C33.2646 23.5486 33.2155 23.43 33.2155 23.2523C33.2155 23.0152 33.2646 22.8226 33.3792 22.6449C33.4938 22.4671 33.5429 22.2449 33.5429 21.9782C33.5429 21.6523 33.3956 21.4152 33.1009 21.2523C32.8063 21.0893 32.4953 21.0152 32.1843 21.0152C31.7424 21.0152 31.366 21.1189 31.0386 21.3115C30.7276 21.5041 30.5639 21.83 30.5639 22.2893C30.5639 22.8819 30.8095 23.3412 31.3005 23.6671C31.7915 23.993 32.4135 24.1708 33.1828 24.1708C33.903 24.1708 34.4758 24.0078 34.9014 23.6819C35.327 23.356 35.7198 22.8523 36.0471 22.156C36.3909 21.4893 36.751 20.7189 37.1438 19.8449C37.5202 18.9708 37.9785 17.9634 38.4696 16.8226C38.977 15.6819 39.5662 14.3634 40.2537 12.8967C40.9411 11.4301 41.7595 9.77079 42.7088 7.90412H43.8873V7.5782H40.1718V7.90412H42.2996L39.0588 14.6004ZM42.7907 7.5782V7.90412H44.4766V17.2078H42.7907V17.5338H49.5833V17.2078H47.6028V7.90412H49.7306V7.5782H47.6028V3.9782C47.6028 3.5782 47.6028 3.19301 47.6355 2.82264C47.6519 2.46709 47.701 2.14116 47.7828 1.85968C47.8647 1.5782 48.012 1.35598 48.2248 1.19301C48.4376 1.03005 48.7158 0.94116 49.0759 0.94116C49.3705 0.94116 49.616 1.00042 49.8452 1.13375C50.0743 1.26709 50.1725 1.47449 50.1725 1.75597C50.1725 1.80042 50.1562 1.87449 50.1398 1.99301C50.1234 2.09672 50.1071 2.21523 50.0743 2.34857C50.0416 2.4819 50.0252 2.60042 49.9925 2.71894C49.9598 2.83746 49.9598 2.91153 49.9598 2.97079C49.9598 3.75598 50.4181 4.15598 51.3183 4.15598C51.7111 4.15598 52.0548 4.03746 52.3495 3.78561C52.6441 3.53375 52.7914 3.23746 52.7914 2.8819C52.7914 2.4819 52.6932 2.14116 52.5131 1.84486C52.3167 1.56338 52.0712 1.32635 51.7766 1.14857C51.4656 0.970791 51.1219 0.837458 50.7454 0.748569C50.369 0.65968 49.9761 0.615234 49.5997 0.615234C48.7485 0.615234 48.0284 0.718938 47.4391 0.911531C46.8662 1.11894 46.3752 1.38561 45.9988 1.74116C45.6223 2.0819 45.3277 2.49672 45.1313 2.94116C44.9185 3.40042 44.7712 3.87449 44.6893 4.39301C44.5911 4.89672 44.542 5.43005 44.5257 5.9782C44.5093 6.52635 44.4929 7.04486 44.4929 7.54857L42.7907 7.5782ZM60.9098 17.7412C61.3681 17.6819 61.7118 17.4893 61.941 17.1634L61.7118 16.956C61.5809 17.0893 61.4336 17.2078 61.2863 17.2819C61.139 17.356 60.9589 17.4004 60.7298 17.4004C60.3533 17.4004 60.1242 17.2819 60.0259 17.0597C59.9277 16.8375 59.8786 16.5708 59.8786 16.2893V10.5412C59.8786 9.88931 59.7477 9.35598 59.5022 8.92635C59.2567 8.49672 58.9293 8.17079 58.5037 7.91894C58.0782 7.66709 57.5871 7.50412 57.0143 7.41524C56.4414 7.32635 55.8358 7.2819 55.1811 7.2819C54.6246 7.2819 54.0681 7.34116 53.5443 7.44486C53.0205 7.54857 52.5622 7.71153 52.153 7.91894C51.7438 8.12635 51.4165 8.39301 51.171 8.70412C50.9255 9.01524 50.7945 9.38561 50.7945 9.78561C50.7945 10.0523 50.8436 10.2597 50.9418 10.4078C51.04 10.5708 51.1546 10.6893 51.2855 10.7634C51.4165 10.8523 51.5802 10.8967 51.7602 10.9263C51.9403 10.956 52.1203 10.956 52.284 10.956C52.3986 10.956 52.5622 10.956 52.7259 10.9412C52.906 10.9263 53.0696 10.8967 53.2333 10.8375C53.397 10.7782 53.5279 10.6745 53.6589 10.5412C53.7735 10.4078 53.8389 10.23 53.8389 9.99301C53.8389 9.94857 53.8226 9.85968 53.8062 9.74116C53.7898 9.62264 53.7735 9.48931 53.7571 9.34116C53.7407 9.20783 53.7244 9.07449 53.708 8.95598C53.6916 8.83746 53.6752 8.76338 53.6752 8.71894C53.6752 8.28931 53.8226 7.99301 54.1172 7.83005C54.4118 7.66709 54.7555 7.59301 55.1484 7.59301C55.7703 7.59301 56.1795 7.77079 56.4087 8.09672C56.6378 8.43746 56.736 8.82264 56.736 9.23746V10.6597C56.736 10.956 56.6869 11.193 56.5887 11.3856C56.4905 11.5782 56.3268 11.7412 56.0813 11.8893C55.8358 12.0375 55.5084 12.1708 55.0665 12.3041C54.6246 12.4375 54.0681 12.6004 53.3643 12.7782C52.9387 12.8967 52.5295 13.03 52.1203 13.1634C51.7111 13.2967 51.3674 13.4597 51.04 13.6671C50.729 13.8745 50.4672 14.1263 50.2707 14.4375C50.0743 14.7338 49.9761 15.1189 49.9761 15.5634C49.9761 15.993 50.0907 16.3634 50.3035 16.6597C50.5326 16.956 50.8109 17.193 51.171 17.3708C51.5311 17.5338 51.9239 17.6671 52.3495 17.7412C52.775 17.8152 53.2006 17.8597 53.6098 17.8597C54.51 17.8597 55.2138 17.756 55.6885 17.5338C56.1632 17.3115 56.5396 16.8967 56.8179 16.2745H56.867C56.9652 16.7634 57.2271 17.1634 57.6526 17.4301C58.0782 17.7115 58.7165 17.8449 59.584 17.8449C60.0259 17.83 60.4515 17.8004 60.9098 17.7412ZM56.7688 11.7708V14.8375C56.7688 15.2819 56.7197 15.6671 56.6215 15.993C56.5232 16.3041 56.3759 16.5708 56.2123 16.7634C56.0486 16.956 55.8522 17.1041 55.6394 17.193C55.4266 17.2819 55.2138 17.3263 54.9847 17.3263C54.5918 17.3263 54.2809 17.2523 54.0681 17.0893C53.8389 16.9263 53.6752 16.7338 53.5607 16.4967C53.4461 16.2597 53.3806 16.0226 53.3479 15.7708C53.3152 15.5189 53.3152 15.3115 53.3152 15.1189C53.3152 14.6597 53.397 14.2745 53.5607 13.9782C53.7244 13.6819 53.9371 13.43 54.1826 13.2375C54.4445 13.03 54.7228 12.8671 55.0501 12.7338C55.3775 12.6004 55.7048 12.4671 56.0322 12.3338C56.2777 12.2301 56.4414 12.1263 56.5396 12.0375C56.6378 11.9486 56.7033 11.8597 56.736 11.7708H56.7688V11.7708ZM62.2356 7.5782V7.90412H63.9378V17.2078H62.2192V17.5338H68.7827V17.2078H67.0641V7.5782H62.2356ZM64.2325 1.43005C63.8724 1.75598 63.6923 2.14116 63.6923 2.58561C63.6923 3.03005 63.8724 3.41524 64.2325 3.74116C64.5926 4.06709 65.0181 4.23005 65.5092 4.23005C66.0002 4.23005 66.4257 4.06709 66.7858 3.74116C67.1459 3.41524 67.326 3.03005 67.326 2.58561C67.326 2.14116 67.1459 1.75598 66.7858 1.43005C66.4257 1.10412 66.0002 0.94116 65.5092 0.94116C65.0181 0.94116 64.5926 1.10412 64.2325 1.43005ZM69.1428 7.5782V7.90412H70.8123V17.2078H69.1428V17.5338H75.9682V17.2078H73.9386V11.2671C73.9386 10.7782 74.0204 10.3338 74.1841 9.93375C74.3478 9.53375 74.5442 9.20783 74.757 8.92635C74.9697 8.64486 75.2153 8.43746 75.4771 8.28931C75.739 8.14116 75.9518 8.06709 76.1155 8.06709C76.2628 8.06709 76.3774 8.09672 76.4592 8.15598L76.6229 8.34857C76.6556 8.42264 76.6884 8.51153 76.7047 8.64486C76.7047 8.65968 76.6883 8.71894 76.672 8.83746C76.6556 8.94116 76.6392 9.05968 76.6065 9.19301C76.5738 9.32635 76.5574 9.44487 76.541 9.56338C76.5247 9.6819 76.5083 9.75598 76.5083 9.80042C76.5083 10.2004 76.672 10.4819 76.9993 10.6301C77.3267 10.7782 77.6868 10.8523 78.0796 10.8523C78.6197 10.8523 79.0289 10.7189 79.2745 10.4523C79.52 10.1856 79.6509 9.83005 79.6509 9.35598C79.6509 8.73375 79.4218 8.25968 78.9798 7.90412C78.5379 7.56338 77.9487 7.3856 77.2285 7.3856C76.3774 7.3856 75.6899 7.59301 75.1661 8.02264C74.6424 8.45227 74.2332 8.95598 73.9222 9.54857H73.8731V7.59301L69.1428 7.5782ZM45.2622 19.5486C45.0003 19.4893 44.7384 19.4152 44.4766 19.3115V22.3041H42.7579V22.63H44.4766V29.7708C44.4766 30.0523 44.4929 30.3486 44.5257 30.6745C44.5584 31.0004 44.6893 31.2967 44.9185 31.5782C45.1476 31.8597 45.5077 32.0819 45.9988 32.2745C46.4898 32.4671 47.1772 32.556 48.0611 32.556C48.3885 32.556 48.7322 32.5263 49.0923 32.4819C49.4524 32.4226 49.7961 32.3189 50.1071 32.1412C50.4181 31.9634 50.7127 31.7263 50.9582 31.4152C51.2037 31.1041 51.3838 30.6745 51.482 30.156L51.1055 30.0819C51.04 30.3189 50.9418 30.556 50.8273 30.793C50.7127 31.0449 50.5817 31.2671 50.4017 31.4597C50.238 31.6523 50.0252 31.8152 49.7961 31.9338C49.5669 32.0523 49.2887 32.1263 48.9613 32.1263C48.6667 32.1263 48.4376 32.0819 48.2575 31.993C48.0775 31.9041 47.9465 31.7708 47.8483 31.6078C47.7501 31.4449 47.6846 31.2671 47.6519 31.0597C47.6192 30.8671 47.6028 30.6449 47.6028 30.4078V22.63H50.5981V22.3041H47.6028V19.3115C47.3409 19.4004 47.079 19.4893 46.8171 19.5486C46.5553 19.6078 46.2934 19.6375 46.0315 19.6375C45.8023 19.6375 45.5405 19.6078 45.2622 19.5486ZM51.0237 22.3041V22.63H52.7423V31.9338H51.0237V32.2597H57.5871V31.9338H55.8685V22.3041H51.0237ZM57.9963 22.3041V22.63H59.6822V31.9338H57.9963V32.2597H64.3307V31.9338H62.8248V26.2745C62.8248 25.8893 62.8412 25.5634 62.8576 25.2819C62.8903 25.0152 62.923 24.7782 62.9885 24.556C63.054 24.3486 63.1358 24.156 63.234 23.993C63.3322 23.83 63.4468 23.6671 63.5941 23.5189C64.1015 22.9708 64.7071 22.7041 65.3946 22.7041C65.7874 22.7041 66.1475 22.8375 66.4749 23.1041C66.8022 23.3708 66.9659 23.8449 66.9659 24.5263V31.9041H65.4109V32.2301H71.5816V31.9041H70.0758V25.0597C70.0758 24.6449 70.1576 24.2745 70.3377 23.9782C70.5177 23.6819 70.7305 23.43 70.9924 23.2523C71.2542 23.0597 71.5161 22.9263 71.778 22.8375C72.0563 22.7486 72.2854 22.7041 72.4655 22.7041C73.0874 22.7041 73.513 22.8819 73.7913 23.2226C74.0531 23.5782 74.1841 24.0671 74.1841 24.7189V31.9189H72.6782V32.2449H79.0126V31.9189H77.3267V25.5782C77.3267 25.2967 77.3103 24.956 77.2612 24.556C77.2121 24.156 77.0812 23.7708 76.8357 23.4004C76.5901 23.0449 76.2137 22.7189 75.6736 22.4671C75.1498 22.2004 74.3969 22.0671 73.4148 22.0671C73.2184 22.0671 72.9892 22.0819 72.6946 22.1263C72.4 22.1708 72.089 22.2449 71.778 22.3782C71.4507 22.5115 71.1397 22.6893 70.8123 22.9412C70.5013 23.1782 70.2067 23.5041 69.9612 23.9338C69.8302 23.7115 69.6666 23.5041 69.5193 23.2819C69.3556 23.0597 69.1428 22.8671 68.8809 22.6893C68.619 22.5115 68.2753 22.3634 67.8825 22.2449C67.4733 22.1263 66.9823 22.0671 66.3766 22.0671C65.8201 22.0671 65.3291 22.1412 64.9363 22.2745C64.5271 22.4078 64.1997 22.5856 63.9051 22.7782C63.6269 22.9708 63.3977 23.1782 63.234 23.3856C63.054 23.593 62.923 23.7708 62.8248 23.9338H62.7757V22.2893L57.9963 22.3041ZM81.7787 26.4375H89.3406C89.3406 25.6523 89.1933 24.9708 88.8823 24.4078C88.5714 23.8449 88.1785 23.3856 87.7039 23.03C87.2292 22.6745 86.6891 22.4078 86.0835 22.2449C85.4778 22.0671 84.8886 21.993 84.283 21.993C83.4482 21.993 82.6626 22.1412 81.9424 22.4375C81.2222 22.7338 80.5839 23.1338 80.0437 23.6226C79.5036 24.1115 79.078 24.6745 78.7671 25.3115C78.4561 25.9486 78.3088 26.6004 78.3088 27.2523C78.3088 28.0819 78.4724 28.8375 78.7998 29.4893C79.1271 30.1412 79.5691 30.7041 80.142 31.1634C80.7148 31.6226 81.3859 31.9634 82.1552 32.2004C82.9245 32.4375 83.7592 32.556 84.6431 32.556C85.396 32.556 86.0344 32.4671 86.5581 32.2597C87.0819 32.0671 87.5402 31.83 87.8839 31.5338C88.244 31.2523 88.5223 30.9412 88.735 30.6004C88.9478 30.2745 89.0788 29.9486 89.177 29.6671L88.8169 29.5486C88.8005 29.6819 88.7187 29.9041 88.5714 30.2004C88.4241 30.4967 88.2113 30.793 87.9003 31.0893C87.6057 31.3856 87.2128 31.6523 86.7382 31.8893C86.2635 32.1263 85.6906 32.2449 85.0032 32.2449C84.2339 32.2449 83.6283 32.0967 83.2027 31.8004C82.7772 31.5041 82.4498 31.1338 82.2207 30.6745C81.9915 30.2152 81.8606 29.7115 81.8115 29.1486C81.7624 28.5856 81.7296 28.0226 81.7296 27.4597L81.7787 26.4375ZM85.887 26.1115H81.7787C81.7951 25.7115 81.8278 25.2819 81.8606 24.8523C81.9097 24.4078 82.0079 24.0078 82.1552 23.6226C82.3025 23.2375 82.548 22.9263 82.859 22.6893C83.17 22.4375 83.6283 22.3189 84.2012 22.3189C84.6104 22.3189 84.9377 22.4078 85.1669 22.5708C85.396 22.7486 85.5597 22.956 85.6743 23.193C85.7725 23.4449 85.8379 23.6819 85.8543 23.9338C85.8707 24.1856 85.887 24.393 85.887 24.556V26.1115ZM89.9954 28.8967V32.2597H90.3555C90.4046 32.1412 90.47 32.0523 90.5191 32.0078C90.5846 31.9634 90.6828 31.9338 90.8137 31.9338C90.9611 31.9338 91.1738 31.9634 91.4521 32.0226C91.7303 32.0819 92.025 32.156 92.3687 32.2449C92.696 32.3338 93.0561 32.4078 93.3999 32.4671C93.76 32.5263 94.0873 32.556 94.3983 32.556C94.9548 32.556 95.5113 32.4819 96.0351 32.3189C96.5588 32.1708 97.0335 31.9486 97.4263 31.6523C97.8355 31.3708 98.1465 31.0152 98.4084 30.6152C98.6539 30.2004 98.7849 29.7412 98.7849 29.2375C98.7849 28.4967 98.5393 27.8893 98.0647 27.4004C97.59 26.9263 96.8862 26.5412 95.9696 26.2449L93.7927 25.5782C93.3671 25.4449 93.0234 25.2967 92.7615 25.1486C92.4996 25.0004 92.3196 24.8523 92.205 24.7041C92.0904 24.556 92.0086 24.4078 91.9759 24.2745C91.9431 24.1412 91.9268 24.0078 91.9268 23.9041C91.9268 23.3856 92.1559 22.9856 92.6306 22.7041C93.1052 22.4375 93.6126 22.3041 94.1855 22.3041C94.7093 22.3041 95.1676 22.3782 95.5113 22.5263C95.8714 22.6745 96.166 22.8671 96.4279 23.1338C96.6734 23.3856 96.8862 23.6819 97.0662 24.0226C97.2463 24.3634 97.4263 24.7189 97.59 25.0893H97.9174V22.2597H97.5573C97.5245 22.3338 97.4754 22.4078 97.4263 22.4671C97.3772 22.5263 97.2627 22.556 97.0662 22.556C96.968 22.556 96.8207 22.5263 96.6407 22.4671C96.4606 22.4078 96.2642 22.3338 96.0187 22.2745C95.7896 22.2004 95.5277 22.1412 95.2494 22.0819C94.9712 22.0226 94.6602 21.993 94.3328 21.993C93.7108 21.993 93.1543 22.0819 92.6306 22.2597C92.1068 22.4375 91.6649 22.6745 91.3048 22.9856C90.9447 23.2819 90.6501 23.6375 90.4537 24.0375C90.2409 24.4375 90.1427 24.8671 90.1427 25.3115C90.1427 25.7263 90.2245 26.0819 90.3718 26.393C90.5191 26.6893 90.7155 26.956 90.9447 27.1634C91.1738 27.3856 91.4357 27.5486 91.6976 27.6819C91.9759 27.8152 92.2214 27.9189 92.4669 27.993L94.5456 28.6893C95.0039 28.8375 95.364 29.0004 95.6422 29.1486C95.9041 29.2967 96.1005 29.4449 96.2479 29.6078C96.3788 29.756 96.477 29.9189 96.5261 30.0671C96.5752 30.2152 96.5916 30.3634 96.5916 30.4967C96.5916 30.9412 96.5097 31.2967 96.3297 31.5338C96.1496 31.7708 95.9369 31.9486 95.6914 32.0671C95.4458 32.1856 95.1839 32.2449 94.9384 32.2597C94.6765 32.2745 94.4801 32.2893 94.3165 32.2893C93.7108 32.2893 93.2198 32.1856 92.8106 31.993C92.4014 31.8004 92.0413 31.5486 91.7631 31.2375C91.4685 30.9263 91.2229 30.5708 91.0102 30.1708C90.7974 29.7708 90.5846 29.356 90.3882 28.9115" fill="#A1A1AA"/>
</g>
<defs>
<clipPath id="clip0_2461_20265">
<rect width="98.3704" height="32" fill="white" transform="translate(0.430908 0.585938)"/>
</clipPath>
</defs>
</svg>
