<svg width="74" height="17" viewBox="0 0 74 17" fill="none" xmlns="http://www.w3.org/2000/svg">
<g clip-path="url(#clip0_2461_20960)">
<path d="M20.8929 16.1904H16.9873C16.7032 14.1826 16.423 12.195 16.1416 10.2048L16.0688 10.1791L13.137 16.3175L10.228 10.1764L10.1593 10.1845L9.30948 16.1917H5.37964C6.08399 11.2621 6.78565 6.35689 7.49001 1.42727C8.48257 1.42727 9.4455 1.42051 10.4084 1.43944C10.4946 1.43944 10.6091 1.59087 10.6576 1.69768C11.4216 3.37423 12.1812 5.05304 12.9363 6.73409C12.9915 6.85444 13.0494 6.97204 13.1316 7.13969C13.2083 6.99504 13.2662 6.89499 13.3174 6.78954C14.108 5.09946 14.9026 3.40939 15.681 1.71796C15.7127 1.61903 15.7782 1.53451 15.8659 1.47934C15.9536 1.42417 16.0579 1.4019 16.1604 1.41645C16.9793 1.43268 17.7981 1.42727 18.6169 1.41645C18.823 1.41645 18.9051 1.46783 18.9361 1.68686C19.5745 6.41184 20.2182 11.1305 20.8673 15.8429C20.8808 15.9511 20.8835 16.0619 20.8929 16.1904Z" fill="#A1A1AA"/>
<path d="M68.3798 8.81114C68.3933 13.0701 64.9938 16.5625 60.8308 16.5679C56.6683 16.5733 53.2784 13.1134 53.2623 8.83279C53.2461 4.58327 56.6493 1.08279 60.8093 1.06792C64.9698 1.05305 68.3673 4.54406 68.3798 8.81114ZM60.8163 5.05649C58.7963 5.05649 57.1718 6.74929 57.1798 8.82874C57.1878 10.9082 58.8283 12.6023 60.8308 12.5956C62.8338 12.5888 64.4673 10.8663 64.4538 8.79494C64.4403 6.72359 62.8068 5.05108 60.8163 5.05649Z" fill="#A1A1AA"/>
<path d="M53.0549 16.2111C51.6394 16.2111 50.2832 16.2111 48.9257 16.199C48.822 16.199 48.6739 16.0421 48.624 15.9286C47.8537 14.129 47.0901 12.3294 46.3211 10.5325C46.2763 10.412 46.2017 10.305 46.1042 10.2215V16.1908H42.2808V1.44531C42.3845 1.44531 42.4922 1.42773 42.5986 1.42773H47.2436C48.4463 1.42773 49.595 1.64406 50.5795 2.38364C51.8818 3.36659 52.2899 4.7538 52.2468 6.31274C52.2131 7.69319 51.6381 8.81269 50.5041 9.61039C50.2846 9.76589 50.2886 9.88894 50.3842 10.1039C51.2246 12.0049 52.0601 13.9081 52.8906 15.8136C52.9444 15.9258 52.9889 16.0381 53.0549 16.2111ZM46.1258 8.36919C46.8975 8.32459 47.6705 8.29079 48.123 7.59314C48.3312 7.28719 48.4436 6.92579 48.4458 6.55524C48.4479 6.18474 48.3398 5.82204 48.1352 5.51366C47.6786 4.78625 46.8961 4.77138 46.1258 4.73487V8.36919Z" fill="#A1A1AA"/>
<path d="M30.1169 1.44922C30.3122 2.74584 30.5061 4.01813 30.7028 5.32692H26.0914V6.88179H29.0718V10.7487H26.0847V12.2981H31.2024C31.1687 12.4577 31.1485 12.5685 31.1189 12.6848C30.8415 13.7665 30.5636 14.8441 30.2853 15.9176C30.2422 16.0852 30.2098 16.2164 29.9701 16.2164C27.4463 16.2056 24.9211 16.2083 22.3973 16.2083C22.3463 16.2046 22.2955 16.1983 22.2451 16.1893V1.44922H30.1169Z" fill="#A1A1AA"/>
<path d="M34.3024 5.16317H31.3032C31.3598 4.57773 31.4109 4.02338 31.4662 3.46769C31.5268 2.87414 31.6008 2.28193 31.652 1.68838C31.6682 1.51802 31.7005 1.41797 31.9039 1.41797C34.8209 1.42518 37.7389 1.42833 40.6578 1.42743C40.6948 1.43495 40.7309 1.44627 40.7655 1.46123C40.8908 2.66862 41.0187 3.89494 41.1521 5.15911H38.1649V16.1797H34.3024V5.16317Z" fill="#A1A1AA"/>
<path d="M46.126 8.36884V4.73584C46.8963 4.77234 47.6788 4.78722 48.1353 5.51462C48.3399 5.82299 48.4481 6.18569 48.446 6.55624C48.4438 6.92674 48.3314 7.28814 48.1232 7.59409C47.668 8.29174 46.8977 8.32554 46.126 8.36884Z" fill="white"/>
</g>
<defs>
<clipPath id="clip0_2461_20960">
<rect width="72.5714" height="16" fill="white" transform="translate(0.648071 0.585938)"/>
</clipPath>
</defs>
</svg>
