<svg width="98" height="17" viewBox="0 0 98 17" fill="none" xmlns="http://www.w3.org/2000/svg">
<path d="M7.40092 3.25244C3.72492 3.25244 0.734253 6.24311 0.734253 9.91911V16.5858H3.40092V9.91911C3.40092 7.71355 5.19536 5.91911 7.40092 5.91911C9.6064 5.91911 11.4009 7.71355 11.4009 9.91911V16.5858H14.0676V9.91911C14.0676 6.24311 11.0769 3.25244 7.40092 3.25244Z" fill="#A1A1AA"/>
<path d="M53.9936 3.25244C50.3175 3.25244 47.3269 6.24311 47.3269 9.91911C47.3269 13.5951 50.3175 16.5858 53.9936 16.5858C57.6695 16.5858 60.6602 13.5951 60.6602 9.91911C60.6602 6.24311 57.6695 3.25244 53.9936 3.25244ZM53.9936 13.9191C51.788 13.9191 49.9936 12.1247 49.9936 9.91911C49.9936 7.71355 51.788 5.91911 53.9936 5.91911C56.1991 5.91911 57.9936 7.71355 57.9936 9.91911C57.9936 12.1247 56.1991 13.9191 53.9936 13.9191Z" fill="#A1A1AA"/>
<path d="M83.6226 3.25244C79.9465 3.25244 76.9559 6.24311 76.9559 9.91911C76.9559 13.5951 79.9465 16.5858 83.6226 16.5858C87.2985 16.5858 90.2893 13.5951 90.2893 9.91911C90.2893 6.24311 87.2985 3.25244 83.6226 3.25244ZM83.6226 13.9191C81.417 13.9191 79.6226 12.1247 79.6226 9.91911C79.6226 7.71355 81.417 5.91911 83.6226 5.91911C85.8281 5.91911 87.6226 7.71355 87.6226 9.91911C87.6226 12.1247 85.8282 13.9191 83.6226 13.9191Z" fill="#A1A1AA"/>
<path d="M34.0303 13.9193H33.6969C32.594 13.9193 31.6969 13.0222 31.6969 11.9193V6.58594H34.0303C34.2143 6.58594 34.3636 6.43668 34.3636 6.2526V4.2526C34.3636 4.06853 34.2143 3.91927 34.0303 3.91927H31.6969V0.919271C31.6969 0.735197 31.5476 0.585938 31.3636 0.585938H29.3636C29.1795 0.585938 29.0303 0.735197 29.0303 0.919271V3.91927H27.5859C27.4018 3.91927 27.2526 4.06853 27.2526 4.2526V6.2526C27.2526 6.43668 27.4018 6.58594 27.5859 6.58594H29.0303V11.9193C29.0303 14.4925 31.1237 16.5859 33.6969 16.5859H34.0303C34.2143 16.5859 34.3636 16.4366 34.3636 16.2526V14.2526C34.3636 14.0686 34.2143 13.9193 34.0303 13.9193Z" fill="#A1A1AA"/>
<path d="M46.6967 0.585938H44.6967C44.5126 0.585938 44.3633 0.735197 44.3633 0.919271V4.58935C43.2484 3.75046 41.8628 3.2526 40.3633 3.2526C36.6872 3.2526 33.6967 6.24327 33.6967 9.91927C33.6967 13.5953 36.6872 16.5859 40.3633 16.5859C44.0392 16.5859 47.03 13.5953 47.03 9.91927V0.919271C47.03 0.735197 46.8807 0.585938 46.6967 0.585938ZM40.3633 13.9193C38.1578 13.9193 36.3633 12.1248 36.3633 9.91927C36.3633 7.71372 38.1578 5.91927 40.3633 5.91927C42.5688 5.91927 44.3633 7.71372 44.3633 9.91927C44.3633 12.1248 42.5689 13.9193 40.3633 13.9193Z" fill="#A1A1AA"/>
<path d="M96.9195 3.26123C96.9146 3.26123 96.9029 3.26167 96.9011 3.26182C93.388 3.44538 90.5862 6.36123 90.5862 9.91923V16.5859H93.2528V9.91923C93.2528 7.8259 94.8693 6.10293 96.9195 5.93308C96.9195 5.93308 96.9368 5.9316 96.9451 5.93101C97.1188 5.91767 97.2528 5.77286 97.2528 5.59871V3.59456C97.2528 3.41049 97.1037 3.26123 96.9195 3.26123Z" fill="#A1A1AA"/>
<path d="M21.0312 3.25244C17.3552 3.25244 14.3645 6.24311 14.3645 9.91911C14.3645 13.5951 17.3552 16.5858 21.0312 16.5858C23.2821 16.5858 25.3887 15.4344 26.6141 13.5593C26.6158 13.5569 26.6181 13.5548 26.6196 13.5523C26.6212 13.5498 26.6221 13.5469 26.6239 13.5443C26.7179 13.391 26.6741 13.1899 26.5224 13.0912C26.5175 13.0878 24.7728 12.0781 24.7728 12.0781H24.7727C24.6221 11.991 24.4296 12.0344 24.331 12.1781C23.5885 13.2591 22.3507 13.9191 21.0312 13.9191C19.2928 13.9191 17.81 12.8045 17.2596 11.2524H27.6978V9.91911C27.6978 6.24311 24.7072 3.25244 21.0312 3.25244ZM17.2596 8.58577C17.81 7.0337 19.2928 5.91911 21.0312 5.91911C22.7695 5.91911 24.2523 7.0337 24.8027 8.58577H17.2596Z" fill="#A1A1AA"/>
<path d="M77.2892 13.9193C77.1073 13.9193 76.9558 13.9193 76.9558 13.9193C75.853 13.9193 74.9559 13.0222 74.9559 11.9193C74.9559 11.9193 74.9559 9.28816 74.9559 6.58594H77.2892C77.4732 6.58594 77.6225 6.43668 77.6225 6.2526V4.2526C77.6225 4.06853 77.4732 3.91927 77.2892 3.91927H74.9557C74.9557 2.46327 74.9557 1.28549 74.9557 0.919271C74.9557 0.735197 74.8064 0.585938 74.6224 0.585938H72.6225C72.4384 0.585938 72.2892 0.735197 72.2892 0.919271V11.9193C72.2892 14.4925 74.3827 16.5859 76.9558 16.5859H77.2892C77.4732 16.5859 77.6225 16.4366 77.6225 16.2526C77.6225 16.2526 77.6225 14.7988 77.6225 14.2526C77.6225 14.0686 77.4733 13.9193 77.2892 13.9193Z" fill="#A1A1AA"/>
<path d="M70.6775 12.9744C70.5543 12.8511 70.3568 12.8436 70.224 12.9578C69.4999 13.5798 68.5873 13.9191 67.6225 13.9191C65.4169 13.9191 63.6225 12.1247 63.6225 9.91911C63.6225 7.71355 65.4169 5.91911 67.6225 5.91911C68.5326 5.91911 69.4051 6.2254 70.1108 6.78711C70.2472 6.89563 70.444 6.88089 70.5627 6.75318C70.5627 6.75318 71.926 5.28577 71.9268 5.28511C72.0522 5.15022 72.0445 4.93933 71.9097 4.814C71.9054 4.81007 71.9011 4.80629 71.8966 4.80252C71.8965 4.80244 71.8963 4.80237 71.8963 4.80229C70.6983 3.80037 69.1941 3.25244 67.6225 3.25244C63.9465 3.25244 60.9558 6.24311 60.9558 9.91911C60.9558 13.5951 63.9465 16.5858 67.6225 16.5858C69.2858 16.5858 70.8563 15.9807 72.0821 14.8745C72.2189 14.7513 72.2297 14.5404 72.1063 14.4038C72.1025 14.3996 70.6832 12.9798 70.6775 12.9744Z" fill="#A1A1AA"/>
</svg>
