<svg width="64" height="64" viewBox="0 0 64 64" fill="none" xmlns="http://www.w3.org/2000/svg">
<g clip-path="url(#clip0_2436_38065)">
<path d="M32.714 22.6562C28.1031 22.6562 24.3535 26.4274 24.3535 31.0648C24.3535 35.707 28.1031 39.4687 32.714 39.4687C37.325 39.4687 41.0792 35.707 41.0792 31.0648C41.0746 26.4274 37.325 22.6562 32.714 22.6562ZM32.714 38.6683C28.5385 38.6683 25.154 35.2644 25.154 31.0648C25.154 26.8652 28.5385 23.4613 32.714 23.4613C36.8849 23.4613 40.2741 26.87 40.2741 31.0648C40.2694 35.2691 36.8849 38.6683 32.714 38.6683Z" fill="#292028"/>
<path d="M47.0197 22.6702C48.0121 18.5177 44.3748 19.4923 41.7909 20.0714C41.7909 20.0714 39.7592 19.7277 39.1601 20.4151C38.0694 21.6768 37.8119 23.6495 38.4392 23.7295C40.9904 24.0544 41.4913 21.9358 42.5211 21.4038C44.4732 20.3962 46.5188 20.5563 46.2613 22.11C45.7043 25.5845 42.1981 29.6005 35.9488 33.3575C31.5953 35.9705 22.2892 41.1211 19.0967 38.5646C16.9902 36.8791 17.917 34.6757 22.1722 31.5355C16.7889 34.7087 16.508 37.8631 17.7719 39.1861C20.7117 42.3028 30.102 38.1079 36.2109 34.3838C42.3245 30.6598 46.163 26.2625 47.0197 22.6702ZM40.0448 22.8256L40.0635 22.6326C40.335 22.1994 40.7282 21.658 41.2057 21.6015C41.1121 22.0535 40.4052 22.6749 40.0448 22.8256Z" fill="#292028"/>
<path d="M36.9927 33.6813C37.0723 27.1748 36.6323 18.1636 34.0811 16.7041C32.9435 16.0544 30.6826 17.0431 29.6667 21.883C30.8932 18.1542 32.2601 16.3934 34.1232 17.7164C36.4591 19.3736 36.1689 29.1051 36.1501 33.7237C36.122 40.3621 36.1969 44.5946 33.9687 46.0541C31.2911 47.8243 29.868 44.1003 29.3671 40.089C29.3297 40.8705 29.3859 44.2744 31.1788 46.3695C32.0775 47.4288 33.2806 47.7113 34.6896 46.5908C36.8804 44.8347 36.9272 40.1926 36.9927 33.6813Z" fill="#292028"/>
<path d="M28.512 34.7784C34.6209 38.5118 44.0113 42.6973 46.951 39.5853C48.215 38.2435 47.9341 35.0891 42.5508 31.9206C46.8059 35.0514 47.7328 37.2689 45.6263 38.9591C42.4337 41.5156 33.1276 36.3556 28.7742 33.7379C22.5248 29.9903 19.0233 25.9743 18.4569 22.4998C18.2088 20.9461 20.2451 20.786 22.1972 21.7936C23.2317 22.3209 23.7279 24.4442 26.2791 24.1193C26.9064 24.0346 26.6536 22.0666 25.5582 20.8049C24.959 20.1222 22.9321 20.4612 22.9321 20.4612C20.3434 19.8727 16.7062 18.9075 17.6986 23.06C18.5506 26.657 22.4031 31.0496 28.512 34.7784ZM23.5126 21.9913C23.99 22.0478 24.3786 22.5892 24.6548 23.0271L24.6782 23.2201C24.313 23.06 23.6062 22.448 23.5126 21.9913Z" fill="#292028"/>
</g>
<path d="M0 32C0 14.3269 14.3269 0 32 0C49.6731 0 64 14.3269 64 32C64 49.6731 49.6731 64 32 64C14.3269 64 0 49.6731 0 32Z" fill="#162F42" fill-opacity="0.1"/>
<defs>
<clipPath id="clip0_2436_38065">
<rect width="30.72" height="32" fill="white" transform="translate(17 16)"/>
</clipPath>
</defs>
</svg>
