<svg width="275" height="40" viewBox="0 0 275 40" fill="none" xmlns="http://www.w3.org/2000/svg">
<path d="M19.128 20.3499C20.184 17.6619 21.624 14.6859 22.632 11.9979C23.592 9.59793 25.752 4.79793 24.84 1.91793C24.456 1.05393 23.592 0.717933 22.68 0.861931C21.336 1.05393 20.184 1.86993 18.936 2.73393C16.632 4.46193 14.52 6.42993 12.552 8.58993C9.864 11.5179 7.512 14.6859 5.448 18.1419C3.336 21.5499 1.128 25.4859 0.552 29.6139C0.408 30.6699 0.456 32.1099 1.896 32.3979C2.664 32.5899 3.624 32.0139 4.344 31.6299C6.792 29.9019 8.52 27.5019 10.104 24.8619C11.736 21.9819 13.128 18.9579 14.376 15.9339C15.288 13.6779 16.104 11.4219 16.776 9.06993C17.16 7.77393 17.4 6.47793 17.4 5.13393C17.4 5.03793 17.448 4.94193 17.544 4.89393C18.984 3.74193 21.288 1.58193 23.256 1.62993C23.592 1.62993 23.832 1.82193 24.024 2.10993C24.984 4.17393 22.92 8.92593 22.056 11.1819C20.952 13.9659 19.752 16.7499 18.552 19.4859C18.12 20.4459 17.736 21.5499 17.352 22.6539C17.304 22.9899 17.688 23.2299 18.024 23.0379C18.264 22.8939 18.456 22.5579 18.648 22.3179C21.192 18.9099 24.168 15.4539 27.912 13.0539C28.68 12.5739 29.352 12.3339 30.216 12.1899C30.984 12.1899 30.744 13.7259 30.648 14.1579C30.264 15.9339 29.736 17.7579 29.784 19.6299C29.784 20.6859 30.12 21.7899 31.176 22.3659C32.232 22.7979 33.528 22.5099 34.632 22.0779C35.928 21.5499 37.224 21.0219 38.52 20.4459C39 20.2059 38.808 19.6779 38.376 19.5819C38.376 19.6299 36.936 20.2539 35.784 20.7339C34.584 21.2139 33.336 21.8379 31.896 21.6939C30.888 21.5019 30.648 20.5899 30.6 19.5339C30.6 17.7579 31.176 15.9339 31.464 14.1579C31.56 13.6299 31.608 13.1019 31.512 12.5739C31.416 11.9499 30.984 11.4699 30.408 11.4219C29.592 11.2779 28.776 11.6619 27.624 12.2379C24.408 14.1579 21.768 17.1819 19.128 20.3499ZM16.536 5.75793C16.44 8.01393 15.288 11.0379 15 11.9019C13.608 15.8859 11.976 19.7259 9.96 23.4219C8.424 26.0619 6.792 28.7979 4.2 30.7179C3.624 31.1499 2.952 31.4859 2.136 31.5819C1.224 31.5819 1.32 30.8619 1.32 30.1419C1.656 26.0619 4.056 22.1259 6.264 18.2859C8.184 15.1659 10.344 12.2379 12.744 9.54993C13.944 8.25393 15.336 6.90993 16.536 5.75793ZM46.8866 23.4219C46.1666 23.9019 45.7826 24.1419 44.6786 24.8619C43.9106 25.3419 43.1426 25.9179 42.4226 26.4939C41.7026 27.0699 40.9346 27.8379 40.6466 28.8459C40.5026 29.5659 40.8386 30.1419 41.5586 30.2859C43.9106 30.4779 46.1666 27.9819 47.2226 26.0619C47.5586 25.4379 47.7986 24.8139 47.7986 24.0939C47.7986 23.9019 47.8466 23.8059 47.9906 23.7099C49.8626 22.5099 51.6866 21.5019 53.5586 20.3019C53.8946 20.1099 53.9426 19.6299 53.2226 19.5819C51.3026 20.6859 49.4786 21.8379 47.6066 22.9899C47.3186 22.3659 46.9826 22.0299 46.3586 21.5499C45.7826 21.1179 45.9266 20.5419 46.3586 19.7739C46.8866 19.0059 47.5106 18.3339 48.1346 17.7099C48.4706 17.4219 48.5186 17.2299 48.3266 16.9899C48.1346 16.7979 47.8946 16.8459 47.6546 17.0379C47.2706 17.3259 46.8866 17.6139 46.4546 17.9019C45.0626 18.8139 43.6706 19.7739 42.2786 20.7339C41.1266 21.5499 38.7266 23.1339 38.0546 23.1339C38.3906 21.5019 40.3586 18.8619 41.7986 17.1819C41.9426 16.9899 41.9426 16.7979 41.8466 16.6539C41.5586 16.3659 41.2226 16.6059 40.9826 16.8939C39.5906 18.4779 37.2386 21.4059 37.2866 23.1339C37.2866 23.5659 37.5746 23.9019 38.0546 23.9019C38.9186 23.9019 40.2626 23.0859 41.1746 22.4619C42.6626 21.5499 44.0546 20.3979 45.5426 19.5819C45.1106 20.3019 44.9666 21.2619 45.5906 21.9339C46.0706 22.4139 46.5986 22.7499 46.8866 23.4219ZM46.9346 24.3819C46.8866 24.9579 46.6466 25.4379 46.3586 25.9179C45.4466 27.4539 43.2866 29.6139 41.7986 29.5179C41.5106 29.4699 41.3666 29.3739 41.4146 29.0859C41.5106 28.1739 42.9506 27.0699 43.7186 26.4939C44.7746 25.7739 45.8786 25.1019 46.9346 24.3819ZM44.1506 13.8219C44.1506 13.6299 44.0546 13.4859 43.9106 13.4379C43.7186 13.3419 43.4786 13.4859 43.3346 13.6299C43.1426 13.8219 42.9986 14.0619 43.3346 14.3019C43.6226 14.4459 44.1506 14.1099 44.1506 13.8219ZM55.8555 24.1419C55.8555 23.6619 55.7595 23.2299 55.6635 22.7019C55.4715 21.5979 54.8955 20.5419 54.5115 19.4379C54.3675 18.9099 54.4635 18.4299 54.7995 17.9979C55.3275 17.3259 56.0955 16.6059 57.0075 16.4619C57.5355 16.3179 57.5355 16.9899 57.4875 17.3739C57.3915 17.9979 57.1515 18.6219 56.9595 19.2459C56.9115 19.4379 57.0555 19.6299 57.2475 19.6779C57.3915 19.6779 57.6795 19.5339 57.7275 19.3419C58.0155 18.6699 58.3035 17.7579 58.3515 16.8939C58.3515 16.2219 57.9675 15.7419 57.3915 15.6459C55.9995 15.5499 54.3675 17.0859 53.8395 18.1899C53.3595 19.2459 53.8875 20.3019 54.3675 21.4059C54.7515 22.3179 54.9915 23.4219 54.9915 24.5739C54.7035 24.7179 54.3675 24.9099 54.0315 25.0539C52.1115 26.1099 49.4235 27.2139 48.2235 28.9899C47.7915 29.7099 48.0315 30.3819 48.7035 30.6699C49.4715 31.0059 50.5755 30.8139 51.6315 30.2859C52.5915 29.8059 53.4555 29.0859 54.1755 28.2699C54.9435 27.3579 55.5195 26.3979 55.7595 25.2459C55.7595 25.1499 55.8075 25.0539 55.9035 25.0059C56.1915 25.0059 62.3835 21.8379 64.0155 20.6859C64.9275 20.1099 64.7355 19.7739 64.1595 19.5819C63.1515 20.2539 60.2235 22.1259 55.8555 24.1419ZM54.8475 25.5819C54.4635 27.1179 53.0715 28.4619 51.5835 29.4219C50.9115 29.8059 49.9515 30.2379 49.1355 29.9499C48.8475 29.8059 48.7515 29.5659 48.9435 29.2779C50.0955 27.8859 52.7835 26.4459 54.8475 25.5819ZM82.7317 18.1899C80.0917 21.3099 75.7717 27.3099 76.3477 31.3899C76.4917 32.6379 77.6917 33.3099 78.8437 33.3099C81.2437 33.3099 83.5957 32.0619 85.7557 30.7179C87.4357 29.6619 89.0197 28.4139 90.6037 27.1659C93.1957 25.0059 95.6437 22.6059 98.1877 20.3499C98.5237 20.0139 98.2837 19.5819 97.8037 19.5819C97.8037 19.5819 97.4677 19.8699 97.3717 19.9659C96.2677 20.9259 95.2117 21.9339 94.1557 22.8939C92.1877 24.7179 90.1717 26.4939 88.0597 28.1259C86.4757 29.3259 84.7957 30.4299 82.9717 31.3419C81.8677 31.8699 80.7637 32.3019 79.5157 32.4459C78.6037 32.5419 77.4997 32.3499 77.1637 31.3419C76.8277 28.7499 78.8917 25.0059 80.7157 22.2219C82.7797 19.0059 85.3717 16.2699 88.6837 14.3019C89.1157 14.0139 89.6437 13.3899 89.0677 12.9099C88.6357 12.5259 87.7717 12.4779 87.0997 12.3819C85.8997 12.1899 83.9797 12.0459 83.4037 11.7579C82.9717 11.5179 82.7797 11.1819 82.9237 10.7019C83.9317 7.82193 86.9077 5.66193 89.6917 4.26993C90.7957 3.74193 92.1397 3.35793 93.4357 3.50193C94.8757 3.74193 95.1157 5.08593 94.9237 6.38193C94.7317 7.29393 94.3957 8.15793 93.9157 8.97393C93.7237 9.30993 93.5317 9.64593 93.2437 9.88593C93.0997 10.0299 93.0037 10.1739 93.1477 10.4139C93.3397 10.6539 93.5317 10.5579 93.7717 10.4139C93.9637 10.2219 94.1077 10.0779 94.2517 9.88593C94.9237 9.02193 95.3557 8.06193 95.6437 7.00593C95.7877 6.33393 95.8837 5.66193 95.7877 4.98993C95.6437 3.78993 94.8277 2.92593 93.6757 2.68593C92.4757 2.49393 90.9397 2.78193 89.4517 3.50193C86.6677 4.79793 83.1637 7.14993 82.1557 10.4139C81.9157 11.3739 82.2517 12.1419 83.2117 12.5259C84.2677 12.9099 85.3717 13.0059 86.6197 13.1499C87.2917 13.1979 88.4917 13.4379 88.4917 13.4379C88.3957 13.4859 88.1557 13.6299 88.1077 13.6779C86.0437 14.8779 84.2677 16.4139 82.7317 18.1899ZM109.682 8.01393C110.066 7.38993 110.642 6.28593 110.69 5.46993C110.69 5.08593 110.402 4.74993 109.874 4.98993C108.386 5.80593 106.946 7.19793 105.794 8.63793C102.914 12.1419 100.37 15.8379 98.2103 19.7739C98.1623 19.9179 98.0663 20.0619 97.9223 20.1579C97.8263 20.2539 97.7303 20.3499 97.7303 20.4939C97.7783 20.6379 97.6823 20.7819 97.6343 20.9259C97.1063 21.9819 96.6263 23.0859 96.2423 24.1899C95.8583 25.4379 95.5703 26.7819 96.0983 28.1259C96.4343 28.7499 97.0583 29.0859 97.8263 28.9899C99.7943 28.7979 103.73 25.5339 106.226 23.5659C107.282 22.7019 108.962 21.2139 109.874 20.3979C110.354 19.9179 110.21 19.6299 109.73 19.5819C108.53 20.5899 106.082 22.6059 104.738 23.7099C102.866 25.2459 100.898 26.6859 98.7383 27.8859C98.1143 28.2219 97.1063 28.4139 96.8183 27.5499C96.4823 26.6859 96.6743 25.7259 96.9623 24.7179C97.3463 23.2779 98.0183 21.8859 98.6903 20.5899C98.7383 20.4939 98.8343 20.3979 98.9303 20.3019C99.3623 19.9659 99.7943 19.6299 100.178 19.2939C102.482 17.2299 104.546 15.0219 106.418 12.6219C107.57 11.1339 108.674 9.64593 109.682 8.01393ZM99.8903 18.4299C100.37 17.6139 100.706 17.0379 101.138 16.4139C102.77 13.8699 104.498 11.4219 106.466 9.11793C107.33 8.01393 108.674 6.62193 109.874 5.90193C109.682 6.47793 109.346 7.00593 109.058 7.53393C107.186 10.3659 102.77 16.1739 99.8903 18.4299ZM109.84 24.1419C110.512 24.1899 111.136 23.9979 111.76 23.7099C113.68 22.8939 115.408 21.7419 117.616 20.3979C118 20.1579 118 19.7739 117.376 19.5819C117.376 19.5819 117.184 19.6779 117.088 19.7739C115.408 20.7339 113.728 21.7899 111.904 22.7499C111.136 23.0859 110.56 23.3259 109.984 23.2779C109.504 23.2299 109.648 22.7019 109.744 22.3659C109.984 21.6939 110.272 21.0219 110.656 20.3979C110.992 19.8219 111.376 19.2459 111.712 18.6699C111.856 18.5259 111.856 18.3339 111.712 18.1899C111.472 17.9499 111.232 18.1419 110.992 18.4299C110.224 19.4859 109.312 21.0219 108.976 22.1259C108.688 22.9419 108.832 24.0459 109.84 24.1419ZM113.392 15.1179C113.152 15.1179 112.96 15.2619 112.96 15.5019C112.96 15.7419 113.104 15.8859 113.392 15.8859C113.632 15.8859 113.824 15.7419 113.824 15.5019C113.824 15.2619 113.68 15.1179 113.392 15.1179ZM115.044 29.0379C112.26 31.2459 109.092 34.3179 108.948 37.4859C108.948 38.3019 109.476 38.9259 110.34 38.9259C111.972 38.9259 113.652 37.9179 115.284 36.9099C117.684 35.2779 119.844 33.3579 121.764 31.1499C123.06 29.6619 124.164 28.1259 125.076 26.3979C125.652 25.3899 126.084 24.3339 126.18 23.1819C127.908 22.2699 129.54 21.4539 131.268 20.5899C131.46 20.4939 131.604 20.4459 131.796 20.3499C132.036 20.2059 132.18 19.6779 131.556 19.5819C131.556 19.5819 130.98 19.8699 130.74 19.9659C129.204 20.7339 127.668 21.5019 126.132 22.2699C125.652 20.3499 123.636 20.0619 121.812 20.3019C123.204 18.9099 126.996 15.3099 127.524 13.2939C127.572 12.9579 127.38 12.7179 127.044 12.7179C126.468 12.7179 125.94 13.0059 125.46 13.3419C123.54 14.4459 121.812 15.7899 120.132 17.2779C119.124 18.1899 117.444 19.8219 117.3 20.5899C117.252 20.7819 117.396 20.9739 117.636 21.0219C117.972 21.0219 118.26 20.3499 118.452 20.0619C119.892 18.4779 121.476 17.0379 123.204 15.7419C124.308 14.9259 125.412 14.2059 126.564 13.6299C125.124 16.2699 122.484 18.1899 120.756 20.3979C120.468 20.7819 120.708 21.1659 121.14 21.1659C122.628 21.0219 124.98 20.6379 125.364 22.7019C124.356 23.1339 121.62 24.7179 120.66 25.2939C118.74 26.4459 116.82 27.6459 115.044 29.0379ZM125.316 23.5659C125.028 25.1019 124.26 26.4459 123.3 27.8859C121.572 30.4299 119.46 32.6859 117.012 34.6539C115.284 36.0459 113.316 37.5339 111.06 38.0139C110.58 38.1579 109.764 38.1579 109.764 37.3899C109.956 34.2699 114.036 30.7659 116.484 28.8939C119.316 26.8779 122.34 25.3419 125.316 23.5659ZM140.491 22.7979C140.923 21.8859 141.499 21.0699 141.979 20.1579C142.027 20.0619 142.123 19.9659 142.219 19.9179C143.947 18.5739 145.531 17.0379 147.019 15.4059C148.027 14.3019 148.987 13.1499 149.851 11.9019C150.523 10.8939 151.291 9.59793 151.387 8.25393C151.387 7.62993 150.907 7.29393 150.379 7.58193C148.603 8.54193 146.731 11.1819 145.147 13.5339C143.947 15.4539 142.747 17.3739 141.595 19.2459C141.499 19.4379 141.355 19.5819 141.163 19.7259C139.867 20.7339 138.091 21.8859 136.267 22.0779C135.979 22.0779 135.835 21.9819 135.787 21.6939C135.691 20.8779 136.459 19.2459 136.939 18.3339C137.227 17.7579 137.563 17.1819 137.851 16.6059C137.995 16.3179 138.187 16.0299 137.899 15.8379C137.563 15.6459 137.371 15.7899 137.131 16.0779C136.651 16.6539 136.267 17.1819 135.739 17.7579C135.643 17.3739 135.307 17.2299 134.923 17.1819C134.299 17.1819 133.867 17.5179 133.387 17.9499C132.475 18.7659 131.371 20.3019 131.371 21.4059C131.371 21.9339 131.755 22.2699 132.283 22.1259C132.859 21.9819 133.531 21.4539 134.011 20.9259C134.539 20.3979 134.971 19.8699 135.547 19.3419C135.211 20.3019 134.875 20.9739 135.019 22.0779C135.163 22.6059 135.547 22.8939 136.123 22.8939C137.611 22.8939 139.099 21.9819 140.443 21.1659C139.819 22.4139 139.051 23.6619 138.427 24.8619C138.331 25.0539 138.283 25.1979 138.235 25.3899C138.187 25.7259 138.523 25.9179 138.811 25.7259C139.099 25.5819 139.243 25.3419 139.483 25.0539C140.971 23.2299 142.843 21.6459 145.003 20.5899C145.291 20.4459 145.867 20.2539 145.963 20.7819C145.963 21.5019 145.819 22.0779 145.531 22.8459C145.387 23.0859 145.243 23.2299 145.003 23.3259C143.659 23.8539 142.411 24.4779 141.211 25.1979C139.723 26.1099 137.995 27.4059 137.371 29.0859C137.083 30.0459 137.323 30.7659 138.283 30.9579C139.819 31.1979 141.355 30.0939 142.411 28.8939C143.707 27.5019 144.763 25.9179 145.675 24.2379C145.867 23.9019 146.059 23.7579 146.347 23.6139C147.835 23.1339 152.251 21.3099 153.883 20.4459C154.651 20.0619 154.171 19.6779 153.835 19.5819C153.835 19.5819 148.027 22.1739 146.491 22.7019C146.779 22.1259 146.923 21.3579 146.779 20.4939C146.635 19.8219 146.107 19.5339 145.387 19.6299C144.475 19.7259 142.171 20.9739 140.491 22.7979ZM144.715 24.3339C143.899 25.8219 142.939 27.2139 141.739 28.4619C140.923 29.3739 139.771 30.3819 138.379 30.0939C138.091 29.9979 137.995 29.7579 138.091 29.4699C138.523 28.2219 139.963 26.9259 141.547 25.9179C142.603 25.3419 143.467 24.7659 144.715 24.3339ZM143.275 17.9979C144.331 16.1739 145.483 14.3499 146.731 12.6219C147.787 11.0859 149.227 9.30993 150.619 8.34993C150.667 9.45393 149.323 11.4699 148.123 12.9099C146.683 14.7339 145.051 16.4139 143.275 17.9979ZM132.187 21.3099C132.283 20.6379 133.003 19.5339 133.771 18.6219C134.011 18.3819 134.251 18.1419 134.539 18.0459C134.875 17.9499 134.971 17.9979 135.067 18.2859C135.115 18.4779 135.067 18.6219 134.923 18.7659C134.395 19.3419 133.915 19.9179 133.339 20.4939C133.147 20.7339 132.523 21.1659 132.187 21.3099ZM181.248 8.97393C181.68 9.11793 182.064 8.87793 182.016 8.44593C181.968 8.20593 181.728 8.10993 181.44 8.10993C180.144 8.10993 174.672 8.15793 172.8 8.20593C174.048 6.47793 175.056 5.13393 176.688 3.11793C176.928 2.78193 177.024 2.58993 176.736 2.34993C176.496 2.25393 176.208 2.44593 176.064 2.63793C174.528 4.46193 172.944 6.23793 171.408 8.06193C171.264 8.20593 171.168 8.25393 170.976 8.30193C170.304 8.15793 159.12 8.73393 157.968 8.73393C158.016 8.73393 158.016 8.68593 158.016 8.68593C158.208 8.34993 158.112 8.10993 157.728 8.15793C157.344 8.20593 156.96 8.34993 156.624 8.58993C156.24 8.82993 156.192 9.21393 156.528 9.40593C156.624 9.45393 156.72 9.50193 156.816 9.50193C157.056 9.54993 157.296 9.59793 157.536 9.59793C158.304 9.54993 169.056 9.06993 170.448 9.11793C167.472 12.3819 164.448 15.5979 161.28 18.6219C160.032 19.7739 158.784 20.8779 157.488 21.9339C156.432 22.7499 155.232 23.6619 153.744 23.8059C153.36 23.8059 153.216 23.6139 153.168 23.2299C153.408 21.7899 154.32 20.6859 155.184 19.6299C155.664 19.8219 156.24 19.7259 156.768 19.4859C157.92 18.8619 159.072 17.9499 159.552 16.6059C159.744 15.9339 159.36 15.5979 158.784 15.7419C158.448 15.8379 158.112 15.9819 157.824 16.1739C157.152 16.6059 156.528 17.1339 155.952 17.6619C155.904 17.7579 155.856 17.8059 155.712 17.8539C155.376 18.0459 155.136 18.4299 154.944 18.7659C153.936 20.0139 152.592 21.4539 152.352 23.1819C152.256 24.1419 152.88 24.7659 153.888 24.6219C155.76 24.3819 157.44 22.9899 158.88 21.7419C160.224 20.6379 161.424 19.4859 162.624 18.3339C165.264 15.7899 167.808 13.1499 170.256 10.4619C169.008 12.4779 167.664 14.3979 166.512 16.4139C164.304 20.1099 162.288 23.9019 160.752 27.8379C159.408 31.1019 158.064 34.4139 156.864 38.0619C156.768 38.3019 156.768 38.4939 156.72 38.7339C156.72 39.0219 156.864 39.1659 157.056 39.1659C157.392 39.1179 157.536 38.8779 157.536 38.6859C157.584 38.3979 157.68 38.1099 157.728 37.8699C158.112 36.7659 158.496 35.6139 158.88 34.5099C159.456 32.9259 160.128 31.3899 160.752 29.8539C161.472 28.0779 162.24 26.3019 163.056 24.5259C164.16 21.9819 165.552 19.5819 166.992 17.1339C168.528 14.4939 170.256 11.8539 172.032 9.26193C172.128 9.11793 172.272 9.06993 172.464 9.06993C173.568 9.02193 179.808 8.92593 181.248 8.97393ZM158.736 16.5579C158.448 17.5179 156.576 19.0059 155.808 18.9099C156.24 18.2859 158.16 16.7019 158.736 16.5579ZM168.22 20.2059C170.428 19.3899 173.788 15.5499 176.236 13.0059C178.3 10.8459 180.892 6.90993 181.18 4.84593C181.276 4.22193 180.844 3.88593 180.22 4.17393C178.684 4.94193 176.716 7.24593 175.228 8.97393C173.596 10.8939 172.108 12.9099 170.716 14.9739C168.22 18.5259 165.916 22.2219 163.9 26.1099C163.804 26.3499 163.612 26.6859 163.9 26.9259C164.236 27.1659 164.572 26.7339 164.764 26.4939C165.916 25.0059 167.164 23.6139 168.508 22.3179C169.372 21.5019 170.284 20.6379 171.532 20.1099C171.724 21.5979 171.148 23.1339 171.436 24.7179C171.58 25.5819 172.108 26.0139 172.876 25.9659C173.884 25.9659 175.42 25.1979 176.476 24.4779C178.3 23.2299 180.412 21.8379 182.524 20.2539C182.716 20.0619 182.716 19.6299 182.14 19.5819C180.748 20.5899 179.26 21.6459 177.82 22.6059C176.572 23.4699 175.18 24.5259 173.644 25.0059C173.212 25.1499 172.396 25.3419 172.252 24.7659C172.012 23.4699 172.588 21.6459 172.348 19.9179C172.252 19.4859 171.82 19.2459 171.34 19.3419C170.092 19.5819 167.884 21.7419 166.492 23.2299C166.876 22.2219 167.644 21.1659 168.22 20.2059ZM180.316 5.08593C180.076 6.23793 179.404 7.29393 178.78 8.30193C177.964 9.64593 177.004 10.8939 175.948 12.0939C173.884 14.3979 171.724 16.7499 169.228 18.6699C171.676 14.7339 174.412 11.0379 177.532 7.62993C178.396 6.66993 179.26 5.80593 180.316 5.08593ZM199.512 37.1499C200.088 37.2459 199.944 36.5739 200.088 36.1419C200.424 35.3259 200.808 34.5579 201.192 33.7899C204.024 28.5099 207.096 23.4219 210.408 18.3819C212.184 18.4779 214.536 18.9099 216.072 19.4859C216.216 19.5339 216.264 19.6299 216.264 19.8219C216.216 20.0139 216.312 20.1579 216.504 20.2059C216.648 20.2539 216.84 20.1579 216.936 19.9659C217.128 19.6299 217.128 19.2459 216.84 18.9579C216.36 18.5739 215.832 18.4299 215.16 18.2379C213.816 17.9019 212.328 17.7579 210.936 17.5659C213.144 14.1579 215.448 10.8939 217.944 7.72593C218.232 7.38993 218.52 7.05393 218.808 6.71793C219 6.57393 219.048 6.38193 218.952 6.23793C218.808 6.09393 218.616 6.04593 218.424 6.14193C218.28 6.23793 218.136 6.38193 218.04 6.47793C217.464 7.14993 216.888 7.77393 216.408 8.44593C214.104 11.3259 212.088 14.3979 210.024 17.4699C208.296 17.2299 205.752 17.1819 204.12 17.2299C205.56 14.7819 207.096 12.2859 208.536 9.83793C208.68 9.59793 208.776 9.40593 208.92 9.16593C209.064 8.97393 209.016 8.78193 208.824 8.63793C208.68 8.54193 208.488 8.58993 208.344 8.78193C208.296 8.82993 208.248 8.87793 208.2 8.87793C206.568 11.5659 204.84 14.5419 203.16 17.2779C201.432 17.2779 199.704 17.3739 197.928 17.5659C196.104 17.7579 193.368 18.5739 192.408 19.6779C192.072 20.1099 192.168 20.5419 192.6 20.7339C192.744 20.7819 192.888 20.8299 192.984 20.8299C194.088 20.9739 195.384 21.2139 196.344 21.9339C197.736 23.2299 197.4 25.0539 196.728 26.7819C196.248 27.9339 195.768 29.0859 195.288 30.2379C195.144 30.4779 195.048 30.9099 195.336 31.1499C195.672 31.2939 196.008 31.0539 196.152 30.7179C198.6 26.5899 201.048 22.4619 203.64 18.0939C204.552 17.9979 208.92 18.1419 209.496 18.3339C206.616 22.6539 204.024 27.1179 201.48 31.5819C200.664 33.1179 199.752 34.6539 199.224 36.3819C199.128 36.7179 199.176 36.9579 199.512 37.1499ZM197.688 26.6379C198.36 24.7179 198.504 22.7979 197.016 21.4059C195.96 20.4939 194.568 20.2539 193.176 20.0139C193.8 19.2939 196.68 18.5259 197.784 18.3819C199.416 18.1899 201 18.1899 202.68 18.0939C201 20.9739 199.32 23.8059 197.688 26.6379ZM217.853 18.8619C216.797 19.4859 215.405 21.5979 215.693 22.6539C215.789 23.0859 216.173 23.2299 216.653 23.0859C217.757 22.7019 218.669 21.4539 219.533 20.4459C219.389 20.9259 219.341 21.3099 219.341 21.8379C219.389 22.8939 220.061 23.2779 220.925 23.2779C221.933 23.2779 223.277 22.5099 223.949 22.0779C224.861 21.5019 225.773 20.9739 226.637 20.3979C227.117 20.1579 226.973 19.6779 226.445 19.5819C226.445 19.5819 226.253 19.7259 226.157 19.7739C225.245 20.3499 224.333 20.9259 223.421 21.5019C222.653 21.9339 221.693 22.5099 220.829 22.4619C220.493 22.4619 220.301 22.3179 220.205 21.9819C219.965 21.0219 220.877 19.3419 221.261 18.1419C221.309 17.8059 220.925 17.5179 220.637 17.8059C220.157 18.2379 219.821 18.8139 219.389 19.3899C219.245 18.8619 218.717 18.3339 217.853 18.8619ZM218.717 20.2059C218.093 20.9739 217.469 21.7899 216.509 22.3179C216.509 21.3099 217.469 20.0139 218.285 19.4859C218.525 19.3899 218.621 19.5339 218.621 19.7739C218.621 19.9179 218.669 20.0619 218.717 20.2059ZM230.923 20.5899C231.019 20.5899 230.731 21.6939 230.683 21.8859C230.347 23.0859 229.819 25.0539 230.155 25.9659C230.299 26.5419 230.779 26.8299 231.355 26.7339C232.363 26.4939 233.227 25.8699 234.139 25.0059C235.051 24.0939 235.915 23.0859 236.731 21.9819C237.307 22.1259 238.123 22.1259 238.891 21.9819C240.187 21.6939 241.339 21.0699 242.491 20.4459C242.779 20.3019 243.115 19.8699 242.395 19.5819C242.395 19.5819 242.299 19.6299 242.251 19.6779C241.483 20.1099 240.667 20.4459 239.851 20.7819C239.083 21.1659 237.979 21.3099 237.259 21.2139C238.219 19.8699 239.035 18.2859 239.323 16.5099C239.419 15.7899 239.179 14.5899 238.171 14.8779C236.539 15.5019 235.195 17.5659 234.955 19.4379C234.907 20.3019 235.195 21.1179 235.963 21.6459C235.195 22.7019 234.331 23.7579 233.323 24.6699C232.843 25.1499 232.171 25.6299 231.355 25.8699C231.067 26.0139 230.923 25.9179 230.875 25.5819C230.827 24.4299 231.307 22.9899 231.643 21.5499C231.739 21.1179 231.835 20.6859 231.787 20.2539C231.787 19.6779 231.403 19.4379 230.875 19.6779C229.915 20.2539 228.907 21.2139 227.947 22.0299C227.227 22.6059 226.555 23.1819 225.787 23.7099C226.027 22.5579 227.611 20.1099 228.619 18.3339C228.811 17.9979 229.003 17.6619 228.667 17.5179C228.331 17.3259 228.139 17.7579 227.899 18.0459C226.987 19.4379 224.875 22.8459 224.875 23.9979C224.875 24.5259 225.211 24.8139 225.691 24.6699C226.363 24.4299 227.467 23.5179 228.379 22.7019C229.195 22.0779 230.155 21.1659 230.923 20.5899ZM236.395 20.9739C236.059 20.6859 235.819 20.3499 235.819 19.9179C235.819 18.4299 236.779 16.8939 237.883 15.9339C238.075 15.7899 238.219 15.6939 238.411 15.6459C238.651 15.9339 238.507 16.6539 238.363 17.2299C237.931 18.5259 237.307 19.7739 236.395 20.9739ZM249.463 19.7259C251.863 18.3819 253.879 17.0379 255.463 15.7419C255.511 15.6939 255.559 15.6939 255.655 15.6459C256.087 15.5019 256.039 15.0219 255.751 14.9259C255.463 14.8299 255.223 14.9259 255.031 15.1179C254.311 15.7419 253.543 16.3179 252.775 16.8459C251.431 17.7579 249.223 19.0059 247.879 19.3899C247.591 19.3419 247.351 19.2939 247.063 19.2459C250.039 14.6859 253.159 10.2219 256.231 5.75793C256.327 5.61393 256.375 5.51793 256.567 5.46993C256.951 5.32593 256.951 4.70193 256.519 4.70193C256.039 4.70193 255.847 5.08593 255.559 5.42193C252.343 9.83793 249.223 14.3019 246.295 18.9099C246.199 19.0539 246.103 19.1019 245.911 19.1019C245.143 18.9579 243.943 18.7659 243.175 19.1979C242.695 19.5339 242.647 20.1579 243.127 20.4939C243.655 20.9259 244.375 20.8779 245.047 20.9259C244.135 22.4139 242.407 25.2939 241.447 26.9259C240.631 28.3179 239.863 29.7099 239.191 31.1979C238.951 31.8219 238.663 32.3979 238.615 33.2619C238.663 33.5979 238.903 33.7899 239.239 33.7899C239.479 33.7899 239.767 33.4059 239.527 33.1659C239.431 33.0699 239.431 32.9739 239.479 32.8779C239.623 32.0139 240.151 31.0059 240.583 30.1899C242.263 26.9739 244.135 23.9499 246.007 20.9259C246.103 20.7819 246.199 20.7339 246.295 20.6859C246.631 20.6379 247.015 20.5899 247.303 20.4459C247.783 20.2539 248.215 20.3019 248.695 20.3979C251.815 21.0219 255.079 21.0219 258.391 20.6859C258.823 20.6379 259.447 20.6379 259.735 20.2059C259.879 19.9179 259.735 19.6299 259.303 19.5819C258.919 19.7739 257.959 19.9179 257.431 19.9659C254.695 20.1579 252.199 19.9179 249.463 19.7259ZM245.623 19.9179C245.335 20.1579 244.135 20.1099 243.751 19.9179C243.991 19.7739 245.335 19.7739 245.623 19.9179ZM268.174 22.0299C266.062 22.7499 261.31 24.7179 260.878 26.9259C260.638 28.1259 261.31 28.7499 262.126 28.8939C263.038 29.0379 264.19 28.5579 264.958 27.9819C266.638 26.7819 268.222 24.8619 268.894 22.7979C268.942 22.6059 268.99 22.5579 269.134 22.4619C270.862 21.8379 272.494 21.0699 274.27 20.3979C274.558 20.3019 274.702 19.8219 274.03 19.5819C274.03 19.5819 273.79 19.6779 273.646 19.7259C272.062 20.3019 270.526 21.0699 268.942 21.6939C268.798 21.0699 268.462 20.5419 268.078 19.9179C267.838 19.5819 267.79 19.2939 267.934 18.9099C268.174 18.3819 268.51 17.9019 268.942 17.4699C269.134 17.2779 269.326 17.0379 269.086 16.7499C268.798 16.4619 268.366 16.8459 268.078 17.0859C266.542 18.4779 265.006 19.8219 263.374 21.1179C262.75 21.5979 260.062 23.9499 259.198 23.7579C258.862 22.8459 259.966 20.8779 260.638 19.8219C260.638 20.1579 261.118 20.3979 261.502 20.2539C262.414 19.9659 263.662 18.3819 263.47 17.3259C263.374 16.8939 263.086 16.7979 262.75 16.7979C261.982 16.9419 261.454 17.4219 260.83 18.1419C260.062 19.0539 259.39 20.1099 258.862 21.2139C258.478 22.0299 258.046 23.4699 258.382 24.0459C258.526 24.3819 258.814 24.6219 259.198 24.6219C260.11 24.6219 261.118 23.8539 261.934 23.2779C263.662 21.9819 265.246 20.4939 267.022 19.1499C266.974 19.5819 267.07 19.9179 267.262 20.2059C267.646 20.8299 268.03 21.3099 268.174 22.0299ZM268.03 22.9899C267.166 24.5259 266.206 25.9179 264.67 27.1659C263.902 27.7899 262.75 28.2699 262.126 28.0779C261.79 27.9819 261.598 27.6459 261.646 27.2619C262.078 25.2459 266.35 23.6139 268.03 22.9899ZM261.406 19.4379C261.406 18.6219 261.934 18.0939 262.654 17.7099C262.654 18.2379 261.982 19.1979 261.406 19.4379Z" fill="white"/>
</svg>
