<svg width="119" height="25" viewBox="0 0 119 25" fill="none" xmlns="http://www.w3.org/2000/svg">
<g clip-path="url(#clip0_2433_45094)">
<path d="M4.30759 21.8859C5.43324 22.9359 7.0842 23.6109 9.3355 23.6109C10.9236 23.6482 12.4617 23.0549 13.613 21.9609C14.0985 21.4659 14.4811 20.8796 14.7387 20.236C14.9963 19.5923 15.1238 18.9041 15.1138 18.2109C15.1138 15.5109 13.9132 14.1609 11.4367 11.8359C9.48559 9.96094 7.38437 8.23594 7.38437 5.38594C7.38437 2.61094 9.56063 0.585938 12.6374 0.585938C14.5135 0.585938 15.414 1.26094 16.3896 2.08594L16.5397 2.23594L17.5152 0.810938H17.8905L18.2657 6.36094L17.8905 6.43594C17.261 5.00417 16.3989 3.68637 15.339 2.53594C14.9643 2.16572 14.5184 1.87518 14.0283 1.68183C13.5382 1.48848 13.014 1.39633 12.4873 1.41094C12.0701 1.39623 11.6543 1.46867 11.2667 1.62364C10.8791 1.77861 10.528 2.0127 10.236 2.31094C9.71072 2.83594 9.48559 3.51094 9.48559 4.33594C9.48559 6.51094 10.6863 7.56094 12.7875 9.51094C15.0388 11.4609 17.6653 13.7859 17.6653 17.1609C17.6653 20.6859 14.8137 24.5859 8.73515 24.5859C3.1069 24.5859 0.55542 21.4359 0.55542 18.3609C0.55542 15.2859 2.80672 13.3359 5.73342 13.3359C7.53446 13.3359 8.73515 14.2359 8.73515 15.6609C8.73515 16.5609 7.98472 17.1609 7.23428 17.1609C6.55889 17.1609 5.95855 16.6359 5.95855 15.8859C5.95855 15.2859 6.25872 14.6859 7.30933 14.5359H7.45942V14.0859H7.30933C6.78402 13.8609 6.48385 13.8609 5.80846 13.8609C4.98298 13.8609 4.1575 14.2359 3.55716 14.9109C2.99402 15.7498 2.7297 16.7537 2.80672 17.7609C2.80672 19.4109 3.33203 20.9109 4.38263 21.8859H4.30759ZM24.1191 21.3609L21.0423 21.9609L20.8922 22.4859H29.5222L29.6723 21.9609L26.8206 21.3609L30.5728 3.58594L33.5745 4.18594L35.7508 9.66094L36.051 9.58594L36.5012 3.21094H21.7927L20.0667 9.58594H20.3669L24.4192 4.18594L27.8712 3.58594L24.1191 21.3609ZM45.0562 21.3609L47.6076 21.8859L47.4576 22.4859H39.3529L39.503 21.9609L42.2796 21.3609L43.8555 14.0859L40.6286 4.33594L38.7525 3.66094L38.9026 3.13594H46.1818L46.1068 3.66094L43.4803 4.41094L46.1818 13.4109L52.3354 4.33594L50.4593 3.73594L50.6094 3.21094H56.3127L56.1626 3.73594L53.9113 4.26094L46.6321 13.7109L45.0562 21.3609V21.3609ZM70.4959 15.9609L66.2184 21.2859L59.7647 21.9609L63.5169 4.26094L66.2935 3.73594L66.4436 3.21094H58.4139L58.3389 3.73594L60.8153 4.26094L57.1382 21.3609L54.4366 21.9609L54.2865 22.4859H68.8449L70.7961 16.0359H70.4959V15.9609ZM78.5255 3.96094H76.5744C73.0474 3.96094 71.0962 5.46094 70.9462 7.33594V7.56094H71.4715V7.48594C71.9217 7.03594 72.2969 6.96094 72.6722 6.96094C73.3475 6.96094 73.8728 7.56094 73.8728 8.16094C73.8728 8.91094 73.2725 9.51094 72.447 9.51094C71.5465 9.51094 70.5709 8.91094 70.4959 7.26094C70.4959 5.83594 71.0212 4.86094 71.9968 4.26094C72.9723 3.51094 74.4732 3.21094 76.4994 3.21094H84.1538L84.0037 3.73594L81.2271 4.26094L77.55 21.3609L80.1765 21.8859L80.0264 22.4859H71.9217L71.9968 21.9609L74.8484 21.3609L78.6006 4.03594L78.5255 3.96094ZM101.489 9.58594H101.789L105.916 4.18594L109.293 3.58594L105.541 21.3609L102.464 21.9609L102.389 22.4859H111.019L111.094 21.9609L108.243 21.3609L111.995 3.58594L115.072 4.18594L117.173 9.66094L117.473 9.58594L117.923 3.21094H103.215L101.489 9.58594ZM85.7297 21.8859C86.7803 22.9359 88.4313 23.6109 90.6826 23.6109C92.2707 23.6482 93.8088 23.0549 94.9601 21.9609C95.4456 21.4659 95.8281 20.8796 96.0857 20.236C96.3433 19.5923 96.4709 18.9041 96.4609 18.2109C96.4609 15.5109 95.2602 14.1609 92.7838 11.8359C90.8327 9.96094 88.7314 8.23594 88.7314 5.38594C88.7314 2.61094 90.9077 0.585938 93.9094 0.585938C95.8606 0.585938 96.7611 1.26094 97.7367 2.08594L97.8867 2.23594L98.8623 0.810938H99.2375L99.6127 6.36094L99.2375 6.43594C98.6081 5.00417 97.746 3.68637 96.6861 2.53594C96.3113 2.16572 95.8655 1.87518 95.3754 1.68183C94.8853 1.48848 94.3611 1.39633 93.8344 1.41094C93.4172 1.39623 93.0014 1.46867 92.6138 1.62364C92.2261 1.77861 91.8751 2.0127 91.5831 2.31094C91.0578 2.83594 90.8327 3.51094 90.8327 4.33594C90.8327 6.51094 92.0334 7.56094 94.1346 9.51094C96.3859 11.4609 99.0124 13.7859 99.0124 17.1609C99.0124 20.6859 96.1607 24.5859 90.0072 24.5859C84.454 24.5859 81.9025 21.4359 81.9025 18.3609C81.9025 15.2859 84.1538 13.2609 87.0805 13.2609C88.8815 13.2609 90.0822 14.1609 90.0822 15.5859C90.0822 16.4859 89.3318 17.0859 88.5814 17.0859C87.906 17.0859 87.3056 16.5609 87.3056 15.8109C87.3056 15.2109 87.6058 14.6109 88.6564 14.4609H88.8065V14.0859H88.6564C88.1311 13.8609 87.8309 13.8609 87.1555 13.8609C86.3301 13.8609 85.5046 14.2359 84.9042 14.9109C84.3146 15.7404 84.0236 16.745 84.0788 17.7609C84.0788 19.4109 84.6041 20.9109 85.6547 21.8859H85.7297Z" fill="#A1A1AA"/>
</g>
<defs>
<clipPath id="clip0_2433_45094">
<rect width="117.818" height="24" fill="white" transform="translate(0.55542 0.585938)"/>
</clipPath>
</defs>
</svg>
