<svg width="122" height="25" viewBox="0 0 122 25" fill="none" xmlns="http://www.w3.org/2000/svg">
<g clip-path="url(#clip0_2433_45096)">
<path d="M46.4569 11.3955H46.2551V10.7942C46.3131 10.7814 46.3734 10.7837 46.4303 10.8009C46.4872 10.8181 46.5387 10.8497 46.58 10.8925C46.609 10.9324 46.6292 10.9782 46.6389 11.0267C46.6487 11.0752 46.6479 11.1252 46.6366 11.1734C46.6253 11.2215 46.6037 11.2666 46.5733 11.3056C46.543 11.3446 46.5046 11.3766 46.4608 11.3993L46.4569 11.3955ZM46.9241 10.7499C46.5684 10.5995 46.1013 10.6381 45.7149 10.6304C45.7149 10.6747 45.7053 10.7171 45.7283 10.7499C45.7721 10.7543 45.8153 10.7634 45.8571 10.7768V11.3955C45.8138 11.3947 45.7706 11.3992 45.7283 11.409C45.7283 11.4533 45.7149 11.4957 45.7283 11.5285C46.1128 11.5073 46.4723 11.6364 46.828 11.5285C46.9029 11.4812 46.9649 11.4159 47.0082 11.3384C47.0515 11.261 47.0748 11.174 47.0759 11.0852C47.0808 11.0201 47.069 10.9548 47.0418 10.8954C47.0146 10.8361 46.9727 10.7847 46.9202 10.746L46.9241 10.7499Z" fill="#A1A1AA"/>
<path d="M47.5795 5.87793L47.6967 5.92226C47.6967 5.92226 47.6506 6.01477 47.6775 6.06102C47.7044 6.10727 47.7679 6.18051 47.8255 6.14967C47.8681 6.13134 47.9025 6.09824 47.9227 6.05647C47.9428 6.01469 47.9472 5.96704 47.9351 5.92226H48.0197L48.0332 5.99935C48.0216 6.14004 47.9793 6.24025 47.789 6.23062C47.5987 6.22098 47.5526 6.03789 47.5795 5.87793ZM47.9544 6.40214L48.1024 6.4484L48.1485 6.51007L48.2196 5.68135L48.1485 5.62354C48.1054 5.67419 48.0512 5.71425 47.9903 5.74064C47.9293 5.76704 47.8631 5.77906 47.7967 5.77579C47.6641 5.77579 47.5218 5.74688 47.4122 5.74302C47.4564 5.88371 47.3949 6.04946 47.4814 6.21135C47.5332 6.28584 47.6055 6.34357 47.6895 6.37746C47.7735 6.41135 47.8656 6.41993 47.9544 6.40214Z" fill="#A1A1AA"/>
<path d="M48.904 5.8722H48.9905C48.9782 5.91652 48.982 5.96381 49.0014 6.00552C49.0208 6.04723 49.0545 6.08061 49.0963 6.09961C49.1578 6.13045 49.2135 6.0707 49.2482 6.01096C49.2828 5.95122 49.227 5.8722 49.227 5.8722L49.3462 5.8298C49.3712 5.98591 49.3077 6.17092 49.1347 6.18056C48.9617 6.19019 48.904 6.08998 48.8925 5.94929L48.904 5.8722V5.8722ZM49.2039 6.29812C49.4769 6.25957 49.4961 5.88376 49.4865 5.62358C49.3594 5.70155 49.2144 5.74536 49.0655 5.75078C48.9436 5.7409 48.8304 5.68347 48.7502 5.59082L48.6887 5.62358L48.8502 6.47735C48.8942 6.4253 48.9482 6.38262 49.009 6.35184C49.0697 6.32105 49.136 6.30279 49.2039 6.29812V6.29812Z" fill="#A1A1AA"/>
<path d="M58.1335 12.1629C58.1356 12.0838 58.1154 12.0057 58.0753 11.9376C58.0352 11.8694 57.9767 11.814 57.9067 11.7775C57.8612 11.7549 57.8108 11.7442 57.7601 11.7462C57.7094 11.7482 57.66 11.763 57.6164 11.789C57.4761 11.8642 57.4857 12.0145 57.5068 12.134C57.5395 12.188 57.5837 12.2535 57.6587 12.2323C57.799 12.1456 57.551 11.9837 57.7548 11.9297C57.8529 11.9182 57.9067 12.0377 57.9471 12.1013C57.957 12.1774 57.9439 12.2548 57.9097 12.3234C57.8754 12.3921 57.8215 12.449 57.7548 12.4867C57.6117 12.5306 57.4572 12.519 57.3223 12.4539C57.2503 12.4027 57.1901 12.3367 57.1456 12.2602C57.1012 12.1838 57.0736 12.0987 57.0647 12.0107C57.0599 11.8863 57.092 11.7633 57.157 11.6573C57.2221 11.5513 57.3171 11.467 57.4299 11.4152C57.9278 11.1781 58.2835 11.6214 58.6372 11.9355C58.5424 11.9357 58.4489 11.957 58.3634 11.998C58.278 12.039 58.2027 12.0987 58.1431 12.1726L58.1335 12.1629ZM56.1477 10.8755C56.1096 10.7961 56.0908 10.7088 56.0928 10.6207C56.0948 10.5326 56.1176 10.4463 56.1592 10.3687C56.2048 10.2832 56.2677 10.2083 56.3438 10.1485C56.42 10.0888 56.5077 10.0456 56.6014 10.0218C56.7207 10.0041 56.8425 10.0129 56.9581 10.0475C57.0737 10.0821 57.1803 10.1418 57.2704 10.2222C57.551 10.5055 57.7241 10.8948 57.9605 11.2167C57.8096 11.1645 57.6474 11.1548 57.4914 11.1888C57.3355 11.2228 57.1918 11.2991 57.0762 11.4094C56.9934 11.5299 56.9346 11.6654 56.9032 11.8083C56.6744 11.4736 56.4185 11.1584 56.1381 10.8659L56.1477 10.8755ZM53.7562 11.8604C53.1445 11.8026 52.5276 11.8803 51.9491 12.0878C52.0019 11.7047 52.0167 11.3174 51.9933 10.9314C52.3067 10.5325 52.8449 10.5749 53.3294 10.546C54.1926 10.5132 54.9135 10.6905 55.7555 10.8582C55.9285 11.3554 56.4879 11.6908 56.6821 12.1764C55.6863 12.2709 54.7578 11.9143 53.7562 11.8604ZM53.4755 12.4231C53.0043 12.4683 52.5288 12.4239 52.0741 12.2921C52.4585 12.0762 52.9372 12.055 53.389 12.0434L53.4966 12.055C53.464 12.1745 53.4967 12.3036 53.4755 12.4231ZM50.1766 12.4231L46.499 11.764C45.9742 11.682 45.4398 11.682 44.915 11.764C45.0023 11.4291 45.0315 11.0816 45.0015 10.7368C45.0553 10.5537 45.2706 10.5652 45.4109 10.4785C46.0127 10.3263 46.649 10.4785 47.243 10.544C48.7425 10.8235 50.2093 11.1588 51.7722 11.2571C51.8261 11.6021 51.7396 11.9702 51.7492 12.3055C51.8587 12.4771 52.051 12.4674 52.2144 12.5098C51.5339 12.5468 50.8515 12.5178 50.1766 12.4231V12.4231ZM46.3587 12.2824C45.8775 12.2905 45.3979 12.2255 44.9361 12.0897L44.8823 12.0261C45.2918 11.8199 45.9069 11.8526 46.3702 11.949L46.3587 12.2824ZM40.1589 12.2921C40.6241 12.0993 41.1086 11.9895 41.5507 11.7409C41.0874 11.5038 40.5895 11.3304 40.1589 11.0162C41.704 11.1582 43.2566 11.2019 44.8073 11.1473C44.8169 11.4922 44.6766 11.818 44.7112 12.1302C44.8823 12.346 45.1399 12.3229 45.3667 12.3903C43.6315 12.5209 41.8879 12.488 40.1589 12.2921ZM43.3405 9.78664C43.8365 9.78664 44.246 9.60355 44.6977 9.50526C45.1303 9.43973 45.5609 9.52646 45.9492 9.3877C45.9704 9.60355 46.0896 9.80976 46.003 10.0353L45.4109 10.1008C45.1629 10.1759 44.8707 10.2935 44.7631 10.5325C44.7112 10.4573 44.8073 10.2742 44.6458 10.2742C44.6207 10.2733 44.5959 10.28 44.5747 10.2934C44.5534 10.3068 44.5367 10.3263 44.5266 10.3494C44.5362 10.3918 44.5689 10.4458 44.5478 10.4901C44.5193 10.4953 44.4925 10.5076 44.4701 10.526C44.4477 10.5444 44.4303 10.5682 44.4195 10.5951C44.4087 10.6221 44.405 10.6514 44.4086 10.6802C44.4122 10.709 44.4231 10.7364 44.4401 10.7599C44.419 10.7811 44.3767 10.7715 44.3536 10.7715C44.246 10.6944 44.2882 10.544 44.1614 10.4785C44.1172 10.3918 44.2363 10.3378 44.1614 10.2742C44.1338 10.253 44.1 10.2415 44.0652 10.2415C44.0305 10.2415 43.9967 10.253 43.9691 10.2742C43.9038 10.3918 44.0018 10.5652 43.8076 10.598L43.8499 10.7907C43.7096 10.8543 43.7 10.6828 43.6577 10.6173C43.6365 10.5094 43.5077 10.4438 43.6039 10.3359C43.6365 10.2819 43.5616 10.2395 43.5174 10.2395C43.4906 10.2359 43.4634 10.2413 43.4401 10.2549C43.4167 10.2685 43.3986 10.2896 43.3886 10.3147C43.4635 10.4438 43.3117 10.5074 43.2271 10.5306L43.2482 10.7907C43.1406 10.7907 43.1079 10.6712 43.0752 10.598C43.0963 10.4901 42.9579 10.5113 42.9464 10.4053C43.0271 10.174 43.0502 9.85023 43.3405 9.78471V9.78664ZM45.4744 7.17136C45.584 6.43708 46.3375 6.06898 46.7797 5.56018C46.7912 5.87433 46.5432 6.09018 46.3375 6.29639L45.4744 7.17136ZM46.4567 5.10728C46.4452 5.53898 45.9819 5.7664 45.6878 6.00345C45.8158 5.61408 46.0922 5.29126 46.4567 5.10535V5.10728ZM46.6817 4.73918C46.8409 4.71533 47.0034 4.72809 47.1569 4.77651C47.3104 4.82492 47.451 4.90772 47.5679 5.01863C47.5929 4.97623 47.6525 4.9531 47.6736 4.90877C47.6779 4.89497 47.6779 4.88018 47.6736 4.86637C47.8861 4.79506 48.1061 4.7485 48.3292 4.72761C48.6044 4.7161 48.8799 4.73745 49.1501 4.79121C49.1616 4.83554 49.2039 4.89914 49.2577 4.89914C49.398 4.82398 49.473 4.66209 49.6249 4.59656C49.764 4.54911 49.9106 4.52755 50.0574 4.53296C50.0453 4.73692 49.9654 4.93095 49.8306 5.08415C49.7652 5.16895 49.6249 5.11499 49.6037 5.22484C49.8517 5.56982 49.8191 6.10945 49.7325 6.52188C49.7086 6.57866 49.6718 6.62909 49.6251 6.66922C49.5784 6.70934 49.523 6.73807 49.4634 6.75315C49.4121 6.76761 49.3591 6.77539 49.3058 6.77628L49.2923 6.83988L49.5095 6.97864L49.4903 7.10391L49.2827 7.00562L49.2519 7.11547L49.4653 7.25423L49.4423 7.35831L49.2269 7.27158L49.1847 7.40263L49.4019 7.53368L49.3596 7.72641L48.7002 7.46623C48.7002 7.46623 48.7002 7.17329 48.7002 7.16943C48.7575 7.14351 48.809 7.10625 48.8517 7.05989C48.8943 7.01352 48.9271 6.95901 48.9482 6.89962C48.9597 6.83409 48.9809 6.72617 48.9174 6.67221C48.7993 6.75778 48.6592 6.80791 48.5137 6.81675C48.3722 6.834 48.229 6.80202 48.1081 6.72617C48.0812 6.77631 48.0708 6.8337 48.0784 6.89012C48.086 6.94655 48.1112 6.99912 48.1504 7.04031C48.216 7.10516 48.2966 7.15282 48.3849 7.17907V7.49129L47.7621 7.78615L47.7063 7.61463L47.8986 7.49129L47.8543 7.34096L47.6467 7.46045L47.6044 7.36023L47.8294 7.21569L47.7794 7.07885L47.5506 7.2022L47.5237 7.12318L47.7486 6.95358C47.7486 6.95358 47.7352 6.87264 47.7332 6.86686C47.5506 6.84566 47.3238 6.80326 47.2603 6.58548C47.1631 6.22669 47.1299 5.85348 47.1623 5.48309C47.1719 5.42913 47.3026 5.39637 47.2161 5.34241C46.9027 5.35397 46.7739 4.99743 46.6759 4.78158L46.6817 4.73918ZM47.143 3.89504C47.1155 3.88501 47.0911 3.86773 47.0725 3.84501C47.0539 3.82229 47.0418 3.79497 47.0373 3.76592C47.1863 3.64684 47.3513 3.54952 47.5275 3.47683C47.5391 3.47683 47.516 3.69461 47.5275 3.69461C47.5102 3.74472 47.4679 3.71003 47.3987 3.79868C47.3868 3.81939 47.3802 3.84274 47.3794 3.86665C47.3787 3.89055 47.3839 3.91427 47.3946 3.93566C47.4053 3.95705 47.4211 3.97546 47.4406 3.98922C47.4601 4.00299 47.4827 4.01168 47.5064 4.01453C47.5454 4.01159 47.5846 4.01159 47.6236 4.01453C47.6679 4.14366 47.5737 4.20726 47.4737 4.25158C47.3334 4.31904 47.2699 4.13209 47.2699 4.13209L47.3776 4.07813L47.2372 3.80832C47.2372 3.80832 47.1853 3.91239 47.143 3.89504ZM49.3538 4.39227C49.3381 4.42144 49.3165 4.44703 49.2904 4.46743C48.6754 4.35561 48.0427 4.39261 47.4449 4.57536C47.4118 4.55977 47.3823 4.53746 47.3584 4.50983C47.9951 4.27624 48.6864 4.23536 49.3461 4.39227H49.3538ZM48.954 3.36505C48.954 3.36505 48.8386 3.55777 48.8367 3.56934C48.7713 3.5809 48.6637 3.54621 48.6445 3.65414C48.5906 3.80446 48.6983 3.91624 48.8175 3.87192C48.8178 3.91329 48.8056 3.95379 48.7827 3.98816C48.7597 4.02253 48.7269 4.04918 48.6887 4.06464C48.6429 4.08093 48.5927 4.07925 48.5481 4.05994C48.5035 4.04064 48.4679 4.00513 48.4484 3.96057V3.89119H48.5579V3.55007H48.4407L48.4503 3.42094C48.3954 3.40486 48.3383 3.39706 48.2811 3.39781C48.2215 3.39781 48.1408 3.42094 48.1408 3.42094V3.57127H48.0408V3.8989H48.1735C48.1735 3.8989 48.1735 4.06657 48.0754 4.09162C47.9101 4.13402 47.8582 4.11089 47.8255 4.00297V3.92973C47.8255 3.92973 47.9793 3.92973 47.9755 3.80639C47.9755 3.72737 47.9658 3.63872 47.8736 3.62908C47.7813 3.61945 47.7986 3.65799 47.7313 3.65799C47.7313 3.64836 47.6679 3.4325 47.664 3.42287C48.0751 3.27088 48.5232 3.25067 48.9463 3.36505H48.954ZM49.052 3.88348C49.0741 3.89677 49.0992 3.90413 49.1249 3.90487C49.1507 3.9056 49.1762 3.89968 49.1989 3.88768C49.2217 3.87567 49.2411 3.85799 49.2551 3.83632C49.269 3.81466 49.2772 3.78975 49.2789 3.76399C49.2789 3.67341 49.175 3.61752 49.1001 3.60788L49.0847 3.39781L49.548 3.6021L49.5153 3.74279L49.375 3.67726L49.2904 3.93744L49.3865 3.97984C49.3678 4.03271 49.329 4.07607 49.2787 4.10058C49.2283 4.12509 49.1704 4.1288 49.1174 4.11089C49.0193 4.08969 49.0116 3.97021 49.0443 3.88348H49.052ZM51.4358 6.63944C50.9802 6.18654 50.1401 6.01309 50.0901 5.29037C50.4784 5.81844 51.2763 5.92636 51.4281 6.63944H51.4358ZM51.2628 5.69895C50.9494 5.48309 50.3669 5.35397 50.3458 4.84518C50.7687 4.94347 51.0283 5.34241 51.2551 5.69895H51.2628ZM50.6034 9.13715C50.3323 9.06199 49.9556 9.06199 49.771 8.7517C49.6888 8.62927 49.6376 8.48857 49.6218 8.34181C49.6061 8.19506 49.6263 8.04667 49.6806 7.9095C49.6903 8.45491 50.2516 8.79025 50.6034 9.13715ZM50.9879 9.10439C50.6034 8.52622 49.7152 8.14077 49.8229 7.31976C50.0151 8.00201 51.1128 8.28338 50.9879 9.10439V9.10439ZM50.1247 6.0208C50.5342 6.55079 51.3974 6.83024 51.3531 7.59921C50.9879 7.04031 50.1228 6.75315 50.1228 6.01309L50.1247 6.0208ZM51.2128 8.37782C50.8283 7.77074 49.8671 7.47972 50.0267 6.66835C50.3054 7.28892 51.232 7.5915 51.2109 8.37011L51.2128 8.37782ZM48.1735 8.60331L48.3023 8.59367C48.1759 8.71686 48.0987 8.88198 48.085 9.05814L47.8159 9.0697C47.8889 8.90974 47.9543 8.66112 48.1715 8.5956L48.1735 8.60331ZM48.8848 8.98876L48.4311 9.03115C48.4287 8.94595 48.4446 8.86122 48.4778 8.78274C48.5109 8.70426 48.5606 8.63385 48.6233 8.57632C48.8059 8.61872 48.8502 8.81145 48.8828 8.97526L48.8848 8.98876ZM49.5307 8.96563L49.2193 8.93479C49.1773 8.79419 49.0991 8.6672 48.9924 8.56669C49.2577 8.50887 49.4115 8.76905 49.5288 8.95214L49.5307 8.96563ZM49.0885 8.25255L48.1177 8.30651C48.0979 8.30174 48.0797 8.29171 48.0651 8.27747C48.0505 8.26323 48.04 8.24531 48.0347 8.22559C48.0294 8.20587 48.0295 8.18508 48.035 8.16541C48.0404 8.14574 48.0511 8.1279 48.0658 8.11379C48.212 7.96653 48.4 7.86824 48.6041 7.83241C48.8201 7.85143 49.0233 7.94313 49.1808 8.09259C49.1857 8.10845 49.1871 8.12521 49.1848 8.14167C49.1826 8.15812 49.1768 8.17389 49.1678 8.18785C49.1588 8.20181 49.1469 8.21363 49.1329 8.22248C49.1188 8.23133 49.1031 8.23698 49.0866 8.23906L49.0885 8.25255ZM46.8893 9.79434V10.1393L46.697 10.1181C46.7128 9.98305 46.7812 9.85972 46.8874 9.77507L46.8893 9.79434ZM46.7067 9.55537C46.8355 9.08126 47.5698 8.73436 47.5045 8.11764C47.5655 8.21476 47.6046 8.32403 47.6192 8.43785C47.6338 8.55168 47.6235 8.66733 47.589 8.77676C47.4583 9.14679 46.9835 9.27784 46.7047 9.53609L46.7067 9.55537ZM46.4587 10.095L46.253 10.0757C46.2818 10.0267 46.3182 9.98248 46.3606 9.94467C46.4241 9.93696 46.4241 10.0295 46.4567 10.0757L46.4587 10.095ZM46.3395 9.40504C46.1568 8.82687 46.8028 8.44142 47.0508 7.96732C47.1494 7.80676 47.2227 7.63189 47.268 7.44889C47.5275 8.25062 46.6394 8.72665 46.3375 9.38577L46.3395 9.40504ZM45.7358 8.04248C45.6166 7.25231 46.4913 6.81097 46.8143 6.24821C46.7797 6.96515 46.0261 7.40841 45.7339 8.0232L45.7358 8.04248ZM46.9758 6.88613C47.1911 7.7187 46.1453 8.14077 46.0146 8.88661C45.8742 8.03477 46.6817 7.55874 46.9739 6.87649L46.9758 6.88613ZM51.8914 8.50887C51.9779 8.38938 51.8914 8.23906 51.8703 8.108L51.7088 7.56837C52.8084 7.77266 53.7792 8.40095 54.9231 8.56283C54.9599 8.6488 55.0143 8.72602 55.0829 8.78945C55.1515 8.85288 55.2326 8.90109 55.321 8.93094L55.7055 8.96177C55.7259 9.30299 55.8538 9.62892 56.0708 9.89263C55.927 10.0642 55.8043 10.2525 55.7055 10.4535C54.7674 10.3147 53.8177 10.0854 52.8046 10.1952C52.9776 9.93503 52.8796 9.61704 52.8046 9.32988C52.6431 9.21039 52.5893 8.94443 52.3509 8.91938C52.1913 9.1121 52.5239 9.24315 52.5239 9.44744C52.5671 9.58438 52.5769 9.7297 52.5525 9.87121C52.528 10.0127 52.4701 10.1463 52.3836 10.2607C52.1471 10.3783 51.728 10.5094 51.7376 10.8755C51.2347 10.8558 50.7337 10.8017 50.2381 10.7136C50.0132 10.5209 49.8537 10.1952 49.5268 10.2492C49.4948 10.2298 49.459 10.2176 49.4218 10.2136C49.3846 10.2096 49.3469 10.2139 49.3115 10.226C49.3538 10.4188 49.0213 10.3687 49.1597 10.573C48.977 10.65 49.0424 10.3455 48.9136 10.2819C48.9347 10.1836 49.052 10.0333 48.8905 9.989C48.8156 9.97743 48.7617 10.0545 48.7502 10.1085C48.8578 10.3147 48.481 10.2819 48.6329 10.4939C48.5676 10.5267 48.4811 10.44 48.4714 10.3764C48.4926 10.2569 48.308 10.1836 48.4061 10.0622C48.416 10.0547 48.4241 10.0449 48.4297 10.0337C48.4352 10.0225 48.4381 10.0102 48.4381 9.99767C48.4381 9.98516 48.4352 9.97282 48.4297 9.96161C48.4241 9.95041 48.416 9.94065 48.4061 9.93311C48.3734 9.85602 48.2869 9.90998 48.2446 9.93311C48.1581 10.0295 48.3196 10.2684 48.0812 10.2453V10.386C47.8659 10.44 47.9735 10.1586 47.812 10.1046C47.8217 9.99671 47.9947 9.86758 47.8332 9.79242C47.7973 9.79232 47.7623 9.80365 47.7333 9.82478C47.7043 9.84592 47.6827 9.87575 47.6717 9.90998C47.6717 10.0083 47.6275 10.1162 47.5102 10.1162L47.4987 10.2896C47.2834 10.3224 47.4026 10.041 47.2411 9.97551C47.2472 9.8631 47.2809 9.75394 47.3392 9.65776C47.3976 9.56159 47.4788 9.48139 47.5756 9.42431C48.458 9.51104 49.3961 9.01381 50.1843 9.55344C50.54 9.36071 51.1109 9.78085 51.2936 9.25086L51.3704 8.92708C51.4795 9.02763 51.5944 9.12159 51.7146 9.20846C51.8107 9.12174 51.7146 9.01574 51.705 8.93865C51.5976 8.67042 51.5258 8.3892 51.4916 8.10222C51.653 8.18509 51.7299 8.40095 51.8895 8.49924L51.8914 8.50887ZM55.2557 7.9095C55.3214 7.82304 55.406 7.75276 55.5029 7.704C55.5999 7.65525 55.7066 7.62929 55.8151 7.62812C55.9158 7.6268 56.0153 7.64974 56.1053 7.69502C56.1953 7.7403 56.2731 7.80658 56.3322 7.8883C56.6456 8.33156 56.1592 9.09283 56.7955 9.67293C56.6456 9.6286 56.5264 9.71533 56.386 9.70376C56.0016 9.35879 56.0419 8.79603 56.0958 8.31037C56.0848 8.25425 56.0619 8.20113 56.0288 8.1546C55.9956 8.10806 55.9529 8.06917 55.9035 8.04055C55.833 8.01661 55.7565 8.0175 55.6866 8.04308C55.6167 8.06866 55.5576 8.1174 55.519 8.18124C55.5075 8.26604 55.519 8.40673 55.6363 8.42985C55.6805 8.42985 55.7113 8.38553 55.7324 8.35276C55.7059 8.31534 55.6949 8.26905 55.7017 8.22364C55.7234 8.20444 55.7504 8.19216 55.7792 8.18839C55.8079 8.18461 55.8372 8.18951 55.8631 8.20244C55.9497 8.2776 55.917 8.37589 55.8843 8.47225C55.8333 8.5276 55.7683 8.56798 55.6961 8.58903C55.624 8.61009 55.5475 8.61102 55.4748 8.59174C55.4115 8.56619 55.3546 8.527 55.3082 8.47694C55.2617 8.42688 55.2267 8.36719 55.2058 8.30209C55.1849 8.23699 55.1785 8.16808 55.1871 8.10023C55.1958 8.03239 55.2192 7.96727 55.2557 7.9095V7.9095ZM55.2864 6.60282C54.4463 6.71075 53.2487 7.51056 52.6123 6.5161C52.526 6.3468 52.4893 6.1564 52.5067 5.96704C52.5241 5.77768 52.5947 5.59716 52.7104 5.44648C53.4793 4.63511 54.4886 5.5332 55.3729 5.28459C55.446 5.23958 55.5075 5.17788 55.5522 5.10453C55.597 5.03117 55.6238 4.94825 55.6305 4.86252V4.64667C55.6822 4.73323 55.7121 4.83104 55.7178 4.93173C55.7235 5.03242 55.7048 5.13299 55.6632 5.22484C55.6316 5.29699 55.5857 5.3619 55.5281 5.41559C55.4706 5.46927 55.4028 5.51061 55.3287 5.53706C54.5597 5.65655 53.8619 5.07259 53.1179 5.41757C53.023 5.48799 52.9455 5.57939 52.8915 5.68467C52.8375 5.78995 52.8084 5.90628 52.8065 6.02465C52.8011 6.10545 52.8127 6.18649 52.8405 6.26252C52.8683 6.33854 52.9117 6.40787 52.968 6.46599C53.6043 7.00755 54.3483 6.40239 55.0154 6.33686C55.1881 6.2999 55.3675 6.31048 55.5347 6.36748C55.7019 6.42448 55.8506 6.52578 55.965 6.66064C55.9239 6.7163 55.8768 6.76735 55.8247 6.81289C55.6748 6.68196 55.485 6.60586 55.2864 6.59704V6.60282ZM54.6616 6.27905C54.2406 6.34265 53.8427 6.59126 53.4101 6.46214C53.291 6.40817 53.3025 6.25592 53.3467 6.15956C53.464 5.99767 53.6697 6.09403 53.8427 6.0844L54.6616 6.27905ZM55.6748 5.81265C55.5722 5.88376 55.4561 5.93294 55.3337 5.95714C55.2113 5.98134 55.0853 5.98005 54.9635 5.95334C54.3271 5.96491 53.6908 5.42335 53.1083 5.86662L53.0449 5.96491C53.0289 5.89342 53.0382 5.81858 53.0711 5.7532C53.1041 5.68781 53.1587 5.63593 53.2256 5.60644C54.0695 5.2075 55.5767 6.54886 55.8362 5.04561C55.8911 5.17368 55.905 5.31563 55.8761 5.45194C55.8471 5.58826 55.7768 5.71225 55.6748 5.80687V5.81265ZM56.6513 6.4313C56.7089 6.39733 56.7733 6.37675 56.8399 6.37108C56.9064 6.3654 56.9734 6.37479 57.0358 6.39854C57.1169 6.43006 57.1884 6.48216 57.2433 6.54973C57.2983 6.6173 57.3347 6.69802 57.3492 6.78399C57.3376 7.4431 57.0589 7.94033 57.1012 8.67461C57.113 9.07012 57.183 9.46171 57.3088 9.83674C56.6956 9.3954 56.659 8.93479 56.6725 8.11764C56.6725 7.86132 56.4649 7.66666 56.2476 7.52405C56.0911 7.45105 55.9169 7.42495 55.7459 7.44889C56.0789 7.13688 56.3821 6.79426 56.6513 6.42552V6.4313ZM57.503 5.13812C57.578 5.45033 57.9374 5.62186 58.2181 5.65462C57.9701 5.88203 57.8952 6.3041 57.5164 6.3677C57.397 6.37136 57.2797 6.33563 57.1824 6.266C57.0852 6.19638 57.0134 6.0967 56.9782 5.98225C56.8494 5.52935 57.3107 5.46768 57.503 5.13234V5.13812ZM57.4049 8.56283C57.3998 7.83558 57.5889 7.1202 57.9528 6.49104C58.058 6.31346 58.1831 6.14856 58.3258 5.9996V5.47924C58.2193 5.47482 58.1148 5.4488 58.0187 5.40275C57.9225 5.35671 57.8367 5.2916 57.7664 5.21135C57.699 5.14428 57.647 5.06338 57.6138 4.97422C57.5806 4.88506 57.5671 4.78975 57.5741 4.69485C57.5775 4.56042 57.6227 4.43041 57.7033 4.32295C57.7839 4.2155 57.8961 4.13598 58.024 4.09548C58.1433 4.05354 58.2721 4.04649 58.3954 4.07515C58.5186 4.10382 58.6311 4.16701 58.7199 4.25737C58.7777 4.31992 58.822 4.39387 58.8498 4.47449C58.8776 4.55512 58.8883 4.64066 58.8814 4.72569C58.8894 4.82236 58.8593 4.91834 58.7974 4.99296C58.7356 5.06757 58.647 5.11486 58.5507 5.12463C58.4882 5.13088 58.4252 5.11893 58.3693 5.09022C58.3134 5.06151 58.2669 5.01725 58.2354 4.96274C58.1797 4.86059 58.1758 4.6698 58.2912 4.6698C58.4469 4.6698 58.3085 4.78158 58.4027 4.82398C58.4273 4.83833 58.4565 4.84254 58.4841 4.83571C58.5117 4.82887 58.5356 4.81153 58.5507 4.78736C58.5642 4.75533 58.5681 4.72006 58.562 4.68584C58.5558 4.65162 58.5399 4.61993 58.5161 4.59463C58.4809 4.55422 58.4338 4.52608 58.3816 4.5143C58.3294 4.50251 58.2749 4.5077 58.2258 4.52911C58.1511 4.56043 58.091 4.61908 58.0578 4.69317C58.0246 4.76725 58.0207 4.85122 58.047 4.92805C58.0645 5.01898 58.1119 5.10141 58.1816 5.16219C58.2513 5.22298 58.3393 5.2586 58.4315 5.26339H59.0851L59.4523 5.01477L59.906 4.79121C59.8894 4.68775 59.8492 4.58951 59.7887 4.50405L59.2274 4.80278C59.2158 4.47756 59.0778 4.16978 58.8429 3.94515C58.6871 3.82238 58.4984 3.74862 58.3008 3.73319C58.1032 3.71775 57.9055 3.76133 57.7325 3.85843C57.5596 3.95552 57.4192 4.10179 57.3291 4.27877C57.239 4.45575 57.2032 4.65552 57.2262 4.85288C56.9339 5.22099 56.3303 5.53513 56.5898 6.08632C56.3303 6.09596 56.2053 6.39854 56.0285 6.53923L55.6844 6.25785L55.9631 6.06512C56.0956 5.92074 56.1866 5.74311 56.2266 5.55107C56.2665 5.35902 56.2539 5.15972 56.19 4.9743C56.0708 4.58885 55.7267 4.18413 55.3056 4.13017C55.2162 4.10792 55.1227 4.10714 55.0328 4.1279C54.943 4.14866 54.8593 4.19038 54.7885 4.24966C54.7452 4.29965 54.7132 4.35842 54.6946 4.42194C54.6761 4.48546 54.6714 4.55225 54.6809 4.61776C54.6971 4.68264 54.7345 4.74023 54.7871 4.78142C54.8396 4.82261 54.9044 4.84505 54.9711 4.84518C55.1442 4.79121 54.9077 4.70449 54.9711 4.59656C54.9942 4.50983 55.1019 4.49827 55.1884 4.50983C55.2504 4.53504 55.3017 4.58122 55.3333 4.64036C55.3649 4.69951 55.3748 4.76788 55.3614 4.83361C55.335 4.88653 55.2969 4.93266 55.2499 4.96842C55.2029 5.00418 55.1483 5.02861 55.0903 5.03983C54.3214 5.00706 53.5063 4.46165 52.795 4.96274C52.61 5.06131 52.4531 5.2053 52.3387 5.38125C52.2244 5.55719 52.1565 5.75934 52.1413 5.96876C52.1297 6.17032 52.1645 6.37187 52.2432 6.55772C52.3219 6.74357 52.4423 6.90872 52.595 7.04031C53.339 7.6551 54.3733 7.17907 55.1595 6.96515C55.2999 6.93046 55.4844 6.93046 55.544 7.07115C55.2172 7.38529 54.8558 7.71677 54.8327 8.17546C53.735 7.94804 52.8065 7.42961 51.7069 7.19063C51.5781 7.2022 51.5454 7.04031 51.5146 6.96515L51.9241 7.10584L51.9453 7.07115C51.7742 6.74737 51.6338 6.40239 51.4935 6.07861C51.6338 6.08825 51.7415 6.2193 51.878 6.19618V6.13065C51.382 5.59102 51.1878 4.67172 50.3669 4.53296C50.3477 4.36915 50.4438 4.22846 50.4323 4.07813H50.3362L49.5384 4.30555L49.5057 4.27278C49.5832 4.05574 49.6941 3.8522 49.8344 3.66955C49.7691 3.57127 49.9325 3.5173 49.8787 3.39974C49.8248 3.28218 49.673 3.26869 49.5768 3.28989C49.598 2.92371 49.2212 3.32265 49.1654 3.022C49.1265 3.00022 49.0816 2.99146 49.0374 2.99701C48.9931 3.00255 48.9518 3.02211 48.9194 3.05284L48.8213 2.92371C48.7374 2.90553 48.6497 2.9171 48.5733 2.95647C48.5406 2.76375 48.3042 2.64233 48.3907 2.42648C48.4701 2.423 48.5496 2.43013 48.6272 2.44768C48.6387 2.3362 48.6387 2.22382 48.6272 2.11234L48.3446 2.12776V1.8194C48.2234 1.80783 48.1273 1.85023 47.9985 1.8406C47.9985 1.93889 48.0523 2.05645 48.0523 2.16438H47.7601C47.7606 2.27374 47.7716 2.38281 47.7928 2.49008C47.8889 2.49008 47.9851 2.40143 48.0735 2.46695C48.1389 2.69437 47.9658 2.82542 47.9332 3.00851L47.912 2.97575C47.8255 2.96611 47.7505 2.94298 47.6852 3.00851C47.664 3.29952 47.4487 2.92178 47.3411 3.13763C47.3622 3.42865 47.0815 3.09331 47.0066 3.31109C47.0604 3.56934 46.8009 3.37469 46.7259 3.52694C46.6298 3.64643 46.8124 3.75435 46.7586 3.86228C46.9513 4.00798 47.0944 4.20996 47.168 4.44045C46.8778 4.37493 46.5221 4.40769 46.251 4.3094C46.2626 4.48285 46.3914 4.62354 46.3818 4.78543C45.8742 4.91456 45.5513 5.42335 45.4321 5.89938C45.3571 6.15956 45.1187 6.36385 45.1303 6.64522C45.2379 6.65486 45.3225 6.50453 45.4206 6.54693C45.334 6.93238 45.0976 7.26002 45.0649 7.67245C45.1726 7.74761 45.3129 7.50863 45.4494 7.50863C45.3956 7.9307 45.4494 8.3412 45.3206 8.7305C45.4167 8.92323 45.557 8.58018 45.6878 8.60138C45.7032 8.74873 45.7032 8.8973 45.6878 9.04465C44.7708 9.08705 43.9576 9.38962 43.0675 9.51875C42.733 9.6498 42.7215 10.0507 42.6042 10.3301C42.5388 10.5787 42.906 10.5575 42.8407 10.7946C41.4065 10.8061 40.0378 10.6019 38.669 10.4708C39.2791 10.9343 39.9274 11.345 40.6068 11.6985V11.7312C39.8751 12.0284 39.1211 12.2668 38.3518 12.4443C40.2999 12.7425 42.27 12.8714 44.2402 12.8298C44.9782 12.8241 45.7143 12.7518 46.4394 12.6139C46.6009 12.506 46.4837 12.2786 46.5586 12.1494C48.8117 12.4405 51.0532 13.2499 53.4486 12.7546C53.7716 12.7546 53.5889 12.3691 53.6639 12.2342C54.7635 12.2574 55.7786 12.7218 56.8974 12.5156C56.9751 12.6407 57.0892 12.7388 57.2243 12.7967C57.3595 12.8547 57.5091 12.8695 57.6529 12.8394C58.1701 12.7642 58.4507 11.9856 59.0659 12.2786C59.6994 12.6889 60.4248 12.9346 61.1767 12.9936L60.8653 12.6621C59.897 12.4996 59.0176 11.9977 58.3839 11.246C57.7502 10.4942 57.4033 9.54131 57.4049 8.55705V8.56283Z" fill="#A1A1AA"/>
<path d="M50.7957 11.5137V11.3961L50.2074 11.2978V11.4385H50.2632V11.9589C50.219 12.0456 50.1171 12.0456 50.0152 12.0456C49.7922 12.0456 49.8749 11.2458 49.8749 11.2458L49.3462 11.186V11.3132C49.3789 11.3227 49.411 11.3343 49.4423 11.3479C49.4635 11.6177 49.3789 11.9261 49.6346 12.1034C49.7317 12.1667 49.8431 12.2047 49.9586 12.2138C50.0741 12.2229 50.1901 12.2028 50.2959 12.1554C50.3227 12.1787 50.3472 12.2045 50.3689 12.2325L50.7765 12.2884V12.1554L50.6977 12.1362V11.5098L50.7919 11.5194" fill="#A1A1AA"/>
<path d="M48.8964 11.779C48.7913 11.7948 48.6844 11.7948 48.5792 11.779V11.5034C48.625 11.5096 48.6685 11.5268 48.7061 11.5535C48.7523 11.6056 48.7888 11.6769 48.8811 11.6441C48.8676 11.6441 48.8811 11.3396 48.8811 11.3338C48.8811 11.3281 48.7657 11.3184 48.7542 11.3743C48.6914 11.3923 48.6248 11.3923 48.5619 11.3743V11.1392C48.5619 11.1392 48.8772 11.1392 48.9733 11.2683C49.0045 11.3242 49.0265 11.3847 49.0387 11.4476H49.1886L49.1444 11.1161L48.0583 10.9233V11.0448L48.1736 11.0814V11.7097L48.0525 11.6904V11.8214L49.106 12.0142L49.2233 11.6904L49.0829 11.6364C49.0377 11.7037 48.9692 11.7518 48.8907 11.7713" fill="#A1A1AA"/>
<path d="M54.2291 10.7734V11.1588H54.3003C54.3326 11.1016 54.3773 11.0522 54.431 11.0143C54.4914 11.0034 54.5532 11.0034 54.6136 11.0143V11.6503H54.4829V11.7582L55.0961 11.8661V11.764L54.9866 11.6985V11.0605C54.9866 11.0605 55.1038 11.0779 55.1365 11.1184C55.1835 11.1848 55.2272 11.2537 55.2672 11.3246H55.3691V10.9623L54.2349 10.7695" fill="#A1A1AA"/>
<path d="M53.8311 11.4713C53.7186 11.5215 53.591 11.5256 53.4755 11.4829V11.269C53.4755 11.269 53.6677 11.2324 53.6677 11.3268H53.76V11.055H53.6792C53.6609 11.0939 53.6293 11.1249 53.5902 11.1425C53.5511 11.1602 53.507 11.1633 53.4659 11.1514V10.897C53.5132 10.8719 53.566 10.8587 53.6196 10.8587C53.6733 10.8587 53.7261 10.8719 53.7734 10.897C53.8386 10.9482 53.8907 11.0143 53.9253 11.0897H54.031L53.9657 10.7544H52.9103V10.897L53.0295 10.9182V11.5234L52.9218 11.5677V11.6679H53.9638L54.0483 11.3962L53.908 11.3769C53.8847 11.4097 53.8561 11.4383 53.8234 11.4617" fill="#A1A1AA"/>
<path d="M47.2257 10.8775L47.3507 10.9411V11.5597C47.318 11.5809 47.2257 11.5597 47.2257 11.5597L47.2103 11.6734C47.2103 11.6734 47.8659 11.8026 47.8659 11.7949V11.6734L47.764 11.6426V10.9931H47.8832V10.8968L47.2295 10.7715V10.8852" fill="#A1A1AA"/>
<path d="M55.696 9.64393L55.621 9.49167L54.0043 9.19873L54.0696 9.29702C54.6032 9.44991 55.1466 9.56582 55.696 9.64393" fill="#A1A1AA"/>
<path d="M55.7173 9.97955L55.8153 9.85042C55.0829 9.73093 54.3485 9.6018 53.6372 9.43799L53.7026 9.52471C54.3604 9.73185 55.0343 9.88398 55.7173 9.97955" fill="#A1A1AA"/>
<path d="M55.5766 9.299C55.567 9.24504 55.5881 9.15832 55.5247 9.13712C55.1248 9.08123 54.6923 9.03883 54.327 8.98486L54.3809 9.05039C54.7721 9.1655 55.172 9.24864 55.5766 9.299" fill="#A1A1AA"/>
<path d="M62.7551 4.88938C61.9237 5.09558 61.0546 5.09558 60.2232 4.88938V4.65811C60.9249 4.36517 62.0438 4.37288 62.7531 4.6215V4.8836L62.7551 4.88938ZM59.9925 4.42106L59.9233 4.44612C60.1156 4.61764 59.9233 4.89902 60.1502 5.05127C61.0093 5.27969 61.9134 5.2757 62.7704 5.03971C63.0607 4.92022 62.782 4.56946 62.9992 4.39601C62.0245 4.05426 60.9615 4.06312 59.9925 4.42106V4.42106Z" fill="#A1A1AA"/>
<path d="M60.4596 2.84274C60.3173 2.92561 60.325 2.98729 60.3173 3.03547C60.3096 3.08365 60.4096 3.22819 60.4096 3.22819C60.4096 3.22819 60.2616 3.18772 60.2174 3.22819C60.1078 3.32455 60.1443 3.40357 60.1539 3.51921C60.1539 3.58666 60.2058 3.6175 60.2501 3.6599C60.3135 3.59822 60.3443 3.58088 60.4884 3.5751C60.5003 3.61191 60.5047 3.65072 60.5015 3.68927C60.4982 3.72782 60.4873 3.76533 60.4694 3.79961C60.4515 3.83388 60.427 3.86424 60.3972 3.88889C60.3675 3.91355 60.3331 3.93201 60.2962 3.9432C60.104 4.00487 60.0155 3.90466 59.9482 3.76782C60.0028 3.72381 60.0705 3.69939 60.1405 3.69844L59.9598 3.31299L59.7541 3.48452L59.6868 3.37274L59.6618 3.24939C59.906 3.06761 60.1763 2.924 60.4634 2.82347L60.4596 2.84274ZM62.4801 2.82347C62.2417 2.82347 62.2167 3.0162 62.2551 3.16074C62.2013 3.12798 62.086 3.04896 61.9975 3.11834C61.8745 3.21277 61.9072 3.39201 61.9495 3.50379C61.9846 3.47443 62.0274 3.45589 62.0728 3.45041C62.1181 3.44494 62.1641 3.45277 62.2052 3.47295C62.2055 3.51301 62.1976 3.55271 62.1819 3.58956C62.1663 3.62641 62.1432 3.65963 62.1142 3.68713C62.0851 3.71463 62.0507 3.73582 62.0131 3.74937C61.9755 3.76292 61.9355 3.76855 61.8956 3.76589C61.8582 3.77029 61.8203 3.7656 61.7851 3.7522C61.7499 3.73881 61.7184 3.71711 61.6933 3.68894C61.6683 3.66078 61.6503 3.62697 61.641 3.59038C61.6317 3.55379 61.6314 3.5155 61.64 3.47873C61.7058 3.47291 61.772 3.4842 61.8322 3.5115C61.788 3.3605 61.788 3.19995 61.8322 3.04896H61.64L61.6899 2.80613H61.192L61.2363 3.05474H61.044C61.0841 3.12127 61.1089 3.19594 61.1165 3.27329C61.1242 3.35064 61.1145 3.42873 61.0882 3.50186C61.1531 3.50357 61.2179 3.49578 61.2805 3.47873C61.2882 3.51613 61.2879 3.55473 61.2796 3.592C61.2713 3.62927 61.2553 3.66435 61.2324 3.69493C61.2096 3.72551 61.1806 3.75088 61.1473 3.76938C61.114 3.78788 61.0771 3.79908 61.0392 3.80224C61.0012 3.8054 60.963 3.80045 60.9271 3.78771C60.8912 3.77497 60.8584 3.75474 60.8309 3.72835C60.8034 3.70197 60.7817 3.67002 60.7674 3.63463C60.7532 3.59924 60.7465 3.56121 60.748 3.52306C60.779 3.50652 60.8137 3.49788 60.8489 3.49788C60.8841 3.49788 60.9187 3.50652 60.9498 3.52306C60.9701 3.50661 60.9864 3.48573 60.9973 3.46201C61.0083 3.4383 61.0138 3.41237 61.0133 3.38623C60.996 3.27637 60.9998 3.16845 60.8883 3.12798C60.8207 3.11896 60.7522 3.13545 60.6961 3.17423C60.7047 3.10078 60.7001 3.02637 60.6826 2.95452C60.6633 2.9189 60.6358 2.88843 60.6023 2.86563C60.5689 2.84283 60.5305 2.82838 60.4904 2.82347C61.044 2.65002 61.8726 2.59413 62.4762 2.84274L62.4801 2.82347ZM63.2144 3.20892L63.151 3.4267C63.0935 3.38277 63.0389 3.33513 62.9876 3.28408L62.7953 3.65219C62.8549 3.66375 62.9434 3.6676 62.9876 3.73313C62.9592 3.80423 62.9047 3.86177 62.8354 3.89401C62.7661 3.92624 62.6871 3.93074 62.6146 3.90658C62.4224 3.82949 62.4531 3.6888 62.4839 3.5327C62.5954 3.5327 62.6396 3.55775 62.6761 3.61364C62.7338 3.55775 62.8569 3.44597 62.8011 3.29565C62.7723 3.21856 62.6223 3.19928 62.557 3.22048C62.5827 3.19337 62.6019 3.16078 62.6133 3.12516C62.6247 3.08953 62.628 3.05179 62.6228 3.01474C62.6176 2.97769 62.6042 2.94229 62.5835 2.91117C62.5627 2.88006 62.5353 2.85403 62.5031 2.83503C62.7566 2.92954 62.9949 3.06069 63.2106 3.22434L63.2144 3.20892ZM59.3119 3.30143L59.2677 3.34961C59.5313 3.60354 59.7343 3.91382 59.8617 4.25734C60.8325 3.9008 62.1379 3.87189 63.0856 4.23614C63.1537 4.03892 63.244 3.85012 63.3548 3.67339C63.4422 3.54669 63.54 3.42744 63.647 3.31685L63.5874 3.27059C63.6308 3.2342 63.6628 3.18602 63.6796 3.13183C63.6912 3.0027 63.7219 2.87358 63.6354 2.79842C63.5824 2.77117 63.5243 2.75506 63.4648 2.75108C63.4053 2.74711 63.3456 2.75534 63.2894 2.77529C63.2934 2.6882 63.263 2.60303 63.2048 2.53824C63.0952 2.42068 62.9241 2.51704 62.8203 2.5498C62.8193 2.50886 62.8093 2.46864 62.791 2.43201C62.7727 2.39537 62.7466 2.36321 62.7146 2.3378C62.6584 2.31635 62.5974 2.31093 62.5384 2.32216C62.4793 2.33339 62.4245 2.36082 62.3801 2.4014C62.3471 2.32476 62.2994 2.25535 62.2398 2.19712C62.1321 2.11039 61.9706 2.18555 61.8956 2.24144L61.8284 2.02945L61.6976 1.74229L61.6553 1.46091L62.0398 1.55534V1.0292L61.6553 1.12749L61.7284 0.585938H61.1517L61.2266 1.12749L60.8172 1.0292V1.5592L61.2266 1.46476L61.1767 1.77698L61.0748 2.04872L61.0229 2.26264C60.9876 2.23145 60.9465 2.2077 60.9019 2.1928C60.8573 2.1779 60.8102 2.17215 60.7633 2.17592C60.6345 2.17592 60.5903 2.3166 60.548 2.4014C60.5107 2.36701 60.4659 2.3418 60.4172 2.32775C60.3685 2.3137 60.3172 2.31121 60.2674 2.32046C60.1386 2.35322 60.0943 2.49391 60.052 2.59027L59.9771 2.53631C59.8579 2.51511 59.7079 2.51511 59.6541 2.64424C59.5887 2.68856 59.6964 2.88322 59.5657 2.83696C59.5084 2.80783 59.4422 2.80157 59.3804 2.81946C59.3187 2.83734 59.2661 2.87804 59.2331 2.93332C59.1945 2.99481 59.1808 3.06872 59.1948 3.13998C59.2087 3.21125 59.2492 3.2745 59.3081 3.31685L59.3119 3.30143Z" fill="#A1A1AA"/>
<path d="M60.5596 4.89917L60.9152 4.9512L60.9806 4.9088C61.3266 4.86635 61.6765 4.86635 62.0225 4.9088L62.0648 4.96662L62.3897 4.90302C61.7922 4.72764 61.1571 4.72764 60.5596 4.90302" fill="#A1A1AA"/>
<path d="M50.64 10.415C51.0328 10.4175 51.4253 10.3924 51.8146 10.3398C52.0953 10.2107 52.0837 9.80022 52.0203 9.54004C51.9895 9.54467 51.96 9.55584 51.9338 9.5728C51.8684 9.77902 51.9665 10.07 51.7416 10.1895L50.6535 10.3186L50.6323 10.415" fill="#A1A1AA"/>
<path d="M55.5766 10.2936C55.6208 10.2512 55.6093 10.1856 55.6304 10.1413C54.9559 10.0474 54.2867 9.91873 53.6254 9.75586C53.627 9.77374 53.633 9.79096 53.6427 9.80606C53.6524 9.82115 53.6656 9.83368 53.6811 9.84258C54.3 10.0414 54.9339 10.1896 55.5766 10.2859" fill="#A1A1AA"/>
<path d="M69.9257 11.5598C69.9257 11.5598 70.1833 11.5598 70.2525 11.5598V11.4576H70.168V11.0279L70.7159 11.633H70.8677V10.839H70.9427V10.7176H70.6447V10.8313H70.7274V11.0741L70.3429 10.7021H69.8162L69.8277 10.8004H70.0199V11.4364H69.9411L69.9315 11.5482" fill="#A1A1AA"/>
<path d="M69.2395 11.5366C69.1126 11.5597 69.0376 11.4287 69.0203 11.2225C69.003 11.0162 68.905 10.7869 69.1414 10.7696C69.3183 10.7561 69.3145 10.9623 69.3337 11.1203C69.3625 11.313 69.3721 11.5058 69.2356 11.5366H69.2395ZM69.203 10.6713C69.1169 10.6712 69.0316 10.6882 68.9521 10.7213C68.8726 10.7544 68.8004 10.8029 68.7397 10.864C68.6812 10.9178 68.6391 10.987 68.618 11.0637C68.5969 11.1403 68.5978 11.2214 68.6205 11.2976C68.6619 11.4317 68.7545 11.5439 68.8781 11.6098C69.08 11.6754 69.2989 11.6644 69.4932 11.579C69.6004 11.5196 69.6818 11.4225 69.7215 11.3064C69.7613 11.1903 69.7567 11.0636 69.7086 10.9507C69.661 10.8603 69.5883 10.7858 69.4992 10.7361C69.4101 10.6865 69.3085 10.664 69.2068 10.6713H69.203Z" fill="#A1A1AA"/>
<path d="M71.8575 10.164C71.8056 10.164 71.7498 10.164 71.7402 10.216C71.7825 10.3895 71.696 10.6593 71.8575 10.7942C72.297 10.8518 72.7235 10.9841 73.1186 11.1855C73.1513 11.2067 73.2609 11.2413 73.2493 11.1527C72.8957 10.8929 72.4849 10.7224 72.0517 10.6555C71.8248 10.5919 71.9978 10.2893 71.8594 10.1602" fill="#A1A1AA"/>
<path d="M79.7609 12.1627C79.9243 12.1088 80.1934 12.076 80.3376 11.8929C80.328 11.5691 80.2088 11.255 80.2203 10.9197C81.1258 10.8985 82.0312 10.8117 82.9252 10.7366C82.483 11.0603 81.964 11.2454 81.4603 11.4709C81.8582 11.731 82.3984 11.8563 82.8713 12.0336C81.8428 12.1746 80.8033 12.2179 79.7666 12.1627H79.7609ZM78.7112 12.0876C78.6997 11.9565 78.6036 11.7734 78.6901 11.7021C79.162 11.6352 79.6426 11.668 80.1011 11.7985C80.0685 11.9392 79.8858 11.8968 79.7897 11.9604C79.4398 12.0105 79.0707 12.0664 78.7055 12.0876H78.7112ZM75.52 12.1839C75.52 11.8274 76.0141 11.9912 76.1236 11.6771C76.147 11.5892 76.1513 11.4973 76.1364 11.4075C76.1215 11.3178 76.0876 11.2323 76.0371 11.1567C75.7122 10.8117 75.2393 11.1143 74.851 11.1259L74.6588 10.9948C76.3197 10.8021 77.7962 10.0871 79.5648 10.2239C79.6523 10.2347 79.7367 10.2634 79.8127 10.3082C79.8888 10.3529 79.9549 10.4128 80.0069 10.4841C80.009 10.8509 80.045 11.2167 80.1146 11.5769C78.4786 11.2666 77.0118 11.8814 75.5142 12.1839H75.52ZM75.3143 11.201C75.366 11.181 75.4219 11.1746 75.4767 11.1824C75.5316 11.1901 75.5835 11.2118 75.6277 11.2454C75.7776 11.3745 75.8526 11.7407 75.6161 11.839C75.6104 11.839 75.3201 11.2049 75.3085 11.201H75.3143ZM74.7376 10.6055H74.8029V10.6171H74.7376V10.6055ZM75.0183 12.4113C74.7376 12.5636 74.4415 12.4113 74.1436 12.3901C73.7591 12.3362 73.3342 12.2707 72.9805 12.4441C72.6935 12.3303 72.4217 12.1815 72.1711 12.0008C72.3 11.7522 72.6133 11.7407 72.8824 11.7195C73.2669 11.839 73.5726 12.1531 74.0474 12.0336C74.0988 12.0441 74.1522 12.0368 74.199 12.013C74.2457 11.9892 74.2831 11.9503 74.305 11.9026C74.1762 11.6983 73.9206 11.7098 73.7283 11.6443C72.9863 11.4824 72.3826 10.9948 71.5617 11.0276C71.3137 10.7462 71.4983 10.3145 71.4656 9.95797C71.5194 9.8828 71.6925 9.79608 71.606 9.68815C71.5733 9.62262 71.4848 9.64575 71.4425 9.66695L71.0888 9.89244C71.1051 9.99956 71.1121 10.1079 71.11 10.2162C70.8478 10.1492 70.5801 10.106 70.3102 10.0871C70.2372 9.8616 70.5602 10.0447 70.539 9.83848L70.6025 9.01747C70.5909 8.85558 70.3333 8.89798 70.4621 8.71489C70.539 8.72645 70.6544 8.79005 70.7101 8.71489L71.1734 7.95748C71.1784 7.91942 71.1719 7.88073 71.1547 7.8464C71.1376 7.81206 71.1106 7.78363 71.0773 7.76476L71.1849 7.6472C71.3022 7.85148 71.5291 7.6472 71.7021 7.6472C71.8751 7.52963 72.2961 7.67032 72.2519 7.32342V7.28102L72.4441 7.24826C72.4441 7.40051 72.423 7.61443 72.3038 7.70116C72.025 7.8033 71.5925 7.72621 71.3272 7.85727L71.0965 8.26392C71.6905 8.11359 72.3788 8.12323 72.9632 7.92857C73.5649 8.16755 74.1916 8.3622 74.7626 8.69947C74.5473 8.99049 74.6665 9.34896 74.7087 9.69393C74.6651 10.0695 74.4801 10.4141 74.1916 10.6576C73.9436 10.4186 74.3627 10.2471 74.3839 10.0081C74.4377 9.86738 74.4915 9.62262 74.3512 9.51084C74.1359 9.52241 74.2954 9.79222 74.1993 9.89629C74.1009 10.0592 74.0148 10.2293 73.9417 10.4051C73.8034 10.349 73.6863 10.2505 73.6072 10.1237C73.5418 9.98302 73.7994 9.82113 73.5957 9.72284C73.39 9.88666 73.2112 10.1237 72.9613 10.2104C72.9286 10.2432 72.9055 10.2856 72.9286 10.3184C73.0785 10.4918 73.2631 10.2432 73.413 10.4378C73.9725 10.8696 74.5011 11.388 75.1278 11.6694C75.3182 11.9353 75.1144 12.1955 75.0183 12.4113ZM71.5021 11.4824C71.5021 11.3745 71.6213 11.3514 71.6944 11.3302C72.05 11.2762 72.298 11.4709 72.5902 11.5691C72.3687 11.6097 72.1611 11.7059 71.9866 11.8486C71.8856 11.823 71.7907 11.7774 71.7075 11.7145C71.6243 11.6516 71.5545 11.5727 71.5021 11.4824V11.4824ZM71.2215 12.4229C71.2964 12.3689 71.4272 12.3246 71.4714 12.2167L71.4599 11.9565C71.5607 12.0622 71.6986 12.1244 71.8443 12.13C71.8443 12.2495 71.9847 12.3458 72.0596 12.3901L71.2215 12.4229ZM69.9065 12.3246L69.8642 11.9796C70.3265 11.9365 70.7923 12.0066 71.2215 12.1839L71.2119 12.2283C70.7866 12.3422 70.3438 12.3749 69.9065 12.3246V12.3246ZM66.4885 12.0336C66.6535 11.7449 66.8566 11.4798 67.0921 11.2454C67.124 11.2723 67.1536 11.302 67.1805 11.334V11.7638H67.0998V11.8698H67.4228V11.7754L67.3286 11.7638V11.5036L67.6515 11.8486L67.9649 11.3783L68.011 11.6771C67.9786 11.6892 67.9452 11.6983 67.9111 11.7041C67.9038 11.7448 67.9038 11.7866 67.9111 11.8274L68.4993 11.7252L68.482 11.5711C68.4486 11.5807 68.4146 11.5878 68.3801 11.5923L68.2955 11.0141L68.3994 10.9871L68.3801 10.831L67.9956 10.8965L67.7726 11.3783L67.3766 10.9563H67.2767L67.3401 10.7944C68.5166 10.6653 69.7566 10.2548 70.9735 10.6017C71.0635 10.6389 71.1354 10.7103 71.1734 10.8002C71.2926 11.0661 71.1119 11.4863 71.2195 11.7773C71.2385 11.829 71.2457 11.8843 71.2407 11.9392C69.6355 11.3629 68.1168 12.315 66.4885 12.0336ZM66.2405 11.7407C66.1657 11.5054 66.005 11.3071 65.7906 11.1856C65.6839 11.1431 65.5697 11.123 65.4549 11.1266C65.3401 11.1303 65.2273 11.1576 65.1236 11.2068C65.4792 10.7096 65.7503 9.75753 66.5788 9.98495C66.6775 10.0224 66.7649 10.0848 66.8323 10.1663C66.8997 10.2477 66.9448 10.3452 66.9633 10.4494C67.0825 11.0276 66.3674 11.2666 66.2405 11.7407V11.7407ZM65.9271 12.2822C65.8704 12.3497 65.7964 12.4005 65.7131 12.429C65.6298 12.4575 65.5403 12.4628 65.4542 12.4441C65.3913 12.4203 65.3345 12.3826 65.2879 12.3339C65.2413 12.2853 65.2062 12.2268 65.1851 12.1627C65.1698 12.1136 65.1722 12.0606 65.1918 12.0131C65.2115 11.9655 65.2472 11.9264 65.2927 11.9026C65.3562 11.9026 65.4331 11.9141 65.4427 11.9796C65.4523 12.0452 65.335 12.1415 65.4542 12.1839C65.5292 12.1955 65.5945 12.1088 65.6042 12.0432C65.6151 11.9765 65.6029 11.908 65.5697 11.8491C65.5365 11.7902 65.4842 11.7445 65.4215 11.7195C65.3656 11.702 65.306 11.6998 65.2489 11.713C65.1919 11.7262 65.1393 11.7544 65.0966 11.7946C64.9909 11.8717 65.0005 12.0008 64.9909 12.1088C64.8396 11.9764 64.6458 11.9032 64.4449 11.9026C64.8006 11.5903 65.1562 11.2107 65.6638 11.3244C65.7593 11.3626 65.8437 11.4243 65.9092 11.5038C65.9747 11.5832 66.0192 11.678 66.0386 11.7792C66.0617 11.9548 66.0222 12.133 65.9271 12.2822V12.2822ZM65.6426 6.91677C65.6331 6.82513 65.6456 6.73254 65.6791 6.64672C65.7125 6.56089 65.7659 6.48433 65.8349 6.4234C65.8923 6.36391 65.9662 6.32297 66.047 6.3058C66.1278 6.28864 66.2119 6.29603 66.2885 6.32703L67.3439 7.41785C67.1927 7.38058 67.0338 7.38906 66.8874 7.44223C66.741 7.49539 66.6135 7.59086 66.5212 7.71658C66.1367 8.19261 66.5981 8.95965 66.1886 9.43568L65.8041 9.80379C66.0816 8.8513 66.0246 7.83217 65.6426 6.91677ZM65.508 6.28271C65.1947 6.17478 65.0947 5.93002 64.8467 5.61973C64.978 5.59916 65.1022 5.54633 65.2082 5.46596C65.3142 5.38559 65.3987 5.28018 65.4542 5.15912C65.4542 5.1148 65.4869 5.0936 65.4869 5.0512C65.7676 5.33257 66.3481 5.67755 65.9713 6.13045C65.9153 6.19579 65.8425 6.24452 65.7609 6.27136C65.6792 6.29819 65.5918 6.30212 65.508 6.28271V6.28271ZM69.993 6.34823C70.0955 6.2751 70.1751 6.17437 70.2227 6.05771C70.2704 5.94105 70.2841 5.81325 70.2622 5.68911C70.2853 5.47326 70.0469 5.33257 69.9277 5.21308C69.1741 4.90858 68.4609 5.4829 67.6861 5.35377C67.6024 5.31533 67.5309 5.25454 67.4794 5.17805C67.4278 5.10157 67.3983 5.01234 67.3939 4.92014V4.88931C67.4389 4.97133 67.5044 5.04022 67.5839 5.08921C67.6634 5.13821 67.7543 5.16562 67.8476 5.16876C68.6877 5.1148 69.8739 4.42291 70.489 5.34221C70.6078 5.56569 70.634 5.82704 70.5621 6.06976C70.4901 6.31248 70.3258 6.51705 70.1045 6.63925C69.0914 7.13648 68.1206 5.95893 67.1729 6.70477L67.0421 6.59685C67.8803 5.67755 69.0011 6.84546 69.993 6.34823V6.34823ZM69.8739 6.08805C69.8854 6.18634 69.7662 6.28078 69.6816 6.29427C69.2164 6.35787 68.7742 6.21911 68.3359 6.12082C68.7973 6.02446 69.2606 5.8298 69.747 5.92809C69.7794 5.94259 69.8078 5.9647 69.8299 5.99254C69.852 6.02038 69.8671 6.05314 69.8739 6.08805V6.08805ZM66.9095 5.54843V5.51566C67.7938 6.19598 68.7646 5.40774 69.7124 5.49446C69.7685 5.50757 69.8215 5.53175 69.8683 5.5656C69.915 5.59945 69.9546 5.64228 69.9846 5.69161C70.0147 5.74094 70.0347 5.79578 70.0434 5.85292C70.0521 5.91007 70.0493 5.96838 70.0353 6.02446C70.012 5.95341 69.9713 5.88937 69.9169 5.83819C69.8625 5.78701 69.7961 5.75033 69.7239 5.73151C68.7742 5.61202 67.5996 6.57372 66.9095 5.54843V5.54843ZM67.5881 7.6684C67.7046 7.7596 67.791 7.88383 67.8361 8.02494C67.8467 8.10294 67.8375 8.18237 67.8093 8.25584C67.781 8.3293 67.7347 8.3944 67.6746 8.44508C67.6258 8.49528 67.5634 8.5302 67.4952 8.5456C67.4269 8.56099 67.3557 8.5562 67.2901 8.5318C67.2446 8.5116 67.2039 8.4819 67.1708 8.44468C67.1376 8.40745 67.1128 8.36357 67.0979 8.31595C67.0907 8.27629 67.0975 8.23536 67.1171 8.20019C67.1368 8.16502 67.168 8.13781 67.2055 8.12323C67.4093 8.06926 67.2382 8.447 67.4535 8.29668C67.4718 8.25271 67.4784 8.20474 67.4727 8.15745C67.4669 8.11016 67.4491 8.06517 67.4208 8.02686C67.3797 7.98487 67.3269 7.95618 67.2694 7.9445C67.2118 7.93283 67.1521 7.93869 67.0979 7.96134C66.7538 8.19839 67.0652 8.62046 66.9902 8.977C66.9665 9.23451 66.8421 9.47216 66.6442 9.63804C66.5152 9.5937 66.3752 9.5937 66.2462 9.63804C66.6019 9.25259 66.5692 8.65322 66.5481 8.13479C66.5797 7.94997 66.68 7.78403 66.8287 7.67032C66.947 7.61159 67.0774 7.58168 67.2093 7.58302C67.3413 7.58436 67.4711 7.61691 67.5881 7.67803V7.6684ZM70.1007 9.11576L70.3179 9.12732L70.2718 9.67851L70.0584 9.65731L70.1007 9.11576ZM70.4044 8.27162C70.5121 8.1425 70.5563 7.98061 70.664 7.84956L70.837 7.95748C70.7635 8.12521 70.6726 8.28476 70.5659 8.43351C70.5102 8.39111 70.3275 8.36991 70.4044 8.27162ZM71.8924 7.11528C71.9578 7.13648 71.9347 7.2444 71.9578 7.308C71.7885 7.37802 71.6107 7.42533 71.4291 7.44869C71.3973 7.38083 71.3859 7.30515 71.3964 7.23091L71.8924 7.11528ZM73.4995 7.45062C73.5171 7.4632 73.5374 7.4713 73.5588 7.47423C73.5801 7.47716 73.6019 7.47482 73.6222 7.46742C73.6424 7.46001 73.6606 7.44777 73.6751 7.43174C73.6895 7.41572 73.6999 7.3964 73.7052 7.37546C73.661 7.04975 73.9513 6.79728 74.0167 6.47736C74.1177 6.47603 74.2169 6.45025 74.3058 6.4022C74.3947 6.35416 74.4707 6.28527 74.5274 6.20142C74.584 6.11757 74.6196 6.02124 74.6311 5.92063C74.6426 5.82001 74.6297 5.71811 74.5934 5.62359C74.5626 5.59082 74.5069 5.53686 74.4742 5.60046C74.4435 5.79319 74.3666 6.02446 74.1512 6.07842C73.8187 6.19598 73.4399 6.07842 73.1054 6.02446C72.794 6.09962 72.448 6.08805 72.2211 6.35787C72.1721 6.38933 72.1143 6.40424 72.0562 6.40043C71.9981 6.39661 71.9427 6.37427 71.8982 6.33667C71.8443 6.29427 71.779 6.20754 71.8655 6.16514C71.9731 6.08805 72.1673 6.17478 72.25 6.03409C72.2558 5.97755 72.2417 5.92073 72.2101 5.87354C72.1785 5.82635 72.1314 5.79178 72.077 5.77584C71.8616 5.64479 71.5387 6.14202 71.5483 5.68911L71.5925 5.38654C71.6435 5.42269 71.7018 5.44713 71.7632 5.45812C71.8247 5.46911 71.8878 5.46639 71.9481 5.45014C72.0135 5.42894 72.077 5.35377 72.0462 5.28825C71.9481 5.10516 71.8193 5.29981 71.6905 5.28825C71.7117 5.14756 71.8943 5.13792 72.002 5.08396C72.4299 5.04256 72.8282 4.84667 73.1228 4.53277C73.4034 4.44604 73.7264 4.67153 73.9859 4.4788C74.0884 4.23705 74.2711 4.03824 74.503 3.91605C74.5357 4.18586 74.6664 4.53277 74.4396 4.75825C74.4597 4.78912 74.491 4.81098 74.5268 4.81925C74.5627 4.82751 74.6003 4.82154 74.6318 4.80258C74.7087 4.75825 74.7087 4.67153 74.7414 4.59637C75.4969 5.0512 75.7661 5.88377 75.6257 6.73754C75.5362 7.14109 75.3913 7.53025 75.1951 7.89388C75.1836 7.89388 75.1182 7.7744 75.0432 7.78596C75.0653 7.73848 75.0728 7.68553 75.065 7.63376C75.0571 7.58199 75.0342 7.5337 74.999 7.49494C74.8375 7.49494 74.7856 7.732 74.6011 7.65491C74.5756 7.67638 74.5548 7.70285 74.54 7.73268C74.5251 7.7625 74.5165 7.79506 74.5146 7.82836C74.5473 7.87076 74.6011 7.84956 74.6318 7.90352C74.6434 8.00181 74.5588 8.05577 74.4819 8.07697C74.4238 8.08457 74.365 8.07133 74.3157 8.03958C74.2664 8.00783 74.23 7.95964 74.2128 7.90352C74.2012 7.84956 74.1801 7.7532 74.2243 7.72043C74.2973 7.74356 74.4281 7.89388 74.4492 7.72043C74.4492 7.61251 74.6549 7.49494 74.4819 7.41785L74.3531 7.38509C74.3742 7.31956 74.4608 7.28873 74.4492 7.19237C74.3398 7.11818 74.2148 7.07006 74.084 7.05168C74.0301 7.096 74.0513 7.1596 74.0513 7.2232C73.9744 7.25597 73.9436 7.1384 73.859 7.1596C73.8061 7.27459 73.763 7.39387 73.7302 7.51614L73.9225 7.58167C73.8895 7.63606 73.8413 7.6795 73.7839 7.70658C73.7264 7.73366 73.6623 7.74317 73.5995 7.73392C73.5341 7.6896 73.438 7.65683 73.4073 7.57011C73.4048 7.55624 73.4052 7.54202 73.4085 7.52833C73.4118 7.51464 73.4179 7.50179 73.4264 7.49057C73.4349 7.47935 73.4456 7.47 73.4578 7.46313C73.4701 7.45626 73.4836 7.452 73.4976 7.45062H73.4995ZM74.0148 3.47664C74.1776 3.2737 74.3884 3.11471 74.628 3.0141C74.628 3.41304 74.305 3.70405 73.9917 3.91027C73.8859 3.79656 73.9705 3.61347 74.0148 3.47664ZM75.5354 3.22802C75.5354 3.64045 75.0932 3.86594 74.974 4.23404C74.8875 4.21284 74.8779 4.10492 74.8452 4.04132C74.7914 3.61347 75.2336 3.40725 75.5354 3.2338V3.22802ZM76.2909 3.74838C76.2025 4.23404 75.643 4.26681 75.4047 4.63491C75.3085 4.63491 75.3182 4.52699 75.2874 4.47302C75.3739 3.99121 75.9237 3.91605 76.2909 3.75416V3.74838ZM76.9791 4.56938C76.635 4.88353 76.1275 4.92593 75.6969 5.02421C75.6315 4.99145 75.6642 4.89316 75.6757 4.83149C75.9987 4.5212 76.5158 4.60793 76.9791 4.57517V4.56938ZM77.2483 5.40388C76.9138 5.64093 76.3755 5.58697 75.9545 5.54457C75.8699 5.51181 75.891 5.41352 75.9545 5.35185C76.3639 5.10516 76.8388 5.34221 77.2483 5.40388ZM77.304 6.19213C76.9042 6.30005 76.312 6.35401 76.0198 6.03024C76.0083 5.95507 76.0852 5.92231 76.1371 5.88955C76.5415 5.91897 76.9371 6.02285 77.304 6.19598V6.19213ZM77.1329 6.94568C76.9326 7.012 76.7168 7.01543 76.5145 6.9555C76.3121 6.89558 76.1328 6.77516 76.0006 6.61034C75.9979 6.58178 76.0064 6.5533 76.0244 6.53097C76.0424 6.50864 76.0683 6.49424 76.0967 6.49085C76.4947 6.53132 76.7869 6.8127 77.1329 6.94568ZM75.9026 7.26946C75.8814 7.23669 75.9026 7.18273 75.9026 7.14033C75.9356 7.11761 75.9743 7.1045 76.0144 7.10246C76.0544 7.10042 76.0942 7.10952 76.1294 7.12877L76.8196 7.64912C76.6466 7.66766 76.4718 7.64225 76.3112 7.57522C76.1506 7.5082 76.0094 7.40172 75.9006 7.2656L75.9026 7.26946ZM75.6988 7.84763C75.6776 7.77247 75.6334 7.67611 75.6873 7.58938C75.734 7.57779 75.7828 7.57779 75.8295 7.58938L76.3639 8.27162C76.2304 8.24915 76.1026 8.20026 75.9881 8.1278C75.8736 8.05534 75.7746 7.96075 75.6969 7.84956L75.6988 7.84763ZM75.4027 8.39111C75.372 8.31402 75.3931 8.19839 75.4681 8.19839C75.7161 8.27355 75.8026 8.58384 76.0064 8.73802C75.8833 8.74351 75.7612 8.71381 75.6543 8.65239C75.5475 8.59097 75.4602 8.50036 75.4027 8.39111ZM74.974 8.29475C74.9298 8.27355 74.8779 8.27355 74.8452 8.21959C74.8392 8.18947 74.8432 8.15818 74.8568 8.13062C74.8704 8.10307 74.8927 8.08081 74.9202 8.06734C74.974 8.0577 75.0394 8.06734 75.0394 8.13286C75.0394 8.19839 75.0067 8.25042 74.974 8.29475ZM76.4082 9.99266C76.4894 9.98055 76.5723 9.98488 76.6519 10.0054C76.7315 10.0259 76.8061 10.0622 76.8715 10.1121C76.2009 10.3125 75.5175 10.467 74.826 10.5747C75.3508 10.4552 75.8699 10.1642 76.4082 9.99073V9.99266ZM82.3927 11.4631C83.0776 11.0985 83.7275 10.6714 84.3343 10.1873C82.9854 10.3996 81.6223 10.5078 80.2569 10.5111C80.1492 10.4783 80.2357 10.3068 80.1703 10.2297C79.7859 9.67851 78.9419 9.84426 78.3171 9.86353C77.8846 9.8192 77.3675 10.3164 77.0656 9.78644C76.8734 9.61492 76.5927 9.64768 76.3332 9.62455C75.8699 9.73248 75.4489 10.01 74.9875 10.089C75.1278 9.7768 75.0086 9.4087 74.9875 9.07336C74.9971 8.9982 75.0086 8.91147 75.0836 8.88063C75.1624 9.02707 75.2814 9.14777 75.4266 9.22839C75.5718 9.30901 75.737 9.34618 75.9026 9.33546C75.9141 9.21598 75.7315 9.12925 75.7103 9.00976C76.0025 9.14081 76.4024 9.02132 76.6811 9.17358C76.6715 8.9346 76.3582 8.73031 76.2294 8.56649C76.4596 8.56348 76.6897 8.5783 76.9176 8.61082C76.8224 8.33698 76.6597 8.09169 76.4447 7.89774L76.9407 7.9093C77.0925 7.8881 77.2752 7.9093 77.4155 7.8881C77.2928 7.62335 77.0783 7.41237 76.8119 7.29451L77.2848 7.22898C77.4251 7.16539 77.6424 7.23862 77.7712 7.16539C77.553 6.90061 77.2739 6.69294 76.958 6.56023L77.6693 6.36751C77.7673 6.36751 77.9077 6.3887 77.9615 6.34631C77.7493 6.09648 77.4674 5.91594 77.1521 5.82788V5.78933C77.3136 5.7585 77.4328 5.61781 77.5732 5.53108C77.6693 5.46748 77.8211 5.47712 77.8846 5.38076C77.627 5.14178 77.2713 5.09938 76.9368 5.01265V4.97989C77.1521 4.85076 77.3213 4.64455 77.5405 4.51542V4.4788C77.206 4.26103 76.7542 4.26102 76.3428 4.27259C76.4487 4.15243 76.5221 4.00714 76.5562 3.85052C76.61 3.70983 76.7292 3.59227 76.783 3.46507C76.4331 3.4195 76.0774 3.47569 75.7584 3.62696L75.941 2.89268L75.9083 2.87148C75.5523 2.90667 75.2129 3.04009 74.9279 3.25693C74.931 3.0359 74.9713 2.81697 75.0471 2.60938C74.7648 2.64034 74.4926 2.7324 74.2493 2.87919C73.9244 3.05071 73.5803 3.34173 73.6226 3.7426C73.6014 3.7638 73.5361 3.75416 73.5476 3.80812C73.6476 3.90632 73.7118 4.03522 73.7302 4.1743C73.633 4.10908 73.5642 4.00914 73.538 3.89485C73.5073 3.82288 73.4507 3.7651 73.3795 3.73298C73.3083 3.70085 73.2276 3.69672 73.1535 3.7214C73.2383 3.81421 73.2915 3.93164 73.3054 4.05674C73.1131 3.95845 73.1131 3.7426 72.9709 3.61347C72.9322 3.58572 72.8867 3.56909 72.8392 3.56535C72.7918 3.56162 72.7443 3.57092 72.7017 3.59227L72.8421 3.82932L72.819 3.86209C72.6152 3.7638 72.6479 3.53638 72.4634 3.42845C72.4234 3.40201 72.3766 3.38792 72.3288 3.38792C72.2809 3.38792 72.2341 3.40201 72.1942 3.42845C72.248 3.52674 72.3557 3.62118 72.3461 3.73103C72.0981 3.63467 72.0231 3.10468 71.6771 3.28777C71.7521 3.36486 71.8501 3.44002 71.8501 3.53638C71.6329 3.48242 71.6233 3.24537 71.4656 3.13744C71.3791 3.10468 71.2734 3.06228 71.2061 3.11624C71.2393 3.14158 71.2663 3.17421 71.2849 3.21163C71.3036 3.24905 71.3135 3.29026 71.3138 3.33209C71.1638 3.31089 71.1734 3.13937 71.0561 3.07191C71.0239 3.01819 70.9742 2.9772 70.9154 2.9558C70.8566 2.9344 70.7923 2.93389 70.7332 2.95435C70.7639 3.01988 70.8408 3.09311 70.8293 3.15864C70.689 3.09311 70.7005 2.87919 70.5159 2.8445C70.4979 2.84768 70.4807 2.85453 70.4654 2.86461C70.4501 2.87469 70.437 2.88781 70.4269 2.90314C70.4168 2.91848 70.41 2.93572 70.4068 2.9538C70.4036 2.97189 70.4041 2.99044 70.4083 3.00831C70.4499 3.08312 70.5138 3.14306 70.5909 3.17984C70.9139 3.1278 71.0658 3.49398 71.4003 3.41882C71.4659 3.49311 71.5477 3.55124 71.6394 3.58867C71.7311 3.62611 71.8302 3.64185 71.9289 3.63467C71.9956 3.69974 72.0754 3.74974 72.1629 3.78132C72.2504 3.8129 72.3437 3.82533 72.4364 3.81776C72.5864 4.07794 72.9324 3.84089 73.0824 4.12034C73.2016 4.22826 73.4669 4.09914 73.5034 4.28222H73.4707C73.0728 4.07794 72.7806 4.41328 72.4787 4.59637C72.1116 4.75825 71.6367 4.73705 71.358 5.06083C71.3022 5.39617 71.1407 5.79511 71.3349 6.12082C71.3791 6.15358 71.4772 6.16514 71.4329 6.24994L71.8001 6.65081C71.9174 6.74717 72.1019 6.71441 72.2519 6.70477C72.6364 6.4234 73.1804 6.27307 73.6322 6.51205C73.5995 6.66237 73.5572 6.84739 73.3746 6.8975C73.3092 6.9399 73.34 7.09022 73.2112 7.03819C73.092 7.03819 73.0497 7.16731 73.0497 7.26368L73.1689 7.308C73.179 7.31772 73.1871 7.32938 73.1926 7.3423C73.1981 7.35522 73.2009 7.36912 73.2009 7.38316C73.2009 7.39721 73.1981 7.41111 73.1926 7.42403C73.1871 7.43694 73.179 7.44861 73.1689 7.45833C73.1359 7.49409 73.0932 7.51937 73.0461 7.53102C72.9989 7.54267 72.9494 7.54018 72.9036 7.52385C72.8506 7.50496 72.8068 7.46654 72.7811 7.41641C72.7554 7.36629 72.7497 7.30822 72.7652 7.25404C72.8171 7.24247 72.8498 7.3292 72.9036 7.29837C72.894 7.16924 72.969 7.08059 72.969 6.97459L72.8171 6.95146C72.8171 6.8763 72.9151 6.8127 72.894 6.73561C72.7689 6.69916 72.6366 6.69518 72.5095 6.72405L72.4672 6.97459L72.1654 7.00542C72.1096 6.96302 72.1327 6.86666 72.0462 6.84354L71.3234 6.99579C71.1946 6.99579 71.0235 7.10371 71.1081 7.2656C70.9677 7.38509 70.8062 7.78403 70.5794 7.53542C70.3968 7.74163 70.266 8.02108 70.0949 8.2485C70.0777 8.2724 70.0661 8.29996 70.0611 8.32906C70.0561 8.35816 70.0579 8.38801 70.0662 8.41632C70.0746 8.44463 70.0893 8.47063 70.1093 8.49232C70.1293 8.51402 70.154 8.53082 70.1814 8.54144C70.1733 8.65672 70.1362 8.76807 70.0738 8.86522C70.0346 8.85308 69.9926 8.85382 69.9538 8.86735C69.9151 8.88087 69.8817 8.90646 69.8585 8.94038L69.7989 9.83655C69.8316 9.93291 69.9392 9.91171 70.0027 9.95604C69.993 9.99844 70.0257 10.064 69.9834 10.0948C69.0453 10.0736 68.2244 10.3665 67.3305 10.3858C67.2678 10.1633 67.1439 9.96288 66.9729 9.80764C67.2006 9.5533 67.3361 9.22942 67.3574 8.88834C67.4988 8.90437 67.642 8.88289 67.7725 8.82608C67.9031 8.76926 68.0165 8.67909 68.1014 8.56457C68.7146 8.58577 69.3933 8.65129 69.9969 8.5106L69.9642 8.47784C69.8585 8.38148 69.9873 8.28512 69.9969 8.20803C69.3945 8.26199 68.7884 8.26199 68.186 8.20803C68.2629 7.64527 67.7131 7.34269 67.3997 6.97652C67.4646 6.91664 67.537 6.86546 67.615 6.82426C68.384 6.75874 69.0068 7.20971 69.7931 7.10564C70.2564 7.04011 70.7851 6.72019 70.9024 6.23067C71.0004 5.8298 70.9889 5.34414 70.7101 5.03C70.2045 4.45182 69.3183 4.5 68.6397 4.67346C68.3167 4.71586 67.8419 4.96447 67.5939 4.60793C67.555 4.52362 67.5339 4.43218 67.5319 4.33932C67.5299 4.24647 67.5471 4.1542 67.5823 4.0683C67.4324 4.04517 67.3459 4.18586 67.2478 4.26103C67.0114 4.57324 67.0767 5.03192 67.1959 5.36341C67.0861 5.31338 66.989 5.23898 66.9121 5.14583C66.8352 5.05268 66.7804 4.94321 66.7518 4.82571H66.7288C66.6 5.06276 66.6749 5.38846 66.7615 5.62552C66.906 5.87446 67.1354 6.06267 67.4074 6.15551C67.2262 6.21925 67.0557 6.31023 66.9018 6.42532C66.8172 6.37136 66.7615 6.2326 66.6749 6.15551C66.6 6.03602 66.3404 6.08035 66.4058 5.92809C66.5673 5.43086 66.0925 5.13985 65.7791 4.83727C65.7233 4.41713 65.4715 3.87365 64.9505 3.73296C64.543 3.62696 64.17 3.67514 63.9047 4.0047C63.824 4.09883 63.765 4.20961 63.7318 4.32918C63.6985 4.44875 63.692 4.57418 63.7125 4.69658C63.4972 4.61949 63.303 4.4576 63.0762 4.4364C63.0329 4.53241 63.0281 4.64144 63.0627 4.74091C63.3755 4.85436 63.6701 5.01276 63.9374 5.21116H64.5141C64.573 5.20793 64.6306 5.19277 64.6835 5.1666C64.7364 5.14043 64.7834 5.1038 64.8217 5.0589C64.8714 5.00672 64.9042 4.94073 64.9159 4.86955C64.9275 4.79838 64.9175 4.72534 64.8871 4.65996C64.8673 4.59422 64.825 4.53754 64.7677 4.49985C64.7105 4.46216 64.6418 4.44584 64.5737 4.45375C64.4084 4.45375 64.3815 4.57517 64.3815 4.69273C64.3815 4.81029 64.4315 4.81029 64.4892 4.80065C64.5468 4.79102 64.5161 4.70815 64.5545 4.65996C64.593 4.61178 64.6045 4.58866 64.641 4.606C64.6695 4.6208 64.6941 4.64212 64.7128 4.66824C64.7315 4.69437 64.7438 4.72454 64.7487 4.75633C64.7794 4.88738 64.6852 4.98952 64.5564 5.04927C64.4884 5.07783 64.4129 5.08369 64.3413 5.06599C64.2696 5.04829 64.2055 5.00797 64.1585 4.95098C64.0959 4.88424 64.0552 4.79992 64.0418 4.70932C64.0284 4.61872 64.043 4.52618 64.0835 4.44411C64.1056 4.36061 64.1474 4.28362 64.2052 4.21959C64.2631 4.15555 64.3354 4.10632 64.4161 4.07601C64.5249 4.02935 64.6447 4.01473 64.7614 4.03384C64.8782 4.05295 64.9872 4.10502 65.0755 4.18394C65.2177 4.27871 65.3203 4.42246 65.3638 4.58797C65.4074 4.75347 65.389 4.92925 65.312 5.08203C65.2587 5.19853 65.1713 5.29599 65.0614 5.36141C64.9515 5.42683 64.8243 5.45711 64.6968 5.44821V5.93387C65.3333 6.65466 65.6806 7.5865 65.6714 8.54915C65.6828 9.55022 65.3306 10.5213 64.6805 11.2812C64.0303 12.0411 63.1267 12.538 62.138 12.6792L61.8381 13.0049C62.644 12.9554 63.4216 12.6891 64.0893 12.234C64.8006 11.9527 65.0505 13.0049 65.7714 12.7968C65.9885 12.7225 66.1719 12.5728 66.2885 12.3747C66.7043 12.4512 67.1282 12.4732 67.5496 12.4403C68.2936 12.4075 68.9722 12.1492 69.6951 12.1704C69.6951 12.3208 69.672 12.5058 69.7816 12.6137C70.7235 12.8192 71.6933 12.8629 72.6498 12.7428C72.8748 12.8084 73.1554 12.8835 73.3727 12.7313C73.8667 12.6445 74.3204 12.818 74.8068 12.8296C74.9043 12.8485 75.0053 12.8382 75.097 12.7998C75.1886 12.7614 75.2669 12.6966 75.322 12.6137C76.3406 12.3247 77.3738 12.0899 78.4171 11.9103C78.5574 11.9218 78.4709 12.1492 78.5151 12.2572C78.6324 12.4499 78.8804 12.4287 79.0746 12.4827C80.9624 12.6561 82.9194 12.4827 84.7361 12.1801C83.9419 11.9855 83.1595 11.7455 82.3927 11.4612V11.4631Z" fill="#A1A1AA"/>
<path d="M67.34 9.62282L68.6991 9.34145C68.8183 9.27785 69.0336 9.32025 69.0836 9.16992C68.5453 9.26628 68.0166 9.38577 67.4668 9.43781C67.3707 9.44937 67.3919 9.55922 67.3477 9.63053" fill="#A1A1AA"/>
<path d="M67.3401 9.95793C67.9668 9.83844 68.5801 9.73052 69.1741 9.55899C69.2491 9.5243 69.3663 9.5243 69.3567 9.40674C68.6781 9.62259 67.9226 9.66692 67.2421 9.82881L67.3478 9.95793" fill="#A1A1AA"/>
<path d="M69.347 9.83688L69.3892 9.76172C68.7529 9.90241 68.0628 9.99877 67.4149 10.1183L67.4707 10.2493C68.1041 10.1513 68.7307 10.0135 69.347 9.83688" fill="#A1A1AA"/>
<path d="M67.4802 9.13703L67.4706 9.26616C67.8643 9.21117 68.2536 9.12808 68.6356 9.01755L68.6779 8.94238L67.4802 9.13511" fill="#A1A1AA"/>
<path d="M79.2223 10.4941L79.3607 10.5134V11.1667L79.2646 11.1802V11.2688L79.8221 11.3305V11.2322L79.701 11.1956L79.6818 10.5403C79.7209 10.5547 79.7583 10.5735 79.7933 10.5962C79.8069 10.6108 79.8171 10.6282 79.8231 10.6472C79.8291 10.6662 79.8307 10.6863 79.8279 10.7061L79.9144 10.7369C79.9144 10.7369 79.9144 10.5153 79.9144 10.5134C79.6527 10.4134 79.3733 10.3681 79.0935 10.3804V10.6926L79.1762 10.681L79.2242 10.4883" fill="#A1A1AA"/>
<path d="M79.0725 11.1397L78.984 11.1358L78.9129 10.5133L79.0283 10.4998L78.9956 10.3784L78.4131 10.4459L78.4246 10.5538L78.5111 10.5422L78.5976 11.1802L78.5111 11.211L78.5207 11.3208L79.0821 11.2515L79.0725 11.1397Z" fill="#A1A1AA"/>
<path d="M76.635 11.2224C76.6465 11.2359 76.5638 10.941 76.5638 10.941C76.5845 10.9277 76.6079 10.9194 76.6323 10.9167C76.6567 10.914 76.6814 10.9169 76.7044 10.9253C76.7275 10.9337 76.7483 10.9473 76.7653 10.9651C76.7822 10.9828 76.7949 11.0043 76.8022 11.0277C76.8503 11.1569 76.7119 11.2089 76.635 11.2205V11.2224ZM77.1117 10.9121C77.0733 10.7194 76.8272 10.7329 76.5888 10.7791C76.5984 10.7791 76.1274 10.9179 76.1274 10.9179L76.1505 11.0065L76.2159 10.9873L76.3754 11.6098L76.3197 11.6888L76.3543 11.7717L76.808 11.6637L76.7561 11.5404H76.7196L76.6734 11.3168C76.6734 11.3168 76.7964 11.3168 76.833 11.3438C76.8964 11.4303 76.9493 11.5241 76.9906 11.6233L77.3366 11.523L77.0579 11.2031C77.0579 11.2031 77.1694 11.1993 77.1117 10.914V10.9121Z" fill="#A1A1AA"/>
<path d="M77.9404 11.3514C77.802 11.3958 77.7654 11.2801 77.7001 11.0643C77.6347 10.8484 77.5617 10.6788 77.7193 10.6249C77.8769 10.5709 77.9481 10.8002 77.9923 10.9621C78.0538 11.1857 78.0826 11.3071 77.9404 11.3476V11.3514ZM78.0788 10.5381C77.9827 10.5102 77.8818 10.5024 77.7826 10.5154C77.6834 10.5283 77.5878 10.5616 77.5021 10.6133C77.3098 10.7097 77.2848 10.9159 77.3098 11.1221C77.3279 11.1896 77.3603 11.2524 77.4047 11.3063C77.4492 11.3602 77.5047 11.4038 77.5674 11.4343C77.7532 11.4918 77.9537 11.4767 78.1288 11.3919C78.2018 11.3452 78.2613 11.2798 78.3009 11.2026C78.3406 11.1253 78.3592 11.0389 78.3547 10.9521C78.3502 10.8653 78.3228 10.7813 78.2754 10.7086C78.2279 10.6358 78.1621 10.577 78.0846 10.5381H78.0788Z" fill="#A1A1AA"/>
<path d="M63.5355 11.0723L63.449 11.0491C63.4913 10.9952 63.6104 10.9855 63.5778 10.8892C63.3721 10.7138 63.1145 10.7909 62.8549 10.7697L62.8126 10.7369C62.9203 10.6174 63.1145 10.683 63.2548 10.683C63.3182 10.683 63.3932 10.6271 63.3509 10.5635C63.1683 10.6059 62.9203 10.5847 62.7377 10.683C62.6934 10.7254 62.7146 10.7793 62.7473 10.8237C62.9741 10.8545 63.2855 10.7466 63.4586 10.92L63.4047 10.9412C63.1241 10.8237 62.8011 11.0164 62.5319 10.8776L62.5742 10.7909C62.4539 10.7099 62.3086 10.675 62.1648 10.6926C62.1109 10.7581 62.2071 10.8545 62.1436 10.9316C62.0129 10.9316 62.0783 10.8005 62.0456 10.7389L61.8956 10.7273C61.8091 10.7716 61.886 10.8468 61.8629 10.9007C61.9937 10.9547 62.0456 11.105 62.1436 11.1918C62.1013 11.2476 62.0129 11.3536 61.961 11.2476C61.8956 11.2688 61.8091 11.29 61.788 11.3536C61.9168 11.6138 62.1552 11.3652 62.3166 11.3324L62.3609 11.3536C62.457 11.213 62.6281 11.213 62.7453 11.1821C62.8319 11.29 62.6473 11.2785 62.605 11.344C62.5627 11.4095 62.4647 11.29 62.4339 11.3864C62.4339 11.4307 62.3897 11.4635 62.4339 11.5059C62.605 11.5714 62.7357 11.3768 62.9184 11.3864C63.0472 11.3768 62.9184 11.2573 63.0145 11.1937C63.1106 11.1301 63.2067 11.0858 63.2625 11.1937L63.1875 11.2688C63.1337 11.2688 63.1221 11.1725 63.0587 11.2033C63.0471 11.2122 63.0379 11.224 63.0322 11.2375C63.0265 11.2511 63.0243 11.2658 63.026 11.2804C63.0145 11.398 63.1452 11.3768 63.199 11.4095C63.3328 11.3186 63.4467 11.2012 63.5335 11.0646" fill="#A1A1AA"/>
<path d="M61.9285 6.03434H63.8682V8.19672H61.9285V6.03434ZM61.767 8.37017H64.0739V5.86475H61.767V8.37017Z" fill="#A1A1AA"/>
<path d="M62.1859 10.5423C62.2724 10.5307 62.3609 10.4343 62.4243 10.4671C62.4877 10.4999 62.457 10.4228 62.4877 10.4112C62.6934 10.3688 62.8722 10.2281 63.1145 10.2821C63.1029 10.3052 63.1144 10.3592 63.0722 10.3592C62.9741 10.4555 62.7377 10.3592 62.7261 10.5423C62.7703 10.5538 62.8011 10.6174 62.8665 10.5962C62.951 10.4883 63.0914 10.5211 63.2221 10.5095C63.449 10.575 63.2644 10.3168 63.449 10.3052C63.5662 10.3245 63.7392 10.2513 63.8334 10.3688C63.8351 10.3818 63.8329 10.3949 63.8271 10.4066C63.8213 10.4183 63.8121 10.4279 63.8008 10.4343C63.7681 10.4671 63.7258 10.4343 63.7046 10.4112C63.6959 10.4041 63.6855 10.3992 63.6745 10.397C63.6634 10.3948 63.652 10.3953 63.6412 10.3986C63.6304 10.4018 63.6206 10.4076 63.6125 10.4155C63.6045 10.4235 63.5985 10.4332 63.5951 10.444C63.6066 10.575 63.7258 10.5538 63.8008 10.5962C63.8604 10.5518 63.9105 10.4958 63.9481 10.4315C63.9858 10.3673 64.0102 10.2962 64.0199 10.2223C63.9334 10.2011 63.8469 10.2223 63.7835 10.1587C63.8469 10.1587 63.9449 10.1048 63.9219 10.0181C63.7066 9.76944 63.2971 9.9429 62.9837 9.91013L62.9414 9.87737C63.0818 9.73668 63.3836 9.87737 63.4586 9.68464C63.449 9.65381 63.4047 9.65381 63.3836 9.65381C63.2221 9.78293 62.9318 9.66344 62.8338 9.86966C63.0606 10.1279 63.4105 9.8581 63.7181 9.94482C63.7604 9.93519 63.8373 9.99878 63.8046 10.0315C63.4374 9.99878 62.9953 10.1067 62.6185 9.99879C62.641 9.96528 62.659 9.929 62.6723 9.89086C62.5279 9.81866 62.3684 9.78168 62.2071 9.78293C62.2071 9.8793 62.2397 9.95446 62.1859 10.0315C62.1552 10.0739 62.1109 10.02 62.0898 9.99879C62.0456 9.94482 62.0898 9.91206 62.1013 9.86966C62.0783 9.76173 61.9821 9.84846 61.9091 9.80413C61.8456 9.82533 61.8783 9.91206 61.8456 9.96602C62.0379 9.99878 61.9956 10.2474 62.1571 10.2917C62.1221 10.3358 62.0782 10.372 62.0283 10.3977C61.986 10.3765 61.9956 10.3226 61.9533 10.3341C61.8879 10.3765 61.7611 10.365 61.7803 10.4748C61.8668 10.7119 62.0187 10.4748 62.1782 10.5288" fill="#A1A1AA"/>
<path d="M61.863 9.70933C61.9168 9.74209 61.9706 9.69776 62.0264 9.68813C62.1763 9.70933 62.2955 9.53587 62.4243 9.5802C62.6527 9.43321 62.9228 9.3655 63.1933 9.38747L63.1395 9.4954C63.0203 9.5378 62.8165 9.4742 62.7742 9.60333C62.7742 9.71125 62.8915 9.66885 62.9549 9.69969C63.076 9.56093 63.301 9.69969 63.4202 9.58213C63.3221 9.48384 63.4951 9.46264 63.5278 9.3894C63.6566 9.46649 63.8623 9.29304 63.9257 9.48769C63.8719 9.60718 63.7873 9.40097 63.7104 9.50889C63.6893 9.63994 63.82 9.64958 63.9027 9.70162C63.9721 9.66538 64.0295 9.6096 64.0677 9.54112C64.106 9.47265 64.1235 9.39446 64.118 9.31617C64.043 9.29497 63.9565 9.31617 63.9027 9.25257C63.9469 9.18704 64.0757 9.21981 64.0546 9.11188C63.7854 8.84014 63.3529 9.08875 63.0088 8.98083C63.0088 8.95963 63.0088 8.94806 63.0184 8.93843C63.1702 8.81894 63.4605 9.03479 63.5163 8.79774C63.4932 8.75341 63.4509 8.77654 63.4182 8.77654C63.2779 8.91723 62.953 8.74377 62.9011 8.99239C62.9222 9.05792 62.9972 9.06755 63.051 9.07719C63.3433 9.10032 63.6989 8.93843 63.9354 9.12152C63.4917 9.18492 63.0408 9.17776 62.5993 9.10032L62.6204 9.01359C62.5613 8.96391 62.4912 8.92923 62.4159 8.91245C62.3406 8.89568 62.2624 8.89732 62.1879 8.91723C62.1783 8.97119 62.2206 9.01359 62.209 9.06755C62.1975 9.12151 62.1994 9.17548 62.1244 9.16584C62.0495 9.15621 62.0706 9.04635 62.0802 8.97312C62.0591 8.89603 61.9726 8.94999 61.9303 8.91915C61.8342 8.91915 61.8649 9.03672 61.8342 9.11188C61.963 9.18704 62.0264 9.33929 62.1456 9.44529C62.0283 9.62067 61.888 9.37206 61.7899 9.57635C61.7688 9.63994 61.8553 9.66307 61.8649 9.71703" fill="#A1A1AA"/>
<path d="M61.6054 12.4986V8.73661H64.2795C64.3295 9.97583 64.2891 11.0493 63.201 11.5369C62.6628 11.8067 62.0265 12.011 61.6054 12.5005V12.4986ZM61.6054 5.71276H64.2353V8.53232H61.6054V5.71276ZM61.3997 8.53425H58.791V5.71083H61.3997C61.3997 5.71083 61.4094 7.60146 61.3997 8.53232V8.53425ZM61.3997 12.489C60.7961 11.8298 60.0387 11.8202 59.3197 11.1823C58.7103 10.6427 58.791 9.53256 58.791 8.73854H61.3997V12.489ZM58.4565 10.2726C57.8644 9.33213 57.8798 7.85007 58.4565 6.89994V10.2726ZM64.6083 6.87682C64.9015 7.3988 65.0521 7.98917 65.0446 8.58821C65.0481 9.18615 64.8978 9.77489 64.6083 10.2977V6.87682ZM63.6221 11.6949C64.2514 11.2603 64.7383 10.6488 65.0216 9.93728C65.3618 9.0257 65.3292 8.29334 65.0831 7.40488C64.9738 7.04943 64.8041 6.71559 64.5813 6.41813V5.34273H63.3856L62.98 5.12109L62.7435 5.19433L63.005 5.34273H60.0521L60.3443 5.2136L60.081 5.14037C59.9387 5.21847 59.7909 5.28611 59.6388 5.34273H58.4315V6.47788C57.8721 7.33165 57.5991 8.65181 57.9721 9.6983C58.345 10.7448 58.7526 11.1225 59.4523 11.6949C60.2213 12.0515 60.9903 12.3656 61.5439 13.1423C61.9226 12.3945 62.7147 12.1189 63.6278 11.6949H63.6221Z" fill="#A1A1AA"/>
<path d="M59.0391 6.72604C59.2162 6.71927 59.3862 6.65501 59.5236 6.54295C59.5659 6.63931 59.5986 6.53138 59.6543 6.52175C59.8792 6.48706 60.0734 6.31553 60.3118 6.40226L60.3003 6.4119C60.2676 6.56415 60.0426 6.53138 59.9158 6.55258C59.8735 6.68364 59.9811 6.71447 60.0773 6.71447C60.2176 6.60655 60.4617 6.70484 60.5732 6.58535C60.4771 6.49862 60.6386 6.49862 60.6597 6.4119C60.7905 6.48706 60.9943 6.31553 61.0596 6.51018L61.0269 6.53138C60.9805 6.52693 60.9358 6.51176 60.8962 6.48706C60.8839 6.49221 60.8739 6.50177 60.8682 6.51388C60.8626 6.52599 60.8616 6.53978 60.8654 6.55258C60.8212 6.68364 60.9731 6.69327 61.0481 6.71447C61.2096 6.65087 61.2307 6.47742 61.2538 6.32902C61.1769 6.2847 61.1019 6.35022 61.0481 6.27506C61.1019 6.25193 61.2211 6.2211 61.1769 6.12281C60.9846 5.91852 60.6002 6.01488 60.3483 6.02645C60.2926 6.03608 60.2176 6.03608 60.2176 5.96092C60.2618 5.89539 60.3579 5.93779 60.4348 5.92816C60.5406 5.93779 60.6809 5.91852 60.6386 5.7971L60.5732 5.77783C60.456 5.90696 60.2503 5.80867 60.1215 5.90696C60.1099 5.96092 60.0984 6.03608 60.1541 6.06885C60.4348 6.13244 60.7674 5.97056 61.0596 6.10161C61.0639 6.10639 61.067 6.11207 61.0687 6.11823C61.0705 6.12439 61.0708 6.13087 61.0697 6.13717C61.0686 6.14348 61.066 6.14945 61.0623 6.15464C61.0586 6.15983 61.0537 6.1641 61.0481 6.16714C60.6386 6.13244 60.1541 6.25193 59.7543 6.12281L59.787 6.03608C59.6582 5.97056 59.4948 5.85299 59.3237 5.93779C59.3121 6.01488 59.4102 6.14401 59.2814 6.18833C59.118 6.13244 59.2814 6.03608 59.2045 5.94936C59.1602 5.96092 59.0641 5.92816 59.0122 5.97056C58.893 6.19797 59.2045 6.27506 59.2833 6.44659L59.2506 6.47935C59.2064 6.51211 59.141 6.54488 59.1314 6.46779C59.0449 6.43695 59.0122 6.53331 58.9488 6.54488C58.8834 6.6316 59.0122 6.6952 59.0449 6.72796" fill="#A1A1AA"/>
<path d="M59.9655 10.0875L60.7922 10.6078L60.7595 10.814L59.7887 10.2089L59.7137 10.0585C59.7675 9.95062 59.8963 10.0354 59.9713 10.0894L59.9655 10.0875ZM60.0251 9.70393C60.2943 9.87739 60.575 10.0296 60.8229 10.2224L60.8018 10.4151C60.4982 10.2685 60.2125 10.0875 59.9502 9.87546L60.0251 9.70393ZM60.2308 9.43412L60.8556 9.80222L60.8345 9.99495C60.587 9.87336 60.3492 9.7329 60.1232 9.57481L60.2308 9.43412ZM60.8883 9.31656L60.8672 9.59601C60.699 9.52761 60.5437 9.43117 60.4077 9.31078L60.8883 9.31656ZM60.7268 11.2438C60.425 11.08 60.004 10.8584 59.906 10.4864C60.1982 10.6483 60.4827 10.8314 60.748 11.0145C60.7095 11.0819 60.7422 11.186 60.7211 11.2457L60.7268 11.2438ZM60.5096 11.4481C60.7268 11.5676 60.8941 11.7931 61.1248 11.847C61.244 10.9509 61.2113 8.95616 61.2113 8.95616H59.9502C59.6695 8.97929 59.8425 9.34161 59.6483 9.47652C59.6041 9.50735 59.4965 9.54012 59.4561 9.45339C59.4561 9.41001 59.4672 9.36736 59.4885 9.32956C59.5097 9.29175 59.5402 9.26006 59.5772 9.23754C59.608 9.15081 59.6522 9.02169 59.5772 8.94653C59.5322 8.91097 59.4799 8.88594 59.424 8.87327C59.3681 8.8606 59.3101 8.8606 59.2543 8.87329C59.1821 8.91662 59.1287 8.98532 59.1043 9.06601C59.0823 9.12921 59.0808 9.1978 59.1002 9.26187C59.1195 9.32595 59.1587 9.38222 59.212 9.42256C59.1964 9.51691 59.1464 9.60209 59.0716 9.66153C59.0521 9.70123 59.0468 9.74647 59.0566 9.78964C59.0664 9.83281 59.0907 9.87128 59.1255 9.89859C59.2543 10.5962 59.831 11.2978 60.5038 11.45L60.5096 11.4481Z" fill="#A1A1AA"/>
<path d="M63.697 6.32733C63.685 6.29053 63.6594 6.25977 63.6254 6.24146C63.5913 6.22315 63.5516 6.2187 63.5144 6.22904C63.4194 6.33042 63.3563 6.45762 63.3331 6.59473C63.3098 6.73185 63.3274 6.87279 63.3837 6.99994C63.3837 7.16376 63.7681 7.32372 63.5355 7.43357C63.3782 7.34933 63.2385 7.23548 63.1241 7.09823C63.1024 7.01665 63.097 6.93157 63.1082 6.84788C63.1194 6.7642 63.147 6.68357 63.1895 6.61064C63.2433 6.48151 63.1683 6.36202 63.2645 6.2541C63.201 6.2329 63.1683 6.17893 63.1145 6.14617C63.0417 6.13109 62.9663 6.13409 62.895 6.15492C62.8236 6.17575 62.7584 6.21377 62.705 6.26566C62.682 6.37359 62.7896 6.35239 62.855 6.36202C62.8665 6.44875 62.705 6.37359 62.7377 6.48151L62.855 6.53547C62.7901 6.60852 62.7029 6.65799 62.607 6.67616C62.5378 6.65843 62.4737 6.62482 62.4196 6.578C62.3656 6.53118 62.3231 6.47242 62.2956 6.40635L62.3609 6.35239C62.3609 6.22326 62.2187 6.26566 62.1552 6.22326C62.1437 6.29842 62.0264 6.30806 62.036 6.40635C62.1975 6.54704 62.3052 6.7918 62.4878 6.90358C62.4537 6.93113 62.4178 6.95625 62.3802 6.97874C62.3283 7.0115 62.2187 7.01151 62.2187 6.91322C62.0783 6.86118 62.1437 7.0327 62.036 7.04427C62.0687 7.12907 62.013 7.16376 62.036 7.24856L62.1341 7.26012C62.286 7.09823 62.4782 7.16376 62.6628 7.0539L62.78 7.26012L62.6185 7.30252C62.4897 7.40081 62.7377 7.49524 62.6185 7.5839C62.5436 7.65906 62.457 7.5627 62.4359 7.4991C62.3071 7.45477 62.3705 7.6263 62.2629 7.6263C62.1879 7.72459 62.3513 7.71302 62.3071 7.81902C62.3318 7.84775 62.3659 7.86685 62.4032 7.87298C62.4782 7.72266 62.6628 7.76506 62.7877 7.70146C62.8646 7.6899 62.9703 7.57041 62.8858 7.50873C62.9492 7.51837 63.003 7.46441 63.0472 7.51837C62.9819 7.75735 63.3164 7.69182 63.3048 7.87491C63.2722 7.87491 63.2625 7.81131 63.2087 7.83251C63.1337 7.9308 63.1107 8.02524 63.2087 8.11389C63.2791 8.08809 63.3433 8.04786 63.3972 7.99575C63.4512 7.94365 63.4937 7.88083 63.5221 7.81131C63.5317 7.68219 63.4125 7.65906 63.3298 7.59546C63.3351 7.54052 63.3461 7.48627 63.3625 7.43357C63.4279 7.47597 63.4817 7.5415 63.5663 7.52993C63.5893 7.52573 63.611 7.51626 63.6298 7.50225C63.6485 7.48825 63.6638 7.4701 63.6744 7.44921C63.685 7.42832 63.6906 7.40526 63.6909 7.38182C63.6912 7.35838 63.686 7.3352 63.6759 7.31408C63.5574 7.21493 63.47 7.0837 63.424 6.93606C63.3779 6.78842 63.3753 6.63062 63.4163 6.48151C63.4375 6.42755 63.4605 6.30806 63.5567 6.34082C63.6759 6.46031 63.4932 6.55667 63.5028 6.67616C63.5028 6.76289 63.5893 6.79565 63.6432 6.84962C63.6855 6.86118 63.772 6.89202 63.7835 6.81685C63.6316 6.70893 63.6547 6.50271 63.6759 6.33119" fill="#A1A1AA"/>
<path d="M60.8923 7.35237C60.85 7.35237 60.8616 7.40826 60.8616 7.43909C60.8827 7.53738 60.9904 7.52582 61.0538 7.55858C61.1159 7.51429 61.1674 7.45675 61.2047 7.3901C61.2419 7.32345 61.2639 7.24935 61.2691 7.17313C61.2038 7.1423 61.0961 7.19626 61.0538 7.11917C61.1076 7.11917 61.1826 7.05557 61.1826 6.99004C60.9673 6.68747 60.5463 6.92452 60.2214 6.83972C60.3079 6.67783 60.5655 6.82816 60.6847 6.70867C60.7174 6.67783 60.6847 6.62387 60.652 6.6123C60.4906 6.69903 60.2849 6.66627 60.1349 6.74143C60.1195 6.75458 60.108 6.77168 60.1015 6.7909C60.0951 6.81011 60.094 6.83072 60.0983 6.85052C60.1027 6.87032 60.1123 6.88856 60.1262 6.9033C60.1401 6.91803 60.1577 6.92869 60.1772 6.93415C60.479 6.99968 60.8347 6.80696 61.0711 6.99968L61.0404 7.04401C60.6309 6.93415 60.1983 7.10953 59.8119 7.01124C59.6928 6.99004 59.8331 6.93415 59.8119 6.87056H59.7466C59.6505 6.74143 59.4659 6.80696 59.3621 6.77227C59.2775 6.84936 59.4275 6.89175 59.3621 6.97848C59.3608 6.99159 59.3555 7.004 59.3471 7.01408C59.3386 7.02416 59.3273 7.03144 59.3146 7.03498C59.302 7.03852 59.2885 7.03815 59.2761 7.03391C59.2636 7.02968 59.2527 7.02178 59.2448 7.01124C59.1699 6.95728 59.2544 6.90332 59.2448 6.83779C59.2006 6.75107 59.1353 6.84936 59.0718 6.79539C59.018 6.81659 59.0065 6.88019 58.9949 6.92452C58.9834 6.96884 59.0603 7.01124 59.1045 7.03244C59.1353 7.15193 59.2967 7.22517 59.2641 7.32346C59.2333 7.34658 59.1564 7.42175 59.1256 7.32346C59.0391 7.29262 59.0065 7.40055 58.943 7.42175C58.9296 7.50847 58.9853 7.52967 59.0391 7.58364C59.2185 7.56186 59.3931 7.51109 59.5563 7.43331C59.6101 7.47571 59.6101 7.40055 59.6543 7.37935C59.8792 7.33502 60.0849 7.2059 60.3329 7.23673C60.3002 7.25986 60.3445 7.33502 60.2791 7.33502C60.181 7.34659 60.1061 7.44295 60.01 7.38898C59.9446 7.37935 59.9119 7.44295 59.9234 7.49884C59.9119 7.5952 60.0196 7.55087 60.0734 7.57207C60.1926 7.45451 60.431 7.48727 60.5905 7.49884C60.4733 7.6164 60.2579 7.51811 60.1176 7.62604C60.1045 7.65214 60.1016 7.6822 60.1094 7.71035C60.1172 7.7385 60.1352 7.76272 60.1599 7.77829C60.4521 7.85345 60.7751 7.69156 61.0654 7.82069C61.0884 7.83225 61.075 7.87465 61.0557 7.88621C60.6136 7.78985 60.181 7.96138 59.7504 7.83225C59.7716 7.81105 59.8043 7.76672 59.7716 7.72433H59.7177C59.6312 7.58364 59.4486 7.67036 59.3333 7.64916C59.3121 7.74745 59.3986 7.83225 59.3121 7.89778C59.1737 7.87465 59.2487 7.75709 59.2045 7.68193C59.1506 7.69156 59.0853 7.6376 59.0122 7.69156C59.0006 7.75204 59.0006 7.81417 59.0122 7.87465C59.141 7.91898 59.1737 8.08087 59.3025 8.14639L59.2487 8.20999C59.2064 8.26395 59.1295 8.22155 59.0987 8.17916C59.0334 8.22155 58.9065 8.24275 58.9469 8.35068C58.9872 8.45861 59.1199 8.40464 59.2064 8.40464C59.3563 8.41621 59.464 8.26395 59.5909 8.30828C59.8078 8.17971 60.051 8.10197 60.3022 8.08087C60.3887 8.08087 60.3137 8.15603 60.3137 8.20035C60.1926 8.22431 60.0698 8.23849 59.9465 8.24275C59.9465 8.28708 59.8812 8.34104 59.9465 8.37381C60.0965 8.44897 60.281 8.31792 60.4636 8.36224C60.702 8.38344 60.4752 8.16952 60.6905 8.11363C60.8193 8.15603 60.9596 8.08087 61.075 8.17916C61.075 8.32948 60.9673 8.17916 60.902 8.20999C60.8712 8.22155 60.8808 8.25432 60.8808 8.28708C60.8597 8.40464 61 8.37381 61.073 8.41621C61.1311 8.36901 61.1791 8.31055 61.2141 8.24431C61.2492 8.17808 61.2705 8.10545 61.2768 8.03076C61.2018 8.04232 61.1269 8.05196 61.073 7.98836C61.1269 7.96523 61.2441 7.92283 61.2019 7.82454C60.9654 7.60869 60.5867 7.75131 60.2964 7.72818L60.2426 7.68578L60.2849 7.65302C60.404 7.57593 60.652 7.70698 60.6943 7.52196C60.6943 7.45837 60.6078 7.49113 60.5867 7.49113C60.5867 7.4468 60.5982 7.4044 60.5867 7.3832C60.6732 7.16735 60.9096 7.30611 61.0711 7.30611C61.0923 7.33888 61.125 7.37164 61.0827 7.4044C61.0077 7.43717 60.9846 7.35044 60.9193 7.36008" fill="#A1A1AA"/>
<path d="M75.0815 7.26605C75.0815 7.31038 75.1353 7.32001 75.168 7.33158C75.4275 6.99624 75.4698 6.56068 75.4814 6.10007C75.4372 5.77629 75.3833 5.41782 75.1142 5.2251C75.07 5.2251 75.0488 5.2675 75.0488 5.3099C75.4487 5.87265 75.2968 6.68402 75.0815 7.26605" fill="#A1A1AA"/>
<path d="M73.5512 4.86663L73.7031 4.97455C73.6589 5.04008 73.5724 5.04008 73.4974 5.05164C73.4974 5.00732 73.5512 4.94372 73.5512 4.85892V4.86663ZM73.184 4.96684C73.2052 4.91288 73.2167 4.84928 73.2821 4.81652L73.3032 4.98997L73.184 4.96684ZM73.2821 4.64307C73.0898 4.64307 73.0668 4.83579 72.9591 4.92444C72.9933 4.98042 73.0406 5.02721 73.0969 5.06078C73.1531 5.09436 73.2167 5.11371 73.2821 5.11717C73.3951 5.15457 73.5161 5.16016 73.6321 5.13331C73.748 5.10646 73.8544 5.04821 73.9395 4.96492C73.7223 4.86663 73.5608 4.60838 73.2878 4.65078L73.2821 4.64307Z" fill="#A1A1AA"/>
<path d="M7.02021 24.3469V23.9615C6.1282 23.9615 5.5707 23.7553 5.5707 22.8052V16.4452C7.33548 16.4452 7.75457 16.7632 7.91798 18.1586H8.33322V15.6396H0.428223V18.1798H0.841543C1.00687 16.7844 1.41827 16.4664 3.18882 16.4664V22.8264C3.18882 23.7688 2.63132 23.9827 1.73931 23.9827V24.3681H7.02021" fill="#A1A1AA"/>
<path d="M14.6694 20.1689V22.8208C14.6694 23.6649 14.2157 23.9463 13.4833 23.9771V24.3626H18.1144V23.9771C17.2743 23.9771 16.9436 23.769 16.9436 22.8208V17.1604C16.9436 16.218 17.2743 16.0041 18.1144 16.0041V15.6187H13.4833V16.0041C14.2157 16.0292 14.6694 16.3105 14.6694 17.1604V19.4731H11.6858V17.1604C11.6858 16.3163 12.1414 16.0349 12.8739 16.0041V15.6187H8.59842V16.0041C9.17514 16.1255 9.4116 16.2122 9.4116 17.1604V22.815C9.4116 23.7574 9.08094 23.9713 8.24084 23.9713V24.3568H12.8739V23.9713C12.1414 23.9463 11.6858 23.6649 11.6858 22.815V20.1689H14.6694Z" fill="#A1A1AA"/>
<path d="M25.8253 24.347V21.7625H25.5197C25.0314 23.6223 24.447 23.7341 23.6415 23.7341H22.5688C22.0555 23.7341 21.9574 23.5626 21.9574 23.0981V20.1552C23.2551 20.1764 24.1605 20.0106 24.2432 21.2479H24.57V18.4727H24.2432C24.1605 19.5577 23.2032 19.4517 21.9574 19.4517V16.2525H23.3243C24.7142 16.2525 25.3121 16.7902 25.4389 18.1104H25.7081V15.6396H18.5432V16.0251C19.3852 16.0251 19.714 16.2332 19.714 17.1814V22.836C19.714 23.7784 19.3852 23.9923 18.5432 23.9923V24.3778H25.8253" fill="#A1A1AA"/>
<path d="M30.347 24.3951H30.5931C30.6154 24.2813 30.6747 24.1782 30.7616 24.1019C30.8486 24.0255 30.9583 23.9802 31.0737 23.973C31.5601 23.973 31.9715 24.5512 33.842 24.5512C35.0551 24.5512 36.5757 23.6473 36.5757 21.6063C36.5757 18.6172 31.8062 19.1317 31.8062 17.1178C31.8062 16.3719 32.4925 16.0173 33.2576 16.0173C34.3957 16.0173 35.1973 16.8865 35.553 17.9985H35.8163V15.6396H35.4434C35.3838 15.8323 35.3415 15.9518 35.1569 15.9518C34.7263 15.9518 34.3764 15.416 33.1269 15.416C31.6005 15.416 30.0183 16.0751 30.0183 17.9927C30.0183 21.1958 34.8494 20.7545 34.8494 22.7608C34.8494 23.4122 34.0996 23.9556 33.2038 23.9556C32.5834 23.9354 31.988 23.7056 31.5142 23.3037C31.0404 22.9018 30.7158 22.3512 30.5931 21.7412H30.249L30.347 24.3951Z" fill="#A1A1AA"/>
<path d="M94.0501 24.3469V23.9942C93.3292 23.9942 93.0447 23.5394 93.0447 22.5989V17.3375C93.0447 16.397 93.2369 16.0231 93.9232 16.0231V15.6377H89.8669V16.0231C90.5551 16.0231 90.757 16.397 90.757 17.3375V22.5989C90.757 23.5394 90.4705 23.9942 89.74 23.9942V24.3469H94.0501" fill="#A1A1AA"/>
<path d="M99.927 24.3469L102.618 17.3529V22.5989C102.618 23.6396 102.426 23.8844 101.446 23.9942V24.3469H106.017V23.9942C104.921 23.8844 104.847 23.5394 104.847 22.5989V17.4204C104.847 16.2525 105.039 16.1908 106.017 16.0231V15.6377H102.457L100.317 21.3096L98.2161 15.6396H94.6635V16.0251C95.4939 16.0251 95.8169 16.4799 95.8169 17.4223V22.7338C95.8169 23.6762 95.6458 23.8458 94.6635 23.9962V24.3489H97.7701V23.9962C96.6378 23.8246 96.5974 23.6762 96.5974 22.7338V17.723L99.2407 24.3469H99.9194" fill="#A1A1AA"/>
<path d="M113.905 24.3469V21.7625H113.601C113.111 23.6223 112.527 23.7341 111.721 23.7341H110.648C110.135 23.7341 110.037 23.5626 110.037 23.0981V20.1552C111.337 20.1764 112.238 20.0106 112.323 21.2479H112.65V18.4727H112.323C112.24 19.5577 111.283 19.4517 110.037 19.4517V16.2525H111.404C112.796 16.2525 113.394 16.7902 113.519 18.1104H113.788V15.6396H106.623V16.0251C107.465 16.0251 107.795 16.2332 107.795 17.1814V22.8688C107.795 23.8112 107.465 24.0251 106.623 24.0251V24.3681H113.905" fill="#A1A1AA"/>
<path d="M114.974 24.3951H115.22C115.242 24.2823 115.302 24.1802 115.388 24.1048C115.475 24.0294 115.584 23.9851 115.699 23.9788C115.953 23.9788 117.096 24.5569 118.469 24.5569C119.682 24.5569 121.203 23.6531 121.203 21.6121C121.203 18.623 116.433 19.1375 116.433 17.1236C116.433 16.3777 117.119 16.0231 117.885 16.0231C119.023 16.0231 119.824 16.8923 120.178 18.0043H120.443V15.6396H120.072C120.011 15.8323 119.968 15.9518 119.784 15.9518C119.353 15.9518 119.003 15.416 117.752 15.416C116.227 15.416 114.645 16.0751 114.645 17.9927C114.645 21.1958 119.476 20.7545 119.476 22.7608C119.476 23.4122 118.728 23.9556 117.831 23.9556C117.21 23.9357 116.615 23.7061 116.141 23.3041C115.667 22.9021 115.342 22.3514 115.22 21.7412H114.876L114.974 24.3951Z" fill="#A1A1AA"/>
<path d="M88.1541 24.3469V23.9615C87.2602 23.9615 86.7027 23.7553 86.7027 22.8052V16.4452C88.4675 16.4452 88.8866 16.7632 89.05 18.1586H89.4652V15.6396H81.5544V18.1798H81.9678C82.1331 16.7844 82.5445 16.4664 84.315 16.4664V22.8264C84.315 23.7688 83.7595 23.9827 82.8655 23.9827V24.3681H88.1483" fill="#A1A1AA"/>
<path d="M45.9069 16.0231C46.3952 16.0231 46.5605 16.1464 46.9854 16.6591V22.8128C46.9854 23.7533 46.5548 23.9691 45.6608 23.9691V24.3546H49.1654V23.9691C48.2042 23.9691 47.7736 23.761 47.7736 22.8128V17.9522H47.7986L52.7181 24.3468H53.7446V17.3664C53.7446 16.4239 54.0541 16.0886 54.9154 16.0173V15.6318H51.9087V16.0173C52.7719 16.185 52.9584 16.4182 52.9584 17.3664V21.0281H52.9334L48.929 15.6395H42.6657V16.025C43.4462 16.05 43.8192 16.4104 43.8192 17.1813V21.4425C43.8192 23.0556 43.2944 23.6665 41.9794 23.6665C41.1509 23.6665 40.1512 23.2811 40.1512 21.9783V17.1736C40.1512 16.2312 40.4799 16.0173 41.3219 16.0173V15.6318H36.762V16.0173C37.604 16.0173 37.9327 16.2254 37.9327 17.1736V21.8087C37.9327 23.8882 39.3707 24.5858 41.3489 24.5858C43.5116 24.5858 44.6573 23.8265 44.6573 21.7836V17.1736C44.6573 16.2312 45.0534 16.0173 45.9165 16.0173" fill="#A1A1AA"/>
<path d="M58.7755 16.2623C61.0574 15.9944 61.9802 17.7925 61.9802 19.7737C61.9802 22.6492 61.2228 23.6802 59.5752 23.6802C59.037 23.6802 58.7755 23.4875 58.7755 22.7764V16.2623ZM56.5128 22.8149C56.5128 23.7554 56.1841 23.9713 55.344 23.9713V24.3567H59.6771C62.4089 24.3567 64.264 23.2158 64.264 20.0146C64.264 16.8135 62.4089 15.6494 59.6771 15.6494H55.344V16.0349C56.1841 16.0349 56.5128 16.243 56.5128 17.1912V22.8149Z" fill="#A1A1AA"/>
<path d="M68.4146 20.9087H66.2788L67.3477 17.7384L68.4146 20.903V20.9087ZM72.7324 23.9654C72.1902 23.9654 71.8231 23.6917 71.602 23.154L68.826 15.3486L67.2439 15.7611L64.7851 22.8032C64.4294 23.7206 63.9546 23.9172 63.2145 23.9596V24.345H66.6748V23.9596C65.9309 23.9596 65.4387 23.7264 65.4387 23.4084C65.4486 23.1723 65.5027 22.9402 65.5983 22.7242L66.0424 21.6488H68.628L69.1932 22.9189C69.268 23.1032 69.3128 23.2984 69.3258 23.497C69.3265 23.5609 69.3136 23.6241 69.2881 23.6826C69.2626 23.7411 69.2249 23.7935 69.1777 23.8363C69.1304 23.8791 69.0746 23.9114 69.014 23.931C68.9534 23.9506 68.8893 23.957 68.826 23.9499H68.1551V24.3354H77.4596V23.9499C76.6195 23.9499 76.1235 23.7418 76.1235 22.7936V20.2438L78.1786 16.9675C78.6938 16.1831 79.0225 16.1022 79.7415 16.0367V15.6512H76.5964V16.0367C77.0847 16.0367 77.4288 16.1716 77.4288 16.5146C77.4068 16.7888 77.3184 17.0534 77.1712 17.2855L75.7755 19.3862L74.5414 17.2662C74.3818 16.9598 74.1992 16.6283 74.1992 16.4086C74.1992 16.1889 74.3914 16.0232 74.8835 16.0232V15.6377H70.2697V16.0232C70.7446 16.1099 71.2982 16.0463 71.7077 16.6842L73.9127 20.2438V22.8186C73.9127 23.7534 73.3764 23.9673 72.7324 23.9711V23.9654Z" fill="#A1A1AA"/>
</g>
<defs>
<clipPath id="clip0_2433_45096">
<rect width="120.774" height="24" fill="white" transform="translate(0.428223 0.585938)"/>
</clipPath>
</defs>
</svg>
