<svg width="118" height="21" viewBox="0 0 118 21" fill="none" xmlns="http://www.w3.org/2000/svg">
<g clip-path="url(#clip0_2461_20727)">
<path d="M15.1027 17.9861C17.2027 17.7861 19.3027 17.0861 19.3027 14.8861V7.78614L18.3027 6.78614L17.2027 7.78614V13.0861L18.1027 13.8861L16.1027 15.6861H16.0027L14.0027 13.9861L14.5027 13.4861V2.68614C14.5027 1.88614 13.8027 1.48613 13.4027 1.38613V1.18613C13.6027 1.08613 13.9027 0.986133 14.3027 0.986133C15.0027 0.986133 15.6027 1.38613 15.8027 1.88614H15.9027C16.3027 1.28613 17.0027 0.986133 17.6027 0.986133C17.8027 0.986133 18.0027 0.986133 18.2027 1.08613V1.28613C17.9027 1.38613 17.3027 1.78614 17.3027 2.88614V7.38614L20.0027 4.88614H20.2027C20.4027 5.08614 21.5027 6.08614 21.8027 6.28614C21.9027 6.38614 22.0027 6.38614 22.2027 6.38614C22.4027 6.38614 22.6027 6.28614 22.8027 6.18614V6.48614C22.6027 6.68614 22.3027 6.98614 22.3027 7.48614V13.5861C22.3027 16.2861 19.3027 17.9861 15.3027 18.2861V17.9861H15.1027ZM14.1027 1.28613C14.5027 1.58614 14.9027 1.88614 14.9027 2.58614V13.6861L14.5027 14.0861L16.2027 15.4861L16.7027 15.0861L15.4027 13.9861L15.6027 13.7861V2.68614C15.5027 1.78614 14.7027 1.38613 14.1027 1.28613ZM18.8027 17.2861C19.6027 16.7861 20.4027 16.1861 20.4027 14.9861V7.38614L19.2027 6.08614L18.6027 6.58614L19.6027 7.68614V14.8861C19.7027 15.8861 19.3027 16.6861 18.8027 17.2861ZM23.8027 7.38614C25.0027 6.78614 26.7027 5.78614 27.9027 4.88614H28.1027C28.9027 5.68614 30.0027 6.98614 31.0027 7.88614V8.08614L26.6027 10.8861V12.6861C27.0027 12.9861 28.3027 13.5861 29.1027 13.8861L30.9027 12.1861L31.1027 12.3861L27.6027 15.7861H27.4027C26.2027 15.2861 24.7027 14.5861 23.7027 14.0861C23.8027 13.6861 23.9027 12.7861 23.9027 11.6861V7.38614H23.8027ZM27.9027 15.0861C26.7027 14.5861 25.7027 14.0861 24.7027 13.5861C24.8027 13.2861 24.8027 12.7861 24.8027 11.6861V7.18614L24.1027 7.58614V11.6861C24.1027 12.7861 24.1027 13.5861 24.0027 13.8861C24.9027 14.3861 26.2027 14.9861 27.4027 15.4861L27.9027 15.0861ZM26.6027 10.5861L28.6027 9.28614C27.9027 8.48614 27.2027 7.68614 26.6027 7.08614V10.5861ZM27.2027 6.18614L26.7027 6.58614C27.3027 7.28614 28.1027 8.18614 28.9027 9.08614L29.5027 8.68614C28.6027 7.78614 27.8027 6.88614 27.2027 6.18614ZM109.503 17.9861C111.603 17.7861 113.703 17.0861 113.703 14.8861V7.78614L112.703 6.78614L111.603 7.78614V13.0861L112.503 13.8861L110.503 15.6861H110.303L108.303 13.9861L108.803 13.4861V2.68614C108.803 1.88614 108.103 1.48613 107.703 1.38613V1.18613C107.903 1.08613 108.203 0.986133 108.603 0.986133C109.303 0.986133 109.903 1.38613 110.103 1.88614H110.203C110.603 1.28613 111.303 0.986133 111.903 0.986133C112.103 0.986133 112.303 0.986133 112.503 1.08613V1.28613C112.203 1.38613 111.603 1.78614 111.603 2.88614V7.38614L114.203 4.88614H114.403C114.603 5.08614 115.703 6.08614 116.003 6.28614C116.103 6.38614 116.203 6.38614 116.403 6.38614C116.603 6.38614 116.803 6.28614 117.003 6.18614V6.58614C116.803 6.78614 116.503 7.08614 116.503 7.58614V13.5861C116.503 16.2861 113.503 17.9861 109.503 18.2861V17.9861ZM108.503 1.28613C108.803 1.48613 109.303 1.88614 109.303 2.58614V13.5861L108.903 13.9861L110.603 15.3861L111.103 14.9861L109.803 13.8861L110.003 13.6861V2.68614C109.903 1.78614 109.103 1.38613 108.503 1.28613ZM113.103 17.1861C113.903 16.6861 114.703 16.0861 114.703 14.8861V7.38614L113.503 6.08614L113.003 6.58614L114.003 7.68614V14.8861C114.103 15.8861 113.703 16.6861 113.103 17.1861ZM49.7027 7.38614C50.9027 6.78614 52.6027 5.78614 53.8027 4.88614H54.0027C54.8027 5.68614 55.9027 6.98614 56.8027 7.78614V7.98614L52.5027 10.7861V12.5861C53.0027 12.8861 54.2027 13.4861 55.0027 13.7861L56.8027 12.0861L57.0027 12.2861L53.5027 15.6861H53.3027C52.1027 15.1861 50.6027 14.4861 49.6027 13.9861C49.7027 13.5861 49.8027 12.6861 49.8027 11.5861V7.38614H49.7027ZM53.7027 15.0861C52.5027 14.5861 51.5027 14.0861 50.5027 13.5861C50.6027 13.2861 50.6027 12.7861 50.6027 11.6861V7.18614L50.0027 7.48614V11.5861C50.0027 12.6861 50.0027 13.4861 49.9027 13.7861C50.8027 14.2861 52.1027 14.8861 53.3027 15.3861L53.7027 15.0861ZM52.5027 10.4861L54.5027 9.18614C53.8027 8.38614 53.1027 7.58614 52.5027 6.98614V10.4861ZM53.1027 6.18614L52.5027 6.58614C53.1027 7.28614 53.9027 8.18614 54.7027 9.08614L55.3027 8.68614C54.5027 7.78614 53.7027 6.88614 53.1027 6.18614ZM60.8027 2.38614V12.8861C60.8027 13.2861 61.2027 13.7861 61.6027 13.8861L62.2027 13.2861L62.4027 13.4861L60.2027 15.7861H60.0027C59.2027 15.5861 58.0027 14.7861 58.0027 13.4861V3.68614L57.4027 3.08614L56.7027 3.78614L56.5027 3.58614L59.0027 0.986133H59.2027L60.8027 2.38614ZM60.5027 14.9861C59.7027 14.7861 58.9027 14.2861 58.9027 13.1861V3.28614L58.0027 2.38614L57.5027 2.88614L58.3027 3.58614V13.4861C58.3027 14.5861 59.2027 15.2861 60.0027 15.4861L60.5027 14.9861ZM63.4027 7.38614C64.6027 6.78614 66.3027 5.78614 67.5027 4.88614H67.7027C68.5027 5.68614 69.6027 6.98614 70.5027 7.78614V7.98614L66.2027 10.7861V12.5861C66.6027 12.8861 67.9027 13.4861 68.7027 13.7861L70.5027 12.0861L70.7027 12.2861L67.2027 15.6861H67.0027C65.8027 15.1861 64.3027 14.4861 63.3027 13.9861C63.4027 13.5861 63.5027 12.6861 63.5027 11.5861V7.38614H63.4027ZM67.4027 15.0861C66.2027 14.5861 65.2027 14.0861 64.2027 13.5861C64.3027 13.2861 64.3027 12.7861 64.3027 11.6861V7.18614L63.7027 7.48614V11.5861C63.7027 12.6861 63.7027 13.4861 63.6027 13.7861C64.5027 14.2861 65.8027 14.8861 67.0027 15.3861L67.4027 15.0861ZM66.2027 10.4861L68.2027 9.18614C67.5027 8.38614 66.8027 7.58614 66.2027 6.98614V10.4861ZM66.8027 6.18614L66.3027 6.58614C66.9027 7.28614 67.7027 8.18614 68.5027 9.08614L69.0027 8.68614C68.2027 7.78614 67.4027 6.88614 66.8027 6.18614ZM84.6027 7.78614V12.8861C84.6027 13.2861 85.0027 13.7861 85.4027 13.7861L86.0027 13.1861L86.2027 13.3861L84.0027 15.6861H83.9027C83.1027 15.4861 81.9027 14.7861 81.9027 13.3861V7.58614L81.3027 6.98614L80.6027 7.58614L80.4027 7.38614L82.9027 4.88614H83.1027L84.7027 6.48614V7.38614L86.7027 4.98614H86.9027C87.3027 5.38614 87.9027 5.98614 88.5027 6.38614L86.8027 8.38614C86.3027 7.98614 85.7027 7.38614 85.3027 7.08614L84.6027 7.78614ZM84.4027 14.9861C83.6027 14.7861 82.8027 14.2861 82.8027 13.1861V7.18614L82.0027 6.28614L81.5027 6.78614L82.2027 7.48614V13.3861C82.2027 14.4861 83.1027 15.1861 83.9027 15.3861L84.4027 14.9861ZM85.5027 6.88614C85.8027 7.18614 86.3027 7.68614 86.7027 7.98614L87.1027 7.48614C86.7027 7.18614 86.1027 6.58614 85.8027 6.38614L85.5027 6.88614ZM91.1027 15.7861L88.7027 14.1861V10.9861C89.3027 10.5861 90.6027 9.68614 91.2027 9.28614C90.2027 8.78614 89.4027 8.18614 88.9027 7.48614V7.28614C90.3027 6.48614 91.4027 5.68614 92.2027 4.88614H92.4027C92.4027 4.88614 95.4027 6.28614 95.5027 6.38614C95.7027 6.48614 95.8027 6.48614 95.9027 6.48614C96.1027 6.48614 96.3027 6.38614 96.5027 6.28614V6.58614C96.3027 6.78614 96.0027 7.08614 96.0027 7.48614V12.7861C96.0027 13.3861 96.5027 13.6861 96.9027 13.7861L97.5027 13.1861L97.7027 13.3861L95.5027 15.6861H95.4027C94.5027 15.4861 93.5027 14.5861 93.4027 13.5861L91.3027 15.6861H91.1027V15.7861ZM91.6027 14.9861L89.6027 13.6861V10.6861L89.0027 11.0861V13.9861L91.2027 15.3861L91.6027 14.9861ZM93.3027 9.78614V8.18614L90.4027 6.68614C90.2027 6.88614 89.4027 7.28614 89.2027 7.48614C89.9027 8.28614 91.7027 9.38614 93.3027 9.78614ZM95.9027 14.9861C95.1027 14.6861 94.3027 14.1861 94.3027 13.0861V7.58614L91.3027 6.08614C91.2027 6.18614 90.9027 6.38614 90.8027 6.48614L93.7027 7.98614V13.3861C93.7027 14.3861 94.7027 15.1861 95.4027 15.4861L95.9027 14.9861ZM93.3027 13.2861V10.0861C92.7027 9.88614 92.0027 9.68614 91.4027 9.38614V13.3861L92.5027 14.0861L93.3027 13.2861ZM71.6027 14.0861V7.38614L75.2027 4.88614H75.4027C76.1027 5.18614 78.4027 6.18614 78.6027 6.28614C78.7027 6.28614 78.8027 6.38614 79.0027 6.38614C79.2027 6.38614 79.4027 6.28614 79.7027 6.18614V6.58614C79.5027 6.78614 79.2027 7.18614 79.2027 7.48614V13.1861C79.2027 14.4861 79.5027 15.2861 80.0027 15.7861V15.9861C79.2027 16.7861 77.4027 18.6861 76.6027 19.5861H76.5027C75.7027 19.1861 74.4027 18.7861 73.4027 18.7861C72.6027 18.7861 71.7027 18.9861 71.1027 19.4861L70.9027 19.3861C71.5027 17.9861 72.8027 16.4861 74.5027 16.4861C75.5027 16.4861 76.9027 16.8861 78.1027 17.5861C77.3027 16.6861 76.6027 14.9861 76.6027 13.6861L74.5027 15.6861H74.3027L71.6027 14.0861ZM73.3027 17.9861C72.5027 17.9861 71.8027 18.3861 71.4027 18.8861V18.9861C71.9027 18.6861 72.4027 18.5861 73.3027 18.5861C74.3027 18.5861 75.7027 18.8861 76.4027 19.2861L76.8027 18.7861C75.9027 18.3861 74.6027 17.9861 73.3027 17.9861ZM74.1027 15.4861L74.6027 15.0861L72.5027 13.5861V7.18614L71.9027 7.58614V13.9861L74.1027 15.4861ZM77.3027 7.18614L74.3027 5.98614V6.58614L76.6027 7.58614V13.5861C76.6027 14.8861 77.2027 16.2861 78.1027 17.3861L78.6027 16.8861C77.8027 15.8861 77.3027 14.7861 77.3027 13.4861V7.18614ZM76.4027 13.2861V7.78614L74.4027 6.88614V13.1861L75.7027 13.9861L76.4027 13.2861ZM102.003 7.38614L104.603 4.88614H104.803C105.003 5.08614 106.203 6.18614 106.403 6.28614C106.503 6.38614 106.603 6.38614 106.703 6.38614C106.903 6.38614 107.103 6.28614 107.303 6.18614V6.58614C107.103 6.78614 106.803 7.18614 106.803 7.58614V13.9861C105.703 14.2861 104.803 14.8861 103.803 15.9861H103.703L102.003 15.5861V16.9861L102.903 17.7861L100.803 19.5861H100.703L98.7027 17.8861L99.2027 17.2861V14.8861C99.0027 14.8861 98.6027 14.7861 98.4027 14.6861V14.3861C98.6027 14.2861 99.3027 13.6861 99.3027 13.1861V7.68614L98.7027 7.08614L98.0027 7.78614L97.8027 7.58614L100.303 5.08614H100.503L102.103 6.68614V7.38614H102.003ZM99.5027 17.4861L99.1027 17.8861L100.703 19.2861L101.203 18.8861L99.9027 17.7861L100.103 17.5861V7.18614L99.2027 6.28614L98.8027 6.68614L99.5027 7.38614V17.4861ZM104.003 13.5861V7.78614L103.003 6.78614L101.903 7.78614V13.0861C102.403 13.2861 103.803 13.4861 104.003 13.5861ZM103.703 15.6861C103.803 15.4861 104.003 15.2861 104.103 15.1861L101.903 14.7861V15.3861L103.703 15.6861ZM103.203 6.68614L104.303 7.78614V13.5861L104.903 13.2861V7.38614L103.703 6.18614L103.203 6.68614ZM0.802686 9.88614C0.802686 7.28614 2.70269 5.58614 4.50269 4.78614L4.60269 4.98614C4.00269 5.68614 3.60269 6.38614 3.60269 7.98614C3.60269 9.78614 4.10269 10.9861 4.80269 11.7861C5.00269 11.4861 5.20269 11.0861 5.20269 10.6861V8.08614L8.40269 5.78614L8.50269 5.98614C8.30269 6.28614 8.10269 6.68614 8.10269 7.28614V8.98614C8.10269 10.1861 6.20269 11.4861 5.00269 11.8861C5.80269 12.6861 6.90269 12.9861 8.10269 12.9861C8.50269 12.9861 8.90269 12.9861 9.30269 12.8861V5.58614C8.20269 5.48614 7.20269 5.28614 6.30269 4.98614C5.30269 4.68614 4.30269 4.38614 3.50269 4.38614C2.20269 4.38614 0.602686 4.78614 0.602686 6.68614V7.28614L0.302686 7.38614C0.102686 6.78614 0.00268555 6.18614 0.00268555 5.68614C0.00268555 3.38614 1.70269 1.38613 4.40269 1.38613C5.50269 1.38613 6.60269 1.68614 7.60269 1.98614C8.60269 2.28614 9.60269 2.58614 10.6027 2.58614C11.1027 2.58614 11.4027 2.28614 11.4027 1.78614C11.4027 1.28613 11.2027 1.08613 10.8027 0.986133V0.786133C12.0027 0.986133 13.2027 1.68614 13.2027 3.18614C13.3027 4.68614 12.0027 5.58614 9.80269 5.58614H9.60269V12.9861C11.0027 12.6861 12.0027 12.0861 12.7027 10.8861L12.9027 10.9861C12.1027 13.4861 10.2027 15.8861 6.90269 15.8861C3.60269 15.8861 0.802686 13.8861 0.802686 9.88614ZM9.80269 4.68614C7.40269 4.68614 5.20269 3.48614 3.50269 3.48614C2.30269 3.48614 1.00269 3.98614 0.602686 5.28614H0.702686C1.20269 4.38614 2.40269 4.08614 3.50269 4.08614C5.30269 4.08614 7.40269 5.28614 9.80269 5.28614C11.7027 5.28614 12.9027 4.58614 13.0027 3.08614H12.9027C12.7027 4.28614 11.7027 4.68614 9.80269 4.68614ZM2.90269 6.18614C2.00269 7.08614 1.20269 8.28614 1.20269 9.88614C1.20269 13.6861 3.70269 15.5861 7.00269 15.5861C9.00269 15.5861 10.4027 14.4861 11.2027 13.6861L11.1027 13.5861C10.2027 14.3861 8.90269 14.9861 6.90269 14.9861C4.30269 14.9861 1.80269 13.3861 1.80269 9.88614C1.80269 8.48614 2.30269 7.08614 2.90269 6.18614ZM6.10269 10.4861V7.68614L5.50269 8.18614V10.7861C5.50269 11.0861 5.40269 11.2861 5.40269 11.4861H5.50269C5.80269 11.1861 6.10269 10.8861 6.10269 10.4861ZM36.4027 9.88614C36.4027 7.28614 38.3027 5.58614 40.1027 4.78614L40.2027 4.98614C39.5027 5.78614 39.1027 6.48614 39.1027 7.98614C39.1027 9.78614 39.6027 10.9861 40.3027 11.7861C40.5027 11.4861 40.7027 11.0861 40.7027 10.6861V8.08614L44.0027 5.68614L44.1027 5.88614C43.8027 6.28614 43.7027 6.68614 43.7027 7.28614V8.98614C43.7027 10.1861 41.8027 11.4861 40.6027 11.8861C41.4027 12.6861 42.5027 12.9861 43.7027 12.9861C44.1027 12.9861 44.5027 12.9861 44.9027 12.8861V5.58614C43.8027 5.48614 42.8027 5.28614 41.9027 4.98614C40.9027 4.68614 39.9027 4.38614 39.1027 4.38614C37.8027 4.38614 36.2027 4.78614 36.2027 6.68614V7.28614L36.0027 7.38614C35.8027 6.78614 35.7027 6.18614 35.7027 5.68614C35.7027 3.38614 37.4027 1.38613 40.1027 1.38613C41.2027 1.38613 42.3027 1.68614 43.3027 1.98614C44.3027 2.28614 45.3027 2.58614 46.3027 2.58614C46.8027 2.58614 47.1027 2.28614 47.1027 1.78614C47.1027 1.28613 46.9027 1.08613 46.5027 0.986133V0.786133C47.7027 0.986133 48.9027 1.68614 48.9027 3.18614C48.9027 4.98614 47.6027 5.78614 45.4027 5.78614H45.2027V13.1861C46.6027 12.8861 47.6027 12.2861 48.3027 11.0861L48.5027 11.1861C47.7027 13.6861 45.8027 16.0861 42.5027 16.0861C39.2027 15.8861 36.4027 13.8861 36.4027 9.88614ZM45.4027 4.68614C43.0027 4.68614 40.8027 3.48614 39.1027 3.48614C38.0027 3.48614 36.7027 3.98614 36.2027 5.28614H36.3027C36.8027 4.38614 38.0027 4.08614 39.1027 4.08614C40.9027 4.08614 43.0027 5.28614 45.4027 5.28614C47.3027 5.28614 48.5027 4.58614 48.6027 3.08614H48.5027C48.2027 4.28614 47.3027 4.68614 45.4027 4.68614ZM38.5027 6.18614C37.6027 7.08614 36.8027 8.28614 36.8027 9.88614C36.8027 13.6861 39.3027 15.5861 42.6027 15.5861C44.6027 15.5861 46.0027 14.4861 46.8027 13.6861L46.7027 13.5861C45.8027 14.3861 44.5027 14.9861 42.5027 14.9861C39.9027 14.9861 37.4027 13.3861 37.4027 9.88614C37.4027 8.48614 37.9027 7.08614 38.5027 6.18614ZM41.7027 10.4861V7.68614L41.1027 8.08614V10.6861C41.1027 10.9861 41.0027 11.1861 41.0027 11.3861H41.1027C41.4027 11.1861 41.7027 10.8861 41.7027 10.4861Z" fill="#A1A1AA"/>
</g>
<defs>
<clipPath id="clip0_2461_20727">
<rect width="117" height="20" fill="white" transform="translate(0.00268555 0.585938)"/>
</clipPath>
</defs>
</svg>
