<svg width="42" height="33" viewBox="0 0 42 33" fill="none" xmlns="http://www.w3.org/2000/svg">
<g clip-path="url(#clip0_2461_21215)">
<path d="M5.53198 32.236H5.46538C5.46931 32.1917 5.46931 32.1471 5.46538 32.1028C5.3302 31.3295 5.19413 30.5564 5.05717 29.7834C4.80766 28.3694 4.55782 26.9547 4.30765 25.5393C4.05826 24.1184 3.81286 22.6964 3.5628 21.2755C3.31274 19.8546 3.05902 18.4346 2.80929 17.0134C2.53781 15.4673 2.26766 13.9209 1.99884 12.3739C1.73491 10.8711 1.46975 9.36858 1.20338 7.86621C1.17008 7.6682 1.11414 7.47352 1.07019 7.27754V7.24423C1.50594 7.16815 1.94168 7.09184 2.37743 7.01531L6.07072 6.36508L9.56689 5.75145C10.7982 5.53537 12.0295 5.31907 13.2605 5.10254L16.9545 4.45364L20.4696 3.83536L24.1466 3.18978C25.378 2.97392 26.6099 2.75818 27.8426 2.54254C29.0793 2.32558 30.3159 2.10828 31.5525 1.89065L35.2462 1.24008C35.7013 1.16022 36.1568 1.08168 36.623 1.00049C36.7708 1.84306 36.916 2.67033 37.0615 3.49626C37.2779 4.72685 37.4945 5.95732 37.7112 7.18768C37.9165 8.35836 38.1218 9.52903 38.3271 10.6997C38.5318 11.8646 38.7369 13.0294 38.9424 14.1938C39.1482 15.3645 39.3537 16.5351 39.5588 17.7056C39.7752 18.9361 39.9918 20.1665 40.2087 21.3967C40.4256 22.6268 40.642 23.8571 40.858 25.0877C40.9086 25.3743 40.9712 25.6591 41.0282 25.9446V25.9779L39.8192 26.1899L36.1265 26.8384L32.4339 27.487L28.9191 28.1053L25.2438 28.7508C23.9474 28.9789 22.6512 29.2071 21.3554 29.4354C20.1247 29.6517 18.8938 29.8676 17.6627 30.0833C16.3715 30.3102 15.0804 30.5376 13.7896 30.7654C12.5588 30.9815 11.3275 31.1967 10.096 31.411C8.85467 31.6282 7.61313 31.8468 6.37139 32.0669C6.09037 32.1168 5.81167 32.1794 5.53198 32.236ZM7.55246 22.338C7.49885 22.3437 7.44425 22.3457 7.39096 22.355C6.6654 22.4835 5.94053 22.6172 5.21333 22.738C5.08014 22.7603 5.04917 22.8149 5.06449 22.9337C5.12143 23.3663 5.16105 23.8042 5.23297 24.2355C5.35451 24.9646 5.53964 25.6774 5.88959 26.336C6.55985 27.5981 8.10247 28.2889 9.47932 27.9332C10.4273 27.689 11.0572 27.0647 11.4655 26.2005C12.0349 24.9949 12.2836 23.732 12.0935 22.4019C11.8987 21.0405 11.3609 19.8462 10.2954 18.9411C9.85326 18.5651 9.36712 18.2423 8.89698 17.8996C8.66391 17.7305 8.40281 17.5968 8.18378 17.4124C7.70593 17.0107 7.29738 16.5495 7.1875 15.9049C7.11691 15.4916 7.16386 15.0936 7.46652 14.7689C7.8754 14.3299 8.55465 14.4634 8.76513 15.0241C8.80954 15.1492 8.84108 15.2786 8.85937 15.4101C8.88928 15.6041 8.90495 15.8001 8.92761 16.0031C9.7184 15.8646 10.4876 15.7295 11.2584 15.5961C11.3417 15.5815 11.3699 15.5432 11.3536 15.459C11.2118 14.7269 11.0956 13.9862 10.9208 13.2608C10.8327 12.9001 10.6879 12.5557 10.4919 12.2405C9.59987 10.8096 7.8178 10.4821 6.45064 11.4751C5.80901 11.941 5.40578 12.5829 5.13075 13.3123C4.75216 14.3179 4.66992 15.3605 4.76182 16.4224C4.89501 17.9798 5.53297 19.2593 6.83122 20.1797C7.38293 20.5711 7.92569 20.9754 8.46276 21.3856C8.82992 21.6594 9.11831 22.0252 9.29888 22.4459C9.51759 22.963 9.5985 23.4944 9.35648 24.0255C9.14704 24.4881 8.64621 24.6082 8.24967 24.2917C8.11285 24.1798 7.99968 24.0418 7.91667 23.8857C7.81969 23.6992 7.74864 23.5002 7.7056 23.2944C7.63632 22.9829 7.60203 22.6638 7.55246 22.338ZM18.0479 26.0584C18.7346 25.9383 19.3945 25.8218 20.0547 25.708C20.1573 25.69 20.1503 25.6244 20.144 25.5476C19.9886 23.669 19.8346 21.7906 19.6818 19.9124C19.5154 17.8797 19.3489 15.8468 19.1824 13.8138C19.1694 13.6561 19.1514 13.4987 19.1341 13.325L17.0364 13.6967C17.065 14.0654 17.0913 14.4084 17.1196 14.7738C16.9531 14.6155 16.8176 14.469 16.6645 14.3439C16.507 14.2126 16.3393 14.0941 16.163 13.9895C15.3256 13.5036 14.3983 13.5978 13.6921 14.2601C13.4612 14.4753 13.2597 14.72 13.0927 14.9878C12.4084 16.0973 12.1034 17.3348 12.0019 18.615C11.8597 20.4053 12.1234 22.154 12.6945 23.8541C12.9499 24.6145 13.2861 25.3373 13.8266 25.9449C14.3174 26.4957 14.9234 26.7928 15.6729 26.7805C16.5972 26.7655 17.2622 26.3606 17.6321 25.501C17.6867 25.3739 17.7373 25.2451 17.7906 25.1173C17.8056 25.081 17.8239 25.0458 17.8548 24.9749C17.9211 25.3556 17.9827 25.697 18.0479 26.0584ZM32.9021 18.3461L34.5036 18.0636C35.5951 17.8715 36.6867 17.68 37.7784 17.4893C37.8919 17.4696 37.9449 17.4347 37.9449 17.3022C37.9449 16.047 37.7894 14.8154 37.4005 13.6184C37.0675 12.5986 36.5541 11.6911 35.7313 10.9836C34.7214 10.1157 33.3146 10.158 32.347 11.0748C31.8965 11.5014 31.5792 12.0192 31.3307 12.5809C30.8433 13.683 30.5919 14.8437 30.523 16.0417C30.4414 17.4553 30.5313 18.8566 30.9375 20.2223C31.2432 21.2502 31.7366 22.171 32.5734 22.8708C33.2307 23.4206 33.9839 23.6029 34.8146 23.3743C35.5472 23.1746 36.0965 22.7087 36.5387 22.1097C37.1581 21.2692 37.5243 20.3191 37.7321 19.3035C37.7824 19.0573 37.8134 18.807 37.8556 18.5438C37.7691 18.5511 37.7194 18.5518 37.6715 18.5601C37.1584 18.6499 36.6483 18.7631 36.1319 18.8233C35.8128 18.8602 35.6657 18.9874 35.5798 19.3009C35.4626 19.7308 35.2395 20.1211 34.8722 20.402C34.4394 20.7348 33.9333 20.6958 33.5796 20.2829C33.1092 19.7318 32.9819 19.0536 32.9021 18.3461ZM20.5489 25.6188L22.7741 25.2258C22.7741 25.1373 22.7788 25.0654 22.7741 24.9929C22.6889 23.8488 22.6028 22.7047 22.5161 21.5607C22.4445 20.627 22.3593 19.6939 22.301 18.7594C22.2644 18.1688 22.2307 17.5741 22.2604 16.9848C22.2977 16.249 22.7502 15.8327 23.4198 15.8264C23.7044 15.8238 23.9402 15.9302 24.0787 16.1725C24.1926 16.3721 24.3045 16.5921 24.3327 16.8141C24.4213 17.5128 24.4789 18.2117 24.5325 18.9145C24.6657 20.6163 24.7862 22.319 24.9131 24.0215C24.9328 24.2854 24.9571 24.549 24.9797 24.8109C25.0002 24.8165 25.0213 24.8197 25.0426 24.8205C25.7688 24.6951 26.495 24.5706 27.2202 24.4382C27.2566 24.4315 27.3051 24.3566 27.3059 24.3134C27.3059 24.1696 27.2892 24.0258 27.2789 23.8808C27.2093 22.8801 27.142 21.8791 27.0695 20.8785C26.9752 19.5714 26.8826 18.2596 26.7754 16.9518C26.7148 16.2124 26.6489 15.4716 26.5403 14.7382C26.4318 14.0048 26.1631 13.3286 25.6413 12.7726C24.9444 12.0285 24.0737 11.8681 23.1634 12.3323C22.5673 12.6364 22.1901 13.1403 21.9117 13.7299C21.8844 13.7872 21.8595 13.8458 21.8335 13.904L21.7809 13.9003V12.8924C21.7582 12.8834 21.7347 12.8772 21.7106 12.8738C21.0227 12.9932 20.3355 13.1153 19.6462 13.2318C19.5367 13.2504 19.535 13.313 19.542 13.3982C19.58 13.862 19.6142 14.3263 19.6525 14.7902C19.8032 16.613 19.9544 18.4357 20.1061 20.2582C20.2339 21.8156 20.3603 23.3733 20.4853 24.9313C20.5033 25.1559 20.5266 25.3809 20.5489 25.6188ZM29.2354 7.52544L27.0608 7.91049C27.1034 8.564 27.1447 9.19395 27.1856 9.82389C27.2272 10.4655 27.2666 11.1074 27.3121 11.749C27.3198 11.8554 27.2878 11.8944 27.1813 11.9077C26.9889 11.9316 26.799 11.9742 26.6076 12.0052C26.5161 12.0201 26.4804 12.0541 26.4894 12.1586C26.556 12.9539 26.6162 13.7499 26.6795 14.5456C26.6908 14.6863 26.7085 14.8264 26.7244 14.9805L27.5182 14.8507C27.727 18.0037 27.9342 21.1321 28.1422 24.2804L30.4231 23.8778C30.194 20.7221 29.9669 17.5904 29.7388 14.4547C30.0095 14.4065 30.2539 14.3579 30.5 14.3216C30.6122 14.3049 30.6412 14.2607 30.6309 14.1469C30.5729 13.4953 30.5247 12.8431 30.4717 12.1912C30.4491 11.9127 30.4231 11.6342 30.3975 11.344L29.5248 11.4904C29.4751 10.8248 29.4249 10.1746 29.3789 9.5244C29.3316 8.86683 29.2846 8.20998 29.2354 7.52544ZM22.0622 8.04554C22.0376 7.85158 22.0156 7.5018 21.9461 7.16175C21.7852 6.37905 21.4622 5.67657 20.8336 5.15113C20.1676 4.59574 19.3212 4.52585 18.5694 4.9558C18.2305 5.14838 17.9373 5.41197 17.71 5.72848C16.8236 6.9624 16.6185 8.33243 16.9402 9.79196C17.1023 10.5274 17.4366 11.1789 18.0316 11.6674C18.6976 12.2138 19.5406 12.293 20.2772 11.8445C20.5654 11.6687 20.8238 11.4484 21.043 11.1919C21.7692 10.3324 22.0316 9.30412 22.0622 8.04554ZM22.4827 11.4468C22.5343 11.4462 22.5857 11.4428 22.6369 11.4368C22.9316 11.3852 23.225 11.3257 23.5207 11.2814C23.6312 11.2651 23.6538 11.2148 23.6505 11.117C23.6398 10.8791 23.6329 10.6408 23.6315 10.4026C23.6285 9.92205 23.6315 9.4412 23.6315 8.94703C23.838 8.91378 24.062 8.88479 24.2845 8.84456C25.1392 8.6905 25.6923 8.19999 25.9011 7.35343C26.0388 6.7862 26.0657 6.19773 25.9803 5.62033C25.8138 4.46662 24.9774 3.81905 23.8529 3.99575C23.4051 4.06597 22.9619 4.16846 22.5194 4.26896C22.2034 4.34083 22.2034 4.35015 22.2154 4.66262C22.2938 6.72801 22.3726 8.79329 22.4521 10.8585C22.4588 11.0511 22.4718 11.2435 22.4827 11.4468ZM14.5221 7.36205C14.5791 9.19728 14.635 11.0065 14.6917 12.8338C15.1598 12.7529 15.607 12.6784 16.0518 12.5922C16.0874 12.5852 16.1327 12.4963 16.1307 12.4471C16.0811 11.2009 16.0255 9.95502 15.9715 8.70879C15.9489 8.18366 15.9283 7.65854 15.905 7.11813C16.152 7.07321 16.3894 7.02296 16.6295 6.98902C16.7447 6.97271 16.7903 6.93377 16.7873 6.81132C16.777 6.36241 16.777 5.91284 16.7717 5.46426C16.7679 5.41328 16.7616 5.36252 16.7527 5.31219C15.7059 5.49688 14.676 5.68123 13.6444 5.8576C13.5096 5.88056 13.4603 5.92415 13.4623 6.06725C13.4693 6.49985 13.46 6.93245 13.458 7.36505C13.458 7.4186 13.4623 7.47222 13.4656 7.54275L14.5221 7.36205ZM32.7555 10.1703C32.8138 10.165 32.8455 10.1643 32.8761 10.159C33.4055 10.0661 33.9339 9.96828 34.4643 9.88247C34.5154 9.87738 34.5641 9.85844 34.6052 9.82768C34.6463 9.79698 34.6781 9.75558 34.6974 9.7081C35.1969 8.69488 35.6987 7.68263 36.2028 6.67122C36.2264 6.62397 36.2458 6.57472 36.2753 6.50817L33.875 6.0353L32.7555 10.1703ZM9.96049 30.614C10.4932 30.6114 10.8928 30.2183 10.8828 29.7069C10.8738 29.1845 10.4856 28.7808 9.9904 28.7791C9.46665 28.7791 9.05809 29.1742 9.05809 29.683C9.06142 30.2104 9.45405 30.6164 9.96049 30.614ZM12.8007 29.3827C12.8007 28.8504 12.4151 28.441 11.911 28.4401C11.3906 28.4401 10.9893 28.8241 10.985 29.3282C10.9804 29.8607 11.3636 30.2729 11.8674 30.2763C12.4014 30.2802 12.8 29.8986 12.8014 29.3835L12.8007 29.3827ZM13.154 30.0367C13.445 29.9701 13.72 29.9322 13.9771 29.8397C14.1532 29.7751 14.3022 29.6527 14.3995 29.4923C14.4969 29.3321 14.5368 29.1435 14.5129 28.9575C14.4499 28.5155 14.1729 28.2044 13.753 28.1901C13.4563 28.1801 13.1563 28.255 12.8463 28.2936C12.9515 28.8873 13.0494 29.4407 13.1546 30.0373L13.154 30.0367ZM8.72151 29.2363C8.53937 29.0919 8.37323 29.06 8.0689 29.1032C7.63599 29.1675 7.322 29.5049 7.29535 29.9352C7.26808 30.3781 7.53346 30.7791 7.94267 30.8879C8.30394 30.9837 8.6336 30.8826 8.93728 30.6849C8.95576 30.6708 8.97078 30.6526 8.98103 30.6317C8.99135 30.6108 8.99664 30.5877 8.99651 30.5645C8.95824 30.3089 8.90959 30.0549 8.86165 29.7838L8.24399 29.8899C8.25731 29.9731 8.26835 30.0403 8.28063 30.1165L8.63491 30.073C8.79844 30.5112 8.69186 30.6703 8.24066 30.6836C8.22969 30.6836 8.21839 30.6836 8.20742 30.6836C7.84111 30.6753 7.5684 30.3841 7.56539 29.9947C7.56245 29.6177 7.81382 29.3455 8.18939 29.3412C8.32262 29.3412 8.45747 29.3818 8.61427 29.4078L8.72151 29.2363ZM29.1185 27.2065L29.0033 26.486C29.1698 26.3862 29.2697 26.4344 29.3606 26.5632C29.4515 26.692 29.565 26.8111 29.6679 26.9342C29.8198 27.116 29.8364 27.1193 30.0825 27.0088L29.4985 26.3546C29.5574 26.3176 29.5963 26.2966 29.6316 26.2701C29.7998 26.1419 29.8531 25.9706 29.8074 25.7689C29.7635 25.5725 29.6167 25.4175 29.4122 25.4235C29.1352 25.4318 28.8591 25.49 28.5711 25.526C28.677 26.123 28.7759 26.6817 28.8771 27.253L29.1185 27.2065ZM37.7488 25.6657C37.549 25.4388 37.3572 25.2245 37.1621 25.0049L37.2406 24.9539C37.4561 24.8145 37.534 24.6115 37.4594 24.3829C37.3882 24.1643 37.21 24.0442 36.9533 24.0707C36.7182 24.0947 36.4855 24.143 36.2344 24.1833C36.3366 24.7636 36.4342 25.3223 36.5368 25.898L36.7825 25.8494C36.7468 25.6454 36.7099 25.4614 36.6853 25.2757C36.6776 25.2198 36.6872 25.1226 36.7186 25.1094C36.7995 25.0721 36.8933 25.0505 36.9693 25.1516C37.0788 25.298 37.215 25.4251 37.3169 25.5759C37.4304 25.7413 37.5603 25.7583 37.7488 25.6647V25.6657ZM23.8972 28.1312C23.7944 27.5492 23.6944 26.9872 23.5932 26.4158L23.3495 26.4614C23.3895 26.7023 23.4271 26.9272 23.4661 27.1632L22.6103 27.311C22.564 27.0671 22.5214 26.8414 22.4771 26.6075L22.2344 26.6577C22.3366 27.2344 22.4365 27.7961 22.5377 28.3662L22.7818 28.3209C22.7372 28.0547 22.6955 27.8088 22.6516 27.5476L23.506 27.3998C23.5569 27.668 23.6039 27.9146 23.6522 28.1682L23.8972 28.1312ZM34.4054 25.2361L33.5504 25.3846C33.5047 25.142 33.4634 24.921 33.4195 24.6857L33.1747 24.732C33.277 25.3097 33.3745 25.8684 33.4764 26.4391L33.7205 26.3995C33.6775 26.1366 33.6369 25.8887 33.5936 25.6235L34.4477 25.4744C34.4973 25.7406 34.5429 25.9892 34.5906 26.2458L34.8356 26.2012C34.7337 25.6244 34.6338 25.0618 34.5329 24.4907L34.2889 24.5343C34.3272 24.7693 34.3638 24.9916 34.4041 25.2341L34.4054 25.2361ZM15.6103 28.7894L16.4643 28.642C16.5146 28.9112 16.5606 29.1582 16.6089 29.417L16.8519 29.3658C16.7521 28.7951 16.6522 28.2371 16.5552 27.683C16.3055 27.6683 16.2985 27.6773 16.3385 27.9006C16.3675 28.0623 16.3924 28.2247 16.4224 28.4041L15.5683 28.5535C15.5231 28.3143 15.4817 28.0939 15.4375 27.8577L15.1918 27.8989C15.2943 28.4787 15.3942 29.0407 15.4954 29.6131L15.7375 29.5628C15.6945 29.3003 15.6543 29.056 15.6103 28.7894ZM34.8666 24.4258C34.9695 25.0068 35.0663 25.5655 35.1699 26.1416L36.3226 25.9383C36.308 25.8531 36.2967 25.7856 36.2834 25.7054L35.3767 25.8581C35.3454 25.6738 35.3181 25.5126 35.2888 25.3393L36.0659 25.1958C36.0729 24.9606 36.0659 24.9559 35.8661 24.9919C35.6664 25.0278 35.4566 25.0621 35.2428 25.0983C35.2138 24.9273 35.1886 24.7776 35.1612 24.6168C35.4066 24.5719 35.6291 24.5306 35.8515 24.4904C36.0389 24.4571 36.0419 24.4512 35.961 24.2325L34.8666 24.4258ZM16.8862 27.5968C16.9891 28.1792 17.086 28.7375 17.1892 29.3119L18.3413 29.1079C18.327 29.0227 18.3153 28.9552 18.3024 28.877L17.3957 29.031L17.3091 28.5106L18.1039 28.3629C18.0879 28.2783 18.0752 28.2117 18.0606 28.1349L17.2632 28.271C17.2352 28.1046 17.2089 27.9519 17.1813 27.7885L18.043 27.6297C17.9914 27.5486 18.0822 27.3968 17.9214 27.4174C17.5818 27.4597 17.2462 27.5322 16.8862 27.5968ZM37.6302 23.94C37.7328 24.521 37.83 25.0794 37.9332 25.6554L39.0873 25.4494C39.071 25.3586 39.0597 25.2957 39.046 25.2205L38.1393 25.3739L38.0534 24.8541L38.8482 24.705C38.8315 24.6195 38.8186 24.553 38.8042 24.4777L38.0052 24.6142C37.9768 24.4478 37.9502 24.2937 37.9226 24.132L38.7776 23.9726C38.7643 23.8878 38.7543 23.8242 38.7417 23.7426L37.6302 23.94ZM28.7169 27.26C28.7169 27.2494 28.7193 27.2361 28.7143 27.2267C28.395 26.7349 28.077 26.2424 27.7507 25.7556C27.7257 25.7186 27.6342 25.7033 27.5815 25.715C27.5557 25.7243 27.5323 25.7393 27.5131 25.7589C27.4939 25.7785 27.4794 25.8021 27.4706 25.8281C27.3984 26.089 27.3375 26.3529 27.2709 26.6161C27.1953 26.925 27.1207 27.2344 27.0395 27.5702C27.1653 27.5269 27.3318 27.6018 27.3391 27.4298C27.3524 27.1113 27.5266 27.0075 27.8113 27.0058C27.8725 27.0057 27.9333 26.9944 27.9904 26.9725C28.1652 26.903 28.2591 26.9752 28.3434 27.1286C28.4662 27.3542 28.4759 27.3489 28.7169 27.26ZM20.1024 28.7815C20.0998 28.764 20.0949 28.747 20.0877 28.7309C19.7737 28.2487 19.4608 27.7658 19.1411 27.287C19.1234 27.2664 19.1009 27.2504 19.0756 27.2405C19.0503 27.2306 19.023 27.227 18.9959 27.2301C18.9396 27.2467 18.8664 27.2986 18.8517 27.3499C18.7741 27.6208 18.7126 27.896 18.6456 28.1698C18.5731 28.4693 18.5008 28.7661 18.4276 29.0683C18.6906 29.0776 18.7059 29.0663 18.7505 28.8487C18.7583 28.8158 18.7641 28.7825 18.7678 28.7488C18.7778 28.6351 18.8251 28.5741 18.9523 28.5652C19.0957 28.5528 19.2376 28.5271 19.3762 28.4883C19.536 28.4464 19.6522 28.4687 19.7161 28.639C19.7831 28.8224 19.9069 28.886 20.1024 28.7815ZM32.1748 25.2478L32.327 25.0405C32.1186 24.8768 31.801 24.8647 31.5642 25.0042C31.3764 25.115 31.2731 25.276 31.3004 25.5C31.3277 25.724 31.4573 25.8631 31.6717 25.9177C31.7946 25.9509 31.9228 25.9606 32.047 25.9865C32.1592 26.0101 32.2661 26.0481 32.28 26.1862C32.2941 26.3243 32.2158 26.4165 32.0956 26.4714C31.9218 26.5502 31.7626 26.507 31.6035 26.3902L31.448 26.5848C31.6434 26.7692 31.9474 26.8045 32.2168 26.6823C32.4585 26.5718 32.5778 26.3595 32.5408 26.106C32.5075 25.878 32.35 25.7453 32.0746 25.7087C31.9648 25.6962 31.8557 25.6776 31.748 25.6531C31.6351 25.6255 31.5442 25.5469 31.5722 25.4294C31.5972 25.333 31.6563 25.249 31.7386 25.1928C31.8745 25.1107 32.0263 25.1396 32.1748 25.2478ZM24.67 27.7792C24.8922 27.9751 25.2241 28.0001 25.4908 27.853C25.7033 27.7356 25.8111 27.5203 25.7688 27.2983C25.7242 27.0654 25.5807 26.9436 25.317 26.9059C25.2022 26.8897 25.087 26.8727 24.974 26.8461C24.8612 26.8195 24.7713 26.7349 24.7962 26.6221C24.8155 26.534 24.8922 26.4122 24.9667 26.3919C25.1043 26.3549 25.2587 26.3812 25.4059 26.3812L25.4156 26.4248C25.4632 26.3616 25.5111 26.2987 25.5587 26.2358C25.332 26.0624 24.9771 26.0634 24.7486 26.2261C24.5821 26.3456 24.5006 26.5043 24.5328 26.7136C24.5652 26.9229 24.6904 27.0531 24.8882 27.109C25.01 27.1422 25.1382 27.1552 25.2631 27.1795C25.3813 27.2028 25.4962 27.2357 25.5068 27.3845C25.5184 27.5432 25.4262 27.6527 25.2867 27.672C25.1386 27.6923 24.9827 27.6564 24.8298 27.6451L24.8249 27.5938L24.67 27.7792ZM20.7936 27.1446L21.3351 27.0557C21.4236 27.5512 21.5101 28.0337 21.5991 28.5302L21.8444 28.4839C21.7576 27.9848 21.674 27.5079 21.5881 27.0151L22.1352 26.9023C22.1125 26.8154 22.0952 26.7495 22.0765 26.679L20.7487 26.9166C20.766 27.0061 20.7786 27.069 20.7936 27.1446ZM29.848 25.5473L30.3858 25.4594C30.4744 25.9546 30.5609 26.4368 30.6495 26.9319L30.8946 26.8903C30.8073 26.3865 30.7241 25.9047 30.6395 25.4172L31.1836 25.3073C31.1649 25.2235 31.1503 25.1606 31.1333 25.0824L29.7958 25.32C29.8161 25.4102 29.8307 25.4727 29.848 25.5473ZM26.7355 27.6321C26.6479 27.1276 26.564 26.645 26.4788 26.1522L27.0215 26.0434C27.0028 25.9606 26.9882 25.894 26.9705 25.8178L25.6363 26.0541C25.6556 26.141 25.6696 26.2082 25.6866 26.2807L26.2264 26.1972C26.3146 26.693 26.3998 27.1708 26.488 27.6653L26.7355 27.6321ZM19.9542 27.0557C20.0571 27.6377 20.1556 28.1955 20.2576 28.7705L21.2871 28.5878C21.2671 28.499 21.2538 28.4367 21.2361 28.3618L20.4656 28.4869C20.3761 27.9878 20.2898 27.5076 20.2013 27.0131L19.9542 27.0557Z" fill="#A1A1AA"/>
<path d="M20.1025 28.7812C19.907 28.8857 19.7841 28.8222 19.7162 28.6405C19.6523 28.4701 19.5361 28.4479 19.3762 28.4898C19.2377 28.5286 19.0958 28.5543 18.9524 28.5667C18.8252 28.5756 18.7779 28.6365 18.7679 28.7504C18.7642 28.7839 18.7584 28.8173 18.7506 28.8501C18.706 29.0678 18.6907 29.0791 18.4276 29.0698C18.5009 28.7676 18.5731 28.4708 18.6457 28.1713C18.7123 27.8975 18.7743 27.6223 18.8518 27.3514C18.8665 27.3001 18.9397 27.2482 18.996 27.2315C19.023 27.2285 19.0504 27.2321 19.0757 27.242C19.101 27.2519 19.1234 27.2678 19.1412 27.2885C19.4608 27.767 19.7738 28.2502 20.0878 28.7323C20.0948 28.7479 20.0997 28.7644 20.1025 28.7812ZM19.4662 28.2489L19.03 27.5524C18.9661 27.8445 18.9128 28.0888 18.8542 28.3556L19.4662 28.2489Z" fill="white"/>
<path d="M32.1749 25.2481C32.0264 25.1392 31.8752 25.1103 31.7384 25.1932C31.6561 25.2492 31.5969 25.3334 31.5719 25.4298C31.5439 25.5472 31.6348 25.6257 31.7477 25.6534C31.8555 25.6779 31.9645 25.6964 32.0744 25.7089C32.3487 25.7455 32.5072 25.8783 32.5405 26.1063C32.5775 26.3598 32.4582 26.5722 32.2165 26.6826C31.9501 26.8047 31.6431 26.7694 31.4477 26.5851L31.6032 26.3905C31.7613 26.5072 31.9215 26.5505 32.0953 26.4716C32.2155 26.4167 32.2927 26.3275 32.2798 26.1865C32.2668 26.0453 32.1602 26.0104 32.0467 25.9868C31.9225 25.9608 31.7943 25.9495 31.6714 25.9179C31.457 25.8633 31.3271 25.7223 31.3002 25.5003C31.2732 25.2783 31.3761 25.1153 31.5639 25.0045C31.8007 24.8651 32.1183 24.877 32.3267 25.0407L32.1749 25.2481Z" fill="white"/>
<path d="M24.6701 27.7793L24.8249 27.5939L24.8299 27.6451C24.9827 27.6565 25.1386 27.6924 25.2867 27.6721C25.4262 27.6528 25.5198 27.5433 25.5068 27.3846C25.4958 27.2358 25.3813 27.2029 25.2631 27.1796C25.1382 27.1553 25.01 27.1433 24.8882 27.109C24.6904 27.0531 24.5652 26.9237 24.5329 26.7137C24.5006 26.5038 24.5815 26.3457 24.7486 26.2262C24.9771 26.0635 25.332 26.0625 25.5587 26.2359C25.5111 26.2988 25.4632 26.3617 25.4156 26.4249L25.4059 26.3813C25.2587 26.3813 25.1042 26.355 24.9668 26.392C24.8922 26.4122 24.8156 26.534 24.7962 26.6222C24.7713 26.735 24.8592 26.8189 24.9741 26.8462C25.0889 26.8735 25.2021 26.8898 25.317 26.9061C25.5808 26.9437 25.7242 27.0668 25.7688 27.2984C25.8112 27.5204 25.7023 27.7356 25.4908 27.8531C25.2241 28.0002 24.8922 27.9766 24.6701 27.7793Z" fill="white"/>
<path d="M20.7937 27.1446C20.7787 27.0687 20.7661 27.0058 20.7484 26.9163L22.0767 26.6787C22.0953 26.7492 22.1126 26.8151 22.1353 26.902L21.5882 27.0148C21.6741 27.5076 21.7577 27.9858 21.8446 28.4836L21.5992 28.5299C21.5103 28.0334 21.4237 27.5509 21.3351 27.0554L20.7937 27.1446Z" fill="white"/>
<path d="M29.8483 25.5469C29.831 25.471 29.815 25.4084 29.796 25.3196L31.1335 25.082C31.1512 25.1602 31.1668 25.2231 31.1838 25.3069L30.6397 25.4168C30.7243 25.9043 30.8062 26.3861 30.8948 26.89L30.6497 26.9316C30.5611 26.4363 30.4746 25.9542 30.386 25.459L29.8483 25.5469Z" fill="white"/>
<path d="M26.7354 27.632L26.488 27.6653C26.3997 27.1708 26.3145 26.6929 26.2263 26.1971L25.6865 26.2793C25.6705 26.2067 25.6556 26.1395 25.6362 26.0527L26.9704 25.8164C26.9877 25.8926 27.0037 25.9592 27.0214 26.042L26.4787 26.1508C26.5639 26.6453 26.6478 27.1275 26.7354 27.632Z" fill="white"/>
<path d="M19.9541 27.0558L20.2012 27.0132C20.2898 27.5077 20.376 27.9885 20.4656 28.487L21.2361 28.3619C21.253 28.4368 21.267 28.499 21.287 28.5878L20.2574 28.7705C20.1556 28.1955 20.057 27.6378 19.9541 27.0558Z" fill="white"/>
<path d="M17.6204 20.1158C17.6204 21.0014 17.5235 21.653 17.2059 22.2456C17.0711 22.4998 16.8956 22.7302 16.6864 22.9278C16.2885 23.2978 15.7747 23.3072 15.3263 22.9983C15.0312 22.795 14.8215 22.5175 14.6577 22.2043C14.2304 21.389 14.1089 20.5149 14.1762 19.6087C14.2065 19.1265 14.3244 18.6538 14.5241 18.2137C14.6573 17.9242 14.8291 17.6603 15.0742 17.451C15.498 17.0886 16.0108 17.063 16.4663 17.3845C16.836 17.6464 17.0686 18.0151 17.2458 18.4217C17.5112 19.0314 17.6214 19.6716 17.6204 20.1158Z" fill="#A1A1AA"/>
<path d="M35.5707 15.2726L32.6489 15.7871C32.6789 15.5328 32.6972 15.2996 32.7355 15.0699C32.7934 14.7219 32.909 14.3921 33.1247 14.1086C33.467 13.6587 33.9215 13.4583 34.4806 13.5761C34.6525 13.6178 34.8109 13.703 34.9405 13.8234C35.354 14.2061 35.4805 14.7215 35.5707 15.2726Z" fill="#A1A1AA"/>
<path d="M18.0682 8.6271C18.0806 8.03673 18.1798 7.51598 18.4622 7.04909C18.5724 6.86347 18.7097 6.69525 18.8694 6.54994C19.3226 6.14729 19.886 6.19986 20.2772 6.66275C20.5316 6.96224 20.6614 7.3213 20.7257 7.70367C20.8422 8.39585 20.7677 9.06804 20.4387 9.69093C20.3114 9.92989 20.1422 10.144 19.9392 10.3232C19.5107 10.6986 18.9736 10.6434 18.5937 10.2174C18.2743 9.85968 18.1455 9.42142 18.0896 8.95689C18.0756 8.83177 18.0733 8.70396 18.0682 8.6271Z" fill="#A1A1AA"/>
<path d="M23.5199 6.5464C23.5199 6.30348 23.5266 6.05989 23.5169 5.81697C23.5126 5.70815 23.5502 5.64892 23.6502 5.62629C23.795 5.59301 23.9398 5.54642 24.087 5.53711C24.4503 5.51315 24.6774 5.66489 24.7556 6.01929C24.8069 6.24497 24.8182 6.47789 24.7889 6.70746C24.7253 7.15502 24.4296 7.38098 23.8755 7.4359C23.5426 7.46914 23.5659 7.53836 23.5582 7.16037C23.5539 6.9557 23.5582 6.75105 23.5582 6.5464H23.5199Z" fill="#A1A1AA"/>
<path d="M9.96699 30.3727C9.60075 30.3727 9.32771 30.0698 9.33071 29.6665C9.33339 29.2965 9.60206 29.0236 9.96869 29.0186C10.3256 29.014 10.6159 29.3291 10.617 29.7221C10.6176 30.0984 10.3419 30.3743 9.96699 30.3727Z" fill="#A1A1AA"/>
<path d="M11.2551 29.3347C11.2551 28.9556 11.5278 28.6801 11.9011 28.6821C12.2627 28.6844 12.5404 28.9959 12.5357 29.3942C12.5314 29.7663 12.2631 30.0352 11.8955 30.0365C11.5278 30.0378 11.2551 29.7383 11.2551 29.3347Z" fill="#A1A1AA"/>
<path d="M13.3591 29.7402C13.2848 29.3153 13.2146 28.9136 13.1423 28.502C13.4779 28.4374 13.8059 28.315 14.0746 28.6085C14.2568 28.8081 14.3141 29.052 14.2018 29.3033C14.045 29.6567 13.708 29.6897 13.3591 29.7402Z" fill="#A1A1AA"/>
<path d="M28.9574 26.244C28.9281 26.0867 28.8961 25.9579 28.8845 25.8268C28.8808 25.7849 28.9224 25.708 28.9571 25.6987C29.0696 25.6714 29.1846 25.6556 29.3004 25.6514C29.4439 25.6437 29.5274 25.7223 29.5551 25.8604C29.5828 25.9985 29.5218 26.1027 29.3886 26.1443C29.2554 26.1859 29.1122 26.2091 28.9574 26.244Z" fill="#A1A1AA"/>
<path d="M36.6176 24.8918C36.5842 24.7067 36.556 24.5456 36.5233 24.3613C36.6752 24.3384 36.814 24.306 36.9542 24.2984C37.0997 24.2904 37.1936 24.3706 37.2186 24.5183C37.2435 24.6661 37.1749 24.7586 37.0441 24.7982C36.9133 24.8378 36.7681 24.8598 36.6176 24.8918Z" fill="#A1A1AA"/>
<path d="M27.4711 26.8409C27.5323 26.5651 27.5866 26.3195 27.6496 26.0356L28.0824 26.7272L27.4711 26.8409Z" fill="#A1A1AA"/>
<path d="M19.466 28.2497L18.854 28.3565C18.9126 28.0903 18.9659 27.8453 19.0298 27.5532L19.466 28.2497Z" fill="#A1A1AA"/>
</g>
<defs>
<clipPath id="clip0_2461_21215">
<rect width="40.4898" height="32" fill="white" transform="translate(0.755127 0.585938)"/>
</clipPath>
</defs>
</svg>
