<svg width="65" height="64" viewBox="0 0 65 64" fill="none" xmlns="http://www.w3.org/2000/svg">
<g clip-path="url(#clip0_2460_16938)">
<mask id="path-2-outside-1_2460_16938" maskUnits="userSpaceOnUse" x="15.7568" y="17.1582" width="33" height="31" fill="black">
<rect fill="white" x="15.7568" y="17.1582" width="33" height="31"/>
<path d="M47.8708 34.1468C47.6667 33.8836 47.4398 33.6353 47.2047 33.3984C46.8773 33.0686 46.5354 32.753 46.1991 32.4324C45.7991 32.0512 45.4364 31.6451 45.2334 31.1165C45.0532 30.647 44.9915 30.1847 45.1899 29.7013C45.4364 29.1014 45.4347 28.4916 45.1237 27.9188C44.9021 27.5113 44.6442 27.118 44.3628 26.749C43.8121 26.0273 43.3056 25.2792 42.8478 24.4948C42.581 24.0378 42.2768 23.6011 41.9673 23.1708C41.823 22.9706 41.6363 22.7971 41.4518 22.6304C41.1665 22.3721 41.1526 22.3419 41.366 22.0095C41.4208 21.924 41.5006 21.8549 41.563 21.7737C41.6691 21.6362 41.7927 21.5215 41.9348 21.4193C42.1899 21.2358 42.4157 21.0085 42.6822 20.8458C42.9472 20.6837 43.224 20.5163 43.5695 20.5715C43.7141 20.5946 43.8356 20.6121 43.8816 20.7756C43.8912 20.8091 43.9382 20.854 43.9685 20.8543C44.0023 20.8547 44.0511 20.8183 44.0689 20.7848C44.1665 20.601 44.0871 20.2377 43.9083 20.1348C43.8071 20.0767 43.6764 20.0542 43.5574 20.0471C43.3857 20.0368 43.1909 20.0065 43.0441 20.0713C42.7367 20.2071 42.4321 20.3702 42.1678 20.5757C41.8298 20.8383 41.5248 21.1457 41.2213 21.4499C41.0707 21.6009 40.9556 21.7872 40.8124 21.9728C40.5428 21.7413 40.2806 21.5325 40.0376 21.3031C39.7092 20.9925 39.3943 20.668 39.078 20.3446C39.0377 20.3032 39.0057 20.2352 39.0039 20.1786C38.9957 19.9232 38.8938 19.8298 38.6399 19.858C38.5786 19.8647 38.5052 19.8804 38.4553 19.8558C37.8857 19.5766 37.2973 19.3554 36.6668 19.2667C36.5759 19.2538 36.4427 19.2667 36.3921 19.3237C36.3433 19.3789 36.3757 19.506 36.3722 19.6068C37.0426 19.5509 37.5986 19.7725 38.1565 20.0471C37.8494 20.2883 37.5687 20.5123 37.2841 20.7318C36.8687 21.0517 36.6429 21.5108 36.3953 21.9511C36.1973 22.303 36.017 22.6653 35.8421 23.0297C35.6434 23.444 35.4414 23.8583 35.2736 24.285C35.1098 24.7014 34.9883 25.1349 34.8458 25.5599C34.7293 25.9065 34.595 26.2481 34.4946 26.5993C34.376 27.0147 34.2702 27.4322 34.0365 27.803C34.0058 27.8518 33.9809 27.9063 33.9627 27.9612C33.8751 28.2219 33.8249 28.5023 33.697 28.7409C33.4758 29.1534 33.4555 29.6393 33.1787 30.0322C33.0537 30.2096 33.0174 30.4472 32.9194 30.647C32.8004 30.89 32.6472 31.1158 32.529 31.3591C32.2034 32.0284 31.8201 32.6511 31.3097 33.2039C30.9264 33.6193 30.4704 33.8954 29.9728 34.1301C29.4125 34.3941 28.8015 34.4635 28.207 34.5953C27.9969 34.6416 27.7785 34.6505 27.5484 34.6783C27.558 34.6074 27.5601 34.5693 27.569 34.533C27.6951 34.0108 27.8451 33.4928 27.9438 32.9653C28.077 32.2536 28.1828 31.5358 28.2793 30.8177C28.3709 30.1373 28.4421 29.4541 28.5094 28.7708C28.5875 27.979 28.6184 27.181 28.7303 26.3945C28.8557 25.5129 29.0324 24.6373 29.2176 23.7657C29.3825 22.9895 29.6447 22.2354 30.1124 21.5906C30.5762 20.9512 31.112 20.3645 31.6078 19.7479C31.7581 19.5609 31.8903 19.3767 32.1753 19.4405C32.1966 19.4451 32.2672 19.3351 32.2729 19.2745C32.2778 19.2225 32.223 19.1648 32.1902 19.1017C32.2828 19.0226 32.3644 18.9389 32.4588 18.8741C32.8642 18.597 33.2891 18.416 33.7871 18.6276C33.9385 18.6917 34.0921 18.7516 34.2481 18.8032C34.278 18.8132 34.3549 18.7779 34.3564 18.7601C34.3617 18.6736 34.3813 18.5389 34.3361 18.5068C34.1864 18.4021 34.0133 18.328 33.8445 18.2539C33.5453 18.1228 33.2482 18.1339 32.9372 18.2415C32.4969 18.3936 32.1856 18.7102 31.8575 19.012C31.8044 19.0608 31.7296 19.1213 31.6677 19.1185C31.289 19.0992 30.9114 19.0515 30.5324 19.0365C30.2285 19.0244 29.9165 18.8681 29.6176 19.0693C29.5955 19.0843 29.5467 19.0615 29.5111 19.0529C29.4395 19.0362 29.3661 18.9952 29.2974 19.0023C28.7132 19.0625 28.1294 19.1284 27.5466 19.2004C27.4205 19.2161 27.2997 19.2734 27.1736 19.2916C26.9129 19.329 26.6439 19.3276 26.3893 19.3871C25.477 19.6008 24.5808 19.8679 23.7547 20.3225C23.3767 20.5302 23.0081 20.7553 22.6419 20.9833C22.0741 21.3363 21.6459 21.8307 21.3018 22.3932C21.1287 22.676 20.9997 22.9877 20.869 23.2937C20.7436 23.5868 20.6289 23.8861 20.5338 24.1903C20.438 24.4966 20.3607 24.8097 20.2969 25.1246C20.2307 25.4502 20.1509 25.7808 20.1477 26.1096C20.143 26.5865 20.2157 27.0635 20.2299 27.5408C20.2463 28.0983 20.3909 28.6284 20.5805 29.1399C20.7835 29.6877 21.0243 30.2274 21.4172 30.6769C21.6801 30.9779 21.9305 31.2925 22.2158 31.5707C22.6611 32.0049 23.1548 32.3843 23.7134 32.6643C23.9763 32.7961 24.2591 32.8887 24.5341 32.9956C24.7809 33.0914 25.0413 33.169 25.1689 33.4333C25.2373 33.5751 25.1667 33.7201 25.0314 33.7276C24.2705 33.7678 23.5402 33.9388 22.8072 34.1525C21.7257 34.4678 20.8205 35.0563 19.9898 35.779C19.1385 36.5196 18.3769 37.3524 17.6766 38.2341C17.1113 38.9458 16.7244 39.7309 16.759 40.6944C16.7825 41.3527 16.9798 41.9401 17.2573 42.5118C17.3938 42.7925 17.5886 43.0451 17.7628 43.3066C17.8123 43.3806 17.8746 43.4533 17.9466 43.5046C18.2355 43.7084 18.3812 44.0557 18.7075 44.2288C18.9173 44.3403 19.074 44.5604 19.2885 44.653C19.8007 44.875 20.329 45.0631 20.859 45.239C21.1329 45.3299 21.4222 45.3908 21.7093 45.4203C22.1054 45.4613 22.5079 45.4392 22.9037 45.4816C23.4747 45.5425 24.0325 45.4816 24.5736 45.3192C25.0289 45.1827 25.4827 45.0196 25.9073 44.8084C26.2977 44.6142 26.6671 44.3645 27.0109 44.0949C27.3446 43.8334 27.6723 43.5452 27.9342 43.2147C28.2843 42.7722 28.5643 42.2746 28.8845 41.8076C28.9458 41.7178 29.0416 41.6238 29.141 41.5925C29.7772 41.3919 30.3497 41.0799 30.8508 40.6421C30.9766 40.5324 31.0941 40.4059 31.1875 40.2684C31.6003 39.6614 31.7521 38.9924 31.5911 38.2715C31.4372 37.5829 31.2951 36.8829 30.8095 36.3287C30.6375 36.132 30.4579 35.8959 30.1584 35.9343C29.9154 35.9653 29.6757 36.0497 29.4442 36.1367C29.2703 36.2018 29.276 36.3012 29.4224 36.4198C29.4869 36.4719 29.5653 36.5442 29.5767 36.6165C29.6077 36.8135 29.6023 37.0158 29.6187 37.2156C29.6294 37.3439 29.6087 37.5099 29.6796 37.5914C29.8531 37.7909 29.8606 38.0107 29.841 38.2422C29.8093 38.6141 29.8039 38.9942 29.7167 39.3536C29.6322 39.7006 29.4559 40.0247 29.3245 40.3607C29.2639 40.5156 29.2336 40.6859 29.1524 40.828C29.0659 40.9798 28.9626 41.1686 28.8183 41.2312C28.4881 41.3752 28.1322 41.4663 27.7806 41.5536C26.9435 41.7609 26.0993 41.9405 25.2351 41.9764C24.771 41.9957 24.3036 41.9857 23.8395 41.959C23.2763 41.9266 22.7391 41.7734 22.2133 41.565C21.6031 41.3232 21.0232 41.0407 20.5363 40.5886C20.0333 40.1216 19.8164 39.525 19.8206 38.8663C19.8246 38.249 19.9923 37.6759 20.4287 37.1857C20.8316 36.733 21.2808 36.3789 21.8628 36.2118C22.3362 36.0761 22.815 35.9596 23.2923 35.8392C23.5983 35.7623 23.7027 35.8688 23.6354 36.1794C23.5053 36.7825 23.8993 37.5751 24.4707 37.8358C24.6335 37.9103 24.8116 37.9505 24.9829 38.0061C25.1193 38.0502 25.2544 38.1215 25.3929 38.1311C25.5764 38.1432 25.7634 38.1108 25.9479 38.0901C26.2485 38.057 26.525 37.9462 26.7049 37.7029C26.9692 37.3453 27.2242 36.9766 27.4394 36.5883C27.6072 36.2856 27.6866 35.9482 27.4625 35.6162C27.4155 35.5464 27.4027 35.4531 27.3827 35.3961C27.8344 35.311 28.2747 35.2433 28.7071 35.1428C29.5118 34.9558 30.2553 34.6277 30.9189 34.1287C31.5608 33.646 32.036 33.023 32.4232 32.3294C33.0733 31.165 33.6667 29.977 34.076 28.6992C34.356 27.8254 34.7079 26.9748 35.0239 26.112C35.2711 25.4374 35.4834 24.7485 35.7638 24.0884C36.0641 23.3809 36.4352 22.7038 36.7583 22.0052C37.112 21.2401 37.7162 20.7328 38.4283 20.3317C38.4728 20.3064 38.565 20.3168 38.6089 20.3478C38.7407 20.4404 38.8678 20.5433 38.9822 20.657C39.3651 21.0385 39.7416 21.4264 40.1206 21.8118C40.2735 21.9671 40.4248 22.1235 40.5784 22.2781C40.6599 22.3604 40.7052 22.4409 40.6101 22.5463C40.5816 22.578 40.5727 22.6279 40.5574 22.6703C40.3903 23.1341 40.2222 23.5975 40.0576 24.062C39.9326 24.415 39.8104 24.7688 39.6903 25.1235C39.581 25.4466 39.4713 25.7697 39.3719 26.096C39.2775 26.4056 39.2077 26.7226 39.1068 27.03C38.9409 27.5369 38.7538 28.0367 38.5861 28.5432C38.5262 28.7235 38.5159 28.9215 38.4478 29.0978C38.3595 29.3269 38.2316 29.5403 38.128 29.764C37.8035 30.4657 37.4939 31.1742 37.0497 31.8133C36.7605 32.2297 36.5357 32.6899 36.1538 33.0426C35.9148 33.2634 35.7135 33.5249 35.4816 33.7539C35.2772 33.9563 35.0627 34.1508 34.8362 34.3274C34.5687 34.5362 34.2976 34.7481 34.0023 34.9123C33.4099 35.2415 32.7566 35.3897 32.0851 35.4321C31.6007 35.4627 31.1166 35.4474 30.6731 35.1945C30.4889 35.0894 30.267 35.2166 30.2371 35.426C30.2107 35.6098 30.3383 35.7829 30.5523 35.8595C31.0785 36.0472 31.6178 36.0594 32.1639 35.9828C32.4232 35.9464 32.6818 35.9058 32.9653 35.8638C32.9425 35.9236 32.9372 35.9561 32.9197 35.9803C32.7007 36.2884 32.5051 36.6051 32.4827 36.9987C32.4659 37.2929 32.3388 37.6089 32.6647 37.8273C32.6743 37.8337 32.685 37.8493 32.6839 37.8597C32.6508 38.1418 32.9326 38.2383 33.038 38.4424C33.1174 38.5963 33.3184 38.6832 33.4523 38.8136C33.8993 39.2475 34.4333 39.4801 35.0521 39.5104C35.279 39.5214 35.4923 39.4594 35.6452 39.2731C35.768 39.1232 35.9023 38.9782 35.9982 38.8115C36.1061 38.6234 36.1666 38.41 36.0042 38.2141C35.9551 38.155 35.8749 38.0948 35.8054 38.0905C35.7663 38.088 35.7011 38.1934 35.6818 38.2601C35.6466 38.3837 35.6259 38.5137 35.6181 38.6423C35.5992 38.9422 35.3901 39.0907 35.1603 39.2065C34.7689 39.4039 34.1815 39.2112 33.9567 38.7901C33.8865 38.6583 33.8057 38.5326 33.7348 38.4011C33.4455 37.8643 33.303 37.3125 33.5331 36.7098C33.7244 36.2083 34.0682 35.8474 34.5298 35.5977C34.9153 35.389 35.3164 35.2094 35.7032 35.0032C36.1506 34.7645 36.3455 34.2533 36.1734 33.776C36.1335 33.6652 36.1535 33.6047 36.2293 33.522C36.4121 33.3218 36.5852 33.1124 36.7526 32.8994C37.2054 32.323 37.5602 31.6854 37.9242 31.0513C38.4603 30.118 38.792 29.1028 39.1567 28.1019C39.415 27.3923 39.5977 26.6556 39.8314 25.9368C40.0829 25.1631 40.3486 24.3937 40.6201 23.6267C40.7287 23.3197 40.8694 23.0237 41.0069 22.6963C41.1718 22.8602 41.3036 23.0005 41.445 23.1295C41.7888 23.4436 42.0207 23.838 42.2533 24.233C42.5269 24.6979 42.8008 25.1631 43.0794 25.6251C43.1463 25.7366 43.2311 25.8374 43.3091 25.9421C43.4854 26.1783 43.6418 26.4337 43.8459 26.6421C43.9941 26.7931 44.1462 26.9028 44.1266 27.1504C44.1188 27.2487 44.2103 27.3599 44.2691 27.4571C44.3293 27.5561 44.4184 27.6388 44.4711 27.741C44.5826 27.9583 44.6606 28.1941 44.786 28.4022C44.927 28.6362 44.9374 28.9115 44.8508 29.11C44.667 29.5306 44.6478 29.9649 44.6239 30.4002C44.6139 30.5804 44.6994 30.7688 44.7554 30.9498C44.8597 31.2886 44.9694 31.6245 45.2231 31.8931C45.3534 32.0313 45.4906 32.1773 45.5722 32.3451C45.7581 32.7291 46.1346 32.9279 46.3897 33.2428C46.498 33.3763 46.6444 33.4786 46.7644 33.6036C46.9585 33.8063 47.1431 34.0179 47.3358 34.2216C47.4587 34.3517 47.4523 34.5999 47.3283 34.7047C46.8894 35.0762 46.4427 35.4399 46.0224 35.8317C45.6145 36.2118 45.6594 36.7397 46.0979 37.0878C46.3843 37.315 46.3975 37.5654 46.1282 37.8116C46.0285 37.9028 46.0153 37.984 46.0922 38.098C46.182 38.2316 46.2775 38.3683 46.3291 38.5183C46.4093 38.7502 46.1588 39.0056 45.9177 38.959C45.5832 38.8945 45.3167 38.9785 45.1814 39.2065C44.9933 39.5232 44.9153 39.8623 45.17 40.1533C45.3054 40.3079 45.4161 40.4868 45.5191 40.6656C45.6398 40.8747 45.5583 41.1272 45.3474 41.253C45.2248 41.326 45.1084 41.4143 44.9773 41.4663C44.7137 41.5707 44.4469 41.7146 44.1729 41.7367C43.3768 41.8008 42.6017 41.6373 41.8469 41.3915C41.455 41.264 41.0781 41.0898 40.6845 40.9687C40.1281 40.7977 39.5632 40.6542 39.0003 40.5049C38.8978 40.4779 38.7731 40.4415 38.6844 40.4757C38.5184 40.5395 38.3684 40.6478 38.2163 40.7447C37.9702 40.9014 37.9007 41.1632 37.7942 41.4154C37.6293 41.8055 37.407 42.1709 37.2214 42.5528C36.9094 43.1951 36.5966 43.8373 36.3038 44.4885C36.0847 44.9765 35.8931 45.477 35.6968 45.975C35.5974 46.2275 35.5183 46.4879 35.4222 46.7419C35.4051 46.7871 35.3484 46.8163 35.3132 46.8559C35.2594 46.9164 35.1778 46.9724 35.1621 47.0425C35.1247 47.2089 35.2604 47.3257 35.5458 47.3895C35.7086 47.4258 35.7534 47.3083 35.7969 47.185C36.0028 46.6001 36.1962 46.0099 36.4253 45.4339C36.5824 45.0385 36.7915 44.6641 36.9753 44.2794C37.1313 43.9534 37.2891 43.6286 37.438 43.2994C37.723 42.6711 38.0008 42.0395 38.2861 41.4111C38.3218 41.3324 38.3713 41.2498 38.4368 41.196C38.7072 40.9744 39.0025 40.8672 39.3626 40.9744C39.9422 41.1472 40.5331 41.284 41.1098 41.4646C41.4938 41.585 41.8575 41.7681 42.2383 41.8995C42.6416 42.0388 43.0551 42.1107 43.4901 42.1154C43.9973 42.1207 44.5024 42.1635 44.9748 41.938C45.2288 41.8165 45.5102 41.7047 45.7029 41.5123C46.0958 41.1201 46.001 40.4358 45.5536 40.0924C45.3705 39.9521 45.341 39.7939 45.4546 39.5602C45.5615 39.3405 45.6348 39.3259 45.8867 39.3608C46.0509 39.3836 46.2654 39.3967 46.3825 39.3116C46.5332 39.2022 46.6194 38.9956 46.7117 38.8193C46.7445 38.757 46.737 38.6508 46.7074 38.5824C46.6287 38.4004 46.5279 38.2276 46.4264 38.0328C46.6736 37.9238 46.7113 37.6744 46.7505 37.4194C46.7883 37.1722 46.7373 37.0062 46.5172 36.879C46.1592 36.672 46.2009 36.4362 46.3191 36.1766C46.5183 35.7388 46.8916 35.4598 47.2699 35.2002C47.5463 35.0103 47.7753 34.7902 47.9011 34.4838C47.941 34.3866 47.9303 34.2231 47.8708 34.1468ZM29.7345 39.9026C30.0369 39.1969 30.1039 38.4617 30.0048 37.7104C29.9639 37.3994 29.8766 37.0942 29.8054 36.7875C29.7555 36.5737 29.857 36.3607 30.0576 36.277C30.1805 36.2257 30.392 36.3297 30.4953 36.4833C30.6275 36.6795 30.7967 36.8576 30.8957 37.0689C31.0899 37.4846 31.2708 37.9131 31.289 38.3808C31.3011 38.6936 31.3164 39.0152 31.2598 39.3198C31.1825 39.7362 30.9328 40.0682 30.604 40.3414C30.2414 40.6431 29.826 40.8476 29.3978 41.0321C29.358 41.0492 29.312 41.0517 29.2596 41.0631C29.4231 40.6627 29.5727 40.2798 29.7345 39.9026ZM25.0413 37.0464C24.9213 37.0194 24.8219 36.8762 24.7282 36.7704C24.688 36.7244 24.6855 36.6453 24.6655 36.5812C24.647 36.5791 24.6288 36.5773 24.6103 36.5752C24.5562 36.7066 24.4739 36.8341 24.4554 36.9702C24.4368 37.1045 24.4828 37.2473 24.5067 37.4343C24.4297 37.408 24.3303 37.4055 24.289 37.3549C23.9723 36.9691 23.7974 36.537 23.9157 36.0277C23.9257 35.9842 23.9926 35.955 24.0055 35.9112C24.0293 35.8303 24.066 35.7267 24.0343 35.664C24.0094 35.6141 23.8865 35.5824 23.8142 35.5927C23.2182 35.6764 22.6166 35.7384 22.0317 35.8727C21.3524 36.0284 20.7817 36.37 20.3055 36.9164C20.0465 37.2131 19.8887 37.5387 19.7216 37.8714C19.6554 38.0036 19.6397 38.1667 19.6237 38.3181C19.5788 38.7335 19.5296 39.1474 19.7049 39.5535C19.7825 39.7334 19.7761 39.9556 19.8734 40.1199C20.0636 40.4419 20.2591 40.7699 20.5765 40.9937C20.9491 41.2569 21.2982 41.5693 21.7032 41.767C22.244 42.031 22.8118 42.2593 23.4209 42.3359C23.7615 42.3786 24.1031 42.4349 24.445 42.4392C25.0784 42.447 25.7146 42.4495 26.339 42.3141C27.0483 42.1606 27.7553 41.9968 28.4635 41.839C28.5048 41.8297 28.5486 41.8322 28.6334 41.8261C28.5593 41.9597 28.5109 42.0684 28.4443 42.1642C28.0816 42.6839 27.713 43.2018 27.221 43.6083C26.5741 44.1426 25.887 44.6103 25.0855 44.8992C24.0511 45.2722 22.9977 45.2871 21.9241 45.155C21.2519 45.0723 20.62 44.8703 19.9856 44.642C19.1595 44.3446 18.5393 43.7864 17.999 43.1423C17.6014 42.6689 17.2872 42.1225 17.128 41.508C16.9 40.6285 17.0283 39.8021 17.5576 39.0665C17.9039 38.5856 18.2939 38.134 18.6872 37.6898C19.1061 37.2167 19.5161 36.7251 19.9959 36.3194C20.5445 35.8556 21.0987 35.395 21.7553 35.0598C22.6173 34.6199 23.5217 34.3577 24.465 34.1999C24.8757 34.1312 25.2914 34.1205 25.6968 34.2316C25.8054 34.2612 25.8895 34.3713 25.9935 34.4286C26.1613 34.5209 26.0206 34.6338 26.0238 34.7357C26.043 35.3922 25.8033 35.9906 25.5953 36.5951C25.5561 36.7087 25.5016 36.8377 25.4132 36.9086C25.3113 36.9891 25.1514 37.0714 25.0413 37.0464ZM27.1487 36.4793C26.9225 36.7814 26.6903 37.0828 26.5029 37.4087C26.3843 37.615 26.2022 37.6534 26.0177 37.7133C25.9176 37.7457 25.8083 37.7496 25.7032 37.7663C25.6932 37.7507 25.6832 37.735 25.6733 37.7197C26.4619 37.268 26.8805 36.5324 27.2306 35.7352C27.2627 35.996 27.324 36.2453 27.1487 36.4793ZM27.1124 35.3273C26.8851 36.0448 26.4954 36.6514 25.8428 37.06C25.7513 37.1173 25.6501 37.159 25.5108 37.2295C25.633 36.9061 25.7452 36.6286 25.8435 36.3465C26.1046 35.5956 26.2396 34.8233 26.2728 34.0275C26.3155 32.9966 26.2069 31.9825 26.006 30.9747C25.8884 30.3838 25.7869 29.7893 25.6572 29.2008C25.4994 28.4859 25.3131 27.7774 25.15 27.0635C25.0022 26.4177 24.8839 25.7608 24.933 25.0993L26.0808 23.4757C26.1061 23.4935 26.131 23.511 26.1563 23.5288C26.1623 23.4176 26.2108 23.2826 26.1648 23.2003C26.0872 23.0611 25.9497 23.1409 25.8389 23.1968C25.4439 23.3959 25.1913 23.7208 25.0207 24.1201C24.7161 24.8325 24.6723 25.5745 24.8048 26.3254C24.9377 27.0774 25.0973 27.8247 25.2565 28.5721C25.3936 29.2147 25.5586 29.8516 25.6896 30.4953C25.815 31.1108 25.9358 31.7292 26.0149 32.3522C26.0801 32.868 26.0833 33.392 26.1093 33.9124C26.1125 33.9794 26.0893 34.0478 26.0815 34.0952C25.8542 33.9588 25.6337 33.8262 25.4022 33.6873C25.5033 33.2577 25.2387 32.8534 24.7211 32.6821C24.3649 32.5638 23.993 32.4698 23.6656 32.2949C23.3155 32.1079 22.9906 31.8603 22.6875 31.601C22.2333 31.2127 21.7813 30.8166 21.4339 30.3211C21.0044 29.7084 20.6966 29.0401 20.5545 28.3046C20.3906 27.4564 20.2809 26.5965 20.3863 25.7355C20.5056 24.7616 20.7692 23.8162 21.2081 22.9353C21.4803 22.3889 21.8664 21.919 22.3291 21.5087C23.0095 20.9049 23.8088 20.5074 24.6349 20.169C25.1657 19.9517 25.7256 19.7914 26.286 19.6653C26.8587 19.5363 27.4479 19.4807 28.0296 19.3928L30.3076 19.2467C30.7037 19.2542 31.0991 19.3222 31.4945 19.3632C31.5063 19.3899 31.518 19.4163 31.5298 19.443C31.4301 19.573 31.3367 19.7084 31.2295 19.832C30.8541 20.2641 30.4473 20.6723 30.1046 21.1286C29.873 21.4367 29.727 21.8097 29.5464 22.1556C29.4787 22.2856 29.406 22.4163 29.3619 22.5552C29.218 23.0091 29.0901 23.4682 28.949 23.9231C28.7616 24.5294 28.6477 25.1467 28.5992 25.7804C28.5657 26.2161 28.4859 26.6482 28.4297 27.0824C28.4158 27.191 28.4161 27.3018 28.4051 27.4108C28.352 27.9369 28.2946 28.4631 28.2451 28.9896C28.2295 29.1566 28.2437 29.3265 28.2241 29.4929C28.1767 29.8947 28.1151 30.2951 28.0631 30.6965C28.0303 30.9516 28.009 31.2084 27.9751 31.4635C27.8658 32.2899 27.7397 33.1131 27.5113 33.9167C27.3792 34.3862 27.2602 34.8614 27.1124 35.3273ZM33.4776 38.4574C33.142 38.1592 32.784 37.8632 32.7416 37.3977C32.6911 36.842 32.9753 36.4124 33.411 36.074C33.0127 36.8836 33.0758 37.6691 33.4776 38.4574ZM33.676 35.8064C33.5599 35.6387 33.5716 35.6266 33.9592 35.5094C33.8466 35.6276 33.7629 35.7156 33.676 35.8064ZM35.7036 34.5768C35.3848 34.7738 35.0378 34.9245 34.6819 35.0548C35.1037 34.6544 35.5255 34.2544 35.9529 33.849C36.0548 34.1144 35.9729 34.4104 35.7036 34.5768Z"/>
</mask>
<path d="M47.8708 34.1468C47.6667 33.8836 47.4398 33.6353 47.2047 33.3984C46.8773 33.0686 46.5354 32.753 46.1991 32.4324C45.7991 32.0512 45.4364 31.6451 45.2334 31.1165C45.0532 30.647 44.9915 30.1847 45.1899 29.7013C45.4364 29.1014 45.4347 28.4916 45.1237 27.9188C44.9021 27.5113 44.6442 27.118 44.3628 26.749C43.8121 26.0273 43.3056 25.2792 42.8478 24.4948C42.581 24.0378 42.2768 23.6011 41.9673 23.1708C41.823 22.9706 41.6363 22.7971 41.4518 22.6304C41.1665 22.3721 41.1526 22.3419 41.366 22.0095C41.4208 21.924 41.5006 21.8549 41.563 21.7737C41.6691 21.6362 41.7927 21.5215 41.9348 21.4193C42.1899 21.2358 42.4157 21.0085 42.6822 20.8458C42.9472 20.6837 43.224 20.5163 43.5695 20.5715C43.7141 20.5946 43.8356 20.6121 43.8816 20.7756C43.8912 20.8091 43.9382 20.854 43.9685 20.8543C44.0023 20.8547 44.0511 20.8183 44.0689 20.7848C44.1665 20.601 44.0871 20.2377 43.9083 20.1348C43.8071 20.0767 43.6764 20.0542 43.5574 20.0471C43.3857 20.0368 43.1909 20.0065 43.0441 20.0713C42.7367 20.2071 42.4321 20.3702 42.1678 20.5757C41.8298 20.8383 41.5248 21.1457 41.2213 21.4499C41.0707 21.6009 40.9556 21.7872 40.8124 21.9728C40.5428 21.7413 40.2806 21.5325 40.0376 21.3031C39.7092 20.9925 39.3943 20.668 39.078 20.3446C39.0377 20.3032 39.0057 20.2352 39.0039 20.1786C38.9957 19.9232 38.8938 19.8298 38.6399 19.858C38.5786 19.8647 38.5052 19.8804 38.4553 19.8558C37.8857 19.5766 37.2973 19.3554 36.6668 19.2667C36.5759 19.2538 36.4427 19.2667 36.3921 19.3237C36.3433 19.3789 36.3757 19.506 36.3722 19.6068C37.0426 19.5509 37.5986 19.7725 38.1565 20.0471C37.8494 20.2883 37.5687 20.5123 37.2841 20.7318C36.8687 21.0517 36.6429 21.5108 36.3953 21.9511C36.1973 22.303 36.017 22.6653 35.8421 23.0297C35.6434 23.444 35.4414 23.8583 35.2736 24.285C35.1098 24.7014 34.9883 25.1349 34.8458 25.5599C34.7293 25.9065 34.595 26.2481 34.4946 26.5993C34.376 27.0147 34.2702 27.4322 34.0365 27.803C34.0058 27.8518 33.9809 27.9063 33.9627 27.9612C33.8751 28.2219 33.8249 28.5023 33.697 28.7409C33.4758 29.1534 33.4555 29.6393 33.1787 30.0322C33.0537 30.2096 33.0174 30.4472 32.9194 30.647C32.8004 30.89 32.6472 31.1158 32.529 31.3591C32.2034 32.0284 31.8201 32.6511 31.3097 33.2039C30.9264 33.6193 30.4704 33.8954 29.9728 34.1301C29.4125 34.3941 28.8015 34.4635 28.207 34.5953C27.9969 34.6416 27.7785 34.6505 27.5484 34.6783C27.558 34.6074 27.5601 34.5693 27.569 34.533C27.6951 34.0108 27.8451 33.4928 27.9438 32.9653C28.077 32.2536 28.1828 31.5358 28.2793 30.8177C28.3709 30.1373 28.4421 29.4541 28.5094 28.7708C28.5875 27.979 28.6184 27.181 28.7303 26.3945C28.8557 25.5129 29.0324 24.6373 29.2176 23.7657C29.3825 22.9895 29.6447 22.2354 30.1124 21.5906C30.5762 20.9512 31.112 20.3645 31.6078 19.7479C31.7581 19.5609 31.8903 19.3767 32.1753 19.4405C32.1966 19.4451 32.2672 19.3351 32.2729 19.2745C32.2778 19.2225 32.223 19.1648 32.1902 19.1017C32.2828 19.0226 32.3644 18.9389 32.4588 18.8741C32.8642 18.597 33.2891 18.416 33.7871 18.6276C33.9385 18.6917 34.0921 18.7516 34.2481 18.8032C34.278 18.8132 34.3549 18.7779 34.3564 18.7601C34.3617 18.6736 34.3813 18.5389 34.3361 18.5068C34.1864 18.4021 34.0133 18.328 33.8445 18.2539C33.5453 18.1228 33.2482 18.1339 32.9372 18.2415C32.4969 18.3936 32.1856 18.7102 31.8575 19.012C31.8044 19.0608 31.7296 19.1213 31.6677 19.1185C31.289 19.0992 30.9114 19.0515 30.5324 19.0365C30.2285 19.0244 29.9165 18.8681 29.6176 19.0693C29.5955 19.0843 29.5467 19.0615 29.5111 19.0529C29.4395 19.0362 29.3661 18.9952 29.2974 19.0023C28.7132 19.0625 28.1294 19.1284 27.5466 19.2004C27.4205 19.2161 27.2997 19.2734 27.1736 19.2916C26.9129 19.329 26.6439 19.3276 26.3893 19.3871C25.477 19.6008 24.5808 19.8679 23.7547 20.3225C23.3767 20.5302 23.0081 20.7553 22.6419 20.9833C22.0741 21.3363 21.6459 21.8307 21.3018 22.3932C21.1287 22.676 20.9997 22.9877 20.869 23.2937C20.7436 23.5868 20.6289 23.8861 20.5338 24.1903C20.438 24.4966 20.3607 24.8097 20.2969 25.1246C20.2307 25.4502 20.1509 25.7808 20.1477 26.1096C20.143 26.5865 20.2157 27.0635 20.2299 27.5408C20.2463 28.0983 20.3909 28.6284 20.5805 29.1399C20.7835 29.6877 21.0243 30.2274 21.4172 30.6769C21.6801 30.9779 21.9305 31.2925 22.2158 31.5707C22.6611 32.0049 23.1548 32.3843 23.7134 32.6643C23.9763 32.7961 24.2591 32.8887 24.5341 32.9956C24.7809 33.0914 25.0413 33.169 25.1689 33.4333C25.2373 33.5751 25.1667 33.7201 25.0314 33.7276C24.2705 33.7678 23.5402 33.9388 22.8072 34.1525C21.7257 34.4678 20.8205 35.0563 19.9898 35.779C19.1385 36.5196 18.3769 37.3524 17.6766 38.2341C17.1113 38.9458 16.7244 39.7309 16.759 40.6944C16.7825 41.3527 16.9798 41.9401 17.2573 42.5118C17.3938 42.7925 17.5886 43.0451 17.7628 43.3066C17.8123 43.3806 17.8746 43.4533 17.9466 43.5046C18.2355 43.7084 18.3812 44.0557 18.7075 44.2288C18.9173 44.3403 19.074 44.5604 19.2885 44.653C19.8007 44.875 20.329 45.0631 20.859 45.239C21.1329 45.3299 21.4222 45.3908 21.7093 45.4203C22.1054 45.4613 22.5079 45.4392 22.9037 45.4816C23.4747 45.5425 24.0325 45.4816 24.5736 45.3192C25.0289 45.1827 25.4827 45.0196 25.9073 44.8084C26.2977 44.6142 26.6671 44.3645 27.0109 44.0949C27.3446 43.8334 27.6723 43.5452 27.9342 43.2147C28.2843 42.7722 28.5643 42.2746 28.8845 41.8076C28.9458 41.7178 29.0416 41.6238 29.141 41.5925C29.7772 41.3919 30.3497 41.0799 30.8508 40.6421C30.9766 40.5324 31.0941 40.4059 31.1875 40.2684C31.6003 39.6614 31.7521 38.9924 31.5911 38.2715C31.4372 37.5829 31.2951 36.8829 30.8095 36.3287C30.6375 36.132 30.4579 35.8959 30.1584 35.9343C29.9154 35.9653 29.6757 36.0497 29.4442 36.1367C29.2703 36.2018 29.276 36.3012 29.4224 36.4198C29.4869 36.4719 29.5653 36.5442 29.5767 36.6165C29.6077 36.8135 29.6023 37.0158 29.6187 37.2156C29.6294 37.3439 29.6087 37.5099 29.6796 37.5914C29.8531 37.7909 29.8606 38.0107 29.841 38.2422C29.8093 38.6141 29.8039 38.9942 29.7167 39.3536C29.6322 39.7006 29.4559 40.0247 29.3245 40.3607C29.2639 40.5156 29.2336 40.6859 29.1524 40.828C29.0659 40.9798 28.9626 41.1686 28.8183 41.2312C28.4881 41.3752 28.1322 41.4663 27.7806 41.5536C26.9435 41.7609 26.0993 41.9405 25.2351 41.9764C24.771 41.9957 24.3036 41.9857 23.8395 41.959C23.2763 41.9266 22.7391 41.7734 22.2133 41.565C21.6031 41.3232 21.0232 41.0407 20.5363 40.5886C20.0333 40.1216 19.8164 39.525 19.8206 38.8663C19.8246 38.249 19.9923 37.6759 20.4287 37.1857C20.8316 36.733 21.2808 36.3789 21.8628 36.2118C22.3362 36.0761 22.815 35.9596 23.2923 35.8392C23.5983 35.7623 23.7027 35.8688 23.6354 36.1794C23.5053 36.7825 23.8993 37.5751 24.4707 37.8358C24.6335 37.9103 24.8116 37.9505 24.9829 38.0061C25.1193 38.0502 25.2544 38.1215 25.3929 38.1311C25.5764 38.1432 25.7634 38.1108 25.9479 38.0901C26.2485 38.057 26.525 37.9462 26.7049 37.7029C26.9692 37.3453 27.2242 36.9766 27.4394 36.5883C27.6072 36.2856 27.6866 35.9482 27.4625 35.6162C27.4155 35.5464 27.4027 35.4531 27.3827 35.3961C27.8344 35.311 28.2747 35.2433 28.7071 35.1428C29.5118 34.9558 30.2553 34.6277 30.9189 34.1287C31.5608 33.646 32.036 33.023 32.4232 32.3294C33.0733 31.165 33.6667 29.977 34.076 28.6992C34.356 27.8254 34.7079 26.9748 35.0239 26.112C35.2711 25.4374 35.4834 24.7485 35.7638 24.0884C36.0641 23.3809 36.4352 22.7038 36.7583 22.0052C37.112 21.2401 37.7162 20.7328 38.4283 20.3317C38.4728 20.3064 38.565 20.3168 38.6089 20.3478C38.7407 20.4404 38.8678 20.5433 38.9822 20.657C39.3651 21.0385 39.7416 21.4264 40.1206 21.8118C40.2735 21.9671 40.4248 22.1235 40.5784 22.2781C40.6599 22.3604 40.7052 22.4409 40.6101 22.5463C40.5816 22.578 40.5727 22.6279 40.5574 22.6703C40.3903 23.1341 40.2222 23.5975 40.0576 24.062C39.9326 24.415 39.8104 24.7688 39.6903 25.1235C39.581 25.4466 39.4713 25.7697 39.3719 26.096C39.2775 26.4056 39.2077 26.7226 39.1068 27.03C38.9409 27.5369 38.7538 28.0367 38.5861 28.5432C38.5262 28.7235 38.5159 28.9215 38.4478 29.0978C38.3595 29.3269 38.2316 29.5403 38.128 29.764C37.8035 30.4657 37.4939 31.1742 37.0497 31.8133C36.7605 32.2297 36.5357 32.6899 36.1538 33.0426C35.9148 33.2634 35.7135 33.5249 35.4816 33.7539C35.2772 33.9563 35.0627 34.1508 34.8362 34.3274C34.5687 34.5362 34.2976 34.7481 34.0023 34.9123C33.4099 35.2415 32.7566 35.3897 32.0851 35.4321C31.6007 35.4627 31.1166 35.4474 30.6731 35.1945C30.4889 35.0894 30.267 35.2166 30.2371 35.426C30.2107 35.6098 30.3383 35.7829 30.5523 35.8595C31.0785 36.0472 31.6178 36.0594 32.1639 35.9828C32.4232 35.9464 32.6818 35.9058 32.9653 35.8638C32.9425 35.9236 32.9372 35.9561 32.9197 35.9803C32.7007 36.2884 32.5051 36.6051 32.4827 36.9987C32.4659 37.2929 32.3388 37.6089 32.6647 37.8273C32.6743 37.8337 32.685 37.8493 32.6839 37.8597C32.6508 38.1418 32.9326 38.2383 33.038 38.4424C33.1174 38.5963 33.3184 38.6832 33.4523 38.8136C33.8993 39.2475 34.4333 39.4801 35.0521 39.5104C35.279 39.5214 35.4923 39.4594 35.6452 39.2731C35.768 39.1232 35.9023 38.9782 35.9982 38.8115C36.1061 38.6234 36.1666 38.41 36.0042 38.2141C35.9551 38.155 35.8749 38.0948 35.8054 38.0905C35.7663 38.088 35.7011 38.1934 35.6818 38.2601C35.6466 38.3837 35.6259 38.5137 35.6181 38.6423C35.5992 38.9422 35.3901 39.0907 35.1603 39.2065C34.7689 39.4039 34.1815 39.2112 33.9567 38.7901C33.8865 38.6583 33.8057 38.5326 33.7348 38.4011C33.4455 37.8643 33.303 37.3125 33.5331 36.7098C33.7244 36.2083 34.0682 35.8474 34.5298 35.5977C34.9153 35.389 35.3164 35.2094 35.7032 35.0032C36.1506 34.7645 36.3455 34.2533 36.1734 33.776C36.1335 33.6652 36.1535 33.6047 36.2293 33.522C36.4121 33.3218 36.5852 33.1124 36.7526 32.8994C37.2054 32.323 37.5602 31.6854 37.9242 31.0513C38.4603 30.118 38.792 29.1028 39.1567 28.1019C39.415 27.3923 39.5977 26.6556 39.8314 25.9368C40.0829 25.1631 40.3486 24.3937 40.6201 23.6267C40.7287 23.3197 40.8694 23.0237 41.0069 22.6963C41.1718 22.8602 41.3036 23.0005 41.445 23.1295C41.7888 23.4436 42.0207 23.838 42.2533 24.233C42.5269 24.6979 42.8008 25.1631 43.0794 25.6251C43.1463 25.7366 43.2311 25.8374 43.3091 25.9421C43.4854 26.1783 43.6418 26.4337 43.8459 26.6421C43.9941 26.7931 44.1462 26.9028 44.1266 27.1504C44.1188 27.2487 44.2103 27.3599 44.2691 27.4571C44.3293 27.5561 44.4184 27.6388 44.4711 27.741C44.5826 27.9583 44.6606 28.1941 44.786 28.4022C44.927 28.6362 44.9374 28.9115 44.8508 29.11C44.667 29.5306 44.6478 29.9649 44.6239 30.4002C44.6139 30.5804 44.6994 30.7688 44.7554 30.9498C44.8597 31.2886 44.9694 31.6245 45.2231 31.8931C45.3534 32.0313 45.4906 32.1773 45.5722 32.3451C45.7581 32.7291 46.1346 32.9279 46.3897 33.2428C46.498 33.3763 46.6444 33.4786 46.7644 33.6036C46.9585 33.8063 47.1431 34.0179 47.3358 34.2216C47.4587 34.3517 47.4523 34.5999 47.3283 34.7047C46.8894 35.0762 46.4427 35.4399 46.0224 35.8317C45.6145 36.2118 45.6594 36.7397 46.0979 37.0878C46.3843 37.315 46.3975 37.5654 46.1282 37.8116C46.0285 37.9028 46.0153 37.984 46.0922 38.098C46.182 38.2316 46.2775 38.3683 46.3291 38.5183C46.4093 38.7502 46.1588 39.0056 45.9177 38.959C45.5832 38.8945 45.3167 38.9785 45.1814 39.2065C44.9933 39.5232 44.9153 39.8623 45.17 40.1533C45.3054 40.3079 45.4161 40.4868 45.5191 40.6656C45.6398 40.8747 45.5583 41.1272 45.3474 41.253C45.2248 41.326 45.1084 41.4143 44.9773 41.4663C44.7137 41.5707 44.4469 41.7146 44.1729 41.7367C43.3768 41.8008 42.6017 41.6373 41.8469 41.3915C41.455 41.264 41.0781 41.0898 40.6845 40.9687C40.1281 40.7977 39.5632 40.6542 39.0003 40.5049C38.8978 40.4779 38.7731 40.4415 38.6844 40.4757C38.5184 40.5395 38.3684 40.6478 38.2163 40.7447C37.9702 40.9014 37.9007 41.1632 37.7942 41.4154C37.6293 41.8055 37.407 42.1709 37.2214 42.5528C36.9094 43.1951 36.5966 43.8373 36.3038 44.4885C36.0847 44.9765 35.8931 45.477 35.6968 45.975C35.5974 46.2275 35.5183 46.4879 35.4222 46.7419C35.4051 46.7871 35.3484 46.8163 35.3132 46.8559C35.2594 46.9164 35.1778 46.9724 35.1621 47.0425C35.1247 47.2089 35.2604 47.3257 35.5458 47.3895C35.7086 47.4258 35.7534 47.3083 35.7969 47.185C36.0028 46.6001 36.1962 46.0099 36.4253 45.4339C36.5824 45.0385 36.7915 44.6641 36.9753 44.2794C37.1313 43.9534 37.2891 43.6286 37.438 43.2994C37.723 42.6711 38.0008 42.0395 38.2861 41.4111C38.3218 41.3324 38.3713 41.2498 38.4368 41.196C38.7072 40.9744 39.0025 40.8672 39.3626 40.9744C39.9422 41.1472 40.5331 41.284 41.1098 41.4646C41.4938 41.585 41.8575 41.7681 42.2383 41.8995C42.6416 42.0388 43.0551 42.1107 43.4901 42.1154C43.9973 42.1207 44.5024 42.1635 44.9748 41.938C45.2288 41.8165 45.5102 41.7047 45.7029 41.5123C46.0958 41.1201 46.001 40.4358 45.5536 40.0924C45.3705 39.9521 45.341 39.7939 45.4546 39.5602C45.5615 39.3405 45.6348 39.3259 45.8867 39.3608C46.0509 39.3836 46.2654 39.3967 46.3825 39.3116C46.5332 39.2022 46.6194 38.9956 46.7117 38.8193C46.7445 38.757 46.737 38.6508 46.7074 38.5824C46.6287 38.4004 46.5279 38.2276 46.4264 38.0328C46.6736 37.9238 46.7113 37.6744 46.7505 37.4194C46.7883 37.1722 46.7373 37.0062 46.5172 36.879C46.1592 36.672 46.2009 36.4362 46.3191 36.1766C46.5183 35.7388 46.8916 35.4598 47.2699 35.2002C47.5463 35.0103 47.7753 34.7902 47.9011 34.4838C47.941 34.3866 47.9303 34.2231 47.8708 34.1468ZM29.7345 39.9026C30.0369 39.1969 30.1039 38.4617 30.0048 37.7104C29.9639 37.3994 29.8766 37.0942 29.8054 36.7875C29.7555 36.5737 29.857 36.3607 30.0576 36.277C30.1805 36.2257 30.392 36.3297 30.4953 36.4833C30.6275 36.6795 30.7967 36.8576 30.8957 37.0689C31.0899 37.4846 31.2708 37.9131 31.289 38.3808C31.3011 38.6936 31.3164 39.0152 31.2598 39.3198C31.1825 39.7362 30.9328 40.0682 30.604 40.3414C30.2414 40.6431 29.826 40.8476 29.3978 41.0321C29.358 41.0492 29.312 41.0517 29.2596 41.0631C29.4231 40.6627 29.5727 40.2798 29.7345 39.9026ZM25.0413 37.0464C24.9213 37.0194 24.8219 36.8762 24.7282 36.7704C24.688 36.7244 24.6855 36.6453 24.6655 36.5812C24.647 36.5791 24.6288 36.5773 24.6103 36.5752C24.5562 36.7066 24.4739 36.8341 24.4554 36.9702C24.4368 37.1045 24.4828 37.2473 24.5067 37.4343C24.4297 37.408 24.3303 37.4055 24.289 37.3549C23.9723 36.9691 23.7974 36.537 23.9157 36.0277C23.9257 35.9842 23.9926 35.955 24.0055 35.9112C24.0293 35.8303 24.066 35.7267 24.0343 35.664C24.0094 35.6141 23.8865 35.5824 23.8142 35.5927C23.2182 35.6764 22.6166 35.7384 22.0317 35.8727C21.3524 36.0284 20.7817 36.37 20.3055 36.9164C20.0465 37.2131 19.8887 37.5387 19.7216 37.8714C19.6554 38.0036 19.6397 38.1667 19.6237 38.3181C19.5788 38.7335 19.5296 39.1474 19.7049 39.5535C19.7825 39.7334 19.7761 39.9556 19.8734 40.1199C20.0636 40.4419 20.2591 40.7699 20.5765 40.9937C20.9491 41.2569 21.2982 41.5693 21.7032 41.767C22.244 42.031 22.8118 42.2593 23.4209 42.3359C23.7615 42.3786 24.1031 42.4349 24.445 42.4392C25.0784 42.447 25.7146 42.4495 26.339 42.3141C27.0483 42.1606 27.7553 41.9968 28.4635 41.839C28.5048 41.8297 28.5486 41.8322 28.6334 41.8261C28.5593 41.9597 28.5109 42.0684 28.4443 42.1642C28.0816 42.6839 27.713 43.2018 27.221 43.6083C26.5741 44.1426 25.887 44.6103 25.0855 44.8992C24.0511 45.2722 22.9977 45.2871 21.9241 45.155C21.2519 45.0723 20.62 44.8703 19.9856 44.642C19.1595 44.3446 18.5393 43.7864 17.999 43.1423C17.6014 42.6689 17.2872 42.1225 17.128 41.508C16.9 40.6285 17.0283 39.8021 17.5576 39.0665C17.9039 38.5856 18.2939 38.134 18.6872 37.6898C19.1061 37.2167 19.5161 36.7251 19.9959 36.3194C20.5445 35.8556 21.0987 35.395 21.7553 35.0598C22.6173 34.6199 23.5217 34.3577 24.465 34.1999C24.8757 34.1312 25.2914 34.1205 25.6968 34.2316C25.8054 34.2612 25.8895 34.3713 25.9935 34.4286C26.1613 34.5209 26.0206 34.6338 26.0238 34.7357C26.043 35.3922 25.8033 35.9906 25.5953 36.5951C25.5561 36.7087 25.5016 36.8377 25.4132 36.9086C25.3113 36.9891 25.1514 37.0714 25.0413 37.0464ZM27.1487 36.4793C26.9225 36.7814 26.6903 37.0828 26.5029 37.4087C26.3843 37.615 26.2022 37.6534 26.0177 37.7133C25.9176 37.7457 25.8083 37.7496 25.7032 37.7663C25.6932 37.7507 25.6832 37.735 25.6733 37.7197C26.4619 37.268 26.8805 36.5324 27.2306 35.7352C27.2627 35.996 27.324 36.2453 27.1487 36.4793ZM27.1124 35.3273C26.8851 36.0448 26.4954 36.6514 25.8428 37.06C25.7513 37.1173 25.6501 37.159 25.5108 37.2295C25.633 36.9061 25.7452 36.6286 25.8435 36.3465C26.1046 35.5956 26.2396 34.8233 26.2728 34.0275C26.3155 32.9966 26.2069 31.9825 26.006 30.9747C25.8884 30.3838 25.7869 29.7893 25.6572 29.2008C25.4994 28.4859 25.3131 27.7774 25.15 27.0635C25.0022 26.4177 24.8839 25.7608 24.933 25.0993L26.0808 23.4757C26.1061 23.4935 26.131 23.511 26.1563 23.5288C26.1623 23.4176 26.2108 23.2826 26.1648 23.2003C26.0872 23.0611 25.9497 23.1409 25.8389 23.1968C25.4439 23.3959 25.1913 23.7208 25.0207 24.1201C24.7161 24.8325 24.6723 25.5745 24.8048 26.3254C24.9377 27.0774 25.0973 27.8247 25.2565 28.5721C25.3936 29.2147 25.5586 29.8516 25.6896 30.4953C25.815 31.1108 25.9358 31.7292 26.0149 32.3522C26.0801 32.868 26.0833 33.392 26.1093 33.9124C26.1125 33.9794 26.0893 34.0478 26.0815 34.0952C25.8542 33.9588 25.6337 33.8262 25.4022 33.6873C25.5033 33.2577 25.2387 32.8534 24.7211 32.6821C24.3649 32.5638 23.993 32.4698 23.6656 32.2949C23.3155 32.1079 22.9906 31.8603 22.6875 31.601C22.2333 31.2127 21.7813 30.8166 21.4339 30.3211C21.0044 29.7084 20.6966 29.0401 20.5545 28.3046C20.3906 27.4564 20.2809 26.5965 20.3863 25.7355C20.5056 24.7616 20.7692 23.8162 21.2081 22.9353C21.4803 22.3889 21.8664 21.919 22.3291 21.5087C23.0095 20.9049 23.8088 20.5074 24.6349 20.169C25.1657 19.9517 25.7256 19.7914 26.286 19.6653C26.8587 19.5363 27.4479 19.4807 28.0296 19.3928L30.3076 19.2467C30.7037 19.2542 31.0991 19.3222 31.4945 19.3632C31.5063 19.3899 31.518 19.4163 31.5298 19.443C31.4301 19.573 31.3367 19.7084 31.2295 19.832C30.8541 20.2641 30.4473 20.6723 30.1046 21.1286C29.873 21.4367 29.727 21.8097 29.5464 22.1556C29.4787 22.2856 29.406 22.4163 29.3619 22.5552C29.218 23.0091 29.0901 23.4682 28.949 23.9231C28.7616 24.5294 28.6477 25.1467 28.5992 25.7804C28.5657 26.2161 28.4859 26.6482 28.4297 27.0824C28.4158 27.191 28.4161 27.3018 28.4051 27.4108C28.352 27.9369 28.2946 28.4631 28.2451 28.9896C28.2295 29.1566 28.2437 29.3265 28.2241 29.4929C28.1767 29.8947 28.1151 30.2951 28.0631 30.6965C28.0303 30.9516 28.009 31.2084 27.9751 31.4635C27.8658 32.2899 27.7397 33.1131 27.5113 33.9167C27.3792 34.3862 27.2602 34.8614 27.1124 35.3273ZM33.4776 38.4574C33.142 38.1592 32.784 37.8632 32.7416 37.3977C32.6911 36.842 32.9753 36.4124 33.411 36.074C33.0127 36.8836 33.0758 37.6691 33.4776 38.4574ZM33.676 35.8064C33.5599 35.6387 33.5716 35.6266 33.9592 35.5094C33.8466 35.6276 33.7629 35.7156 33.676 35.8064ZM35.7036 34.5768C35.3848 34.7738 35.0378 34.9245 34.6819 35.0548C35.1037 34.6544 35.5255 34.2544 35.9529 33.849C36.0548 34.1144 35.9729 34.4104 35.7036 34.5768Z" fill="#292028"/>
<path d="M47.8708 34.1468C47.6667 33.8836 47.4398 33.6353 47.2047 33.3984C46.8773 33.0686 46.5354 32.753 46.1991 32.4324C45.7991 32.0512 45.4364 31.6451 45.2334 31.1165C45.0532 30.647 44.9915 30.1847 45.1899 29.7013C45.4364 29.1014 45.4347 28.4916 45.1237 27.9188C44.9021 27.5113 44.6442 27.118 44.3628 26.749C43.8121 26.0273 43.3056 25.2792 42.8478 24.4948C42.581 24.0378 42.2768 23.6011 41.9673 23.1708C41.823 22.9706 41.6363 22.7971 41.4518 22.6304C41.1665 22.3721 41.1526 22.3419 41.366 22.0095C41.4208 21.924 41.5006 21.8549 41.563 21.7737C41.6691 21.6362 41.7927 21.5215 41.9348 21.4193C42.1899 21.2358 42.4157 21.0085 42.6822 20.8458C42.9472 20.6837 43.224 20.5163 43.5695 20.5715C43.7141 20.5946 43.8356 20.6121 43.8816 20.7756C43.8912 20.8091 43.9382 20.854 43.9685 20.8543C44.0023 20.8547 44.0511 20.8183 44.0689 20.7848C44.1665 20.601 44.0871 20.2377 43.9083 20.1348C43.8071 20.0767 43.6764 20.0542 43.5574 20.0471C43.3857 20.0368 43.1909 20.0065 43.0441 20.0713C42.7367 20.2071 42.4321 20.3702 42.1678 20.5757C41.8298 20.8383 41.5248 21.1457 41.2213 21.4499C41.0707 21.6009 40.9556 21.7872 40.8124 21.9728C40.5428 21.7413 40.2806 21.5325 40.0376 21.3031C39.7092 20.9925 39.3943 20.668 39.078 20.3446C39.0377 20.3032 39.0057 20.2352 39.0039 20.1786C38.9957 19.9232 38.8938 19.8298 38.6399 19.858C38.5786 19.8647 38.5052 19.8804 38.4553 19.8558C37.8857 19.5766 37.2973 19.3554 36.6668 19.2667C36.5759 19.2538 36.4427 19.2667 36.3921 19.3237C36.3433 19.3789 36.3757 19.506 36.3722 19.6068C37.0426 19.5509 37.5986 19.7725 38.1565 20.0471C37.8494 20.2883 37.5687 20.5123 37.2841 20.7318C36.8687 21.0517 36.6429 21.5108 36.3953 21.9511C36.1973 22.303 36.017 22.6653 35.8421 23.0297C35.6434 23.444 35.4414 23.8583 35.2736 24.285C35.1098 24.7014 34.9883 25.1349 34.8458 25.5599C34.7293 25.9065 34.595 26.2481 34.4946 26.5993C34.376 27.0147 34.2702 27.4322 34.0365 27.803C34.0058 27.8518 33.9809 27.9063 33.9627 27.9612C33.8751 28.2219 33.8249 28.5023 33.697 28.7409C33.4758 29.1534 33.4555 29.6393 33.1787 30.0322C33.0537 30.2096 33.0174 30.4472 32.9194 30.647C32.8004 30.89 32.6472 31.1158 32.529 31.3591C32.2034 32.0284 31.8201 32.6511 31.3097 33.2039C30.9264 33.6193 30.4704 33.8954 29.9728 34.1301C29.4125 34.3941 28.8015 34.4635 28.207 34.5953C27.9969 34.6416 27.7785 34.6505 27.5484 34.6783C27.558 34.6074 27.5601 34.5693 27.569 34.533C27.6951 34.0108 27.8451 33.4928 27.9438 32.9653C28.077 32.2536 28.1828 31.5358 28.2793 30.8177C28.3709 30.1373 28.4421 29.4541 28.5094 28.7708C28.5875 27.979 28.6184 27.181 28.7303 26.3945C28.8557 25.5129 29.0324 24.6373 29.2176 23.7657C29.3825 22.9895 29.6447 22.2354 30.1124 21.5906C30.5762 20.9512 31.112 20.3645 31.6078 19.7479C31.7581 19.5609 31.8903 19.3767 32.1753 19.4405C32.1966 19.4451 32.2672 19.3351 32.2729 19.2745C32.2778 19.2225 32.223 19.1648 32.1902 19.1017C32.2828 19.0226 32.3644 18.9389 32.4588 18.8741C32.8642 18.597 33.2891 18.416 33.7871 18.6276C33.9385 18.6917 34.0921 18.7516 34.2481 18.8032C34.278 18.8132 34.3549 18.7779 34.3564 18.7601C34.3617 18.6736 34.3813 18.5389 34.3361 18.5068C34.1864 18.4021 34.0133 18.328 33.8445 18.2539C33.5453 18.1228 33.2482 18.1339 32.9372 18.2415C32.4969 18.3936 32.1856 18.7102 31.8575 19.012C31.8044 19.0608 31.7296 19.1213 31.6677 19.1185C31.289 19.0992 30.9114 19.0515 30.5324 19.0365C30.2285 19.0244 29.9165 18.8681 29.6176 19.0693C29.5955 19.0843 29.5467 19.0615 29.5111 19.0529C29.4395 19.0362 29.3661 18.9952 29.2974 19.0023C28.7132 19.0625 28.1294 19.1284 27.5466 19.2004C27.4205 19.2161 27.2997 19.2734 27.1736 19.2916C26.9129 19.329 26.6439 19.3276 26.3893 19.3871C25.477 19.6008 24.5808 19.8679 23.7547 20.3225C23.3767 20.5302 23.0081 20.7553 22.6419 20.9833C22.0741 21.3363 21.6459 21.8307 21.3018 22.3932C21.1287 22.676 20.9997 22.9877 20.869 23.2937C20.7436 23.5868 20.6289 23.8861 20.5338 24.1903C20.438 24.4966 20.3607 24.8097 20.2969 25.1246C20.2307 25.4502 20.1509 25.7808 20.1477 26.1096C20.143 26.5865 20.2157 27.0635 20.2299 27.5408C20.2463 28.0983 20.3909 28.6284 20.5805 29.1399C20.7835 29.6877 21.0243 30.2274 21.4172 30.6769C21.6801 30.9779 21.9305 31.2925 22.2158 31.5707C22.6611 32.0049 23.1548 32.3843 23.7134 32.6643C23.9763 32.7961 24.2591 32.8887 24.5341 32.9956C24.7809 33.0914 25.0413 33.169 25.1689 33.4333C25.2373 33.5751 25.1667 33.7201 25.0314 33.7276C24.2705 33.7678 23.5402 33.9388 22.8072 34.1525C21.7257 34.4678 20.8205 35.0563 19.9898 35.779C19.1385 36.5196 18.3769 37.3524 17.6766 38.2341C17.1113 38.9458 16.7244 39.7309 16.759 40.6944C16.7825 41.3527 16.9798 41.9401 17.2573 42.5118C17.3938 42.7925 17.5886 43.0451 17.7628 43.3066C17.8123 43.3806 17.8746 43.4533 17.9466 43.5046C18.2355 43.7084 18.3812 44.0557 18.7075 44.2288C18.9173 44.3403 19.074 44.5604 19.2885 44.653C19.8007 44.875 20.329 45.0631 20.859 45.239C21.1329 45.3299 21.4222 45.3908 21.7093 45.4203C22.1054 45.4613 22.5079 45.4392 22.9037 45.4816C23.4747 45.5425 24.0325 45.4816 24.5736 45.3192C25.0289 45.1827 25.4827 45.0196 25.9073 44.8084C26.2977 44.6142 26.6671 44.3645 27.0109 44.0949C27.3446 43.8334 27.6723 43.5452 27.9342 43.2147C28.2843 42.7722 28.5643 42.2746 28.8845 41.8076C28.9458 41.7178 29.0416 41.6238 29.141 41.5925C29.7772 41.3919 30.3497 41.0799 30.8508 40.6421C30.9766 40.5324 31.0941 40.4059 31.1875 40.2684C31.6003 39.6614 31.7521 38.9924 31.5911 38.2715C31.4372 37.5829 31.2951 36.8829 30.8095 36.3287C30.6375 36.132 30.4579 35.8959 30.1584 35.9343C29.9154 35.9653 29.6757 36.0497 29.4442 36.1367C29.2703 36.2018 29.276 36.3012 29.4224 36.4198C29.4869 36.4719 29.5653 36.5442 29.5767 36.6165C29.6077 36.8135 29.6023 37.0158 29.6187 37.2156C29.6294 37.3439 29.6087 37.5099 29.6796 37.5914C29.8531 37.7909 29.8606 38.0107 29.841 38.2422C29.8093 38.6141 29.8039 38.9942 29.7167 39.3536C29.6322 39.7006 29.4559 40.0247 29.3245 40.3607C29.2639 40.5156 29.2336 40.6859 29.1524 40.828C29.0659 40.9798 28.9626 41.1686 28.8183 41.2312C28.4881 41.3752 28.1322 41.4663 27.7806 41.5536C26.9435 41.7609 26.0993 41.9405 25.2351 41.9764C24.771 41.9957 24.3036 41.9857 23.8395 41.959C23.2763 41.9266 22.7391 41.7734 22.2133 41.565C21.6031 41.3232 21.0232 41.0407 20.5363 40.5886C20.0333 40.1216 19.8164 39.525 19.8206 38.8663C19.8246 38.249 19.9923 37.6759 20.4287 37.1857C20.8316 36.733 21.2808 36.3789 21.8628 36.2118C22.3362 36.0761 22.815 35.9596 23.2923 35.8392C23.5983 35.7623 23.7027 35.8688 23.6354 36.1794C23.5053 36.7825 23.8993 37.5751 24.4707 37.8358C24.6335 37.9103 24.8116 37.9505 24.9829 38.0061C25.1193 38.0502 25.2544 38.1215 25.3929 38.1311C25.5764 38.1432 25.7634 38.1108 25.9479 38.0901C26.2485 38.057 26.525 37.9462 26.7049 37.7029C26.9692 37.3453 27.2242 36.9766 27.4394 36.5883C27.6072 36.2856 27.6866 35.9482 27.4625 35.6162C27.4155 35.5464 27.4027 35.4531 27.3827 35.3961C27.8344 35.311 28.2747 35.2433 28.7071 35.1428C29.5118 34.9558 30.2553 34.6277 30.9189 34.1287C31.5608 33.646 32.036 33.023 32.4232 32.3294C33.0733 31.165 33.6667 29.977 34.076 28.6992C34.356 27.8254 34.7079 26.9748 35.0239 26.112C35.2711 25.4374 35.4834 24.7485 35.7638 24.0884C36.0641 23.3809 36.4352 22.7038 36.7583 22.0052C37.112 21.2401 37.7162 20.7328 38.4283 20.3317C38.4728 20.3064 38.565 20.3168 38.6089 20.3478C38.7407 20.4404 38.8678 20.5433 38.9822 20.657C39.3651 21.0385 39.7416 21.4264 40.1206 21.8118C40.2735 21.9671 40.4248 22.1235 40.5784 22.2781C40.6599 22.3604 40.7052 22.4409 40.6101 22.5463C40.5816 22.578 40.5727 22.6279 40.5574 22.6703C40.3903 23.1341 40.2222 23.5975 40.0576 24.062C39.9326 24.415 39.8104 24.7688 39.6903 25.1235C39.581 25.4466 39.4713 25.7697 39.3719 26.096C39.2775 26.4056 39.2077 26.7226 39.1068 27.03C38.9409 27.5369 38.7538 28.0367 38.5861 28.5432C38.5262 28.7235 38.5159 28.9215 38.4478 29.0978C38.3595 29.3269 38.2316 29.5403 38.128 29.764C37.8035 30.4657 37.4939 31.1742 37.0497 31.8133C36.7605 32.2297 36.5357 32.6899 36.1538 33.0426C35.9148 33.2634 35.7135 33.5249 35.4816 33.7539C35.2772 33.9563 35.0627 34.1508 34.8362 34.3274C34.5687 34.5362 34.2976 34.7481 34.0023 34.9123C33.4099 35.2415 32.7566 35.3897 32.0851 35.4321C31.6007 35.4627 31.1166 35.4474 30.6731 35.1945C30.4889 35.0894 30.267 35.2166 30.2371 35.426C30.2107 35.6098 30.3383 35.7829 30.5523 35.8595C31.0785 36.0472 31.6178 36.0594 32.1639 35.9828C32.4232 35.9464 32.6818 35.9058 32.9653 35.8638C32.9425 35.9236 32.9372 35.9561 32.9197 35.9803C32.7007 36.2884 32.5051 36.6051 32.4827 36.9987C32.4659 37.2929 32.3388 37.6089 32.6647 37.8273C32.6743 37.8337 32.685 37.8493 32.6839 37.8597C32.6508 38.1418 32.9326 38.2383 33.038 38.4424C33.1174 38.5963 33.3184 38.6832 33.4523 38.8136C33.8993 39.2475 34.4333 39.4801 35.0521 39.5104C35.279 39.5214 35.4923 39.4594 35.6452 39.2731C35.768 39.1232 35.9023 38.9782 35.9982 38.8115C36.1061 38.6234 36.1666 38.41 36.0042 38.2141C35.9551 38.155 35.8749 38.0948 35.8054 38.0905C35.7663 38.088 35.7011 38.1934 35.6818 38.2601C35.6466 38.3837 35.6259 38.5137 35.6181 38.6423C35.5992 38.9422 35.3901 39.0907 35.1603 39.2065C34.7689 39.4039 34.1815 39.2112 33.9567 38.7901C33.8865 38.6583 33.8057 38.5326 33.7348 38.4011C33.4455 37.8643 33.303 37.3125 33.5331 36.7098C33.7244 36.2083 34.0682 35.8474 34.5298 35.5977C34.9153 35.389 35.3164 35.2094 35.7032 35.0032C36.1506 34.7645 36.3455 34.2533 36.1734 33.776C36.1335 33.6652 36.1535 33.6047 36.2293 33.522C36.4121 33.3218 36.5852 33.1124 36.7526 32.8994C37.2054 32.323 37.5602 31.6854 37.9242 31.0513C38.4603 30.118 38.792 29.1028 39.1567 28.1019C39.415 27.3923 39.5977 26.6556 39.8314 25.9368C40.0829 25.1631 40.3486 24.3937 40.6201 23.6267C40.7287 23.3197 40.8694 23.0237 41.0069 22.6963C41.1718 22.8602 41.3036 23.0005 41.445 23.1295C41.7888 23.4436 42.0207 23.838 42.2533 24.233C42.5269 24.6979 42.8008 25.1631 43.0794 25.6251C43.1463 25.7366 43.2311 25.8374 43.3091 25.9421C43.4854 26.1783 43.6418 26.4337 43.8459 26.6421C43.9941 26.7931 44.1462 26.9028 44.1266 27.1504C44.1188 27.2487 44.2103 27.3599 44.2691 27.4571C44.3293 27.5561 44.4184 27.6388 44.4711 27.741C44.5826 27.9583 44.6606 28.1941 44.786 28.4022C44.927 28.6362 44.9374 28.9115 44.8508 29.11C44.667 29.5306 44.6478 29.9649 44.6239 30.4002C44.6139 30.5804 44.6994 30.7688 44.7554 30.9498C44.8597 31.2886 44.9694 31.6245 45.2231 31.8931C45.3534 32.0313 45.4906 32.1773 45.5722 32.3451C45.7581 32.7291 46.1346 32.9279 46.3897 33.2428C46.498 33.3763 46.6444 33.4786 46.7644 33.6036C46.9585 33.8063 47.1431 34.0179 47.3358 34.2216C47.4587 34.3517 47.4523 34.5999 47.3283 34.7047C46.8894 35.0762 46.4427 35.4399 46.0224 35.8317C45.6145 36.2118 45.6594 36.7397 46.0979 37.0878C46.3843 37.315 46.3975 37.5654 46.1282 37.8116C46.0285 37.9028 46.0153 37.984 46.0922 38.098C46.182 38.2316 46.2775 38.3683 46.3291 38.5183C46.4093 38.7502 46.1588 39.0056 45.9177 38.959C45.5832 38.8945 45.3167 38.9785 45.1814 39.2065C44.9933 39.5232 44.9153 39.8623 45.17 40.1533C45.3054 40.3079 45.4161 40.4868 45.5191 40.6656C45.6398 40.8747 45.5583 41.1272 45.3474 41.253C45.2248 41.326 45.1084 41.4143 44.9773 41.4663C44.7137 41.5707 44.4469 41.7146 44.1729 41.7367C43.3768 41.8008 42.6017 41.6373 41.8469 41.3915C41.455 41.264 41.0781 41.0898 40.6845 40.9687C40.1281 40.7977 39.5632 40.6542 39.0003 40.5049C38.8978 40.4779 38.7731 40.4415 38.6844 40.4757C38.5184 40.5395 38.3684 40.6478 38.2163 40.7447C37.9702 40.9014 37.9007 41.1632 37.7942 41.4154C37.6293 41.8055 37.407 42.1709 37.2214 42.5528C36.9094 43.1951 36.5966 43.8373 36.3038 44.4885C36.0847 44.9765 35.8931 45.477 35.6968 45.975C35.5974 46.2275 35.5183 46.4879 35.4222 46.7419C35.4051 46.7871 35.3484 46.8163 35.3132 46.8559C35.2594 46.9164 35.1778 46.9724 35.1621 47.0425C35.1247 47.2089 35.2604 47.3257 35.5458 47.3895C35.7086 47.4258 35.7534 47.3083 35.7969 47.185C36.0028 46.6001 36.1962 46.0099 36.4253 45.4339C36.5824 45.0385 36.7915 44.6641 36.9753 44.2794C37.1313 43.9534 37.2891 43.6286 37.438 43.2994C37.723 42.6711 38.0008 42.0395 38.2861 41.4111C38.3218 41.3324 38.3713 41.2498 38.4368 41.196C38.7072 40.9744 39.0025 40.8672 39.3626 40.9744C39.9422 41.1472 40.5331 41.284 41.1098 41.4646C41.4938 41.585 41.8575 41.7681 42.2383 41.8995C42.6416 42.0388 43.0551 42.1107 43.4901 42.1154C43.9973 42.1207 44.5024 42.1635 44.9748 41.938C45.2288 41.8165 45.5102 41.7047 45.7029 41.5123C46.0958 41.1201 46.001 40.4358 45.5536 40.0924C45.3705 39.9521 45.341 39.7939 45.4546 39.5602C45.5615 39.3405 45.6348 39.3259 45.8867 39.3608C46.0509 39.3836 46.2654 39.3967 46.3825 39.3116C46.5332 39.2022 46.6194 38.9956 46.7117 38.8193C46.7445 38.757 46.737 38.6508 46.7074 38.5824C46.6287 38.4004 46.5279 38.2276 46.4264 38.0328C46.6736 37.9238 46.7113 37.6744 46.7505 37.4194C46.7883 37.1722 46.7373 37.0062 46.5172 36.879C46.1592 36.672 46.2009 36.4362 46.3191 36.1766C46.5183 35.7388 46.8916 35.4598 47.2699 35.2002C47.5463 35.0103 47.7753 34.7902 47.9011 34.4838C47.941 34.3866 47.9303 34.2231 47.8708 34.1468ZM29.7345 39.9026C30.0369 39.1969 30.1039 38.4617 30.0048 37.7104C29.9639 37.3994 29.8766 37.0942 29.8054 36.7875C29.7555 36.5737 29.857 36.3607 30.0576 36.277C30.1805 36.2257 30.392 36.3297 30.4953 36.4833C30.6275 36.6795 30.7967 36.8576 30.8957 37.0689C31.0899 37.4846 31.2708 37.9131 31.289 38.3808C31.3011 38.6936 31.3164 39.0152 31.2598 39.3198C31.1825 39.7362 30.9328 40.0682 30.604 40.3414C30.2414 40.6431 29.826 40.8476 29.3978 41.0321C29.358 41.0492 29.312 41.0517 29.2596 41.0631C29.4231 40.6627 29.5727 40.2798 29.7345 39.9026ZM25.0413 37.0464C24.9213 37.0194 24.8219 36.8762 24.7282 36.7704C24.688 36.7244 24.6855 36.6453 24.6655 36.5812C24.647 36.5791 24.6288 36.5773 24.6103 36.5752C24.5562 36.7066 24.4739 36.8341 24.4554 36.9702C24.4368 37.1045 24.4828 37.2473 24.5067 37.4343C24.4297 37.408 24.3303 37.4055 24.289 37.3549C23.9723 36.9691 23.7974 36.537 23.9157 36.0277C23.9257 35.9842 23.9926 35.955 24.0055 35.9112C24.0293 35.8303 24.066 35.7267 24.0343 35.664C24.0094 35.6141 23.8865 35.5824 23.8142 35.5927C23.2182 35.6764 22.6166 35.7384 22.0317 35.8727C21.3524 36.0284 20.7817 36.37 20.3055 36.9164C20.0465 37.2131 19.8887 37.5387 19.7216 37.8714C19.6554 38.0036 19.6397 38.1667 19.6237 38.3181C19.5788 38.7335 19.5296 39.1474 19.7049 39.5535C19.7825 39.7334 19.7761 39.9556 19.8734 40.1199C20.0636 40.4419 20.2591 40.7699 20.5765 40.9937C20.9491 41.2569 21.2982 41.5693 21.7032 41.767C22.244 42.031 22.8118 42.2593 23.4209 42.3359C23.7615 42.3786 24.1031 42.4349 24.445 42.4392C25.0784 42.447 25.7146 42.4495 26.339 42.3141C27.0483 42.1606 27.7553 41.9968 28.4635 41.839C28.5048 41.8297 28.5486 41.8322 28.6334 41.8261C28.5593 41.9597 28.5109 42.0684 28.4443 42.1642C28.0816 42.6839 27.713 43.2018 27.221 43.6083C26.5741 44.1426 25.887 44.6103 25.0855 44.8992C24.0511 45.2722 22.9977 45.2871 21.9241 45.155C21.2519 45.0723 20.62 44.8703 19.9856 44.642C19.1595 44.3446 18.5393 43.7864 17.999 43.1423C17.6014 42.6689 17.2872 42.1225 17.128 41.508C16.9 40.6285 17.0283 39.8021 17.5576 39.0665C17.9039 38.5856 18.2939 38.134 18.6872 37.6898C19.1061 37.2167 19.5161 36.7251 19.9959 36.3194C20.5445 35.8556 21.0987 35.395 21.7553 35.0598C22.6173 34.6199 23.5217 34.3577 24.465 34.1999C24.8757 34.1312 25.2914 34.1205 25.6968 34.2316C25.8054 34.2612 25.8895 34.3713 25.9935 34.4286C26.1613 34.5209 26.0206 34.6338 26.0238 34.7357C26.043 35.3922 25.8033 35.9906 25.5953 36.5951C25.5561 36.7087 25.5016 36.8377 25.4132 36.9086C25.3113 36.9891 25.1514 37.0714 25.0413 37.0464ZM27.1487 36.4793C26.9225 36.7814 26.6903 37.0828 26.5029 37.4087C26.3843 37.615 26.2022 37.6534 26.0177 37.7133C25.9176 37.7457 25.8083 37.7496 25.7032 37.7663C25.6932 37.7507 25.6832 37.735 25.6733 37.7197C26.4619 37.268 26.8805 36.5324 27.2306 35.7352C27.2627 35.996 27.324 36.2453 27.1487 36.4793ZM27.1124 35.3273C26.8851 36.0448 26.4954 36.6514 25.8428 37.06C25.7513 37.1173 25.6501 37.159 25.5108 37.2295C25.633 36.9061 25.7452 36.6286 25.8435 36.3465C26.1046 35.5956 26.2396 34.8233 26.2728 34.0275C26.3155 32.9966 26.2069 31.9825 26.006 30.9747C25.8884 30.3838 25.7869 29.7893 25.6572 29.2008C25.4994 28.4859 25.3131 27.7774 25.15 27.0635C25.0022 26.4177 24.8839 25.7608 24.933 25.0993L26.0808 23.4757C26.1061 23.4935 26.131 23.511 26.1563 23.5288C26.1623 23.4176 26.2108 23.2826 26.1648 23.2003C26.0872 23.0611 25.9497 23.1409 25.8389 23.1968C25.4439 23.3959 25.1913 23.7208 25.0207 24.1201C24.7161 24.8325 24.6723 25.5745 24.8048 26.3254C24.9377 27.0774 25.0973 27.8247 25.2565 28.5721C25.3936 29.2147 25.5586 29.8516 25.6896 30.4953C25.815 31.1108 25.9358 31.7292 26.0149 32.3522C26.0801 32.868 26.0833 33.392 26.1093 33.9124C26.1125 33.9794 26.0893 34.0478 26.0815 34.0952C25.8542 33.9588 25.6337 33.8262 25.4022 33.6873C25.5033 33.2577 25.2387 32.8534 24.7211 32.6821C24.3649 32.5638 23.993 32.4698 23.6656 32.2949C23.3155 32.1079 22.9906 31.8603 22.6875 31.601C22.2333 31.2127 21.7813 30.8166 21.4339 30.3211C21.0044 29.7084 20.6966 29.0401 20.5545 28.3046C20.3906 27.4564 20.2809 26.5965 20.3863 25.7355C20.5056 24.7616 20.7692 23.8162 21.2081 22.9353C21.4803 22.3889 21.8664 21.919 22.3291 21.5087C23.0095 20.9049 23.8088 20.5074 24.6349 20.169C25.1657 19.9517 25.7256 19.7914 26.286 19.6653C26.8587 19.5363 27.4479 19.4807 28.0296 19.3928L30.3076 19.2467C30.7037 19.2542 31.0991 19.3222 31.4945 19.3632C31.5063 19.3899 31.518 19.4163 31.5298 19.443C31.4301 19.573 31.3367 19.7084 31.2295 19.832C30.8541 20.2641 30.4473 20.6723 30.1046 21.1286C29.873 21.4367 29.727 21.8097 29.5464 22.1556C29.4787 22.2856 29.406 22.4163 29.3619 22.5552C29.218 23.0091 29.0901 23.4682 28.949 23.9231C28.7616 24.5294 28.6477 25.1467 28.5992 25.7804C28.5657 26.2161 28.4859 26.6482 28.4297 27.0824C28.4158 27.191 28.4161 27.3018 28.4051 27.4108C28.352 27.9369 28.2946 28.4631 28.2451 28.9896C28.2295 29.1566 28.2437 29.3265 28.2241 29.4929C28.1767 29.8947 28.1151 30.2951 28.0631 30.6965C28.0303 30.9516 28.009 31.2084 27.9751 31.4635C27.8658 32.2899 27.7397 33.1131 27.5113 33.9167C27.3792 34.3862 27.2602 34.8614 27.1124 35.3273ZM33.4776 38.4574C33.142 38.1592 32.784 37.8632 32.7416 37.3977C32.6911 36.842 32.9753 36.4124 33.411 36.074C33.0127 36.8836 33.0758 37.6691 33.4776 38.4574ZM33.676 35.8064C33.5599 35.6387 33.5716 35.6266 33.9592 35.5094C33.8466 35.6276 33.7629 35.7156 33.676 35.8064ZM35.7036 34.5768C35.3848 34.7738 35.0378 34.9245 34.6819 35.0548C35.1037 34.6544 35.5255 34.2544 35.9529 33.849C36.0548 34.1144 35.9729 34.4104 35.7036 34.5768Z" stroke="#292028" stroke-width="0.5" mask="url(#path-2-outside-1_2460_16938)"/>
<path d="M41.3687 27.9756L41.3688 27.9757C41.5605 28.0343 41.7525 28.0923 41.9448 28.1491C42.1054 28.1966 42.2663 28.2439 42.4273 28.2912C42.8132 28.4047 43.1997 28.5183 43.5851 28.6345C43.6946 28.6674 43.8042 28.7079 43.9156 28.749C43.9649 28.7673 44.0145 28.7856 44.0647 28.8035L44.1824 28.8455L44.1405 28.9632C44.1301 28.9924 44.1197 29.024 44.109 29.0567C44.0797 29.146 44.0475 29.2444 44.0026 29.3296L41.3687 27.9756ZM41.3687 27.9756C41.0154 27.8678 40.7301 28.0198 40.4983 28.1945L40.4982 28.1945M41.3687 27.9756L40.4982 28.1945M40.4982 28.1945C40.2001 28.4196 39.905 28.6494 39.6108 28.8786C39.4911 28.9718 39.3716 29.0649 39.252 29.1576M40.4982 28.1945L39.0485 29.3234M39.0485 29.3234L39.1332 29.2541C39.1433 29.2458 39.1537 29.2372 39.1644 29.2285C39.1925 29.2052 39.2223 29.1806 39.252 29.1576M39.0485 29.3234L39.1061 29.4166M39.0485 29.3234L39.1061 29.4166M39.252 29.1576C39.2521 29.1576 39.2521 29.1575 39.2521 29.1575L39.3285 29.2564L39.252 29.1576C39.252 29.1576 39.252 29.1576 39.252 29.1576ZM39.1061 29.4166C39.1348 29.463 39.1701 29.5021 39.2146 29.5286C39.2606 29.5559 39.3083 29.5648 39.3527 29.5629C39.3946 29.5612 39.4321 29.5499 39.4608 29.5396C39.4778 29.5334 39.4993 29.5246 39.5162 29.5176C39.5241 29.5143 39.5311 29.5115 39.5361 29.5095L39.4902 29.3932L39.536 29.5096C40.0339 29.314 40.5292 29.0911 40.9718 28.7603L40.9718 28.7602M39.1061 29.4166L40.9718 28.7602M40.9718 28.7602C41.0155 28.7275 41.0524 28.7165 41.0874 28.7153M40.9718 28.7602L41.0874 28.7153M43.7168 29.4637L43.7166 29.4637C43.4705 29.4214 43.2271 29.3669 42.9872 29.3105C42.9871 29.3104 42.9871 29.3104 42.9871 29.3104L43.7168 29.4637ZM43.7168 29.4637C43.7754 29.4737 43.8352 29.4564 43.8755 29.4386M43.7168 29.4637L43.8755 29.4386M41.0874 28.7153C41.1251 28.714 41.1707 28.7238 41.2308 28.7493L41.0874 28.7153ZM43.8755 29.4386C43.9138 29.4216 43.9721 29.3876 44.0026 29.3297L43.8755 29.4386ZM41.2309 28.7493C41.5164 28.87 41.8094 28.9938 42.1114 29.0902L41.2309 28.7493Z" fill="#292028" stroke="#292028" stroke-width="0.25"/>
<path d="M43.6156 30.4276L43.7106 30.5221C43.7738 30.5849 43.8271 30.6396 43.8644 30.6882C43.9008 30.7357 43.9368 30.7958 43.9372 30.8689C43.9375 30.9443 43.9 31.0029 43.8633 31.0467C43.827 31.09 43.7756 31.1368 43.7195 31.1875L43.7195 31.1876C43.3977 31.4785 43.0342 31.6928 42.608 31.8022L42.6069 31.8025L42.6069 31.8025C42.6005 31.8041 42.5969 31.8053 42.591 31.8074C42.5858 31.8091 42.5787 31.8115 42.5663 31.8154L43.6156 30.4276ZM43.6156 30.4276L43.5279 30.529M43.6156 30.4276L43.5279 30.529M43.5279 30.529C43.3198 30.7695 43.0711 30.9131 42.7681 30.9752L43.5279 30.529ZM40.6106 30.6973L40.6107 30.6973C41.29 31.0685 42.0094 31.1308 42.768 30.9752L40.6106 30.6973ZM40.6106 30.6973C40.587 30.6844 40.5629 30.671 40.5383 30.6574C40.4342 30.5996 40.3222 30.5375 40.2056 30.4897L40.2055 30.4897M40.6106 30.6973L40.2055 30.4897M40.2055 30.4897C40.1395 30.4627 40.0534 30.4427 39.9685 30.4602C39.8734 30.4799 39.7939 30.5447 39.7593 30.6549L39.7593 30.655M40.2055 30.4897L39.7593 30.655M39.7593 30.655C39.7404 30.7154 39.7186 30.7976 39.7097 30.8759C39.7053 30.9149 39.7035 30.958 39.709 30.9992C39.7142 31.0387 39.728 31.0912 39.7678 31.1336L39.859 31.0482M39.7593 30.655L40.3312 31.5558M40.3312 31.5558L40.3311 31.5558C40.138 31.4415 39.9303 31.3081 39.7675 31.1334L39.859 31.0482M40.3312 31.5558C40.5865 31.7067 40.8687 31.7798 41.166 31.7855L40.3312 31.5558ZM39.859 31.0482C39.8017 30.9869 39.843 30.8063 39.8786 30.6923C39.9203 30.5595 40.051 30.5616 40.1582 30.6054C40.2673 30.6501 40.3711 30.7076 40.4748 30.7651C40.5001 30.7792 40.5254 30.7932 40.5508 30.807C41.2607 31.1949 42.0113 31.258 42.7932 31.0977L39.859 31.0482ZM41.1661 31.7855C41.4441 31.7909 41.7209 31.8013 41.9989 31.8118C42.1581 31.8178 42.3178 31.8238 42.4784 31.8289C42.4783 31.8289 42.4783 31.8289 42.4782 31.8289L41.1661 31.7855Z" fill="#292028" stroke="#292028" stroke-width="0.25"/>
<path d="M37.2355 35.0311L37.2352 35.0311C37.1621 35.0194 37.066 34.9924 37.016 34.9052C36.9659 34.8178 36.9907 34.7201 37.0198 34.6468L37.2355 35.0311ZM37.2355 35.0311C37.2757 35.0374 37.3161 35.0425 37.3545 35.0473L37.3584 35.0478C37.396 35.0525 37.4316 35.0569 37.4667 35.0623C37.5395 35.0734 37.6029 35.0874 37.6585 35.1104C37.884 35.204 38.1036 35.3122 38.3012 35.444C38.6978 35.7088 39.1233 35.8972 39.5778 36.0237L39.6113 35.9033L39.5777 36.0236C39.6445 36.0423 39.71 36.0617 39.7764 36.0813C39.8173 36.0933 39.8585 36.1055 39.9007 36.1177L39.9639 36.136M37.2355 35.0311L39.9639 36.136M39.9639 36.136L40.0148 36.0943M39.9639 36.136L40.0148 36.0943M40.0148 36.0943C40.0297 36.082 40.0421 36.0736 40.0573 36.0634C40.0668 36.0569 40.0775 36.0497 40.0905 36.0403C40.1034 36.0311 40.1222 36.017 40.1383 35.9995C40.1522 35.9844 40.1836 35.9463 40.1823 35.8898M40.0148 36.0943L37.742 34.3829M37.742 34.3829L37.742 34.3829C38.1822 34.616 38.6182 34.8594 39.0526 35.1021C39.2634 35.2197 39.4738 35.3372 39.6842 35.4533C39.7286 35.4777 39.7737 35.5 39.8215 35.5237C39.8345 35.5301 39.8477 35.5367 39.8612 35.5434C39.9225 35.574 39.9873 35.6074 40.0499 35.6469L39.9832 35.7526L40.0497 35.6467C40.0954 35.6754 40.1267 35.7193 40.146 35.7564C40.1656 35.7944 40.1812 35.8418 40.1823 35.8898M37.742 34.3829C37.6464 34.3323 37.5655 34.2904 37.4988 34.2656M37.742 34.3829L37.4988 34.2656M40.1823 35.8898L40.0573 35.8926L40.1823 35.8895C40.1823 35.8896 40.1823 35.8897 40.1823 35.8898ZM37.4988 34.2656C37.4338 34.2415 37.3547 34.2225 37.2759 34.2534M37.4988 34.2656L37.2759 34.2534M37.2759 34.2534C37.1977 34.284 37.1526 34.3509 37.1214 34.4099M37.2759 34.2534L37.1214 34.4099M37.1214 34.4099C37.0906 34.4679 37.0599 34.5454 37.0247 34.6345M37.1214 34.4099L37.0247 34.6345M37.0247 34.6345C37.023 34.6386 37.0214 34.6427 37.0198 34.6468L37.0247 34.6345Z" fill="#292028" stroke="#292028" stroke-width="0.25"/>
<path d="M44.6775 35.2874L44.5599 35.3296C44.5759 35.3741 44.6068 35.4062 44.6314 35.4268C44.6578 35.4488 44.6882 35.4668 44.7179 35.4809C44.774 35.5073 44.8487 35.5291 44.9173 35.5234L44.9173 35.5234C45.0937 35.5087 45.2714 35.4762 45.4417 35.4451C45.4694 35.44 45.4969 35.435 45.5241 35.4301L45.5377 35.4682L45.6581 35.4202C45.6759 35.4131 45.6957 35.4066 45.719 35.3993C45.7234 35.3979 45.7279 35.3965 45.7326 35.395C45.7515 35.3891 45.7728 35.3824 45.7932 35.3753C45.8434 35.3578 45.9072 35.3316 45.9598 35.2825L45.9601 35.2822C45.9894 35.2546 46.0086 35.2196 46.0208 35.1925C46.034 35.1632 46.0441 35.1315 46.051 35.1016C46.0578 35.0723 46.0626 35.0399 46.0624 35.0092C46.0623 34.9941 46.061 34.975 46.0557 34.955C46.0511 34.9375 46.0395 34.9036 46.0075 34.8767C45.9934 34.8648 45.9774 34.851 45.9602 34.8361C45.9113 34.7937 45.8525 34.7427 45.7962 34.7025C45.7568 34.6744 45.7124 34.6469 45.6658 34.628C45.6197 34.6093 45.5622 34.5952 45.5008 34.6061L45.5005 34.6061C45.2201 34.6561 44.9546 34.7908 44.7174 34.9112C44.7097 34.9152 44.702 34.9191 44.6944 34.923L44.6944 34.923L44.6942 34.9231C44.6488 34.9461 44.6205 34.985 44.6039 35.0131C44.5858 35.044 44.5723 35.0785 44.5629 35.1117C44.5535 35.1452 44.5471 35.1813 44.5454 35.2164C44.5438 35.2497 44.5458 35.2909 44.56 35.3299L44.6775 35.2874ZM44.6775 35.2874C44.6522 35.2175 44.6935 35.0636 44.7509 35.0344L44.9069 35.3989C44.8296 35.4053 44.6989 35.3468 44.6775 35.2874Z" fill="#292028" stroke="#292028" stroke-width="0.25"/>
<path d="M44.7981 37.5803C44.7166 37.5801 44.623 37.6107 44.5619 37.6781C44.5294 37.714 44.5044 37.7629 44.5025 37.8216C44.5007 37.8801 44.5223 37.9339 44.5563 37.9797L44.6566 37.9052L44.5561 37.9795C44.7493 38.2406 45.0446 38.3045 45.3246 38.2875L45.3246 38.2875C45.3991 38.283 45.4651 38.2596 45.5154 38.2105C45.5634 38.1637 45.5832 38.1066 45.5936 38.0638C45.5989 38.0419 45.6026 38.0204 45.6055 38.0023C45.6063 37.9976 45.607 37.9932 45.6076 37.989C45.6097 37.9758 45.6115 37.9647 45.6136 37.9535C45.6194 37.9232 45.6247 37.9129 45.6271 37.9096L45.5339 37.8422L45.54 37.7495L45.4165 37.7304C45.416 37.7339 45.4155 37.7373 45.415 37.7405C45.3836 37.7381 45.3525 37.7357 45.3215 37.7333C45.1435 37.7193 44.9707 37.7058 44.7977 37.7053L44.7981 37.5803Z" fill="#292028" stroke="#292028" stroke-width="0.25"/>
<path d="M44.0013 37.7852L44.045 37.7841L44.0785 37.7561C44.0937 37.7433 44.113 37.7298 44.1374 37.7134C44.1423 37.7101 44.1476 37.7066 44.153 37.703C44.1724 37.6901 44.1945 37.6755 44.2146 37.661C44.2405 37.6422 44.27 37.6188 44.2951 37.5909C44.3202 37.563 44.3469 37.5239 44.3568 37.4731L44.2341 37.4493L44.3567 37.4734C44.3722 37.3944 44.336 37.326 44.3058 37.2843C44.2728 37.2387 44.2281 37.1984 44.183 37.1668C44.1376 37.135 44.0854 37.1074 44.0333 37.0912C43.9875 37.0771 43.9134 37.0628 43.8453 37.0975L43.8452 37.0975C43.7982 37.1215 43.7386 37.1561 43.6876 37.1976C43.6621 37.2183 43.6356 37.2433 43.6137 37.2721C43.5924 37.3004 43.5702 37.3392 43.564 37.3869L43.564 37.3869L43.564 37.3873C43.5472 37.5194 43.6374 37.6232 43.7117 37.6803C43.7904 37.7407 43.8993 37.7877 44.0013 37.7852Z" fill="#292028" stroke="#292028" stroke-width="0.25"/>
</g>
<path d="M0.5 32C0.5 14.3269 14.8269 0 32.5 0C50.1731 0 64.5 14.3269 64.5 32C64.5 49.6731 50.1731 64 32.5 64C14.8269 64 0.5 49.6731 0.5 32Z" fill="#162F42" fill-opacity="0.1"/>
<defs>
<clipPath id="clip0_2460_16938">
<rect width="31.3469" height="29.5659" fill="white" transform="translate(16.7173 17.9265)"/>
</clipPath>
</defs>
</svg>
