<svg width="86" height="25" viewBox="0 0 86 25" fill="none" xmlns="http://www.w3.org/2000/svg">
<g clip-path="url(#clip0_2461_19976)">
<path d="M0.979736 6.58887H5.97235L8.87948 14.0265L11.8244 6.58887H16.6855L9.36574 24.1961H4.47377L6.47745 19.5305L0.979736 6.58887Z" fill="#A1A1AA"/>
<path d="M21.7497 6.29248C17.9986 6.29248 15.6271 9.65671 15.6271 13.007C15.6271 16.7769 18.2271 19.7659 21.6786 19.7659C24.2532 19.7659 25.224 18.1972 25.224 18.1972V19.4192H29.5786V6.58864H25.224V7.75506C25.224 7.75506 24.141 6.29248 21.7497 6.29248ZM22.6759 10.4157C24.4068 10.4157 25.2999 11.7853 25.2999 13.0211C25.2999 14.3518 24.3431 15.6577 22.6759 15.6577C21.2943 15.6577 20.0457 14.5285 20.0457 13.0777C20.0457 11.6063 21.05 10.4157 22.6759 10.4157Z" fill="#A1A1AA"/>
<path d="M31.0781 19.4193V0.92334H35.6327V7.79969C35.6327 7.79969 36.7145 6.29428 38.9802 6.29428C41.7517 6.29428 43.3754 8.35922 43.3754 11.31V19.4193H38.8542V12.4208C38.8542 11.4223 38.3786 10.4575 37.3011 10.4575C36.2043 10.4575 35.6327 11.4369 35.6327 12.4208V19.4193H31.0781Z" fill="#A1A1AA"/>
<path d="M51.1406 6.29395C46.8448 6.29395 44.2869 9.56047 44.2869 13.0603C44.2869 17.0431 47.384 19.7658 51.1569 19.7658C54.8138 19.7658 58.0137 17.1667 58.0137 13.1271C58.0137 8.70709 54.6633 6.29395 51.1406 6.29395ZM51.1816 10.4534C52.6991 10.4534 53.749 11.7173 53.749 13.065C53.749 14.2146 52.7706 15.6324 51.1816 15.6324C49.7256 15.6324 48.633 14.4645 48.633 13.0525C48.633 11.6923 49.5414 10.4534 51.1816 10.4534Z" fill="#A1A1AA"/>
<path d="M65.6015 6.29395C61.3058 6.29395 58.7478 9.56047 58.7478 13.0603C58.7478 17.0431 61.8449 19.7658 65.6178 19.7658C69.2747 19.7658 72.4746 17.1667 72.4746 13.1271C72.4746 8.70709 69.1242 6.29395 65.6015 6.29395ZM65.6426 10.4534C67.16 10.4534 68.2099 11.7173 68.2099 13.065C68.2099 14.2146 67.2316 15.6324 65.6426 15.6324C64.1866 15.6324 63.0938 14.4645 63.0938 13.0525C63.0938 11.6923 64.0023 10.4534 65.6426 10.4534Z" fill="#A1A1AA"/>
<path d="M76.0682 19.6919C77.7388 19.6919 79.093 18.3378 79.093 16.6675C79.093 14.9972 77.7388 13.6431 76.0682 13.6431C74.3977 13.6431 73.0439 14.9972 73.0439 16.6675C73.0439 18.3378 74.3977 19.6919 76.0682 19.6919Z" fill="#A1A1AA"/>
<path d="M80.0865 12.5319H74.6421L79.4741 0.92334H84.8988L80.0865 12.5319Z" fill="#A1A1AA"/>
</g>
<defs>
<clipPath id="clip0_2461_19976">
<rect width="84.3636" height="24" fill="white" transform="translate(0.684265 0.585938)"/>
</clipPath>
</defs>
</svg>
