<?xml version="1.0" encoding="UTF-8"?>
<svg width="64px" height="64px" viewBox="0 0 64 64" version="1.1" xmlns="http://www.w3.org/2000/svg" xmlns:xlink="http://www.w3.org/1999/xlink">
    <!-- Generator: Sketch 58 (84663) - https://sketch.com -->
    <title>Atoms / Media / image / illustration/profhilo</title>
    <desc>Created with Sketch.</desc>
    <g id="Atoms-/-Media-/-image-/-illustration/profhilo" stroke="none" stroke-width="1" fill="none" fill-rule="evenodd">
        <path d="M20.0310752,15 L26.0021753,15 C30.8965196,15 35.4754506,16.3812927 39.728092,19.1547545 C40.7722188,20.2641392 41.2942822,20.8623369 41.2942822,20.9602237 C41.2942822,21.1995028 41.0332505,21.4714108 40.5111871,21.7433188 L39.728092,21.7433188 C36.9763828,18.4477937 31.6143567,16.8054692 23.65289,16.8054692 C16.0177129,16.8054692 10.3185208,18.8828465 6.55531386,23.0484773 L6.02237415,23.2877564 L5.51118707,23.2877564 C5.17402113,23.2877564 5,23.1137352 5,22.7765693 L5,22.2653822 C9.7311995,17.5994406 14.3971411,15.271908 18.9978247,15.271908 C18.9869484,15.0870106 19.3349907,15 20.0310752,15 Z M7.84959602,38.8517713 L9.39403356,41.4403356 L9.39403356,41.9515227 L8.0997514,41.9515227 L8.0997514,44.540087 C8.0997514,44.8990056 7.92573027,45.0730267 7.58856433,45.0730267 C7.29490367,44.811995 7.03387197,43.691734 6.80546924,41.7013673 L6.56619018,41.7013673 L6.03325047,41.9406464 L5.79397141,41.4294593 C7.05562461,39.7110006 7.75170914,38.8517713 7.84959602,38.8517713 Z M8.3607831,31.3362337 C8.75233064,31.3362337 9.01336234,31.7712865 9.14387819,32.6305158 L8.61093847,32.8697949 C8.37165942,32.8697949 8.11062772,32.6196395 7.84959602,32.1084525 L7.84959602,31.8365444 C7.90397763,31.5102548 8.06712244,31.3362337 8.3607831,31.3362337 Z M9.39403356,33.9356743 L9.90522063,34.7187694 L9.90522063,34.9580485 C9.90522063,35.3060907 9.7311995,35.4692356 9.39403356,35.4692356 L8.88284649,35.4692356 L8.88284649,34.4359851 C8.92635177,34.1096955 9.1003729,33.9356743 9.39403356,33.9356743 Z M16.9313238,23.2877564 C18.4431324,23.2877564 22.0758235,23.9838409 27.8185208,25.3651336 C27.8185208,25.5500311 27.9055314,25.6370416 28.0686762,25.6370416 L33.0065258,25.6370416 L33.7896209,26.1482287 C33.7896209,25.7240522 34.6488502,25.4630205 36.3781852,25.3651336 L36.8893723,26.1482287 C36.8893723,26.4092604 36.54133,26.7573027 35.8343692,27.1706029 L33.5068365,27.1706029 L32.7237415,27.6817899 L31.1793039,27.6817899 C30.6463642,27.4098819 29.080174,27.0618397 26.502486,26.6594158 C23.4679925,25.8001865 21.2165942,25.3651336 19.7482909,25.3651336 L19.7482909,28.225606 C19.7482909,31.2927284 18.7150404,33.0220634 16.6376631,33.4136109 L15.343381,33.4136109 C13.2116221,33.4136109 11.9064636,31.2492231 11.4496582,26.9313238 L10.155376,27.6926663 C9.87259167,27.6926663 9.53542573,27.3555003 9.13300186,26.6702921 C11.1995028,24.4188937 13.7989434,23.2877564 16.9313238,23.2877564 Z M10.1771287,36.5242387 C10.5686762,36.5242387 10.8297079,36.9592915 10.9602237,37.8185208 L10.4490367,38.0686762 C10.188005,38.0686762 9.92697328,37.8185208 9.66594158,37.3073337 L9.66594158,37.0354257 C9.70944686,36.6982598 9.88346799,36.5242387 10.1771287,36.5242387 Z M34.540087,31.075202 L34.811995,31.075202 C35.1600373,31.1404599 35.3231821,31.314481 35.3231821,31.5863891 L35.3231821,32.1193288 C35.3231821,32.5761342 33.2566812,33.4353636 29.112803,34.7078931 C25.9151647,35.9151647 23.4027346,36.5133623 21.5755127,36.5133623 L17.9536979,36.5133623 C16.7573027,36.5133623 14.7778123,35.9151647 11.9825979,34.7078931 L11.9825979,35.4692356 L11.1995028,35.4692356 C11.1995028,35.2843381 11.1233686,35.0341827 10.9602237,34.7078931 L10.9602237,33.4244873 C10.6774394,33.4244873 10.3293971,33.076445 9.90522063,32.3694842 L9.90522063,31.8582971 C9.97047856,31.5211311 10.1444997,31.34711 10.4381603,31.34711 L10.9493474,31.34711 C13.1354879,33.3048477 15.4630205,34.5121193 17.9428216,34.9689248 L21.5646364,34.9689248 C24.6970168,34.4468614 28.4167185,33.3266004 32.7237415,31.5972654 C32.7346178,31.3036047 33.3328154,31.1404599 34.540087,31.075202 Z M11.4714108,38.8517713 C11.8194531,38.9170292 11.9825979,39.0910503 11.9825979,39.3629584 L11.9825979,39.8958981 C11.9825979,40.233064 11.8085768,40.4070851 11.4714108,40.4070851 L10.9602237,40.4070851 L10.9602237,39.352082 C11.003729,39.0257924 11.1777502,38.8517713 11.4714108,38.8517713 Z M12.5046613,36.5242387 C12.765693,36.5242387 13.0267247,36.7852704 13.2877564,37.3073337 L13.2877564,37.5466128 C13.2877564,37.8946551 13.1137352,38.0577999 12.7765693,38.0577999 C12.5372902,38.0577999 12.2762585,37.8076445 11.9934742,37.2964574 L11.9934742,37.0245494 C12.0478558,36.6982598 12.2218769,36.5242387 12.5046613,36.5242387 Z M12.765693,41.2010566 L13.5487881,42.2234307 C13.5487881,42.5605966 13.3747669,42.7346178 13.037601,42.7346178 L12.765693,42.7346178 C12.5264139,42.7346178 12.2653822,42.4735861 11.9825979,41.9515227 C11.9825979,41.7122436 12.2436296,41.4620883 12.765693,41.2010566 Z M13.2877564,25.6370416 L13.2877564,25.8763207 C13.2877564,28.8781852 13.885954,30.7815413 15.0932256,31.5755127 L15.0932256,31.8474208 L16.3875078,31.8474208 C17.0292107,31.8474208 17.6382846,30.7162834 18.225606,28.4757613 L18.225606,26.3983841 L17.6926663,25.6370416 L17.6926663,25.3760099 L17.9645743,24.8648229 L16.9422001,24.8648229 L13.2877564,25.6370416 Z M13.7989434,38.8517713 L14.0708515,38.8517713 C14.3210068,38.8517713 14.5820385,39.112803 14.8539466,39.6348664 C14.8539466,39.8741454 14.5929149,40.1351771 14.0708515,40.4179615 C13.6793039,40.4179615 13.4182722,39.9829086 13.2877564,39.1236793 L13.7989434,38.8517713 Z M14.3318832,43.5285892 C14.5820385,43.5285892 14.8321939,43.7896209 15.0932256,44.3116843 L15.0932256,44.5509633 C15.0932256,44.9098819 14.9192045,45.083903 14.5820385,45.083903 C14.3318832,45.083903 14.0708515,44.8228713 13.7989434,44.300808 L13.7989434,44.0288999 C13.8642014,43.691734 14.0382225,43.5285892 14.3318832,43.5285892 Z M15.6261653,40.9291485 L15.8763207,40.9291485 C16.1155998,40.9291485 16.3766314,41.1901802 16.6594158,41.7122436 C16.6594158,42.0494096 16.4853947,42.2234307 16.1482287,42.2234307 C15.4521442,41.962399 15.0932256,41.7013673 15.0932256,41.4403356 C15.1584835,41.1031697 15.343381,40.9291485 15.6261653,40.9291485 Z M15.8763207,45.6059664 C16.9204475,45.7038533 17.4425109,45.964885 17.4425109,46.3890615 L16.6594158,46.9002486 C16.4201367,46.9002486 16.159105,46.6392169 15.8763207,46.1171535 L15.8763207,45.6059664 L15.8763207,45.6059664 Z M17.9536979,42.2234307 C18.6389062,42.4844624 18.9760721,42.7454941 18.9760721,43.0065258 C18.9760721,43.3436917 18.802051,43.5177129 18.464885,43.5177129 L18.225606,43.5177129 C17.9645743,43.5177129 17.7035426,43.2566812 17.4425109,42.7346178 C17.7796768,42.7454941 17.9536979,42.571473 17.9536979,42.2234307 Z M18.225606,46.9002486 L19.5198881,47.1395277 L19.5198881,47.6724674 C19.5198881,48.0205096 19.345867,48.1836544 18.9869484,48.1836544 L18.7476694,48.1836544 C18.3996271,48.1836544 18.2364823,48.0096333 18.2364823,47.6724674 L18.2364823,46.9002486 L18.225606,46.9002486 Z M20.2812306,43.2566812 L21.0643257,43.2566812 C21.4123679,43.3219391 21.5755127,43.4959602 21.5755127,43.7896209 C21.5755127,44.1376631 21.4014916,44.300808 21.0643257,44.300808 L20.8250466,44.300808 C20.466128,44.300808 20.2921069,44.1267868 20.2921069,43.7896209 L20.2921069,43.2566812 L20.2812306,43.2566812 Z M21.0643257,47.9334991 C21.7604102,48.1945308 22.1193288,48.4555625 22.1193288,48.7165942 C22.1193288,49.0646364 21.9453076,49.2277812 21.5863891,49.2277812 C20.9011809,48.9667495 20.5640149,48.7057178 20.5640149,48.4446861 C20.5966439,48.0966439 20.770665,47.9334991 21.0643257,47.9334991 Z M23.4136109,43.5285892 L23.924798,43.5285892 C24.2728403,43.5720945 24.4359851,43.7461156 24.4359851,44.0397763 L24.4359851,44.3116843 C24.4359851,44.6488502 24.261964,44.8228713 23.924798,44.8228713 C23.2287135,44.5618397 22.8697949,44.300808 22.8697949,44.0397763 C22.9350528,43.691734 23.1199503,43.5285892 23.4136109,43.5285892 Z M23.924798,48.7057178 L24.7078931,48.7057178 L24.7078931,49.2169049 C24.7078931,49.5540709 24.5229956,49.728092 24.1749534,49.728092 L23.924798,49.728092 C23.5876321,49.728092 23.4136109,49.5540709 23.4136109,49.2169049 C23.4571162,48.879739 23.6311374,48.7057178 23.924798,48.7057178 Z M26.2523306,43.5285892 L26.5242387,43.5285892 C26.8722809,43.5720945 27.0354257,43.7461156 27.0354257,44.0397763 C27.0354257,44.3769422 26.8614046,44.5509633 26.5242387,44.5509633 L26.2523306,44.5509633 C25.9151647,44.5509633 25.7411436,44.3769422 25.7411436,44.0397763 C25.7846489,43.691734 25.95867,43.5285892 26.2523306,43.5285892 Z M26.5133623,48.9776259 L27.0245494,48.9776259 C27.3617154,49.0211311 27.5357365,49.1951523 27.5357365,49.4888129 C27.5357365,49.8259789 27.3617154,50 27.0245494,50 L26.5133623,50 C26.1761964,50 26.0021753,49.8259789 26.0021753,49.4888129 C26.0565569,49.151647 26.230578,48.9776259 26.5133623,48.9776259 Z M29.6239901,42.7454941 L29.8958981,43.2566812 L29.8958981,43.5285892 C29.8958981,43.9201367 29.4608452,44.1811684 28.6016159,44.3116843 L28.3297079,43.8004972 L28.3297079,43.5285892 C28.3297079,43.1370416 28.7647607,42.8760099 29.6239901,42.7454941 Z M29.352082,48.9776259 L29.6239901,48.9776259 C29.961156,49.0211311 30.1351771,49.1951523 30.1351771,49.4888129 L30.1351771,50 L29.352082,50 C29.0040398,50 28.840895,49.8259789 28.840895,49.4888129 C28.9061529,49.151647 29.080174,48.9776259 29.352082,48.9776259 Z M30.4070851,17.8604723 L30.6463642,17.8604723 C31.0052828,17.9039776 31.1793039,18.0779988 31.1793039,18.3716594 L31.1793039,18.6109385 C31.1793039,18.9698571 30.9944065,19.1438782 30.6463642,19.1438782 C30.3200746,18.9698571 30.0699192,18.8719702 29.8850218,18.8719702 L29.8850218,18.3607831 C29.9394034,18.0344935 30.1134245,17.8604723 30.4070851,17.8604723 Z M31.4403356,41.962399 L31.7122436,41.962399 C32.0494096,42.0276569 32.2234307,42.2016781 32.2234307,42.4953387 L32.2234307,43.0065258 L31.2010566,43.2458048 L30.9291485,42.7346178 L30.9291485,42.4953387 C30.9726538,42.1364201 31.146675,41.962399 31.4403356,41.962399 Z M32.2234307,48.4446861 L33.0065258,48.4446861 L33.0065258,48.9776259 C33.0065258,49.2277812 32.7454941,49.4779366 32.2234307,49.7389683 L31.9515227,49.7389683 C31.6034804,49.7389683 31.4403356,49.5649472 31.4403356,49.2277812 C31.4403356,48.9776259 31.7013673,48.7165942 32.2234307,48.4446861 Z M32.7346178,19.1547545 L33.0065258,19.1547545 C33.2458048,19.1547545 33.5068365,19.4049099 33.7896209,19.916097 L33.2566812,20.188005 L32.7454941,20.188005 C32.4083282,20.188005 32.234307,20.0139838 32.234307,19.6768179 C32.266936,19.3287756 32.4409571,19.1547545 32.7346178,19.1547545 Z M34.300808,40.4179615 L34.811995,41.2010566 C34.811995,41.4403356 34.5509633,41.7013673 34.0288999,41.962399 L33.7896209,41.962399 C33.4307023,41.962399 33.2566812,41.7883779 33.2566812,41.4512119 C33.2458048,41.1793039 33.5938471,40.842138 34.300808,40.4179615 Z M34.811995,47.6833437 L35.083903,47.6833437 C35.4319453,47.726849 35.5950901,47.9008701 35.5950901,48.1945308 L35.5950901,48.4338098 C35.5950901,48.7927284 35.421069,48.9667495 35.083903,48.9667495 L34.811995,48.9667495 C34.572716,48.9667495 34.3116843,48.7057178 34.0288999,48.1836544 L34.811995,47.6833437 Z M35.083903,20.188005 C35.3449347,20.188005 35.692977,20.5360472 36.1062772,21.2103791 C36.1062772,21.5692977 35.9322561,21.7433188 35.5950901,21.7433188 C34.8881293,21.4822871 34.540087,21.2212554 34.540087,20.9602237 L34.540087,20.699192 C34.6053449,20.3511498 34.7902424,20.188005 35.083903,20.188005 Z M36.3781852,38.8517713 C36.7262275,38.9170292 36.8893723,39.0910503 36.8893723,39.3629584 L36.8893723,39.6348664 C36.8893723,39.8741454 36.6283406,40.1351771 36.1062772,40.4179615 C35.7691112,40.4179615 35.5950901,40.2439403 35.5950901,39.9067744 L35.5950901,39.6348664 C35.5950901,39.384711 35.8561218,39.1236793 36.3781852,38.8517713 Z M37.4005594,21.7541952 L37.6724674,21.7541952 C37.9226227,21.7541952 38.1727781,22.0043505 38.4338098,22.5155376 L38.4338098,22.7874456 C38.4338098,23.1354879 38.2597887,23.2986327 37.9226227,23.2986327 C37.2374145,23.037601 36.9002486,22.7765693 36.9002486,22.5155376 L36.9002486,22.2762585 C36.9437539,21.91734 37.117775,21.7541952 37.4005594,21.7541952 Z M37.4005594,46.6283406 L37.6724674,46.6283406 C38.0205096,46.6935985 38.1836544,46.8676196 38.1836544,47.1395277 C38.1836544,47.4005594 37.9226227,47.6615911 37.4005594,47.9226227 L36.8893723,47.9226227 L36.8893723,47.1395277 C36.9437539,46.8023617 37.117775,46.6283406 37.4005594,46.6283406 Z M38.1836544,37.0463021 C38.5208204,37.0898073 38.6948415,37.2638285 38.6948415,37.5574891 L38.6948415,37.8293971 C38.6948415,38.1774394 38.5208204,38.3405842 38.1836544,38.3405842 L37.9117464,38.3405842 C37.5637042,38.3405842 37.4005594,38.1665631 37.4005594,37.8293971 C37.4005594,37.5792418 37.6615911,37.3182101 38.1836544,37.0463021 Z M39.2169049,34.7187694 L39.728092,34.7187694 C40.0870106,34.7622747 40.2610317,34.9362958 40.2610317,35.2299565 C40.0870106,35.5562461 39.9891237,35.8172778 39.9891237,36.0130516 L39.4779366,36.0130516 C39.1298943,36.0130516 38.9667495,35.8281541 38.9667495,35.4801119 C39.1298943,35.1538222 39.2169049,34.8927906 39.2169049,34.7187694 Z M39.728092,23.0484773 C40.4241765,23.2877564 40.7830951,23.5487881 40.7830951,23.8098198 L40.7830951,24.3427595 C40.7830951,24.6908017 40.609074,24.8539466 40.271908,24.8539466 C39.5758235,24.5929149 39.2169049,24.3318832 39.2169049,24.0708515 L39.2169049,23.5596644 C39.2821628,23.2224984 39.456184,23.0484773 39.728092,23.0484773 Z M40.271908,45.3340584 L40.5220634,45.8452455 L40.5220634,46.1171535 C40.5220634,46.4651958 40.3480423,46.6283406 40.0108763,46.6283406 L39.7389683,46.6283406 C39.4018024,46.6283406 39.2277812,46.4543195 39.2277812,46.1171535 L39.2277812,45.6059664 L40.271908,45.3340584 Z M42.5885643,43.7896209 L42.8604723,44.300808 L42.8604723,44.540087 C42.8604723,44.8990056 42.6864512,45.0730267 42.3275326,45.0730267 L41.8163456,45.0730267 C41.4683033,45.0730267 41.3051585,44.8990056 41.3051585,44.540087 C41.2942822,44.1594158 41.729335,43.9092604 42.5885643,43.7896209 Z M42.0773773,24.5929149 C42.7625855,24.8539466 43.0997514,25.1149782 43.0997514,25.3760099 C43.0997514,25.7240522 42.9257303,25.887197 42.5885643,25.887197 C41.9033561,25.6261653 41.5661902,25.3651336 41.5661902,25.1041019 C41.6096955,24.7560597 41.7837166,24.5929149 42.0773773,24.5929149 Z M44.4049099,29.7700435 L44.6768179,29.7700435 C44.6768179,30.1072094 45.1118707,30.9773151 45.9711001,32.3586078 L45.9711001,32.6305158 C44.9269733,32.6305158 44.4049099,33.6637663 44.4049099,35.7411436 L44.1656308,35.7411436 L43.6326911,35.4692356 L43.9045991,34.9580485 L43.9045991,33.1525792 C43.9045991,32.8154133 43.5674332,32.6413922 42.882225,32.6413922 C42.8604723,31.8256681 43.3716594,30.8685519 44.4049099,29.7700435 Z M44.4049099,41.962399 C44.7529521,42.0276569 44.916097,42.2016781 44.916097,42.4953387 C44.6768179,43.1805469 44.4157862,43.5177129 44.1547545,43.5177129 C43.7958359,43.5177129 43.6218148,43.3436917 43.6218148,43.0065258 L43.6218148,42.7346178 C43.6218148,42.4953387 43.8828465,42.234307 44.4049099,41.962399 Z M44.6768179,25.887197 C45.0031075,26.0720945 45.2641392,26.159105 45.459913,26.159105 L45.459913,26.6702921 C45.459913,27.0183344 45.2858919,27.1814792 44.9269733,27.1814792 C44.6006837,27.0183344 44.3505283,26.9422001 44.1656308,26.9422001 L44.1656308,26.4092604 C44.2091361,26.0612181 44.3831572,25.887197 44.6768179,25.887197 Z M45.9711001,40.1460534 L46.7541952,40.1460534 L46.7541952,40.6572405 C46.7541952,40.9182722 46.4931635,41.1793039 45.9711001,41.4403356 C45.6339341,41.4403356 45.459913,41.2663145 45.459913,40.9291485 L45.459913,40.6572405 C45.5034183,40.3200746 45.6774394,40.1460534 45.9711001,40.1460534 Z M47.2653822,26.9313238 L47.5155376,26.9313238 C47.8744562,26.9857054 48.0484773,27.1488502 48.0484773,27.4425109 L48.0484773,27.9536979 L47.2653822,27.9536979 C46.9282163,27.9536979 46.7541952,27.7796768 46.7541952,27.4425109 C46.7977004,27.1053449 46.9717216,26.9313238 47.2653822,26.9313238 Z M47.5155376,37.8185208 L48.2986327,37.8185208 L48.2986327,38.3297079 C48.2986327,38.5689869 48.037601,38.8300186 47.5155376,39.112803 C47.1674953,39.112803 47.0043505,38.9387819 47.0043505,38.6016159 L47.0043505,38.3297079 C47.0587321,37.992542 47.2327533,37.8185208 47.5155376,37.8185208 Z M49.0708515,35.2299565 C49.4080174,35.2734618 49.5820385,35.4474829 49.5820385,35.7411436 C49.3210068,36.4263518 49.0599751,36.7635177 48.7989434,36.7635177 C48.4509012,36.7635177 48.2877564,36.5894966 48.2877564,36.2523306 L48.2877564,36.0130516 C48.2877564,35.7520199 48.5487881,35.4909882 49.0708515,35.2299565 Z M49.8539466,27.6926663 L50.1041019,27.6926663 C50.3651336,27.6926663 50.6261653,27.9536979 50.887197,28.4757613 L50.3760099,28.7476694 L49.8648229,28.7476694 C49.5276569,28.7476694 49.3536358,28.5736482 49.3536358,28.2364823 C49.3971411,27.8775637 49.5602859,27.6926663 49.8539466,27.6926663 Z M52.4533872,27.9645743 L52.9645743,27.9645743 C53.3017402,28.0189559 53.4757613,28.1821007 53.4757613,28.4757613 L53.4757613,28.7476694 C53.4757613,29.0848353 53.3017402,29.2588564 52.9645743,29.2588564 C52.649161,29.0848353 52.311995,28.9869484 51.9422001,28.9869484 L51.9422001,28.4757613 C51.9857054,28.1385954 52.1597265,27.9645743 52.4533872,27.9645743 Z M55.2921069,27.9645743 L55.8250466,27.9645743 C56.1730889,28.0189559 56.3362337,28.1821007 56.3362337,28.4757613 C56.3362337,28.769422 55.9011809,29.0304537 55.0419515,29.2588564 L54.7700435,28.7476694 L54.7700435,28.4757613 C54.8461778,28.1385954 55.0093226,27.9645743 55.2921069,27.9645743 Z M58.1525792,27.6926663 L58.4244873,27.6926663 C58.7725295,27.7579242 58.9356743,27.9428216 58.9356743,28.225606 C58.9356743,28.5736482 58.7616532,28.736793 58.4244873,28.736793 L57.8915475,28.736793 C57.5543816,28.736793 57.3803605,28.5627719 57.3803605,28.225606 L58.1525792,27.6926663 Z" id="Shape" fill="#212121" fill-rule="nonzero"></path>
    </g>
</svg>